<svg width="100" height="100" viewBox="0 0 100 100" fill="none" xmlns="http://www.w3.org/2000/svg">
<path fill-rule="evenodd" clip-rule="evenodd" d="M41.2589 10.1259C40.043 10.4587 39.2685 11.2166 38.8507 12.4826C38.5162 13.4963 38.4344 13.5417 36.948 13.5417C34.9353 13.5417 33.6063 14.1172 32.3713 15.5239C31.0259 17.056 30.7172 18.3822 30.7153 22.6406L30.7134 26.2542L28.649 28.2825C27.5137 29.398 25.9599 31.178 25.1963 32.2378C23.6858 34.3344 21.1171 39.503 20.8014 41.0802C20.6779 41.698 20.4149 42.0654 20.0952 42.0666C19.815 42.0675 19.0483 42.2174 18.3916 42.3998C17.345 42.6904 17.2092 42.8358 17.2945 43.5736C17.3901 44.403 17.4337 44.418 20.2128 44.5857C23.3554 44.7754 24.4284 45.2041 26.2031 46.9788C29.4985 50.2737 29.3731 55.5853 25.8593 61.5698C23.4573 65.6605 21.7706 66.871 19.4147 66.1955C18.1101 65.8213 17.4403 65.2025 15.9141 62.9611C11.8812 57.0393 11.1602 51.4845 13.95 47.8273C14.8383 46.6626 14.922 46.0642 14.2722 45.5251C13.6074 44.9731 12.8002 45.3646 11.8655 46.6923C10.0102 49.3284 9.50457 53.1298 10.5026 56.9399C11.1389 59.3685 13.5199 63.8623 15.4194 66.2193C16.7124 67.8241 16.9215 68.2789 16.9215 69.4882C16.9215 70.7025 16.7673 71.0341 15.784 71.9352C14.8336 72.8059 14.6245 73.2319 14.5129 74.5252C14.4126 75.6855 14.5311 76.3146 14.9862 77.0383C15.9849 78.6256 18.243 79.4158 19.8993 78.7572C20.2441 78.6203 20.8773 78.6397 21.3067 78.8002C23.152 79.4907 25.7396 78.0482 26.3006 76.0162C26.7379 74.4327 26.3922 73.1833 25.1816 71.9728C24.2456 71.0366 24.1309 70.7347 24.1309 69.2061C24.1309 68.2623 24.2478 67.4179 24.3911 67.3295C24.534 67.2411 25.1763 67.8577 25.8185 68.6996C27.3695 70.7332 30.9429 74.0785 33.0791 75.4968C34.2244 76.2575 34.8582 76.9123 34.9723 77.4536C35.7575 81.1726 37.5627 84.3462 40.3678 86.9383C43.1691 89.527 44.6564 90 49.9908 90C55.4687 90 56.8382 89.5411 59.857 86.6935C62.2117 84.4722 63.8564 81.7214 64.7491 78.5105C65.25 76.7086 65.4158 76.4845 67.0436 75.4072C68.0084 74.7687 69.7245 73.3538 70.8573 72.2634L72.9167 70.2806L74.462 70.8899C75.3118 71.225 76.3954 71.5788 76.8694 71.6763C77.6301 71.8327 77.7314 71.9954 77.7314 73.063C77.7314 74.5374 78.3429 75.174 79.2786 74.6731C79.7635 74.4136 79.9255 74.019 79.9255 73.0962C79.9255 71.9145 79.9782 71.8515 81.2524 71.5083C84.5866 70.6106 87.3932 68.415 88.9266 65.505C89.7288 63.9826 89.799 63.5704 89.7958 60.4009C89.793 57.2725 89.7021 56.7296 88.8172 54.5406C87.5076 51.3012 84.7232 47.1942 81.8699 44.292C80.0368 42.428 79.3748 41.4977 78.836 40.0274C77.1345 35.3853 74.6818 31.577 71.1714 28.1264L69.2681 26.2558L69.2663 22.6412C69.2644 18.3822 68.9559 17.0563 67.6103 15.5239C66.379 14.1216 65.0469 13.5417 63.0567 13.5417C61.5697 13.5417 61.5136 13.5076 61.0469 12.3199C60.4673 10.8439 59.3238 10.0312 57.8271 10.0312C56.3304 10.0312 55.1869 10.8439 54.6073 12.3199L54.1274 13.5417H49.9676H45.8077L45.4582 12.4826C44.8473 10.6311 43.0653 9.63124 41.2589 10.1259ZM43.187 14.535C43.27 16.4222 43.2155 16.6454 42.6234 16.8331C41.5319 17.1795 41.0574 16.4714 41.0574 14.4958C41.0574 12.4566 41.1928 12.2228 42.2996 12.3519C43.0512 12.4397 43.0998 12.5588 43.187 14.535ZM58.8596 14.535C58.9399 16.3602 58.8759 16.6492 58.3553 16.8143C57.0936 17.2149 56.73 16.7322 56.73 14.6576C56.73 12.4519 56.8541 12.2215 57.9722 12.3519C58.7239 12.4397 58.7725 12.5588 58.8596 14.535ZM38.8616 16.8278C39.3635 18.3483 40.5311 19.1836 42.1545 19.1836C43.7778 19.1836 44.9454 18.3483 45.4473 16.8278L45.8077 15.7358H49.9908H54.1738L54.5343 16.8278C55.0361 18.3483 56.2037 19.1836 57.8271 19.1836C59.4505 19.1836 60.6181 18.3483 61.1199 16.8278C61.4512 15.8245 61.5816 15.7358 62.7254 15.7358C63.4103 15.7358 64.3783 15.9464 64.8763 16.2041C66.4013 16.9927 66.7605 17.8133 66.7605 20.5073V22.9449H58.313C50.6415 22.9449 49.8375 22.9944 49.5626 23.4853C49.3708 23.8282 49.3692 24.2294 49.5582 24.5823C49.8322 25.0945 50.5324 25.139 58.3083 25.139H66.7605V34.6842C66.7605 40.8796 66.6411 44.4914 66.4204 44.976C65.6051 46.7654 65.5951 46.7663 49.9908 46.7663C34.3865 46.7663 34.3764 46.7654 33.5611 44.976C33.3405 44.4914 33.221 40.8815 33.221 34.6907V25.1518L39.5685 25.0672L45.9159 24.9823V24.0419V23.1016L39.5685 23.0167L33.221 22.9321V20.5672C33.221 19.2664 33.3712 17.9217 33.5546 17.5791C34.0852 16.5871 35.7625 15.7383 37.1931 15.737C38.4093 15.7358 38.5266 15.8126 38.8616 16.8278ZM55.006 28.7191C54.4888 28.9507 52.7796 30.4261 51.2079 31.998C49.6359 33.5696 48.2148 34.8556 48.0496 34.8556C47.8844 34.8556 47.4073 34.4895 46.9892 34.0422C45.4159 32.3584 43.4468 31.9068 41.6739 32.8236C40.5019 33.4295 39.8036 34.7813 39.8036 36.4432C39.8036 37.6459 39.9916 37.9417 42.1908 40.2016C43.5039 41.551 45.0417 42.8747 45.6078 43.1433C46.9161 43.7642 48.9012 43.768 50.3735 43.153C51.6295 42.6283 59.0145 35.538 59.7341 34.166C60.8228 32.0901 59.9354 29.6042 57.7845 28.7056C56.525 28.1793 56.2078 28.1809 55.006 28.7191ZM29.527 34.3341C27.7782 36.6523 26.9802 38.064 25.9815 40.6082C25.1747 42.6631 25.0318 42.843 24.2528 42.7825C22.9448 42.6809 22.8222 42.3217 23.462 40.4634C24.5788 37.2171 26.5508 33.9426 29.1882 30.9542L30.5567 29.4036L30.6523 31.0595C30.7394 32.5681 30.6394 32.8596 29.527 34.3341ZM74.2464 35.727C75.1125 37.1801 76.1252 39.2823 76.497 40.3991L77.1725 42.4296L76.2995 43.3407C75.819 43.8422 75.3682 44.1942 75.2974 44.1237C75.2269 44.0529 74.7783 42.8671 74.3009 41.4886C73.3333 38.694 72.2804 36.7294 70.4796 34.3566C69.4114 32.9493 69.2697 32.5597 69.2826 31.0655L69.297 29.3704L70.9843 31.2279C71.9124 32.2497 73.3803 34.2742 74.2464 35.727ZM57.8105 31.8193C58.1061 32.665 57.9453 32.8731 53.898 36.8883C49.6303 41.1216 48.7379 41.7027 47.1246 41.2977C46.0698 41.0332 42.3538 37.4854 42.1087 36.509C41.8977 35.6684 42.7243 34.5422 43.5525 34.5422C43.8368 34.5422 44.626 35.054 45.3062 35.6796C47.0669 37.2992 47.8417 37.7543 48.4893 37.5487C48.8009 37.45 50.5356 35.8815 52.3445 34.0636C55.2185 31.1749 55.7508 30.7696 56.5676 30.848C57.271 30.9154 57.5785 31.1558 57.8105 31.8193ZM31.5278 45.9827C31.8864 46.6723 32.7788 47.6596 33.5107 48.1768L34.8416 49.1171L49.2341 49.2074C64.4682 49.303 65.3888 49.2331 67.0222 47.8587C68.6798 46.4642 69.0904 45.1455 69.2656 40.6542L69.4249 36.5795L70.7715 39.1626C71.5118 40.5831 72.4039 42.8768 72.7537 44.2597L73.3897 46.7742L72.4669 47.9455C70.8084 50.0515 69.5336 52.3763 69.6374 53.1066C69.7095 53.6144 69.9806 53.8466 70.5824 53.9162C71.2673 53.9952 71.5272 53.8178 71.9598 52.9759C73.4584 50.0606 77.9417 44.5722 78.8247 44.5722C79.6716 44.5722 84.0537 50.0816 85.5649 53.0461C88.7082 59.2136 88.38 64.0118 84.5928 67.2534C83.4973 68.1912 81.0753 69.334 80.1832 69.334C80.0415 69.334 79.9255 68.6529 79.9255 67.8204C79.9255 65.8758 81.2348 63.8206 83.5754 62.0916C85.4019 60.7423 85.457 60.6414 84.8329 59.7879C84.2405 58.9779 83.1729 59.3199 81.3884 60.8905L79.9255 62.1782V60.4972C79.9255 58.6529 80.2471 58.0116 82.1959 55.9705C82.9491 55.1816 83.3898 54.4456 83.3224 54.0898C83.1638 53.2542 81.7918 53.1799 80.9527 53.9616C80.5747 54.3139 80.1888 54.6023 80.0954 54.6023C80.002 54.6023 79.9255 53.4912 79.9255 52.133C79.9255 49.4613 79.5538 48.7379 78.3733 49.1124C77.7931 49.2964 77.7314 49.5707 77.7314 51.9591C77.7314 53.4128 77.6122 54.6023 77.4665 54.6023C77.3207 54.6023 76.9462 54.3202 76.6343 53.9754C75.5309 52.7562 73.5361 53.5197 74.2655 54.8822C74.452 55.2308 74.7927 55.6276 75.0228 55.7642C75.2529 55.9009 75.9566 56.6936 76.5863 57.5258C77.5035 58.7375 77.7314 59.3143 77.7314 60.4251C77.7314 61.1874 77.6226 61.8114 77.4894 61.8114C77.3562 61.8114 76.7568 61.4099 76.1572 60.9191C74.605 59.6487 73.7235 59.2403 73.0177 59.4644C71.9992 59.7875 72.2409 61.0335 73.4693 61.7926C74.7416 62.5787 76.5653 64.5402 77.2433 65.852C77.9392 67.1973 77.9019 69.3349 77.1828 69.3308C76.1685 69.3252 73.4458 67.8486 72.256 66.6591C70.4527 64.8556 69.9101 63.3677 69.9019 60.2041C69.8944 57.2327 69.5255 56.4688 68.3908 57.076C67.3623 57.6264 67.0727 60.9792 67.8344 63.5103L68.2814 64.9957L66.3966 66.8512C65.3597 67.8721 64.409 68.7071 64.2833 68.7071C64.1576 68.7071 63.7564 68.1761 63.3915 67.5267C62.4555 65.8617 60.6432 64.1371 58.9555 63.3056C57.7679 62.7207 57.0065 62.5972 54.6396 62.6054C51.4521 62.617 51.4969 62.6749 53.0131 60.5094C53.7262 59.4904 53.7695 58.184 53.0984 57.9263C52.4442 57.6756 51.8013 58.0596 51.1095 59.1143L50.5456 59.9737L49.7127 58.5523C48.7335 56.8813 47.3365 55.7395 45.4633 55.0787C43.9336 54.539 41.3006 54.45 40.4427 54.9092C39.1024 55.6266 38.8002 58.8764 39.8079 61.7409C40.4085 63.4485 40.4123 63.5545 39.8863 63.9278C38.7353 64.7446 37.0455 66.5795 36.4835 67.6229C36.1622 68.2194 35.7954 68.7071 35.6682 68.7071C35.1547 68.7071 31.1146 64.2785 30.1276 62.6336L29.0712 60.8739L29.9709 58.1298C31.6362 53.0486 31.0595 48.967 28.218 45.731C26.9297 44.2638 27.0329 43.516 29.081 39.4845L30.5567 36.5795L30.7162 40.6542C30.8454 43.9595 30.9987 44.9656 31.5278 45.9827ZM45.7194 57.7521C47.1108 58.5341 48.2307 60.0919 48.4724 61.5823L48.6517 62.6865L45.7297 62.5862C43.4305 62.5073 42.7253 62.3731 42.4212 61.9575C41.8607 61.1908 41.3357 58.4564 41.5699 57.5233C41.7576 56.7751 41.8617 56.7356 43.171 56.9149C43.9414 57.0205 45.0881 57.3973 45.7194 57.7521ZM29.1703 65.3003C29.9326 66.3572 31.5974 68.1739 32.8694 69.3371C35.1713 71.4425 35.1808 71.4575 34.9055 72.6216L34.6288 73.7911L32.6869 72.3317C30.6322 70.7871 28.3111 68.373 27.0357 66.4538C26.2781 65.3141 26.2752 65.2837 26.8338 64.3381C27.1457 63.8102 27.4867 63.3786 27.5921 63.3786C27.6974 63.3786 28.4077 64.2434 29.1703 65.3003ZM47.5747 65.1364C49.6231 65.5639 50.2293 65.5796 51.558 65.2398C53.9356 64.6314 56.6824 64.749 58.201 65.5238C61.7873 67.353 63.7893 72.973 62.5618 77.7646C61.5099 81.87 58.9126 85.3087 55.6909 86.8612C53.8124 87.7664 53.6259 87.7934 49.6773 87.7247C45.8247 87.658 45.5109 87.6037 43.9261 86.7336C40.7721 85.0019 38.0366 81.0384 37.2461 77.0552C36.8069 74.8417 37.2621 71.2438 38.2181 69.3697C39.7286 66.409 41.5018 65.1633 44.9103 64.6684C45.047 64.6487 46.246 64.8593 47.5747 65.1364ZM70.1326 69.891C69.5709 70.4752 68.2657 71.5917 67.2319 72.3721L65.3528 73.7911L65.0766 72.6232C64.8017 71.4616 64.813 71.4434 67.1125 69.3274L69.4249 67.1995L70.2894 68.0141L71.1535 68.829L70.1326 69.891ZM21.6929 70.483C21.8245 72.0716 21.9612 72.3559 22.9856 73.1777C24.1362 74.1005 24.4099 74.9897 23.8275 75.9109C23.6046 76.2629 22.8047 76.3867 20.5237 76.4221C17.6916 76.466 17.4857 76.4255 17.035 75.7375C16.4074 74.78 16.698 73.9669 18.0308 72.9504C19.0345 72.185 19.1157 71.9951 19.1157 70.415V68.7071H20.3306H21.5456L21.6929 70.483Z" fill="#557DB0"/>
</svg>
