<svg width="100" height="100" viewBox="0 0 100 100" fill="none" xmlns="http://www.w3.org/2000/svg">
<path fill-rule="evenodd" clip-rule="evenodd" d="M43.2708 50.5541C43.2854 50.5453 43.3 50.5365 43.3144 50.5278C43.3 50.5365 43.2856 50.5452 43.271 50.554L43.2708 50.5541ZM61.9165 58.3931C61.9655 58.3931 62.0155 58.3931 62.0664 58.3931ZM56.7006 48.9567C56.6893 48.9638 56.678 48.9708 56.6668 48.9778C56.6775 48.9711 56.6883 48.9644 56.6991 48.9577L56.7006 48.9567ZM35.7308 42.7482L35.7308 42.7482L35.7396 42.7455C37.0157 42.3511 37.8788 42.2809 39.0544 42.6048C40.3538 42.9629 42.0553 43.8088 44.9425 45.4663L44.9449 45.4676C46.066 46.1082 47.1037 46.6907 47.8775 47.1146C48.2631 47.3259 48.5904 47.5017 48.8322 47.6266C48.9512 47.6881 49.062 47.7437 49.1537 47.7864C49.1976 47.8069 49.255 47.8328 49.3155 47.8565C49.3446 47.8679 49.3937 47.8864 49.4533 47.904L49.4566 47.905C49.4894 47.9149 49.655 47.9646 49.8659 47.9646C50.0305 47.9646 50.1572 47.9349 50.1961 47.9256C50.2522 47.9122 50.297 47.8979 50.3231 47.8892C50.3759 47.8715 50.4194 47.8537 50.4436 47.8436C50.4952 47.822 50.5462 47.7981 50.5869 47.7786C50.6724 47.7375 50.7798 47.6831 50.8998 47.6208C51.143 47.4947 51.4769 47.3161 51.8742 47.0998C52.6705 46.6664 53.7417 46.0705 54.8916 45.4153C56.0113 44.7774 57.2024 44.1461 58.2156 43.6476C59.274 43.1269 60.02 42.8107 60.3083 42.732L60.322 42.7283L60.3355 42.7243C63.4968 41.7933 67.1027 43.4507 68.6686 46.7641L68.6728 46.7729L68.6771 46.7817C68.972 47.384 69.1115 47.7613 69.1907 48.1268C69.2718 48.5014 69.3052 48.9346 69.3052 49.6746C69.3052 52.7115 68.0313 54.8631 65.4652 56.259C64.6734 56.6885 64.3731 56.8211 64.0471 56.8931C63.6831 56.9735 63.2204 56.9931 62.0664 56.9931C60.702 56.9931 60.2974 56.9882 59.5286 56.6768C58.6033 56.302 57.2837 55.5223 54.3034 53.7612C53.3629 53.1969 52.4718 52.6838 51.7899 52.3087C51.4502 52.1219 51.1515 51.9633 50.9199 51.8484C50.8062 51.7921 50.6918 51.7378 50.5888 51.6945C50.5386 51.6734 50.4714 51.6465 50.3973 51.6225L50.393 51.6211C50.3532 51.608 50.1591 51.544 49.919 51.544C49.6698 51.544 49.4676 51.6142 49.4378 51.6245L49.4348 51.6256C49.3655 51.6487 49.303 51.6742 49.2576 51.6936C49.1638 51.7336 49.0594 51.7834 48.9561 51.8347C48.7453 51.9394 48.4722 52.0838 48.1612 52.2537C47.5364 52.5952 46.7182 53.0618 45.8566 53.5734C42.8941 55.324 41.4306 56.1616 40.3925 56.5851C39.4861 56.955 38.9562 56.9931 37.745 56.9931C36.7763 56.9931 36.2813 56.9638 35.8948 56.887C35.541 56.8167 35.2197 56.6948 34.6233 56.3966L34.6233 56.3966L34.6128 56.3914C31.3536 54.7956 29.6895 51.0967 30.6893 47.675L30.6912 47.6687C31.3213 45.4742 33.3347 43.4716 35.7308 42.7482ZM41.2276 46.2777L41.2276 46.2777L41.2231 46.2751C40.0839 45.6335 39.1345 45.157 38.2301 45.0046C37.1913 44.8297 36.3675 45.0981 35.5606 45.4936L35.5606 45.4936L35.5547 45.4965C33.1699 46.6793 32.5697 49.168 33.1371 51.1356C33.7047 53.1044 35.5443 54.8803 38.1929 54.5182C38.4955 54.4795 38.8205 54.3624 39.047 54.2753C39.3219 54.1696 39.6398 54.0317 39.9744 53.8776C40.6461 53.5683 41.4406 53.1682 42.1986 52.7637C42.9549 52.3601 43.6969 51.9404 44.26 51.5902C44.537 51.4179 44.7987 51.2451 45.0033 51.0888C45.101 51.0141 45.2246 50.9139 45.337 50.7971C45.392 50.7401 45.4778 50.6448 45.5582 50.5175C45.62 50.4196 45.7902 50.1329 45.7902 49.7277C45.7902 49.2346 45.5345 48.904 45.4867 48.8422L45.4832 48.8376C45.3968 48.7249 45.3085 48.6415 45.2558 48.5943C45.1443 48.4942 45.0222 48.4059 44.9223 48.3379C44.7127 48.1952 44.4534 48.0426 44.1947 47.9057L44.1803 47.898L44.1658 47.8908C43.7247 47.6702 42.3989 46.9432 41.2276 46.2777ZM63.902 45.3764L63.902 45.3763L63.8889 45.3711C62.7664 44.9221 61.7917 44.7765 60.6782 45.1619L60.6782 45.1619L60.6702 45.1647C60.3197 45.2884 59.7562 45.58 59.215 45.8736C58.6316 46.1901 57.9477 46.5797 57.2965 46.9626C56.6464 47.345 56.0167 47.7279 55.5435 48.0313C55.31 48.1811 55.0973 48.3225 54.9352 48.44C54.8584 48.4957 54.7644 48.5665 54.6786 48.6424C54.6395 48.6771 54.5656 48.7446 54.4904 48.8353C54.4532 48.8801 54.3887 48.9625 54.3273 49.0756C54.2775 49.1673 54.1542 49.4134 54.1542 49.7543C54.1542 50.0564 54.2509 50.2803 54.2979 50.3772C54.3525 50.4897 54.4112 50.5737 54.4476 50.6222C54.5204 50.7192 54.5932 50.7922 54.6339 50.8317C54.7217 50.9165 54.8183 50.9952 54.8984 51.0576C55.0668 51.189 55.2877 51.3455 55.5343 51.5122C56.0327 51.8492 56.7068 52.2753 57.442 52.7111C58.5542 53.3783 59.3462 53.8282 60.0388 54.0945C60.8087 54.3906 61.4228 54.4495 62.1315 54.4503C62.7313 54.4625 63.3936 54.4717 64.0169 54.2159C64.6557 53.9536 65.1096 53.4727 65.5048 53.0529L65.5138 53.0433L65.5227 53.0335C65.9244 52.5903 66.3019 52.1318 66.5305 51.5455C66.7607 50.9553 66.789 50.3669 66.789 49.7809C66.789 48.8175 66.5762 47.8996 66.0625 47.1062C65.5458 46.308 64.7943 45.7438 63.902 45.3764Z" fill="#557DB0"/>
<path d="M42.4866 10.4636C37.7829 11.4738 31.9743 13.9046 28.1861 16.4301C24.7135 18.7346 24.4925 18.7977 18.0841 18.7977H12.4018L11.4231 19.6817C10.5708 20.4393 10.4129 20.8181 10.1288 23.2173C9.75 26.4373 10.2551 34.4242 11.0127 37.1707C11.5178 38.8754 11.4863 39.1911 10.9496 41.906C10.5076 44.0842 10.3498 46.1677 10.3498 49.8928C10.3814 55.512 10.7918 58.1007 12.5596 63.4673C13.4751 66.3085 13.6014 67.1293 13.7908 71.6751C14.0433 77.5469 14.2643 78.6518 15.5271 79.8514C17.2002 81.4614 20.4202 81.5561 22.0618 80.0093C22.7247 79.4095 22.8825 79.3779 23.3876 79.7567C23.7033 80.0093 25.187 81.1142 26.6392 82.2191C34.2472 87.9961 44.1282 90.7426 53.8829 89.8271C61.9645 89.0694 69.6041 86.102 75.2864 81.493C77.0227 80.104 77.3068 80.0093 77.875 80.3565C80.5584 82.0296 84.5676 80.7038 85.2937 77.8942C85.4831 77.2628 85.7356 74.8636 85.8935 72.6222C86.146 68.9287 86.3039 68.2342 87.3141 65.9612C90.7866 58.0375 91.5758 49.1352 89.5554 40.3907C89.0503 38.2124 89.0503 38.1177 89.7448 36.2868C92.0809 30.0677 89.6501 22.1124 84.6307 19.6185C82.8629 18.7346 79.8639 18.5136 77.875 19.0819C76.9596 19.3344 76.6439 19.2081 74.3394 17.535C69.2884 13.9362 62.3433 11.0003 57.1345 10.3058C53.6935 9.83226 44.8859 9.92697 42.4866 10.4636ZM57.9553 12.6419C61.2068 13.3048 65.4054 14.7885 67.8994 16.146C70.8037 17.7244 74.3078 20.0921 74.4972 20.5972C74.5919 20.8497 74.3709 21.4495 73.9921 21.8915C73.045 23.0911 71.9401 25.3009 71.3088 27.2266C70.9931 28.1421 70.6774 28.8997 70.5827 28.8997C70.488 28.8997 69.3831 28.1421 68.1519 27.195C65.658 25.3009 61.9645 23.3752 58.6498 22.2387C56.6294 21.5442 55.9349 21.4811 50.4419 21.4811C43.7178 21.4811 42.4866 21.7336 37.6566 24.196C34.4682 25.806 33.0161 26.8162 30.0486 29.4995L27.5547 31.7724V29.3101C27.5547 27.9526 27.46 25.2693 27.3337 23.3436L27.1443 19.8079L28.6912 18.6715C32.3531 15.9881 38.8563 13.3679 44.4439 12.3262C47.5692 11.7579 54.4196 11.9158 57.9553 12.6419ZM14.6116 21.1654C14.8641 21.4495 15.0535 23.2805 15.1798 26.2164C15.3061 30.3203 15.4008 30.7938 15.9059 30.7938C16.19 30.7938 16.6635 30.8885 16.9476 30.9832C17.3896 31.1411 17.4527 30.636 17.4527 26.4689C17.4527 22.0809 17.5159 21.7021 18.1157 21.1338C19.631 19.7764 20.1992 21.5442 20.2623 27.5422C20.2939 30.5413 20.3571 30.7938 20.8937 30.7938C21.241 30.7938 21.7145 30.8885 21.9986 30.9832C22.4406 31.1411 22.5037 30.636 22.5037 26.4373C22.5037 22.5228 22.5984 21.6073 23.0088 21.197C23.2614 20.9128 23.6718 20.6919 23.8927 20.6919C24.9661 20.6919 25.0923 21.5126 24.9661 28.9628C24.8714 37.2338 24.8082 37.4232 22.2196 40.2013C20.9253 41.6218 20.2939 43.4528 20.2939 45.9152C20.2939 46.5781 20.1992 47.9987 20.1045 49.072L19.8835 50.9977H18.7155H17.5474L17.3265 46.9885C17.0739 42.5689 16.7582 41.4956 15.2429 40.1066C12.9384 37.9599 12.4018 35.4975 12.4018 27.1003C12.4018 21.9546 12.4649 21.3232 12.97 21.0391C13.7276 20.5972 14.1696 20.6287 14.6116 21.1654ZM82.8945 21.197C84.7886 21.8283 86.9668 24.196 87.756 26.4689C88.1348 27.6054 88.3243 29.026 88.3243 31.1095C88.3243 33.7297 88.198 34.3611 87.4719 35.9395C86.9984 36.9497 85.8303 38.5597 84.8833 39.5699C83.9362 40.5801 83.0207 41.7481 82.8629 42.1585C82.705 42.6005 82.4525 44.7787 82.3262 46.9885L82.1052 50.9977H80.9056H79.7376L79.5166 49.3246C79.4219 48.4407 79.3272 46.9569 79.3272 46.073C79.3272 43.3265 78.5696 41.5271 76.6754 39.5699C73.8343 36.6971 73.487 35.7501 73.487 31.1095C73.487 27.7632 73.5817 26.9424 74.1499 25.7428C75.097 23.6909 76.2966 22.4281 78.1276 21.5126C80.0217 20.5656 80.8741 20.5024 82.8945 21.197ZM57.6396 24.2907C61.3015 25.364 64.2058 26.8793 67.0786 29.1522C69.8882 31.3936 70.6458 32.4038 71.3403 34.6452C72.098 37.2654 72.9503 38.6544 75.0339 40.8326L76.9596 42.853L77.0858 46.7991C77.1805 50.1454 77.1174 50.8083 76.6439 51.3134C76.265 51.7554 76.0441 52.8287 75.8862 55.4805C75.6337 58.7636 75.539 59.2371 74.3709 61.5732C71.0878 68.0448 65.7527 72.6853 58.6498 75.2424C56.7557 75.9053 55.7455 76.0632 51.5468 76.1579C45.3594 76.3473 43.118 75.9053 38.6353 73.6955C35.8572 72.3381 34.8786 71.612 32.3847 69.2128C29.0068 65.9297 27.0496 63.1832 25.6921 59.8054C22.8194 52.6393 23.2929 44.5262 26.9865 37.2654C28.0598 35.2134 28.9753 34.0769 31.7849 31.2673C36.2676 26.7846 39.3614 25.1115 45.5804 23.6909C48.6425 22.9964 54.1355 23.2805 57.6396 24.2907ZM87.8507 42.5373C88.419 45.1891 88.5768 50.8714 88.198 54.1546C87.8192 57.2799 86.7143 62.0152 86.3039 62.4571C86.146 62.5834 85.9566 60.4052 85.8303 57.564C85.6725 53.9336 85.4831 52.1973 85.1358 51.7238C84.8201 51.1871 84.6939 49.9244 84.6939 46.8307V42.632L85.7041 41.7797C86.2723 41.3062 86.9037 40.8958 87.1246 40.8958C87.3141 40.8958 87.6613 41.6534 87.8507 42.5373ZM14.8641 46.7675C14.9588 50.4926 14.8957 51.124 14.4222 51.6607C14.0118 52.1026 13.8539 53.0497 13.7276 55.4805C13.5698 58.732 13.5382 58.732 13.1594 57.3746C12.2755 54.4071 12.3386 44.0526 13.2225 41.685C13.412 41.2115 13.5067 41.2115 14.1065 41.8113C14.7063 42.4111 14.7694 42.9162 14.8641 46.7675ZM83.4311 65.0142C83.4311 72.3065 83.3048 76.8208 83.0839 77.4522C82.5156 79.0938 80.148 79.5673 78.8852 78.273C78.4433 77.8626 78.3801 76.2526 78.3801 65.5824V53.3654L80.9056 53.4601L83.4311 53.5863V65.0142ZM21.241 65.6455V77.7995L20.4202 78.4308C19.2837 79.3147 18.3367 79.2516 17.1686 78.273L16.19 77.4522V65.4877V53.5232H18.7155H21.241V65.6455ZM25.5343 64.3197C29.2278 70.665 35.51 75.4949 42.897 77.7048C45.3594 78.4308 46.2433 78.5255 50.2841 78.5255C53.9145 78.5255 55.3666 78.3993 57.2607 77.8942C64.2374 76.0316 69.7935 72.3381 73.6449 66.9714C74.5919 65.6771 75.4758 64.6038 75.6337 64.5722C75.7599 64.5722 75.8547 67.6659 75.8547 71.4542V78.3361L73.6764 79.9777C59.4705 90.8057 39.8033 90.4269 26.0394 79.0622L23.7665 77.1997V69.9704C23.7665 63.7199 23.8612 62.3624 24.2716 62.3624C24.3347 62.3624 24.9029 63.2463 25.5343 64.3197Z" fill="#557DB0"/>
</svg>
