<svg width="100" height="100" viewBox="0 0 100 100" fill="none" xmlns="http://www.w3.org/2000/svg">
<mask id="mask0_18_469" style="mask-type:luminance" maskUnits="userSpaceOnUse" x="27" y="39" width="46" height="21">
<path d="M35.3264 41.408C32.5088 42.2585 30.1166 44.5976 29.3457 47.2823C28.1496 51.3757 30.1432 55.7616 33.9974 57.6488C35.2732 58.2867 35.8049 58.3931 37.7453 58.3931C40.297 58.3931 40.7223 58.2336 46.5701 54.7781C48.2712 53.768 49.7863 52.944 49.9192 52.944C50.0787 52.944 51.7267 53.8478 53.5874 54.9641C59.4352 58.4196 59.3554 58.3931 62.0666 58.3931C64.2994 58.3931 64.5652 58.3399 66.1335 57.4893C69.1637 55.8413 70.7054 53.2098 70.7054 49.6746C70.7054 48.1329 70.5725 47.4684 69.9346 46.1659C68.1005 42.2851 63.821 40.2384 59.9402 41.3814C59.063 41.6206 56.4847 42.8965 54.1987 44.1989C51.9128 45.5014 49.9458 46.5646 49.8661 46.5646C49.7598 46.5646 47.8725 45.528 45.6397 44.2521C39.8983 40.9561 38.2503 40.5042 35.3264 41.408ZM40.5362 47.4949C41.7058 48.1595 43.0614 48.9037 43.5399 49.143C43.9917 49.3822 44.3904 49.648 44.3904 49.7277C44.3904 50.0999 38.9148 53.0237 38.0111 53.1301C34.3695 53.6351 32.8544 48.3987 36.177 46.7507C37.5326 46.0862 38.2237 46.1925 40.5362 47.4949ZM63.3691 46.6709C64.7247 47.2291 65.3892 48.2658 65.3892 49.7809C65.3892 50.8973 65.2563 51.2428 64.4855 52.0934C63.6349 52.9972 63.4488 53.0769 62.1464 53.0503C60.9237 53.0503 60.4186 52.8643 58.1593 51.5086C56.7239 50.6581 55.5544 49.8606 55.5544 49.7543C55.5544 49.5682 60.2326 46.8038 61.1363 46.4849C61.8274 46.2457 62.4388 46.2988 63.3691 46.6709Z" fill="#557DB0" stroke="#FFFDFA" stroke-width="2.8"/>
</mask>
<g mask="url(#mask0_18_469)">
<path d="M35.3264 41.408C32.5088 42.2585 30.1166 44.5976 29.3457 47.2823C28.1496 51.3757 30.1432 55.7616 33.9974 57.6488C35.2732 58.2867 35.8049 58.3931 37.7453 58.3931C40.297 58.3931 40.7223 58.2336 46.5701 54.7781C48.2712 53.768 49.7863 52.944 49.9192 52.944C50.0787 52.944 51.7267 53.8478 53.5874 54.9641C59.4352 58.4196 59.3554 58.3931 62.0666 58.3931C64.2994 58.3931 64.5652 58.3399 66.1335 57.4893C69.1637 55.8413 70.7054 53.2098 70.7054 49.6746C70.7054 48.1329 70.5725 47.4684 69.9346 46.1659C68.1005 42.2851 63.821 40.2384 59.9402 41.3814C59.063 41.6206 56.4847 42.8965 54.1987 44.1989C51.9128 45.5014 49.9458 46.5646 49.8661 46.5646C49.7598 46.5646 47.8725 45.528 45.6397 44.2521C39.8983 40.9561 38.2503 40.5042 35.3264 41.408ZM40.5362 47.4949C41.7058 48.1595 43.0614 48.9037 43.5399 49.143C43.9917 49.3822 44.3904 49.648 44.3904 49.7277C44.3904 50.0999 38.9148 53.0237 38.0111 53.1301C34.3695 53.6351 32.8544 48.3987 36.177 46.7507C37.5326 46.0862 38.2237 46.1925 40.5362 47.4949ZM63.3691 46.6709C64.7247 47.2291 65.3892 48.2658 65.3892 49.7809C65.3892 50.8973 65.2563 51.2428 64.4855 52.0934C63.6349 52.9972 63.4488 53.0769 62.1464 53.0503C60.9237 53.0503 60.4186 52.8643 58.1593 51.5086C56.7239 50.6581 55.5544 49.8606 55.5544 49.7543C55.5544 49.5682 60.2326 46.8038 61.1363 46.4849C61.8274 46.2457 62.4388 46.2988 63.3691 46.6709Z" fill="#557DB0" stroke="#FFFDFA" stroke-width="2.8"/>
</g>
<path d="M42.4866 10.4636C37.7829 11.4738 31.9743 13.9046 28.1861 16.4301C24.7135 18.7346 24.4925 18.7977 18.0841 18.7977H12.4018L11.4231 19.6817C10.5708 20.4393 10.4129 20.8181 10.1288 23.2173C9.75001 26.4373 10.2551 34.4242 11.0127 37.1707C11.5178 38.8754 11.4863 39.1911 10.9496 41.906C10.5076 44.0842 10.3498 46.1677 10.3498 49.8928C10.3814 55.512 10.7918 58.1007 12.5596 63.4673C13.4751 66.3085 13.6014 67.1293 13.7908 71.6751C14.0433 77.5469 14.2643 78.6518 15.5271 79.8514C17.2002 81.4614 20.4202 81.5561 22.0618 80.0093C22.7247 79.4095 22.8825 79.3779 23.3876 79.7567C23.7033 80.0093 25.187 81.1142 26.6392 82.2191C34.2472 87.9961 44.1282 90.7426 53.8829 89.8271C61.9645 89.0694 69.6041 86.102 75.2864 81.493C77.0227 80.104 77.3068 80.0093 77.875 80.3565C80.5584 82.0296 84.5676 80.7038 85.2937 77.8942C85.4831 77.2628 85.7356 74.8636 85.8935 72.6222C86.146 68.9287 86.3039 68.2342 87.3141 65.9612C90.7866 58.0375 91.5758 49.1352 89.5554 40.3907C89.0503 38.2124 89.0503 38.1177 89.7448 36.2868C92.0809 30.0677 89.6501 22.1124 84.6307 19.6185C82.8629 18.7346 79.8639 18.5136 77.875 19.0819C76.9596 19.3344 76.6439 19.2081 74.3394 17.535C69.2884 13.9362 62.3433 11.0003 57.1345 10.3058C53.6935 9.83226 44.8859 9.92697 42.4866 10.4636ZM57.9553 12.6419C61.2068 13.3048 65.4054 14.7885 67.8994 16.146C70.8037 17.7244 74.3078 20.0921 74.4972 20.5972C74.5919 20.8497 74.3709 21.4495 73.9921 21.8915C73.045 23.0911 71.9401 25.3009 71.3088 27.2266C70.9931 28.1421 70.6774 28.8997 70.5827 28.8997C70.488 28.8997 69.3831 28.1421 68.1519 27.195C65.658 25.3009 61.9645 23.3752 58.6498 22.2387C56.6294 21.5442 55.9349 21.4811 50.4419 21.4811C43.7178 21.4811 42.4866 21.7336 37.6566 24.196C34.4682 25.806 33.0161 26.8162 30.0486 29.4995L27.5547 31.7724V29.3101C27.5547 27.9526 27.46 25.2693 27.3337 23.3436L27.1443 19.8079L28.6912 18.6715C32.3531 15.9881 38.8563 13.3679 44.4439 12.3262C47.5692 11.7579 54.4196 11.9158 57.9553 12.6419ZM14.6116 21.1654C14.8641 21.4495 15.0535 23.2805 15.1798 26.2164C15.3061 30.3203 15.4008 30.7938 15.9059 30.7938C16.19 30.7938 16.6635 30.8885 16.9476 30.9832C17.3896 31.1411 17.4527 30.636 17.4527 26.4689C17.4527 22.0809 17.5159 21.7021 18.1157 21.1338C19.631 19.7764 20.1992 21.5442 20.2623 27.5422C20.2939 30.5413 20.3571 30.7938 20.8937 30.7938C21.241 30.7938 21.7145 30.8885 21.9986 30.9832C22.4406 31.1411 22.5037 30.636 22.5037 26.4373C22.5037 22.5228 22.5984 21.6073 23.0088 21.197C23.2614 20.9128 23.6718 20.6919 23.8927 20.6919C24.9661 20.6919 25.0923 21.5126 24.9661 28.9628C24.8714 37.2338 24.8082 37.4232 22.2196 40.2013C20.9253 41.6218 20.2939 43.4528 20.2939 45.9152C20.2939 46.5781 20.1992 47.9987 20.1045 49.072L19.8835 50.9977H18.7155H17.5474L17.3265 46.9885C17.0739 42.5689 16.7582 41.4956 15.2429 40.1066C12.9384 37.9599 12.4018 35.4975 12.4018 27.1003C12.4018 21.9546 12.4649 21.3232 12.97 21.0391C13.7276 20.5972 14.1696 20.6287 14.6116 21.1654ZM82.8945 21.197C84.7886 21.8283 86.9668 24.196 87.756 26.4689C88.1348 27.6054 88.3243 29.026 88.3243 31.1095C88.3243 33.7297 88.198 34.3611 87.4719 35.9395C86.9984 36.9497 85.8303 38.5597 84.8833 39.5699C83.9362 40.5801 83.0207 41.7481 82.8629 42.1585C82.705 42.6005 82.4525 44.7787 82.3262 46.9885L82.1052 50.9977H80.9056H79.7376L79.5166 49.3246C79.4219 48.4407 79.3272 46.9569 79.3272 46.073C79.3272 43.3265 78.5696 41.5271 76.6754 39.5699C73.8343 36.6971 73.487 35.7501 73.487 31.1095C73.487 27.7632 73.5817 26.9424 74.1499 25.7428C75.097 23.6909 76.2966 22.4281 78.1276 21.5126C80.0217 20.5656 80.8741 20.5024 82.8945 21.197ZM57.6396 24.2907C61.3015 25.364 64.2058 26.8793 67.0786 29.1522C69.8882 31.3936 70.6458 32.4038 71.3403 34.6452C72.098 37.2654 72.9503 38.6544 75.0339 40.8326L76.9596 42.853L77.0858 46.7991C77.1805 50.1454 77.1174 50.8083 76.6439 51.3134C76.265 51.7554 76.0441 52.8287 75.8862 55.4805C75.6337 58.7636 75.539 59.2371 74.3709 61.5732C71.0878 68.0448 65.7527 72.6853 58.6498 75.2424C56.7557 75.9053 55.7455 76.0632 51.5468 76.1579C45.3594 76.3473 43.118 75.9053 38.6353 73.6955C35.8572 72.3381 34.8786 71.612 32.3847 69.2128C29.0068 65.9297 27.0496 63.1832 25.6921 59.8054C22.8194 52.6393 23.2929 44.5262 26.9865 37.2654C28.0598 35.2134 28.9753 34.0769 31.7849 31.2673C36.2676 26.7846 39.3614 25.1115 45.5804 23.6909C48.6425 22.9964 54.1355 23.2805 57.6396 24.2907ZM87.8507 42.5373C88.419 45.1891 88.5768 50.8714 88.198 54.1546C87.8192 57.2799 86.7143 62.0152 86.3039 62.4571C86.146 62.5834 85.9566 60.4052 85.8303 57.564C85.6725 53.9336 85.4831 52.1973 85.1358 51.7238C84.8201 51.1871 84.6939 49.9244 84.6939 46.8307V42.632L85.7041 41.7797C86.2723 41.3062 86.9037 40.8958 87.1246 40.8958C87.3141 40.8958 87.6613 41.6534 87.8507 42.5373ZM14.8641 46.7675C14.9588 50.4926 14.8957 51.124 14.4222 51.6607C14.0118 52.1026 13.8539 53.0497 13.7276 55.4805C13.5698 58.732 13.5382 58.732 13.1594 57.3746C12.2755 54.4071 12.3386 44.0526 13.2225 41.685C13.412 41.2115 13.5067 41.2115 14.1065 41.8113C14.7063 42.4111 14.7694 42.9162 14.8641 46.7675ZM83.4311 65.0142C83.4311 72.3065 83.3048 76.8208 83.0839 77.4522C82.5156 79.0938 80.148 79.5673 78.8852 78.273C78.4433 77.8626 78.3801 76.2526 78.3801 65.5824V53.3654L80.9056 53.4601L83.4311 53.5863V65.0142ZM21.241 65.6455V77.7995L20.4202 78.4308C19.2837 79.3147 18.3367 79.2516 17.1686 78.273L16.19 77.4522V65.4877V53.5232H18.7155H21.241V65.6455ZM25.5343 64.3197C29.2278 70.665 35.51 75.4949 42.897 77.7048C45.3594 78.4308 46.2433 78.5255 50.2841 78.5255C53.9145 78.5255 55.3666 78.3993 57.2607 77.8942C64.2374 76.0316 69.7935 72.3381 73.6449 66.9714C74.5919 65.6771 75.4758 64.6038 75.6337 64.5722C75.7599 64.5722 75.8547 67.6659 75.8547 71.4542V78.3361L73.6764 79.9777C59.4705 90.8057 39.8033 90.4269 26.0394 79.0622L23.7665 77.1997V69.9704C23.7665 63.7199 23.8612 62.3624 24.2716 62.3624C24.3347 62.3624 24.9029 63.2463 25.5343 64.3197Z" fill="#557DB0"/>
</svg>
