<svg width="100" height="100" viewBox="0 0 100 100" fill="none" xmlns="http://www.w3.org/2000/svg">
<path d="M63.6291 46.021L63.6291 46.021C62.6027 45.6105 61.8096 45.5111 60.9073 45.8234L60.9033 45.8248C60.6151 45.9265 60.1025 46.1886 59.549 46.4889C58.9745 46.8006 58.2978 47.186 57.6516 47.566C57.0059 47.9458 56.3845 48.3237 55.9216 48.6206C55.6916 48.768 55.4922 48.901 55.3463 49.0068C55.2755 49.0581 55.2031 49.1132 55.143 49.1664C55.1148 49.1914 55.0713 49.2317 55.0292 49.2824C55.0084 49.3074 54.9744 49.351 54.9426 49.4097C54.9166 49.4576 54.8544 49.5824 54.8544 49.7543C54.8544 49.907 54.9033 50.0209 54.9279 50.0718C54.9563 50.1303 54.9874 50.175 55.0078 50.2022C55.0487 50.2566 55.0917 50.3004 55.1208 50.3285C55.182 50.3877 55.256 50.4487 55.3291 50.5057C55.4793 50.6228 55.6853 50.7692 55.9265 50.9323C56.4117 51.2603 57.0743 51.6794 57.8008 52.1099L63.6291 46.021ZM63.6291 46.021L63.6356 46.0237C64.4207 46.3469 65.049 46.8284 65.4751 47.4866C65.8998 48.1425 66.0892 48.9204 66.0892 49.7809C66.0892 50.353 66.0585 50.83 65.8786 51.2912C65.6995 51.7505 65.3977 52.1292 65.0042 52.5635L65.0043 52.5636L64.9952 52.5732C64.585 53.009 64.2285 53.3724 63.7512 53.5683C63.2811 53.7613 62.7634 53.763 62.1392 53.7503L63.6291 46.021ZM35.5331 42.0767L35.5287 42.0781C32.9219 42.8651 30.719 45.0359 30.0185 47.4755L30.0186 47.4755L30.0176 47.4786C28.9196 51.2362 30.7485 55.2786 34.3052 57.0201L34.3052 57.0201L34.3104 57.0227C34.9276 57.3313 35.3142 57.4853 35.7586 57.5736C36.2193 57.6652 36.7758 57.6931 37.7453 57.6931C38.9888 57.6931 39.6258 57.6541 40.6572 57.2333C41.7543 56.7856 43.2702 55.9149 46.2135 54.1757C47.0695 53.6674 47.8806 53.2049 48.4971 52.868C48.8046 52.7 49.0686 52.5605 49.2677 52.4616C49.3662 52.4127 49.4568 52.3697 49.5324 52.3375C49.5695 52.3217 49.6127 52.3043 49.6567 52.2895C49.6574 52.2893 49.6584 52.289 49.6595 52.2886C49.6832 52.2805 49.7907 52.244 49.9192 52.244C50.0454 52.244 50.1508 52.2783 50.1794 52.2876L50.1819 52.2885C50.2296 52.3039 50.2766 52.3225 50.3176 52.3397C50.4011 52.3748 50.5007 52.4218 50.609 52.4756C50.8278 52.5841 51.1167 52.7373 51.4527 52.9221C52.126 53.2924 53.0102 53.8015 53.9456 54.3628C53.9463 54.3631 53.9469 54.3635 53.9475 54.3639L54.0647 54.4331C56.935 56.1292 58.2918 56.931 59.266 57.3256C60.1731 57.6931 60.704 57.6931 62.0566 57.6931H62.0666C63.2018 57.6931 63.7455 57.6766 64.1983 57.5766C64.6321 57.4808 65.0115 57.3015 65.7996 56.8741C68.5977 55.3521 70.0054 52.9606 70.0054 49.6746C70.0054 48.9192 69.9721 48.4268 69.8751 47.9787C69.779 47.5351 69.6129 47.1005 69.3059 46.4738L69.3058 46.4738L69.3017 46.465C67.6017 42.8679 63.659 41.0158 60.138 42.0529L60.138 42.053L60.1244 42.0567C59.7609 42.1558 58.956 42.5033 57.9068 43.0195C56.8802 43.5246 55.6766 44.1625 54.5453 44.8071C53.3989 45.4603 52.3316 46.054 51.5397 46.485C51.1442 46.7003 50.8149 46.8764 50.5776 46.9995C50.4598 47.0606 50.3599 47.1112 50.2842 47.1475C50.2474 47.1652 50.2088 47.1831 50.1733 47.198C50.1563 47.2051 50.1306 47.2155 50.1012 47.2253C50.0866 47.2302 50.0629 47.2378 50.0337 47.2447C50.0132 47.2496 49.949 47.2646 49.8661 47.2646C49.7586 47.2646 49.6732 47.2391 49.654 47.2333L49.6522 47.2328C49.6191 47.223 49.5903 47.2123 49.5706 47.2046C49.5303 47.1888 49.4882 47.1699 49.4497 47.152C49.3708 47.1152 49.2698 47.0647 49.1536 47.0047C48.9193 46.8836 48.5979 46.711 48.214 46.5007C47.445 46.0794 46.4111 45.4991 45.2924 44.8599L45.2912 44.8592C42.4123 43.2064 40.6378 42.315 39.2405 41.93C37.9052 41.562 36.9021 41.6536 35.5331 42.0767ZM40.8797 46.885L40.882 46.8863C42.0525 47.5513 43.3932 48.287 43.8529 48.5169L43.8602 48.5205L43.8674 48.5243C44.1097 48.6526 44.3457 48.792 44.5286 48.9165C44.6175 48.9771 44.7106 49.0454 44.7886 49.1153C44.826 49.1489 44.8788 49.1995 44.9279 49.2635L44.9296 49.2657C44.9579 49.3026 45.0904 49.4747 45.0904 49.7277C45.0904 49.9361 45.0027 50.0865 44.9666 50.1437C44.9212 50.2156 44.8705 50.2726 44.833 50.3116C44.7566 50.3909 44.6652 50.4663 44.5784 50.5326C44.4004 50.6686 44.1608 50.8276 43.8905 50.9958C43.3452 51.335 42.6179 51.7466 41.8692 52.1461C41.1198 52.5461 40.3379 52.9397 39.6819 53.2418C39.3544 53.3925 39.0515 53.5237 38.7959 53.622C38.5654 53.7106 38.3102 53.7981 38.1013 53.8242C35.867 54.1311 34.3029 52.6518 33.8099 50.9417C33.3169 49.2319 33.8429 47.127 35.8659 46.1236L35.8689 46.1221C36.6112 45.7582 37.279 45.5543 38.114 45.6949C38.8819 45.8242 39.732 46.2386 40.8797 46.885ZM56.0941 49.3222C56.0942 49.3223 56.0944 49.3225 56.0946 49.3226L56.093 49.3211C56.0931 49.3212 56.0934 49.3215 56.0941 49.3222Z" fill="#557DB0" stroke="#FFFDFA" stroke-width="1.4"/>
<path d="M42.4866 10.4636C37.7829 11.4738 31.9743 13.9046 28.1861 16.4301C24.7135 18.7346 24.4925 18.7977 18.0841 18.7977H12.4018L11.4231 19.6817C10.5708 20.4393 10.4129 20.8181 10.1288 23.2173C9.75 26.4373 10.2551 34.4242 11.0127 37.1707C11.5178 38.8754 11.4863 39.1911 10.9496 41.906C10.5076 44.0842 10.3498 46.1677 10.3498 49.8928C10.3814 55.512 10.7918 58.1007 12.5596 63.4673C13.4751 66.3085 13.6014 67.1293 13.7908 71.6751C14.0433 77.5469 14.2643 78.6518 15.5271 79.8514C17.2002 81.4614 20.4202 81.5561 22.0618 80.0093C22.7247 79.4095 22.8825 79.3779 23.3876 79.7567C23.7033 80.0093 25.187 81.1142 26.6392 82.2191C34.2472 87.9961 44.1282 90.7426 53.8829 89.8271C61.9645 89.0694 69.6041 86.102 75.2864 81.493C77.0227 80.104 77.3068 80.0093 77.875 80.3565C80.5584 82.0296 84.5676 80.7038 85.2937 77.8942C85.4831 77.2628 85.7356 74.8636 85.8935 72.6222C86.146 68.9287 86.3039 68.2342 87.3141 65.9612C90.7866 58.0375 91.5758 49.1352 89.5554 40.3907C89.0503 38.2124 89.0503 38.1177 89.7448 36.2868C92.0809 30.0677 89.6501 22.1124 84.6307 19.6185C82.8629 18.7346 79.8639 18.5136 77.875 19.0819C76.9596 19.3344 76.6439 19.2081 74.3394 17.535C69.2884 13.9362 62.3433 11.0003 57.1345 10.3058C53.6935 9.83226 44.8859 9.92697 42.4866 10.4636ZM57.9553 12.6419C61.2068 13.3048 65.4054 14.7885 67.8994 16.146C70.8037 17.7244 74.3078 20.0921 74.4972 20.5972C74.5919 20.8497 74.3709 21.4495 73.9921 21.8915C73.045 23.0911 71.9401 25.3009 71.3088 27.2266C70.9931 28.1421 70.6774 28.8997 70.5827 28.8997C70.488 28.8997 69.3831 28.1421 68.1519 27.195C65.658 25.3009 61.9645 23.3752 58.6498 22.2387C56.6294 21.5442 55.9349 21.4811 50.4419 21.4811C43.7178 21.4811 42.4866 21.7336 37.6566 24.196C34.4682 25.806 33.0161 26.8162 30.0486 29.4995L27.5547 31.7724V29.3101C27.5547 27.9526 27.46 25.2693 27.3337 23.3436L27.1443 19.8079L28.6912 18.6715C32.3531 15.9881 38.8563 13.3679 44.4439 12.3262C47.5692 11.7579 54.4196 11.9158 57.9553 12.6419ZM14.6116 21.1654C14.8641 21.4495 15.0535 23.2805 15.1798 26.2164C15.3061 30.3203 15.4008 30.7938 15.9059 30.7938C16.19 30.7938 16.6635 30.8885 16.9476 30.9832C17.3896 31.1411 17.4527 30.636 17.4527 26.4689C17.4527 22.0809 17.5159 21.7021 18.1157 21.1338C19.631 19.7764 20.1992 21.5442 20.2623 27.5422C20.2939 30.5413 20.3571 30.7938 20.8937 30.7938C21.241 30.7938 21.7145 30.8885 21.9986 30.9832C22.4406 31.1411 22.5037 30.636 22.5037 26.4373C22.5037 22.5228 22.5984 21.6073 23.0088 21.197C23.2614 20.9128 23.6718 20.6919 23.8927 20.6919C24.9661 20.6919 25.0923 21.5126 24.9661 28.9628C24.8714 37.2338 24.8082 37.4232 22.2196 40.2013C20.9253 41.6218 20.2939 43.4528 20.2939 45.9152C20.2939 46.5781 20.1992 47.9987 20.1045 49.072L19.8835 50.9977H18.7155H17.5474L17.3265 46.9885C17.0739 42.5689 16.7582 41.4956 15.2429 40.1066C12.9384 37.9599 12.4018 35.4975 12.4018 27.1003C12.4018 21.9546 12.4649 21.3232 12.97 21.0391C13.7276 20.5972 14.1696 20.6287 14.6116 21.1654ZM82.8945 21.197C84.7886 21.8283 86.9668 24.196 87.756 26.4689C88.1348 27.6054 88.3243 29.026 88.3243 31.1095C88.3243 33.7297 88.198 34.3611 87.4719 35.9395C86.9984 36.9497 85.8303 38.5597 84.8833 39.5699C83.9362 40.5801 83.0207 41.7481 82.8629 42.1585C82.705 42.6005 82.4525 44.7787 82.3262 46.9885L82.1052 50.9977H80.9056H79.7376L79.5166 49.3246C79.4219 48.4407 79.3272 46.9569 79.3272 46.073C79.3272 43.3265 78.5696 41.5271 76.6754 39.5699C73.8343 36.6971 73.487 35.7501 73.487 31.1095C73.487 27.7632 73.5817 26.9424 74.1499 25.7428C75.097 23.6909 76.2966 22.4281 78.1276 21.5126C80.0217 20.5656 80.8741 20.5024 82.8945 21.197ZM57.6396 24.2907C61.3015 25.364 64.2058 26.8793 67.0786 29.1522C69.8882 31.3936 70.6458 32.4038 71.3403 34.6452C72.098 37.2654 72.9503 38.6544 75.0339 40.8326L76.9596 42.853L77.0858 46.7991C77.1805 50.1454 77.1174 50.8083 76.6439 51.3134C76.265 51.7554 76.0441 52.8287 75.8862 55.4805C75.6337 58.7636 75.539 59.2371 74.3709 61.5732C71.0878 68.0448 65.7527 72.6853 58.6498 75.2424C56.7557 75.9053 55.7455 76.0632 51.5468 76.1579C45.3594 76.3473 43.118 75.9053 38.6353 73.6955C35.8572 72.3381 34.8786 71.612 32.3847 69.2128C29.0068 65.9297 27.0496 63.1832 25.6921 59.8054C22.8194 52.6393 23.2929 44.5262 26.9865 37.2654C28.0598 35.2134 28.9753 34.0769 31.7849 31.2673C36.2676 26.7846 39.3614 25.1115 45.5804 23.6909C48.6425 22.9964 54.1355 23.2805 57.6396 24.2907ZM87.8507 42.5373C88.419 45.1891 88.5768 50.8714 88.198 54.1546C87.8192 57.2799 86.7143 62.0152 86.3039 62.4571C86.146 62.5834 85.9566 60.4052 85.8303 57.564C85.6725 53.9336 85.4831 52.1973 85.1358 51.7238C84.8201 51.1871 84.6939 49.9244 84.6939 46.8307V42.632L85.7041 41.7797C86.2723 41.3062 86.9037 40.8958 87.1246 40.8958C87.3141 40.8958 87.6613 41.6534 87.8507 42.5373ZM14.8641 46.7675C14.9588 50.4926 14.8957 51.124 14.4222 51.6607C14.0118 52.1026 13.8539 53.0497 13.7276 55.4805C13.5698 58.732 13.5382 58.732 13.1594 57.3746C12.2755 54.4071 12.3386 44.0526 13.2225 41.685C13.412 41.2115 13.5067 41.2115 14.1065 41.8113C14.7063 42.4111 14.7694 42.9162 14.8641 46.7675ZM83.4311 65.0142C83.4311 72.3065 83.3048 76.8208 83.0839 77.4522C82.5156 79.0938 80.148 79.5673 78.8852 78.273C78.4433 77.8626 78.3801 76.2526 78.3801 65.5824V53.3654L80.9056 53.4601L83.4311 53.5863V65.0142ZM21.241 65.6455V77.7995L20.4202 78.4308C19.2837 79.3147 18.3367 79.2516 17.1686 78.273L16.19 77.4522V65.4877V53.5232H18.7155H21.241V65.6455ZM25.5343 64.3197C29.2278 70.665 35.51 75.4949 42.897 77.7048C45.3594 78.4308 46.2433 78.5255 50.2841 78.5255C53.9145 78.5255 55.3666 78.3993 57.2607 77.8942C64.2374 76.0316 69.7935 72.3381 73.6449 66.9714C74.5919 65.6771 75.4758 64.6038 75.6337 64.5722C75.7599 64.5722 75.8547 67.6659 75.8547 71.4542V78.3361L73.6764 79.9777C59.4705 90.8057 39.8033 90.4269 26.0394 79.0622L23.7665 77.1997V69.9704C23.7665 63.7199 23.8612 62.3624 24.2716 62.3624C24.3347 62.3624 24.9029 63.2463 25.5343 64.3197Z" fill="#557DB0"/>
</svg>
