<svg width="100" height="100" viewBox="0 0 100 100" fill="none" xmlns="http://www.w3.org/2000/svg">
<g clip-path="url(#clip0_18_490)">
<path fill-rule="evenodd" clip-rule="evenodd" d="M68.4754 10.3509C61.3039 11.6266 55.1585 17.6034 53.6468 24.7718C53.031 27.6913 53.0271 29.8035 53.6322 32.658C54.7499 37.933 58.7416 43.0258 63.5834 45.3547C66.1517 46.5899 66.8846 47.3069 67.3939 49.0819C67.6594 50.008 67.597 50.1063 66.408 50.6308C63.9568 51.7123 62.2387 54.6248 62.5012 57.2525L62.6058 58.2988L56.9842 60.2016C53.8925 61.2482 51.2969 62.0386 51.2166 61.9579C51.1359 61.8776 51.201 60.3526 51.361 58.5694C51.6066 55.8255 51.754 55.2751 52.318 54.9873C54.4096 53.9207 55.8008 51.9423 55.8008 50.0346C55.8008 47.6724 53.3972 44.8548 51.3819 44.8548C50.8903 44.8548 50.4886 44.6686 50.4876 44.4399C50.478 42.2182 48.6818 39.6834 46.3363 38.5806C45.2279 38.0598 44.8445 37.6897 44.8392 37.1353C44.8179 34.9491 42.0176 31.288 39.3085 29.9041C37.8367 29.1523 37.3427 29.0872 33.0998 29.0872C27.3159 29.0872 27.1638 29.2123 29.1844 32.3138C30.7748 34.7549 30.9029 35.8032 29.7716 37.1184C28.9723 38.0475 28.9577 38.0502 23.8795 38.2175C19.4413 38.3639 18.6098 38.4807 17.3968 39.1274C15.8048 39.9762 14.4226 41.6352 13.8012 43.443C13.4344 44.5099 13.1887 44.725 12.0886 44.9425C9.90506 45.3743 8 47.7541 8 50.0505C8 51.6313 9.20232 53.5868 10.7456 54.5156L12.1812 55.3796L12.7515 61.3206C14.1311 75.6824 14.2523 76.6497 14.8116 77.7554C15.6056 79.3242 16.5763 80.3197 18.1245 81.1516C19.3793 81.8258 19.9784 81.8713 28.9959 81.9758L38.5394 82.0867L38.5444 85.4623C38.5474 87.3192 38.6911 89.0623 38.8644 89.3362C39.1383 89.7697 42.2407 89.8467 62.8425 89.931C75.8576 89.9841 86.9876 89.941 87.5758 89.8348C88.7366 89.625 88.8923 89.2847 89.7328 85.1217C90.3396 82.1149 90.2091 72.7606 89.516 69.5851C89.1973 68.1245 88.7642 66.7211 88.5537 66.4668C88.3432 66.2122 85.369 64.1401 81.9446 61.8623C76.4969 58.2391 75.7175 57.6113 75.7159 56.8479C75.7102 54.1674 74.2722 51.9499 71.6913 50.6421C70.7004 50.1401 70.073 49.6001 70.07 49.2475C70.0677 48.9312 69.9754 48.336 69.8656 47.9254C69.671 47.2001 69.7361 47.1785 72.1238 47.1785C77.0506 47.1785 81.1197 45.4344 84.8797 41.7113C93.3447 33.3295 91.7507 19.5144 81.5592 12.9272C78.0465 10.657 72.6871 9.60171 68.4754 10.3509ZM76.8883 13.6545C84.6925 16.3396 89.2319 24.7692 87.1592 32.727C85.1459 40.4565 77.2461 45.7289 69.4938 44.5172C60.1019 43.0497 53.9502 33.8421 56.3097 24.7835C57.8732 18.7801 62.9271 14.1063 69.0788 12.974C71.1393 12.5949 74.714 12.9063 76.8883 13.6545ZM67.4191 16.2354C65.0725 17.1317 64.0518 17.7893 62.3462 19.5031C59.3889 22.4744 57.9658 26.9133 58.7017 30.8701C59.1881 33.4859 60.2038 35.7382 61.1177 36.2271C61.7998 36.5923 62.4488 36.022 70.6204 27.8739C77.0314 21.4819 79.366 18.9501 79.2973 18.4648C79.2355 18.0273 78.5238 17.461 77.2116 16.805C75.4699 15.9343 74.8239 15.8002 72.0664 15.7368C69.7444 15.6837 68.5188 15.8152 67.4191 16.2354ZM73.8367 18.3446C74.8714 18.5524 75.7178 18.815 75.7178 18.9285C75.7178 19.0417 72.6075 22.2424 68.8056 26.0409L61.8938 32.9471L61.5027 31.6425C59.8453 26.1096 63.519 19.8162 69.2139 18.4339C71.4071 17.9011 71.6096 17.8975 73.8367 18.3446ZM72.7774 29.704C66.469 36.0157 64.0651 38.6284 64.149 39.0816C64.2198 39.462 65.051 40.1023 66.2573 40.7055C68.0916 41.6226 68.5248 41.7013 71.7414 41.7013C75.0148 41.7013 75.3723 41.6333 77.4373 40.6165C80.2586 39.2276 83.0008 36.342 84.0448 33.6631C85.0237 31.1513 85.1154 26.8774 84.244 24.3758C83.5914 22.501 82.5388 20.9544 81.9154 20.9544C81.6993 20.9544 77.5871 24.8917 72.7774 29.704ZM82.1819 28.5893C82.1895 31.0185 82.0617 31.6741 81.2614 33.304C80.1275 35.613 77.6076 37.9619 75.4908 38.6832C73.7278 39.284 69.9047 39.383 68.5384 38.8638C67.6256 38.5166 67.6412 38.4977 74.5656 31.5672C82.4262 23.6996 82.1666 23.8012 82.1819 28.5893ZM36.2138 31.6074C38.1812 32.0293 40.3754 33.5795 41.3378 35.2269C41.7072 35.8596 42.1739 37.2021 42.3748 38.2095C42.7568 40.1269 43.0745 40.4362 45.3341 41.0922C46.3854 41.3972 47.834 43.2213 47.834 44.2401C47.834 44.8299 47.193 44.8548 32.0664 44.8548C20.5504 44.8548 16.2988 44.7536 16.2988 44.4791C16.2988 44.2723 16.5939 43.6256 16.9547 43.0417C18.0538 41.2638 19.2209 40.9099 24.4315 40.7752C29.5349 40.6434 30.4873 40.3639 32.0136 38.5498C33.5157 36.7649 33.53 35.2303 32.0773 31.8258C31.8646 31.3272 32.0203 31.2449 33.1764 31.2449C33.9173 31.2449 35.284 31.4079 36.2138 31.6074ZM52.3442 48.2759C53.3607 49.4577 53.3607 50.5425 52.3442 51.7242L51.5429 52.6557H31.9004H12.2579L11.4566 51.7242C11.0161 51.212 10.6556 50.4611 10.6556 50.0555C10.6556 49.1147 11.5167 47.8789 12.4339 47.5035C12.8252 47.3435 21.7849 47.2422 32.3442 47.2784L51.5432 47.3445L52.3442 48.2759ZM71.3305 53.3398C73.1004 54.5793 73.5306 57.0069 72.3031 58.8306C69.5824 62.8741 63.3517 59.1483 65.5914 54.817C66.3124 53.4228 67.3633 52.8216 69.0788 52.8216C69.9117 52.8216 70.9232 53.0543 71.3305 53.3398ZM49.039 56.0582C48.9467 56.3778 48.7695 57.7989 48.6453 59.2163C48.5208 60.6341 48.2845 61.8769 48.1202 61.9788C47.5154 62.3523 45.5393 61.387 44.7256 60.3201C43.6196 58.8701 41.9821 58.1328 39.8672 58.1328C37.7524 58.1328 36.1149 58.8701 35.0088 60.3201C33.3331 62.5172 30.4677 62.5172 28.792 60.3201C27.686 58.8701 26.0485 58.1328 23.9336 58.1328C21.8188 58.1328 20.1812 58.8701 19.0752 60.3201C18.2616 61.387 16.2855 62.3523 15.6807 61.9788C15.5163 61.8769 15.28 60.6341 15.1555 59.2163C15.0314 57.7989 14.8541 56.3778 14.7618 56.0582C14.6038 55.5101 15.5758 55.4772 31.9004 55.4772C48.2251 55.4772 49.197 55.5101 49.039 56.0582ZM25.192 60.814C25.756 61.0105 26.5915 61.6618 27.0486 62.261C28.1451 63.6987 29.7879 64.4399 31.8782 64.4399C34.1006 64.4399 35.5854 63.7913 36.6964 62.3343C37.8045 60.8817 39.4689 60.2527 40.8923 60.7489C41.7567 61.05 45.0785 64.0396 44.7844 64.2517C44.7273 64.2928 43.6349 64.6663 42.3568 65.0812C38.4252 66.3582 38.5394 66.1986 38.5394 70.4226V74.0665H27.5851C21.5602 74.0665 16.6261 73.9543 16.6201 73.8175C16.6144 73.6807 16.403 71.6293 16.1504 69.2588C15.8978 66.8887 15.762 64.8346 15.8486 64.6945C15.9353 64.5544 16.3854 64.4399 16.8491 64.4399C18.1102 64.4399 19.9134 63.4689 20.725 62.3529C21.3872 61.4421 22.9248 60.5006 23.8012 60.4694C24.002 60.4625 24.6281 60.6175 25.192 60.814ZM78.9218 63.0291L82.7851 65.6017L74.4614 65.6904C69.8835 65.7391 62.2835 65.7391 57.5731 65.6904L49.0081 65.6017L56.3821 63.1317L63.756 60.662L64.5089 61.3501C67.1383 63.7551 71.443 63.7166 73.7437 61.2678C74.163 60.8216 74.63 60.4565 74.7824 60.4565C74.9344 60.4565 76.797 61.6143 78.9218 63.0291ZM86.6606 69.0653C86.8495 69.4185 87.0042 70.0907 87.0042 70.5591V71.4109H64.0996H41.195V70.1385C41.195 69.4384 41.2946 68.7662 41.4164 68.6447C41.5379 68.5229 51.6906 68.4233 63.9771 68.4233C85.7242 68.4233 86.326 68.4402 86.6606 69.0653ZM87.5021 77.8839V81.8673L64.3485 81.9526L41.195 82.0379V78.1073C41.195 75.9456 41.2956 74.0764 41.4184 73.9536C41.5416 73.8304 51.9605 73.7684 64.572 73.8152L87.5021 73.9005V77.8839ZM38.5394 77.8839V79.3777L29.6598 79.3704C21.6657 79.3637 20.642 79.3003 19.3962 78.7347C18.2124 78.1972 17.2946 77.2552 17.2946 76.578C17.2946 76.4747 22.0747 76.3901 27.917 76.3901H38.5394V77.8839ZM86.9995 85.2698C86.9972 85.5894 86.9049 86.1866 86.795 86.5976L86.5949 87.3445H63.8948H41.195V86.0167V84.6889H64.0996C85.6939 84.6889 87.0038 84.7221 86.9995 85.2698Z" fill="#557DB0"/>
</g>
<defs>
<clipPath id="clip0_18_490">
<rect width="82.6556" height="80" fill="white" transform="translate(8 10)"/>
</clipPath>
</defs>
</svg>
