<svg width="100" height="100" viewBox="0 0 100 100" fill="none" xmlns="http://www.w3.org/2000/svg">
<path d="M42.4866 10.4639C37.7829 11.4741 31.9743 13.9049 28.1861 16.4303C24.7135 18.7348 24.4925 18.798 18.0841 18.798H12.4018L11.4231 19.6819C10.5708 20.4396 10.4129 20.8184 10.1288 23.2176C9.75 26.4376 10.2551 34.4244 11.0127 37.1709C11.5178 38.8756 11.4863 39.1913 10.9496 41.9062C10.5076 44.0844 10.3498 46.168 10.3498 49.8931C10.3814 55.5123 10.7918 58.1009 12.5596 63.4676C13.4751 66.3087 13.6014 67.1295 13.7908 71.6754C14.0433 77.5472 14.2643 78.6521 15.5271 79.8517C17.2002 81.4617 20.4202 81.5564 22.0618 80.0095C22.7247 79.4097 22.8825 79.3781 23.3876 79.757C23.7033 80.0095 25.187 81.1144 26.6392 82.2193C34.2472 87.9964 44.1282 90.7428 53.8829 89.8273C61.9645 89.0697 69.6041 86.1022 75.2864 81.4932C77.0227 80.1042 77.3068 80.0095 77.875 80.3568C80.5584 82.0299 84.5676 80.704 85.2937 77.8944C85.4831 77.263 85.7356 74.8638 85.8935 72.6224C86.146 68.9289 86.3039 68.2344 87.314 65.9615C90.7866 58.0378 91.5758 49.1354 89.5554 40.3909C89.0503 38.2127 89.0503 38.118 89.7448 36.287C92.0809 30.068 89.6501 22.1127 84.6307 19.6188C82.8629 18.7348 79.8639 18.5139 77.875 19.0821C76.9595 19.3347 76.6439 19.2084 74.3394 17.5352C69.2884 13.9364 62.3433 11.0005 57.1345 10.306C53.6935 9.8325 44.8859 9.92722 42.4866 10.4639ZM57.9552 12.6421C61.2068 13.3051 65.4054 14.7888 67.8994 16.1462C70.8037 17.7247 74.3078 20.0923 74.4972 20.5974C74.5919 20.8499 74.3709 21.4498 73.9921 21.8917C73.045 23.0913 71.9401 25.3011 71.3088 27.2268C70.9931 28.1423 70.6774 28.8999 70.5827 28.8999C70.488 28.8999 69.3831 28.1423 68.1519 27.1952C65.658 25.3011 61.9645 23.3754 58.6498 22.239C56.6294 21.5445 55.9349 21.4813 50.4419 21.4813C43.7178 21.4813 42.4866 21.7339 37.6566 24.1962C34.4682 25.8062 33.0161 26.8164 30.0486 29.4997L27.5547 31.7727V29.3103C27.5547 27.9529 27.46 25.2696 27.3337 23.3439L27.1443 19.8082L28.6912 18.6717C32.3531 15.9884 38.8562 13.3682 44.4439 12.3264C47.5692 11.7582 54.4196 11.916 57.9552 12.6421ZM14.6116 21.1656C14.8641 21.4498 15.0535 23.2807 15.1798 26.2166C15.3061 30.3205 15.4008 30.7941 15.9059 30.7941C16.19 30.7941 16.6635 30.8888 16.9476 30.9835C17.3896 31.1413 17.4527 30.6362 17.4527 26.4692C17.4527 22.0811 17.5159 21.7023 18.1157 21.1341C19.631 19.7766 20.1992 21.5445 20.2623 27.5425C20.2939 30.5415 20.357 30.7941 20.8937 30.7941C21.241 30.7941 21.7145 30.8888 21.9986 30.9835C22.4406 31.1413 22.5037 30.6362 22.5037 26.4376C22.5037 22.5231 22.5984 21.6076 23.0088 21.1972C23.2614 20.9131 23.6718 20.6921 23.8927 20.6921C24.9661 20.6921 25.0923 21.5129 24.9661 28.9631C24.8714 37.2341 24.8082 37.4235 22.2196 40.2015C20.9253 41.6221 20.2939 43.4531 20.2939 45.9154C20.2939 46.5784 20.1992 47.9989 20.1045 49.0723L19.8835 50.998H18.7155H17.5474L17.3265 46.9888C17.0739 42.5691 16.7582 41.4958 15.2429 40.1068C12.9384 37.9601 12.4018 35.4978 12.4018 27.1005C12.4018 21.9548 12.4649 21.3235 12.97 21.0394C13.7276 20.5974 14.1696 20.629 14.6116 21.1656ZM82.8944 21.1972C84.7886 21.8286 86.9668 24.1962 87.756 26.4692C88.1348 27.6056 88.3242 29.0262 88.3242 31.1097C88.3242 33.7299 88.198 34.3613 87.4719 35.9397C86.9984 36.9499 85.8303 38.5599 84.8833 39.5701C83.9362 40.5803 83.0207 41.7484 82.8629 42.1588C82.705 42.6007 82.4525 44.7789 82.3262 46.9888L82.1052 50.998H80.9056H79.7376L79.5166 49.3248C79.4219 48.4409 79.3272 46.9572 79.3272 46.0733C79.3272 43.3268 78.5695 41.5274 76.6754 39.5701C73.8343 36.6974 73.487 35.7503 73.487 31.1097C73.487 27.7635 73.5817 26.9427 74.1499 25.7431C75.097 23.6911 76.2966 22.4284 78.1276 21.5129C80.0217 20.5658 80.8741 20.5027 82.8944 21.1972ZM57.6396 24.2909C61.3015 25.3643 64.2058 26.8796 67.0786 29.1525C69.8882 31.3939 70.6458 32.4041 71.3403 34.6454C72.098 37.2656 72.9503 38.6546 75.0339 40.8329L76.9595 42.8533L77.0858 46.7993C77.1805 50.1456 77.1174 50.8086 76.6439 51.3136C76.265 51.7556 76.0441 52.8289 75.8862 55.4807C75.6337 58.7638 75.539 59.2374 74.3709 61.5734C71.0878 68.045 65.7527 72.6856 58.6498 75.2426C56.7556 75.9056 55.7454 76.0634 51.5468 76.1581C45.3594 76.3475 43.118 75.9056 38.6353 73.6958C35.8572 72.3383 34.8786 71.6123 32.3847 69.213C29.0068 65.9299 27.0496 63.1834 25.6921 59.8056C22.8194 52.6395 23.2929 44.5264 26.9865 37.2656C28.0598 35.2137 28.9753 34.0772 31.7849 31.2676C36.2676 26.7848 39.3613 25.1117 45.5804 23.6911C48.6425 22.9966 54.1355 23.2807 57.6396 24.2909ZM87.8507 42.5376C88.4189 45.1893 88.5768 50.8717 88.198 54.1548C87.8191 57.2801 86.7142 62.0154 86.3039 62.4574C86.146 62.5836 85.9566 60.4054 85.8303 57.5642C85.6725 53.9338 85.4831 52.1976 85.1358 51.724C84.8201 51.1874 84.6939 49.9246 84.6939 46.8309V42.6323L85.704 41.7799C86.2723 41.3064 86.9037 40.896 87.1246 40.896C87.314 40.896 87.6613 41.6537 87.8507 42.5376ZM14.8641 46.7678C14.9588 50.4929 14.8957 51.1242 14.4222 51.6609C14.0118 52.1029 13.8539 53.0499 13.7276 55.4807C13.5698 58.7323 13.5382 58.7323 13.1594 57.3748C12.2755 54.4074 12.3386 44.0529 13.2225 41.6852C13.412 41.2117 13.5067 41.2117 14.1065 41.8115C14.7063 42.4113 14.7694 42.9164 14.8641 46.7678ZM83.4311 65.0144C83.4311 72.3068 83.3048 76.8211 83.0839 77.4524C82.5156 79.094 80.148 79.5675 78.8852 78.2732C78.4433 77.8628 78.3801 76.2528 78.3801 65.5827V53.3656L80.9056 53.4603L83.4311 53.5866V65.0144ZM21.241 65.6458V77.7997L20.4202 78.4311C19.2837 79.315 18.3367 79.2519 17.1686 78.2732L16.19 77.4524V65.4879V53.5234H18.7155H21.241V65.6458ZM25.5343 64.3199C29.2278 70.6652 35.51 75.4952 42.897 77.705C45.3594 78.4311 46.2433 78.5258 50.2841 78.5258C53.9145 78.5258 55.3666 78.3995 57.2607 77.8944C64.2374 76.0319 69.7935 72.3383 73.6448 66.9717C74.5919 65.6774 75.4758 64.604 75.6337 64.5725C75.7599 64.5725 75.8546 67.6662 75.8546 71.4544V78.3364L73.6764 79.9779C59.4705 90.806 39.8033 90.4271 26.0394 79.0624L23.7665 77.1999V69.9707C23.7665 63.7201 23.8612 62.3627 24.2716 62.3627C24.3347 62.3627 24.9029 63.2466 25.5343 64.3199Z" fill="#557DB0"/>
<path d="M49.4949 31.8989C48.9898 32.183 47.9164 33.0353 47.1272 33.793C46.0223 34.8347 45.3278 35.2451 44.0335 35.4977C39.7402 36.3816 37.12 39.3175 36.7727 43.6424C36.6464 45.4102 36.7411 45.8522 37.7198 47.9357L38.8562 50.2718L38.1302 52.5132C37.2147 55.3859 36.2992 56.9012 33.7421 59.8055L31.6586 62.1416L32.2584 62.9624C33.3002 64.4145 37.5619 68.3606 38.0986 68.3606C38.3827 68.3606 39.4245 67.6029 40.4347 66.6875C43.339 64.0357 44.3807 63.3412 46.8115 62.5204C49.4633 61.6049 50.9786 61.5102 51.5468 62.2047C51.7678 62.4573 52.7464 62.8992 53.6935 63.1833C58.8392 64.6986 64.0796 61.3524 64.9635 56.0488C65.1529 54.9439 65.5633 54.2494 66.7313 52.9867C68.5939 50.9979 68.9727 50.1455 69.0042 47.6516C69.0042 46.1994 68.8464 45.3787 68.2782 44.3369C67.8046 43.4214 67.489 42.0955 67.3311 40.5171C66.9207 35.8449 64.3005 33.2879 59.7862 33.0353C57.9868 32.9722 57.1976 32.7512 56.5031 32.2461C55.3035 31.3622 50.947 31.1412 49.4949 31.8989ZM54.8615 33.9193C55.556 34.2349 56.3137 34.7085 56.5662 35.0242C56.9135 35.4661 57.3239 35.4977 58.8076 35.3398C60.2282 35.182 60.8911 35.2767 62.0276 35.7818C64.2058 36.7289 64.9319 38.0232 65.0897 41.0222C65.1529 42.9794 65.3423 43.7371 65.9105 44.5894C66.826 45.8838 67.1417 47.2412 66.8892 48.5987C66.6682 49.7667 64.9319 52.2606 64.3637 52.2606C63.5429 52.2606 62.9115 53.4602 62.6274 55.4806C62.2801 57.8483 62.0592 58.3849 60.7964 59.5845C58.0499 62.2047 53.5356 61.889 51.2943 58.9532C49.7474 56.9328 49.0845 56.3645 48.2005 56.3645C46.4327 56.3645 43.9704 53.9022 43.9704 52.1343C43.9704 51.282 43.5915 50.84 41.2555 48.9459C38.3196 46.5783 38.1617 42.2218 40.8766 39.4122C41.9815 38.2757 42.9602 37.8969 45.4856 37.5812C47.0009 37.3918 47.2535 37.234 48.169 35.9712C49.3054 34.4559 51.1996 33.3195 52.6517 33.3195C53.1884 33.3195 54.167 33.6036 54.8615 33.9193ZM41.729 52.8288C41.9184 53.4602 42.4866 54.6598 42.9917 55.4806C43.7494 56.6802 44.3492 57.1537 46.1486 58.0061C47.3798 58.5743 48.3268 59.1741 48.2953 59.3635C48.2321 59.5214 47.1588 60.0581 45.896 60.5316C43.3074 61.5418 41.508 62.6782 39.7086 64.5408C39.0457 65.2669 38.3196 65.8351 38.1617 65.8351C37.7513 65.8351 34.4998 62.6467 34.4998 62.2679C34.4998 62.11 35.3206 61.0682 36.3623 59.9949C38.1617 58.0692 39.2035 56.2383 40.34 53.113C40.6241 52.2922 41.0029 51.6292 41.1292 51.6292C41.287 51.6292 41.5711 52.1659 41.729 52.8288Z" fill="#59AA8A"/>
</svg>
