<svg width="100" height="100" viewBox="0 0 100 100" fill="none" xmlns="http://www.w3.org/2000/svg">
<path d="M40.1782 29.4156C33.0368 31.2177 31.2347 32.1187 27.8976 35.4892C25.9287 37.5248 24.9276 39.5604 24.7274 41.8964L24.5605 43.6984L23.9265 42.6639C23.5594 42.0966 22.5582 41.1956 21.724 40.695C17.1855 38.0587 11.6459 41.2623 11.6459 46.535C11.6459 48.9043 12.4468 50.406 15.3835 53.4762L17.7528 55.979H14.3823C10.0107 55.979 9.81048 56.1459 10.0775 59.6832C11.1453 73.3987 21.2901 84.9451 34.8722 87.8818C38.276 88.5826 51.4242 88.8495 56.0294 88.2822C59.3332 87.8484 59.8671 87.8484 64.2387 88.2155C66.6415 88.3823 67.1754 88.3156 69.4113 87.5147C73.1822 86.1131 73.7829 86.1131 76.1856 87.3478C77.9876 88.2488 78.6217 88.3823 80.8242 88.4157C84.6618 88.4157 87.4984 86.7805 89.1336 83.5769C91.7031 78.5045 88.2659 71.8636 82.6596 71.1295C81.3247 70.9292 81.0578 70.7958 81.258 70.3619C82.9933 66.324 84.1613 61.1515 83.9944 58.2482C83.8943 56.6131 83.8276 56.4462 82.8932 56.1792L81.892 55.8789V53.1758C81.892 49.2047 81.2246 48.0367 75.418 41.9631C71.3468 37.6916 70.4791 36.9241 69.745 37.0242C68.9107 37.1243 68.8773 37.1911 68.7772 39.6605L68.6771 42.2301L67.2755 41.5293C64.172 40.0276 60.1675 39.4937 59.3666 40.4614C58.6324 41.3625 59.2998 45.1668 60.8683 49.0378C61.0685 49.505 60.935 49.6385 60.3343 49.6385C58.599 49.6385 58.0317 49.2714 58.0317 48.1702C57.9983 46.6017 56.9305 44.5327 55.5289 43.3647C52.9259 41.229 49.3219 41.2623 46.7189 43.4982C46.0181 44.1323 45.3507 44.6328 45.2506 44.6328C45.1505 44.6328 45.3841 43.8319 45.7511 42.8975C46.5521 40.7952 48.4542 29.7493 48.1872 28.6814C47.9203 27.6469 46.8858 27.7137 40.1782 29.4156ZM45.3507 31.1175C45.3507 31.2177 45.0504 33.2533 44.6499 35.6894C43.8824 40.5616 43.2149 42.6639 41.6799 45.0667L40.6787 46.6351H37.5752C34.8722 46.6351 34.2047 46.7686 32.9033 47.4694C31.4683 48.2035 31.2347 48.2369 30.1001 47.8365C27.6306 47.0022 26.5294 42.8642 27.9644 39.794C28.7653 38.0587 31.7353 35.2556 34.0379 34.1209C35.039 33.587 37.8088 32.686 40.1782 32.0853C44.6833 30.9841 45.3507 30.8506 45.3507 31.1175ZM75.2846 45.6673C78.6884 49.3048 79.3892 50.5729 79.3892 53.0757C79.3892 53.7431 79.2557 54.6442 79.0555 55.1114L78.7218 55.979H71.4469H64.172L62.37 54.1436C61.3688 53.1425 60.7681 52.3082 61.0351 52.3082C61.3021 52.3416 63.6381 52.5418 66.2076 52.7754C69.3445 53.0757 71.0798 53.1425 71.5136 52.9089C72.0809 52.6085 72.1143 52.2748 71.9141 48.5372C71.7806 46.3014 71.6137 43.8987 71.5136 43.1645C71.3801 42.3636 71.4469 41.9298 71.6471 41.9965C71.8473 42.0633 73.4825 43.7318 75.2846 45.6673ZM20.1555 42.8308C20.7562 43.0978 21.7907 44.1323 22.4915 45.1668C24.5939 48.2035 27.397 50.0056 31.3015 50.8065C34.0379 51.3738 35.6731 52.8755 35.6731 54.811V55.979H29.0322H22.3914L20.4559 54.544C17.7194 52.5418 14.716 49.1379 14.2822 47.5695C13.6148 45.0667 15.7172 42.3302 18.2534 42.2969C18.6872 42.2969 19.5548 42.5305 20.1555 42.8308ZM65.8739 43.7652C68.577 44.9999 68.9441 45.5005 69.211 48.0367L69.4446 50.3059H68.4435C67.9096 50.3059 66.7749 50.2058 65.9407 50.1057C64.5391 49.9055 64.3722 49.772 63.5379 48.2369C62.737 46.802 61.7025 43.7652 61.7025 42.8308C61.7025 42.397 64.0051 42.9309 65.8739 43.7652ZM52.8592 44.7663C54.9949 45.6673 55.9627 48.5039 54.8948 50.5729C54.3275 51.7075 52.1918 53.2426 49.0883 54.7776C46.7857 55.979 46.6855 55.979 42.5475 55.979H38.3428V54.8778C38.3094 53.5095 37.2749 51.1736 36.1736 50.1724L35.3394 49.3715L38.7432 49.238C41.7132 49.1379 42.4808 48.9711 44.3496 48.1034C45.5509 47.5361 47.086 46.6017 47.7534 46.0344C49.7223 44.2657 50.957 43.9988 52.8592 44.7663ZM58.6991 54.1436L60.5012 55.979H56.5634H52.6256L54.6612 54.4773C55.7958 53.643 56.6969 52.8421 56.6969 52.6419C56.6969 52.1413 56.7636 52.1747 58.6991 54.1436ZM81.258 60.5508C80.9576 63.2205 80.1901 66.0571 79.0221 68.8602C78.0877 71.1295 77.9543 71.263 76.0855 72.164C73.8496 73.2319 73.0821 73.1985 69.5447 71.8636C67.0753 70.9626 63.5379 70.6957 61.9028 71.2963C61.2353 71.5633 60.8683 71.4632 59.8004 70.5955C56.4633 67.9259 53.4599 67.0582 45.7178 66.4909C39.3105 66.0237 38.3428 66.1238 38.3428 67.2918C38.3428 68.2929 41.9468 78.3043 43.0815 80.44C43.6488 81.5079 44.8501 83.1764 45.7511 84.1108C46.6188 85.0452 47.353 85.8795 47.353 85.9129C47.353 86.3133 36.8077 85.5792 34.4717 85.0118C23.6595 82.4423 15.25 73.6323 13.181 62.6866C12.8806 61.1515 12.647 59.6164 12.647 59.2827C12.647 58.6487 13.548 58.6487 47.0526 58.6487H81.4916L81.258 60.5508ZM52.2919 69.8614C56.2297 70.8959 59.9005 73.4655 60.9016 75.8682C61.9028 78.2041 61.2687 81.8082 59.6002 83.6103C57.6646 85.7126 53.6601 86.3467 51.0572 85.0118C49.3552 84.1442 46.6855 81.5413 45.5843 79.6725C44.7834 78.2709 41.6799 70.0616 41.6799 69.2607C41.6799 68.7935 49.9559 69.2607 52.2919 69.8614ZM69.9452 74.8003C72.6816 75.9349 74.3835 75.9349 76.8864 74.6668C80.1567 73.065 83.8609 73.4321 85.7965 75.5678C87.2314 77.1363 87.7653 79.9728 87.0312 81.9083C86.5974 83.0763 85.1958 84.578 83.961 85.2454C82.2925 86.0797 79.189 85.8795 76.7195 84.7115C74.0498 83.4434 72.6482 83.41 69.9452 84.578C68.5102 85.1787 67.1086 85.479 65.3733 85.5792C62.0029 85.746 61.7359 85.5458 62.8705 83.4434L63.7382 81.7415L65.3066 82.242C67.9096 83.043 71.3801 82.3755 71.3801 81.0407C71.3801 79.9728 70.6126 79.6725 68.5102 79.8727C65.5402 80.1397 64.3722 79.4055 63.8383 77.0028C63.6047 76.0017 63.3377 74.8003 63.1709 74.3665L62.9373 73.5656L65.4067 73.7324C67.0085 73.8325 68.577 74.1996 69.9452 74.8003Z" fill="#557DB0"/>
</svg>
