<svg width="100" height="100" viewBox="0 0 100 100" fill="none" xmlns="http://www.w3.org/2000/svg">
<path fill-rule="evenodd" clip-rule="evenodd" d="M20.8919 15.2583C10.3865 20.9181 10.0038 21.2144 10 23.6937C9.99624 26.1053 11.2666 27.4883 13.7626 27.7902L15.1744 27.9611L15.2507 37.3373C15.3018 43.6096 15.4455 46.9394 15.6849 47.396C16.3773 48.7168 17.0229 48.7681 31.7609 48.6762L45.8184 48.5887L46.5751 47.7117L47.3322 46.8347V37.3198V27.8049H48.7753C49.9917 27.8049 50.3823 27.6417 51.2604 26.7669C52.3481 25.6833 52.8793 24.0078 52.5502 22.7008C52.238 21.4616 51.1516 20.3696 49.2001 19.3335L47.3322 18.3415V15.2393C47.3322 10.6896 46.823 10.0155 43.3744 10.0002C40.6283 9.98798 39.5952 10.624 39.2918 12.513C39.1836 13.1884 39.0245 13.7406 38.9385 13.7406C38.8526 13.7406 37.1945 12.8968 35.2534 11.8654C33.3123 10.834 31.4597 10.0052 31.136 10.0233C30.8122 10.0417 26.2025 12.3973 20.8919 15.2583ZM55.2813 10.7534C52.3071 12.5808 51.8487 16.5991 54.3404 19.0047C55.1915 19.8267 55.9897 20.1677 58.5005 20.7824C62.1972 21.6872 65.9385 23.4696 68.46 25.5265C71.2497 27.8024 73.8634 32.031 74.7459 35.6965C74.9423 36.5125 74.8959 36.5559 73.828 36.5559C72.3681 36.5559 71.4897 37.041 71.4897 37.8477C71.4897 38.6253 79.5756 49.5785 80.3464 49.8454C80.6448 49.9488 81.0925 49.9191 81.3413 49.7797C82.2156 49.2897 90 38.6143 90 37.9055C90 36.9794 89.1332 36.5559 87.2376 36.5559H85.6887L85.4885 35.0548C85.2146 32.9958 83.8825 29.0372 82.6342 26.5716C79.0265 19.4448 72.0397 13.7503 63.6463 11.0959C62.1796 10.6321 59.9913 10.1849 58.7835 10.1017C56.8261 9.96735 56.4452 10.0383 55.2813 10.7534ZM44.7617 14.3285C44.9032 16.801 44.7746 16.9582 43.2728 16.1459C42.0624 15.4912 42.0037 15.3902 42.0012 13.9572L41.9987 12.4545L43.3321 12.5508L44.6654 12.6467L44.7617 14.3285ZM60.4437 12.9862C65.0155 13.9238 70.2724 16.5488 74.056 19.7839C78.6042 23.6728 82.3157 30.518 82.9623 36.2106C83.219 38.4709 83.5785 39.0406 84.9228 39.3172L85.9331 39.5251L83.4957 42.8767C82.1554 44.7197 80.9607 46.2318 80.8412 46.2365C80.7216 46.2409 79.489 44.7388 78.102 42.8986L75.5802 39.5529L76.5938 39.2203C77.5689 38.9003 77.6059 38.8268 77.567 37.2898C77.5143 35.2067 76.154 31.1784 74.6904 28.7709C71.6058 23.6975 65.6502 19.6345 59.2541 18.2402C56.4132 17.6211 55.4893 16.9016 55.4893 15.3086C55.4893 14.0975 55.8883 13.4034 56.9011 12.8515C57.7105 12.4105 57.6176 12.4067 60.4437 12.9862ZM40.3312 17.5692C45.4852 20.308 49.4982 22.6345 49.7646 23.0386C50.1768 23.6644 50.1711 23.8281 49.714 24.5232C49.4314 24.9529 48.9093 25.3046 48.5535 25.3046C48.1981 25.3046 44.3542 23.4146 40.0115 21.1047C35.6691 18.7947 31.8939 16.8204 31.6226 16.7169C31.3229 16.6029 27.8876 18.254 22.8838 20.9168C18.3491 23.3299 14.3813 25.3046 14.0663 25.3046C12.801 25.3046 12.0942 23.7537 12.8999 22.7455C13.2061 22.3623 30.8624 12.803 31.264 12.803C31.3176 12.803 35.3977 14.948 40.3312 17.5692ZM38.7045 23.3668C41.8104 25.0098 44.4555 26.505 44.5823 26.6891C44.709 26.8729 44.8148 31.2778 44.8176 36.4778L44.8223 45.9321H40.7438H36.6652L36.6583 43.5099C36.6473 39.6479 35.3748 37.6164 32.4797 36.8397C30.9085 36.4184 29.2887 36.83 27.8835 38.008C26.355 39.2891 25.9983 40.2833 25.9983 43.2599V45.9321H21.9153H17.8324L17.9152 36.2203L17.998 26.5088L24.5864 22.9743C31.1033 19.4782 31.1852 19.4451 32.1161 19.9095C32.6337 20.168 35.5985 21.7235 38.7045 23.3668ZM22.5472 27.3842C22.2883 27.4873 21.7588 27.8599 21.3707 28.2118C20.7627 28.7628 20.6648 29.1657 20.6648 31.1156C20.6648 32.3607 20.7526 33.6071 20.8596 33.8853C21.1812 34.7198 22.721 35.3058 24.5915 35.3058C27.7053 35.3058 28.484 34.5151 28.4981 31.3384C28.5066 29.4163 28.4005 28.965 27.7661 28.2305C27.1214 27.4839 26.7606 27.3595 25.021 27.2835C23.9191 27.2354 22.806 27.2807 22.5472 27.3842ZM35.3573 27.658C34.2702 28.2459 33.7312 29.9101 33.9144 32.1123C34.123 34.6179 34.9949 35.3058 37.9619 35.3058C39.9782 35.3058 40.2421 35.2286 41.0816 34.3922C41.8917 33.5849 41.9987 33.2596 41.9987 31.5997C41.9987 29.2053 41.6319 28.2677 40.4592 27.6636C39.2865 27.0595 36.4688 27.0563 35.3573 27.658ZM25.9377 31.3209C25.8417 32.6461 25.8386 32.6492 24.5864 32.6492C23.3343 32.6492 23.3312 32.6461 23.2352 31.3209L23.1386 29.9926H24.5864H26.0343L25.9377 31.3209ZM39.1751 31.3991V32.8055H37.9201H36.6652V31.3991V29.9926H37.9201H39.1751V31.3991ZM33.0714 40.1361C33.7616 40.8233 33.8416 41.1646 33.8416 43.4177V45.9321H31.1749H28.5081V43.6121C28.5081 41.5722 28.6063 41.1759 29.3204 40.3305C30.3701 39.0878 31.9375 39.0065 33.0714 40.1361ZM53.7029 50.7483C52.8388 51.4875 52.8197 51.5775 52.6656 55.633L52.5088 59.7647L50.5043 60.8961C48.0629 62.2747 47.2255 63.5536 47.4357 65.5829C47.6365 67.5182 49.2143 69.0662 51.2146 69.2909L52.6656 69.4537V78.6536C52.6656 88.0151 52.7447 88.7208 53.8933 89.5993C54.2676 89.8856 57.9593 89.9825 68.7586 89.99L83.1264 90L83.8963 89.2327L84.6665 88.4658V78.9189V69.3725H85.6178C88.2001 69.3725 89.9969 67.5482 89.9987 64.9238C89.9997 63.7449 89.8246 63.253 89.1372 62.5038C88.4175 61.7197 77.9162 55.8921 70.4575 52.1379L68.641 51.2237L64.7698 53.2696L60.8987 55.3151L60.7587 53.3893C60.6414 51.7725 60.4817 51.3456 59.7623 50.7292C59.0423 50.1123 58.5601 49.9951 56.7442 49.9951C54.9132 49.9951 54.4486 50.1101 53.7029 50.7483ZM13.6971 51.5406C10.9936 52.3957 9.83247 54.3553 10.0885 57.6295C10.5607 63.6677 14.515 71.4274 19.5463 76.1886C24.1777 80.571 28.6073 82.7572 35.8024 84.2118C36.6241 84.3777 36.6652 84.4728 36.6652 86.193C36.6652 87.9998 37.0191 88.7498 37.8715 88.7498C38.1206 88.7498 40.916 86.819 44.0835 84.459C48.9121 80.8611 49.842 80.0397 49.842 79.3737C49.842 78.7077 48.9121 77.8863 44.0835 74.2884C40.916 71.9284 38.1206 69.9975 37.8715 69.9975C37.0756 69.9975 36.6652 70.7101 36.6652 72.0916C36.6652 73.0592 36.5375 73.4355 36.2087 73.4355C35.3456 73.4355 31.648 71.9506 29.887 70.8967C25.6873 68.3833 21.9426 62.7738 20.7084 57.1463C20.3865 55.6795 19.8776 54.1056 19.5771 53.649C18.4548 51.9428 15.6287 50.9293 13.6971 51.5406ZM57.9991 54.8085C57.9991 56.7719 57.9781 56.8215 56.8769 57.4688C56.2598 57.8314 55.6245 58.048 55.4651 57.9501C55.3057 57.852 55.1755 56.655 55.1755 55.2898V52.8079H56.5873H57.9991V54.8085ZM16.8629 54.605C17.3097 54.9751 17.7762 56.1549 18.3052 58.2527C19.664 63.6402 21.9116 67.5654 25.5289 70.867C28.8313 73.8818 34.7596 76.4433 37.8442 76.1889C38.9087 76.1011 39.033 75.9948 39.1751 75.05L39.3319 74.008L41.5281 75.6454C42.736 76.5462 44.3297 77.7676 45.0698 78.3595L46.4158 79.4359L42.8737 82.0828L39.3319 84.7297L39.2278 83.6936C39.0822 82.2444 38.7459 81.9593 36.8848 81.7084C32.635 81.1352 27.2482 78.9896 23.9784 76.5674C22.0546 75.1422 18.9452 71.9234 17.6137 69.9788C15.1277 66.3474 12.9792 60.968 12.6103 57.4504C12.4405 55.8321 12.4958 55.6045 13.2359 54.8669C14.205 53.9015 15.869 53.7815 16.8629 54.605ZM77.776 58.9452C82.5149 61.4615 86.639 63.7336 86.9411 63.9943C87.7549 64.6975 87.6263 65.8311 86.6619 66.4609C85.8543 66.9878 85.7891 66.9772 84.0736 66.0336C77.829 62.5998 69.1458 58.1211 68.7329 58.1211C68.4634 58.1211 64.5138 60.1073 59.9559 62.5348C52.2835 66.6209 51.6131 66.9184 50.9125 66.5449C50.3522 66.2461 50.1558 65.8792 50.1558 65.1301C50.1558 63.9799 50.1213 64.004 56.7442 60.5267C58.9011 59.3944 62.36 57.5523 64.4307 56.4331C66.5013 55.3142 68.4126 54.3922 68.6777 54.3847C68.9428 54.3769 73.037 56.4293 77.776 58.9452ZM75.7016 64.5281L82.1504 67.966L82.1535 77.7422L82.1567 87.5184L78.1565 87.4309L74.1564 87.3434L73.9996 84.3499C73.8612 81.7121 73.7423 81.2252 72.9975 80.2526C70.7505 77.3181 66.3918 77.4522 64.2813 80.5207C63.6357 81.4593 63.4951 82.0968 63.3863 84.5762L63.257 87.5178L59.2945 87.4306L55.3324 87.3434V77.6547V67.966L61.9208 64.4506C65.5444 62.5172 68.6764 60.9702 68.8807 61.0127C69.0852 61.0552 72.1545 62.6373 75.7016 64.5281ZM59.3683 69.1131C58.4274 69.5669 57.9991 70.6839 57.9991 72.6844C57.9991 74.5162 58.5924 76.0483 59.425 76.3668C59.7043 76.4733 60.9554 76.5608 62.2054 76.5608C64.2431 76.5608 64.5568 76.4774 65.2389 75.7542C65.9043 75.0485 65.9993 74.6544 65.9993 72.6019C65.9993 70.4188 65.9382 70.2035 65.119 69.5015C64.3708 68.8605 63.9243 68.7505 62.1385 68.7686C60.9834 68.7802 59.7369 68.9352 59.3683 69.1131ZM72.2599 69.5147C71.5775 70.1941 71.4897 70.552 71.4897 72.6541C71.4897 74.7563 71.5775 75.1141 72.2599 75.7936C72.9486 76.4799 73.2937 76.5608 75.5312 76.5608C77.8598 76.5608 78.0775 76.504 78.6827 75.7373C79.2079 75.0725 79.333 74.4678 79.333 72.5979C79.333 70.5554 79.2421 70.191 78.5628 69.5147C77.8808 68.8349 77.5215 68.7474 75.4114 68.7474C73.3012 68.7474 72.942 68.8349 72.2599 69.5147ZM63.3326 72.6541V74.0605H62.0777H60.8227V72.6541V71.2477H62.0777H63.3326V72.6541ZM76.8232 72.6541V74.0605H75.4114H73.9996V72.8626C73.9996 72.2034 74.0937 71.5706 74.2088 71.4562C74.3237 71.3415 74.959 71.2477 75.6206 71.2477H76.8232V72.6541ZM70.7044 81.5771C71.2315 82.1015 71.3328 82.6175 71.3328 84.7731V87.3434L68.7445 87.4341L66.1562 87.525V84.9156C66.1562 82.2409 66.3677 81.6505 67.568 80.972C68.3969 80.5032 69.9207 80.7973 70.7044 81.5771Z" fill="#557DB0"/>
</svg>
