<svg width="100" height="100" viewBox="0 0 100 100" fill="none" xmlns="http://www.w3.org/2000/svg">
<g clip-path="url(#clip0_18_501)">
<mask id="mask0_18_501" style="mask-type:luminance" maskUnits="userSpaceOnUse" x="10" y="10" width="79" height="80">
<path d="M89 10H10V90H89V10Z" fill="white"/>
</mask>
<g mask="url(#mask0_18_501)">
<path fill-rule="evenodd" clip-rule="evenodd" d="M26.593 11.1482C25.5655 11.8122 24.4485 12.7068 24.111 13.1359C23.5789 13.8122 23.1845 13.936 21.1435 14.0671C16.7703 14.3476 13.0465 16.8533 11.0865 20.8344C10.1737 22.688 10.0805 23.1443 10.088 25.7154C10.0952 28.136 10.2235 28.831 10.9636 30.461C12.0593 32.8738 14.4666 35.2772 16.947 36.4342C18.6196 37.2139 19.1754 37.3097 22.0534 37.3122C24.6859 37.3143 25.335 37.4072 25.563 37.8148C26.1073 38.7872 29.1667 40.5814 31.1295 41.0796C33.5847 41.7024 35.4746 41.4844 37.9582 40.292C44.3351 37.2302 45.8632 28.6903 40.9185 23.7458C39.1074 21.9348 36.8581 20.882 34.3507 20.6718C32.2759 20.4979 32.2606 20.4898 31.2252 18.9881C30.1345 17.4063 28.9146 16.3407 27.1595 15.4364L26.1113 14.8966L26.782 14.1828C27.1508 13.7903 28.0088 13.2032 28.6891 12.8779C29.4567 12.511 29.8665 12.1275 29.7692 11.8666C29.6832 11.6358 29.5277 11.1078 29.4235 10.6937C29.168 9.67528 28.7742 9.73846 26.593 11.1482ZM72.3723 11.395C71.0029 11.7884 70.7714 15.4527 72.002 17.2653L72.7864 18.4216L71.7674 19.6493C70.8158 20.7953 69.966 21.2489 69.966 20.6111C69.966 20.05 67.7883 19.3243 66.1048 19.3243C63.8724 19.3243 63.3972 19.9111 63.3972 22.6673C63.3972 24.398 63.5058 24.7433 64.3513 25.7063C64.8758 26.3041 65.7767 26.9484 66.3525 27.1386L67.3998 27.4842L66.9759 29.091C66.7426 29.9749 66.4573 31.6577 66.3416 32.8306L66.1317 34.9635H67.4232C68.5396 34.9635 68.7148 34.8715 68.7148 34.2854C68.7148 33.9122 68.869 32.7224 69.0573 31.6411L69.3995 29.6753L71.4026 29.8623L73.4058 30.0493L74.9701 28.4848C76.0054 27.4498 76.5347 26.6585 76.5347 26.1458C76.5347 25.3651 74.799 23.272 73.5631 22.5619C72.9672 22.2194 73.001 22.1369 74.2844 20.8122L75.631 19.4216L76.6526 20.4431C77.7558 21.5463 79.4118 22.0358 80.8334 21.679C82.0189 21.3815 84.3546 18.8896 84.3546 17.9221C84.3546 17.5011 83.9251 16.6675 83.4006 16.0701L82.4465 14.9835L83.6351 14.6345C84.2889 14.4424 85.6333 14.2031 86.6224 14.1027L88.4209 13.9201V12.6664V11.4131L86.0684 11.6117C84.6158 11.7346 82.7994 12.1666 81.3211 12.7406L78.9263 13.6705L77.9382 12.5276C77.0123 11.4563 76.8243 11.3796 74.9438 11.3086C73.8403 11.267 72.6832 11.3058 72.3723 11.395ZM76.0602 14.3139C76.5122 14.8134 76.5463 15.0236 76.2369 15.3967C75.2037 16.6413 73.7195 16.168 73.7195 14.5944C73.7195 13.8137 73.8374 13.6942 74.6094 13.6942C75.0993 13.6942 75.7514 13.9729 76.0602 14.3139ZM21.7954 16.6263C21.7954 16.6907 21.5827 17.346 21.3227 18.0826C21.0628 18.8192 20.9174 19.4892 20.9996 19.5711C21.0816 19.6531 21.6565 19.7369 22.2768 19.7569C23.3149 19.7907 23.4385 19.6978 23.8226 18.5974C24.0522 17.9393 24.3309 17.3103 24.4419 17.1993C24.7785 16.8627 27.386 18.4147 28.3729 19.5386C32.5071 24.2469 31.1764 31.1988 25.619 33.9278C19.6508 36.8586 12.6392 32.541 12.5848 25.9015C12.5501 21.6827 15.2733 18.0122 19.2279 16.9478C20.7175 16.5471 21.7954 16.412 21.7954 16.6263ZM46.5063 16.711C45.9041 16.7667 44.4484 16.9703 43.2716 17.1636L41.1318 17.5146L41.3445 18.654C41.4615 19.2808 41.6076 19.8445 41.6689 19.9067C41.7302 19.969 42.6792 19.8636 43.7777 19.6721C44.8766 19.4807 45.9398 19.3243 46.1409 19.3243C46.4134 19.3243 46.5063 22.4659 46.5063 31.6792V44.0342H32.4589H18.4112L18.8163 42.5485C19.039 41.7315 19.3762 40.6714 19.5658 40.1932C19.9289 39.2767 19.9677 39.3133 17.846 38.5758C17.3646 38.4088 16.9642 39.3862 16.1438 42.7311C15.5729 45.0595 15.5182 45.6647 15.8438 46.0569C16.1919 46.4764 18.2727 46.5364 32.4764 46.5364H48.7115L49.0258 45.7094C49.2241 45.1877 49.308 39.8116 49.2526 31.1397C49.1685 17.9506 49.1406 17.3788 48.5579 16.9531C48.2238 16.7088 47.8719 16.5318 47.7759 16.5593C47.6796 16.5868 47.1084 16.655 46.5063 16.711ZM80.8785 17.2534L81.5776 17.9978L80.7728 18.6309C79.8894 19.3256 78.8209 19.248 78.1769 18.4426C77.6129 17.7376 77.6826 17.5236 78.6461 17.001C79.8187 16.3648 80.0702 16.3932 80.8785 17.2534ZM52.1992 17.1974C51.9161 17.4805 51.8238 21.9667 51.8238 35.4696C51.8238 45.3128 51.9092 53.5891 52.0137 53.8612C52.1832 54.3028 53.8229 54.356 67.3025 54.356C80.4794 54.356 82.4518 54.295 82.7987 53.8771C83.4046 53.1471 82.997 45.7789 82.1766 42.6267C81.0465 38.284 80.0073 35.8627 77.7142 32.2297C76.4171 30.1741 76.3673 30.1582 74.8775 31.3283C74.3476 31.7446 74.3936 31.8929 75.6798 33.9141C78.5616 38.4416 80.1215 43.2691 80.4912 48.8041L80.6952 51.8538H67.5105H54.3262V35.7454C54.3262 26.8858 54.4084 19.6371 54.5085 19.6371C54.7731 19.6371 59.5114 20.857 60.051 21.064C60.36 21.1829 60.6206 20.9151 60.8577 20.2351C61.05 19.6828 61.2077 19.1307 61.2077 19.0084C61.2077 18.573 54.5733 16.8221 52.9236 16.8221C52.7315 16.8221 52.4056 16.991 52.1992 17.1974ZM17.2038 21.3865C17.4384 22.8322 18.6524 24.4149 20.0265 25.0667C22.0159 26.0107 25.3638 25.5262 26.5261 24.1259C26.8351 23.7533 26.7504 23.5115 26.0735 22.8347C25.2565 22.0177 25.2233 22.0121 24.33 22.5397C22.9346 23.3639 21.5877 23.231 20.5201 22.1635C20.0171 21.6605 19.6058 21.0271 19.6058 20.7559C19.6058 20.3865 19.2817 20.2627 18.3136 20.2627H17.0215L17.2038 21.3865ZM68.0892 22.4522C68.8399 23.2028 68.9103 24.4996 68.2143 24.7667C67.9394 24.8722 67.341 24.7808 66.8849 24.5634C66.2418 24.2566 66.0341 23.9057 65.9591 22.9973C65.8699 21.9245 65.9287 21.8266 66.6628 21.8266C67.1033 21.8266 67.7451 22.1081 68.0892 22.4522ZM35.6003 23.4399C36.2653 23.6392 36.8096 23.9197 36.8096 24.0633C36.8096 24.4605 33.9172 28.395 33.625 28.395C33.4839 28.395 33.3688 27.4213 33.3688 26.2312C33.3688 25.0411 33.2834 23.8447 33.179 23.5725C32.9453 22.9636 33.8455 22.9141 35.6003 23.4399ZM73.2772 25.6097C73.8618 26.2556 73.86 26.2737 73.1349 26.8608C72.3316 27.5111 71.0614 27.6509 70.7364 27.1251C70.6235 26.9425 70.7026 26.3795 70.9122 25.874C71.3723 24.7627 72.4064 24.6473 73.2772 25.6097ZM40.5506 27.8098C40.9257 28.6812 41.1693 29.4569 41.0924 29.5339C41.0154 29.6108 39.8853 29.6324 38.5806 29.5817L36.209 29.4898L37.6538 27.538C39.2979 25.3172 39.4859 25.3348 40.5506 27.8098ZM31.3372 34.742C30.5627 38.0472 30.5465 38.0913 30.1154 38.0913C29.8977 38.0913 29.1889 37.6328 28.5408 37.0726L27.3622 36.0535L28.7482 35.0579C29.5108 34.5106 30.4752 33.5647 30.8915 32.9557C31.8746 31.5185 31.9872 31.9695 31.3372 34.742ZM41.0301 32.4575C41.2457 32.8065 40.1768 35.4042 39.6954 35.7016C39.4177 35.8734 36.4968 32.7974 36.4968 32.3333C36.4968 32.0139 40.8293 32.1328 41.0301 32.4575ZM35.4811 35.3207C37.6169 37.6816 37.6313 37.7285 36.3729 38.2543C34.91 38.8654 32.9262 38.8811 33.1571 38.2793C33.2493 38.0388 33.4939 36.9831 33.7004 35.9334C33.9068 34.884 34.1283 34.0251 34.1924 34.0251C34.2565 34.0251 34.8365 34.6081 35.4811 35.3207ZM58.3925 36.2146V37.4657H59.6437H60.8949V36.2146V34.9635H59.6437H58.3925V36.2146ZM68.7148 37.4479V38.7169H70.1411H71.5678L71.4705 37.5439C71.3764 36.4054 71.3344 36.3682 70.0442 36.275L68.7148 36.1786V37.4479ZM63.71 38.7169V39.968H64.9612H66.2124V38.7169V37.4657H64.9612H63.71V38.7169ZM57.1413 41.5319V42.783H58.3925H59.6437V41.5319V40.2808H58.3925H57.1413V41.5319ZM68.7148 42.783V44.0342H70.1224H71.5299V42.783V41.5319H70.1224H68.7148V42.783ZM75.2835 42.783V44.0342H76.5347H77.7859V42.783V41.5319H76.5347H75.2835V42.783ZM63.71 44.0342V45.2853H64.9612H66.2124V44.0342V42.783H64.9612H63.71V44.0342ZM58.3925 46.6928V48.1004H59.6437H60.8949V46.6928V45.2853H59.6437H58.3925V46.6928ZM68.7148 48.1182V49.3875L70.0442 49.2911C71.3344 49.1979 71.3764 49.1607 71.4705 48.0222L71.5678 46.8492H70.1411H68.7148V48.1182ZM15.5341 49.8272C15.2526 50.166 15.1872 51.0705 15.3058 52.9735C15.3974 54.4427 15.5513 55.7235 15.6477 55.8198C15.7443 55.9162 16.3415 55.8977 16.9746 55.7789L18.1263 55.563L17.9323 53.7082L17.7387 51.8538H32.1223H46.5063V66.8673C46.5063 80.9592 46.4728 81.8806 45.9589 81.8769C45.6576 81.8747 44.0743 81.595 42.4399 81.2554C40.8056 80.9157 39.3767 80.636 39.2644 80.6339C38.9338 80.6273 38.3432 82.6031 38.6041 82.8424C39.3245 83.5033 47.3205 84.8439 48.3005 84.4679C48.5441 84.3744 48.8738 83.9559 49.0327 83.5384C49.1954 83.1095 49.3214 75.7964 49.3214 66.7601C49.3214 52.7686 49.2598 50.6539 48.8344 50.0468L48.3477 49.3515H32.1383C18.0133 49.3515 15.8782 49.4128 15.5341 49.8272ZM52.1992 57.5464C51.9195 57.826 51.8238 61.201 51.8238 70.8015C51.8238 82.0076 51.8864 83.7329 52.3046 84.0801C52.6924 84.402 53.207 84.4038 54.9633 84.0901C57.2555 83.6804 57.3712 83.5534 56.9355 81.9263C56.7591 81.2672 56.6118 81.21 55.5323 81.3827L54.3262 81.5756V70.6245V59.6733H66.645C78.4709 59.6733 78.9704 59.6971 79.119 60.2657C79.2557 60.7887 81.0543 61.5137 81.388 61.18C81.4521 61.1159 81.6795 60.4096 81.8932 59.6108C82.5845 57.0266 83.4662 57.1711 67.0188 57.1711C56.2014 57.1711 52.4804 57.2652 52.1992 57.5464ZM75.0721 63.0007C73.1631 63.677 71.1124 65.6247 70.2853 67.547C69.8255 68.6158 69.4642 70.3721 69.25 72.5813L68.9206 75.9743L67.5459 76.7801C66.5211 77.3806 66.0807 77.4954 65.8164 77.2311C65.2018 76.6165 62.9556 76.8154 61.8014 77.5864C58.7913 79.597 59.1223 84.0435 62.3891 85.4848C63.2215 85.852 63.7041 86.3465 64.0732 87.2114C65.3356 90.1672 69.7239 90.6026 71.7893 87.9774C72.6701 86.8576 72.9626 84.863 72.377 83.9697C71.9553 83.3257 71.9829 83.1483 72.6923 81.9469C73.1202 81.2225 73.6319 80.6267 73.8296 80.6229C74.027 80.6192 75.9629 80.428 78.1312 80.1985C84.0039 79.5767 86.2964 78.131 87.8238 74.0861C89.4644 69.7421 86.9636 64.4811 82.5419 62.9744C80.754 62.3651 76.8265 62.3789 75.0721 63.0007ZM81.784 65.4764C84.293 66.5245 85.7068 68.6039 85.7068 71.2463C85.7068 73.2656 85.1306 74.5283 83.5926 75.8783C82.2385 77.0675 81.1115 77.375 76.6911 77.7625L73.2503 78.0643L72.3607 77.2358C71.4849 76.4197 71.4746 76.3694 71.6813 73.905C72.1202 68.6752 73.0317 66.8088 75.7499 65.574C77.3082 64.8662 80.2107 64.8192 81.784 65.4764ZM76.134 68.3615C75.3207 68.8651 74.0323 70.982 74.0323 71.8143C74.0323 72.0383 74.53 72.1847 75.2913 72.1847C76.3426 72.1847 76.5988 72.057 76.844 71.4114C77.16 70.5807 78.2992 70.1309 79.2907 70.4456C79.7512 70.5916 80.064 70.3865 80.5579 69.6136C81.1644 68.6643 81.1744 68.5586 80.6911 68.1967C79.9263 67.6243 77.1621 67.7244 76.134 68.3615ZM69.9262 81.5475C68.8818 83.4473 68.8768 83.4749 69.4189 84.4188C70.097 85.6002 70.1011 85.9052 69.4483 86.6262C68.3867 87.7994 66.2124 86.9815 66.2124 85.4088C66.2124 84.1358 65.6534 83.4448 64.6231 83.4448C63.6278 83.4448 62.1461 82.2622 62.1461 81.468C62.1461 80.8606 63.3522 79.3787 63.8471 79.3787C64.0694 79.3787 64.624 79.6717 65.0795 80.0302L65.9077 80.6814L67.8587 79.5948C69.7398 78.5467 69.8305 78.5279 70.3954 79.0684C70.9663 79.6151 70.9544 79.6774 69.9262 81.5475Z" fill="#557DB0"/>
<path d="M14.3626 65.111C14.4142 65.5906 14.7153 66.693 15.0374 67.5474C15.4739 68.7373 15.5601 69.4034 15.3261 70.4732C14.5859 74.0374 15.9792 77.0148 19.1944 78.727C20.5139 79.415 20.8855 79.4908 22.8138 79.4433L24.9886 79.3602L26.4741 80.6632C28.3831 82.3218 29.2469 83.526 30.6369 86.4448L31.746 88.8129L32.5765 88.631C34.0395 88.3241 38.4884 86.4009 38.666 85.9923C38.7601 85.776 38.5214 84.7293 38.1508 83.6538C37.0703 80.5552 36.8802 79.5297 37.0528 77.4045C37.2255 75.0794 37.6541 73.8941 38.3769 73.6941C38.6445 73.6104 39.3087 73.0134 39.8409 72.3875C42.7107 68.9776 41.8684 63.8682 38.0773 61.4199C37.2893 60.9058 36.8903 60.3609 36.3046 59.049C35.3897 56.9653 34.8588 56.3917 32.9489 55.5328C31.8308 55.0467 31.1465 54.8921 30.1563 54.9759C29.2947 55.0299 28.1693 54.8263 26.9016 54.4181C23.1684 53.1665 20.3323 54.3051 18.6437 57.6571C17.9996 59.0058 17.5682 59.5326 16.9495 59.8922C15.8719 60.5095 14.2599 63.7519 14.3626 65.111ZM17.6944 61.702C18.1674 61.279 18.7827 60.8607 19.1094 60.7741C19.5647 60.6577 19.7247 60.3558 20.0943 59.1735C20.443 58.0393 20.7353 57.5664 21.5004 56.8703C22.9504 55.5291 24.1873 55.4097 26.5488 56.2935C28.0768 56.9006 28.7228 57.01 29.5672 56.8628C30.8668 56.5992 32.0165 56.8133 32.9781 57.46C33.8043 58.0191 35.15 60.1758 34.962 60.6083C34.6903 61.2332 35.405 62.1154 36.8667 63.008C38.5748 64.065 38.9149 64.4128 39.4206 65.7757C40.5292 68.7436 38.792 72.0744 35.7896 72.7978C33.722 73.299 33.0651 73.6135 32.7725 74.2864C32.1875 75.6322 29.4765 76.6824 28.1153 76.0906C27.459 75.8052 26.9933 75.9457 24.7617 77.09C21.967 78.5322 18.5603 77.1941 17.2954 74.1868C16.7861 72.9653 16.8183 72.0935 17.4111 70.0653C17.7667 68.8483 17.7288 68.6032 17.0595 67.4836C16.2688 66.1112 16.0206 64.2888 16.5012 63.1834C16.6789 62.7748 17.2215 62.125 17.6944 61.702ZM27.9083 78.0293C28.4571 78.0964 29.5689 78.0655 30.368 77.9557C31.5425 77.7805 32.1056 77.4824 33.3574 76.398C34.2024 75.6509 34.9777 75.1308 35.1131 75.2183C35.2137 75.3191 35.2717 76.3158 35.2184 77.4357C35.1395 79.7444 35.419 81.4947 36.2577 83.488C36.5973 84.2357 36.7946 84.9786 36.7423 85.0988C36.6065 85.4113 33.0753 86.8191 32.7836 86.6923C32.6621 86.6395 32.1315 85.666 31.6499 84.5136C30.7627 82.4991 29.6976 81.0931 27.6673 79.1817C27.1293 78.6907 26.7443 78.1804 26.7861 78.0843C26.8383 77.9642 27.3456 77.9275 27.9083 78.0293Z" fill="#59AA8A"/>
</g>
</g>
<defs>
<clipPath id="clip0_18_501">
<rect width="79" height="80" fill="white" transform="translate(10 10)"/>
</clipPath>
</defs>
</svg>
