<svg width="100" height="100" viewBox="0 0 100 100" fill="none" xmlns="http://www.w3.org/2000/svg">
<path d="M14.3626 65.111C14.4142 65.5906 14.7153 66.693 15.0374 67.5474C15.4739 68.7373 15.5601 69.4034 15.3261 70.4732C14.5859 74.0374 15.9792 77.0148 19.1944 78.727C20.5139 79.415 20.8855 79.4908 22.8138 79.4433L24.9886 79.3602L26.4741 80.6632C28.3831 82.3218 29.2469 83.526 30.6369 86.4448L31.746 88.8129L32.5765 88.631C34.0395 88.3241 38.4884 86.4009 38.666 85.9923C38.7601 85.776 38.5214 84.7293 38.1508 83.6538C37.0703 80.5552 36.8802 79.5297 37.0528 77.4045C37.2255 75.0794 37.6541 73.8941 38.3769 73.6941C38.6445 73.6104 39.3087 73.0134 39.8409 72.3875C42.7107 68.9776 41.8684 63.8682 38.0773 61.4199C37.2893 60.9058 36.8903 60.3609 36.3046 59.049C35.3897 56.9653 34.8588 56.3917 32.9489 55.5328C31.8308 55.0467 31.1465 54.8921 30.1563 54.9759C29.2947 55.0299 28.1693 54.8263 26.9016 54.4181C23.1684 53.1665 20.3323 54.3051 18.6437 57.6571C17.9996 59.0058 17.5682 59.5326 16.9495 59.8922C15.8719 60.5095 14.2599 63.7519 14.3626 65.111ZM17.6944 61.702C18.1674 61.279 18.7827 60.8607 19.1094 60.7741C19.5647 60.6577 19.7247 60.3558 20.0943 59.1735C20.443 58.0393 20.7353 57.5664 21.5004 56.8703C22.9504 55.5291 24.1873 55.4097 26.5488 56.2935C28.0768 56.9006 28.7228 57.01 29.5672 56.8628C30.8668 56.5992 32.0165 56.8133 32.9781 57.46C33.8043 58.0191 35.15 60.1758 34.962 60.6083C34.6903 61.2332 35.405 62.1154 36.8667 63.008C38.5748 64.065 38.9149 64.4128 39.4206 65.7757C40.5292 68.7436 38.792 72.0744 35.7896 72.7978C33.722 73.299 33.0651 73.6135 32.7725 74.2864C32.1875 75.6322 29.4765 76.6824 28.1153 76.0906C27.459 75.8052 26.9933 75.9457 24.7617 77.09C21.967 78.5322 18.5603 77.1941 17.2954 74.1868C16.7861 72.9653 16.8183 72.0935 17.4111 70.0653C17.7667 68.8483 17.7288 68.6032 17.0595 67.4836C16.2688 66.1112 16.0206 64.2888 16.5012 63.1834C16.6789 62.7748 17.2215 62.125 17.6944 61.702ZM27.9083 78.0293C28.4571 78.0964 29.5689 78.0655 30.368 77.9557C31.5425 77.7805 32.1056 77.4824 33.3574 76.398C34.2024 75.6509 34.9777 75.1308 35.1131 75.2183C35.2137 75.3191 35.2717 76.3158 35.2184 77.4357C35.1395 79.7444 35.419 81.4947 36.2577 83.488C36.5973 84.2357 36.7946 84.9786 36.7423 85.0988C36.6065 85.4113 33.0753 86.8191 32.7836 86.6923C32.6621 86.6395 32.1315 85.666 31.6499 84.5136C30.7627 82.4991 29.6976 81.0931 27.6673 79.1817C27.1293 78.6907 26.7443 78.1804 26.7861 78.0843C26.8383 77.9642 27.3456 77.9275 27.9083 78.0293Z" fill="#59AA8A" stroke="#59AA8A" stroke-width="0.4"/>
<path fill-rule="evenodd" clip-rule="evenodd" d="M26.5928 11.1482C25.5653 11.8122 24.4483 12.7068 24.1108 13.1359C23.5787 13.8122 23.1843 13.936 21.1433 14.0671C16.7701 14.3476 13.0462 16.8533 11.0862 20.8344C10.1735 22.688 10.0803 23.1443 10.0878 25.7154C10.095 28.136 10.2232 28.831 10.9633 30.461C12.059 32.8738 14.4663 35.2772 16.9468 36.4342C18.6193 37.2139 19.1751 37.3097 22.0532 37.3122C24.6857 37.3143 25.3348 37.4072 25.5628 37.8148C26.1071 38.7872 29.1665 40.5814 31.1293 41.0796C33.5845 41.7024 35.4744 41.4844 37.958 40.292C44.3349 37.2302 45.863 28.6903 40.9183 23.7458C39.1072 21.9348 36.8579 20.882 34.3505 20.6718C32.2757 20.4979 32.2604 20.4898 31.225 18.9881C30.1343 17.4063 28.9144 16.3407 27.1593 15.4364L26.1111 14.8966L26.7818 14.1828C27.1506 13.7903 28.0086 13.2032 28.6889 12.8779C29.4565 12.511 29.8663 12.1275 29.769 11.8666C29.683 11.6358 29.5275 11.1078 29.4233 10.6937C29.1678 9.67528 28.774 9.73846 26.5928 11.1482ZM72.3721 11.395C71.0027 11.7884 70.7712 15.4527 72.0018 17.2653L72.7862 18.4216L71.7672 19.6493C70.8156 20.7953 69.9658 21.2489 69.9658 20.6111C69.9658 20.05 67.7881 19.3243 66.1046 19.3243C63.8722 19.3243 63.397 19.9111 63.397 22.6673C63.397 24.398 63.5056 24.7433 64.3511 25.7063C64.8756 26.3041 65.7765 26.9484 66.3523 27.1386L67.3996 27.4842L66.9757 29.091C66.7424 29.9749 66.4571 31.6577 66.3414 32.8306L66.1315 34.9635H67.423C68.5394 34.9635 68.7146 34.8715 68.7146 34.2854C68.7146 33.9122 68.8688 32.7224 69.0571 31.6411L69.3993 29.6753L71.4024 29.8623L73.4056 30.0493L74.9699 28.4848C76.0052 27.4498 76.5345 26.6585 76.5345 26.1458C76.5345 25.3651 74.7988 23.272 73.5629 22.5619C72.967 22.2194 73.0008 22.1369 74.2842 20.8122L75.6308 19.4216L76.6524 20.4431C77.7556 21.5463 79.4116 22.0358 80.8332 21.679C82.0187 21.3815 84.3544 18.8896 84.3544 17.9221C84.3544 17.5011 83.9249 16.6675 83.4004 16.0701L82.4463 14.9835L83.6349 14.6345C84.2887 14.4424 85.6331 14.2031 86.6222 14.1027L88.4207 13.9201V12.6664V11.4131L86.0682 11.6117C84.6156 11.7346 82.7992 12.1666 81.3209 12.7406L78.9261 13.6705L77.938 12.5276C77.0121 11.4563 76.8241 11.3796 74.9436 11.3086C73.8401 11.267 72.683 11.3058 72.3721 11.395ZM76.06 14.3139C76.512 14.8134 76.5461 15.0236 76.2367 15.3967C75.2035 16.6413 73.7193 16.168 73.7193 14.5944C73.7193 13.8137 73.8372 13.6942 74.6092 13.6942C75.0991 13.6942 75.7512 13.9729 76.06 14.3139ZM21.7952 16.6263C21.7952 16.6907 21.5825 17.346 21.3225 18.0826C21.0626 18.8192 20.9172 19.4892 20.9994 19.5711C21.0814 19.6531 21.6563 19.7369 22.2766 19.7569C23.3147 19.7907 23.4383 19.6978 23.8224 18.5974C24.052 17.9393 24.3307 17.3103 24.4417 17.1993C24.7783 16.8627 27.3858 18.4147 28.3727 19.5386C32.5069 24.2469 31.1762 31.1988 25.6188 33.9278C19.6506 36.8586 12.639 32.541 12.5845 25.9015C12.5498 21.6827 15.273 18.0122 19.2277 16.9478C20.7173 16.5471 21.7952 16.412 21.7952 16.6263ZM46.5061 16.711C45.9039 16.7667 44.4482 16.9703 43.2714 17.1636L41.1316 17.5146L41.3443 18.654C41.4613 19.2808 41.6074 19.8445 41.6687 19.9067C41.73 19.969 42.679 19.8636 43.7775 19.6721C44.8764 19.4807 45.9396 19.3243 46.1407 19.3243C46.4132 19.3243 46.5061 22.4659 46.5061 31.6792V44.0342H32.4587H18.411L18.8161 42.5485C19.0388 41.7315 19.376 40.6714 19.5655 40.1932C19.9287 39.2767 19.9675 39.3133 17.8458 38.5758C17.3644 38.4088 16.964 39.3862 16.1435 42.7311C15.5727 45.0595 15.5179 45.6647 15.8436 46.0569C16.1917 46.4764 18.2724 46.5364 32.4762 46.5364H48.7113L49.0256 45.7094C49.2239 45.1877 49.3078 39.8116 49.2524 31.1397C49.1683 17.9506 49.1404 17.3788 48.5577 16.9531C48.2236 16.7088 47.8717 16.5318 47.7757 16.5593C47.6794 16.5868 47.1082 16.655 46.5061 16.711ZM80.8783 17.2534L81.5774 17.9978L80.7726 18.6309C79.8892 19.3256 78.8207 19.248 78.1767 18.4426C77.6127 17.7376 77.6824 17.5236 78.6459 17.001C79.8185 16.3648 80.07 16.3932 80.8783 17.2534ZM52.199 17.1974C51.9159 17.4805 51.8236 21.9667 51.8236 35.4696C51.8236 45.3128 51.909 53.5891 52.0135 53.8612C52.183 54.3028 53.8227 54.356 67.3023 54.356C80.4792 54.356 82.4516 54.295 82.7985 53.8771C83.4044 53.1471 82.9968 45.7789 82.1764 42.6267C81.0463 38.284 80.0071 35.8627 77.714 32.2297C76.4169 30.1741 76.3671 30.1582 74.8773 31.3283C74.3474 31.7446 74.3934 31.8929 75.6796 33.9141C78.5614 38.4416 80.1213 43.2691 80.491 48.8041L80.695 51.8538H67.5103H54.326V35.7454C54.326 26.8858 54.4082 19.6371 54.5083 19.6371C54.7729 19.6371 59.5112 20.857 60.0508 21.064C60.3598 21.1829 60.6204 20.9151 60.8575 20.2351C61.0498 19.6828 61.2075 19.1307 61.2075 19.0084C61.2075 18.573 54.5731 16.8221 52.9234 16.8221C52.7313 16.8221 52.4054 16.991 52.199 17.1974ZM17.2036 21.3865C17.4382 22.8322 18.6522 24.4149 20.0263 25.0667C22.0157 26.0107 25.3636 25.5262 26.5259 24.1259C26.8349 23.7533 26.7502 23.5115 26.0733 22.8347C25.2563 22.0177 25.2231 22.0121 24.3298 22.5397C22.9344 23.3639 21.5875 23.231 20.5199 22.1635C20.0169 21.6605 19.6056 21.0271 19.6056 20.7559C19.6056 20.3865 19.2815 20.2627 18.3134 20.2627H17.0212L17.2036 21.3865ZM68.089 22.4522C68.8397 23.2028 68.9101 24.4996 68.2141 24.7667C67.9392 24.8722 67.3408 24.7808 66.8847 24.5634C66.2416 24.2566 66.0339 23.9057 65.9589 22.9973C65.8697 21.9245 65.9285 21.8266 66.6626 21.8266C67.1031 21.8266 67.7449 22.1081 68.089 22.4522ZM35.6001 23.4399C36.2651 23.6392 36.8094 23.9197 36.8094 24.0633C36.8094 24.4605 33.917 28.395 33.6248 28.395C33.4837 28.395 33.3686 27.4213 33.3686 26.2312C33.3686 25.0411 33.2832 23.8447 33.1788 23.5725C32.9451 22.9636 33.8453 22.9141 35.6001 23.4399ZM73.277 25.6097C73.8616 26.2556 73.8598 26.2737 73.1347 26.8608C72.3314 27.5111 71.0612 27.6509 70.7362 27.1251C70.6233 26.9425 70.7024 26.3795 70.912 25.874C71.3721 24.7627 72.4062 24.6473 73.277 25.6097ZM40.5504 27.8098C40.9255 28.6812 41.1691 29.4569 41.0922 29.5339C41.0152 29.6108 39.8851 29.6324 38.5804 29.5817L36.2088 29.4898L37.6536 27.538C39.2977 25.3172 39.4857 25.3348 40.5504 27.8098ZM31.337 34.742C30.5625 38.0472 30.5463 38.0913 30.1152 38.0913C29.8975 38.0913 29.1887 37.6328 28.5406 37.0726L27.362 36.0535L28.748 35.0579C29.5106 34.5106 30.475 33.5647 30.8913 32.9557C31.8744 31.5185 31.987 31.9695 31.337 34.742ZM41.0299 32.4575C41.2455 32.8065 40.1766 35.4042 39.6952 35.7016C39.4175 35.8734 36.4966 32.7974 36.4966 32.3333C36.4966 32.0139 40.8291 32.1328 41.0299 32.4575ZM35.4809 35.3207C37.6167 37.6816 37.6311 37.7285 36.3727 38.2543C34.9098 38.8654 32.926 38.8811 33.1569 38.2793C33.2491 38.0388 33.4937 36.9831 33.7002 35.9334C33.9066 34.884 34.1281 34.0251 34.1922 34.0251C34.2563 34.0251 34.8363 34.6081 35.4809 35.3207ZM58.3923 36.2146V37.4657H59.6435H60.8947V36.2146V34.9635H59.6435H58.3923V36.2146ZM68.7146 37.4479V38.7169H70.1409H71.5676L71.4703 37.5439C71.3762 36.4054 71.3342 36.3682 70.044 36.275L68.7146 36.1786V37.4479ZM63.7098 38.7169V39.968H64.961H66.2122V38.7169V37.4657H64.961H63.7098V38.7169ZM57.1411 41.5319V42.783H58.3923H59.6435V41.5319V40.2808H58.3923H57.1411V41.5319ZM68.7146 42.783V44.0342H70.1222H71.5297V42.783V41.5319H70.1222H68.7146V42.783ZM75.2833 42.783V44.0342H76.5345H77.7857V42.783V41.5319H76.5345H75.2833V42.783ZM63.7098 44.0342V45.2853H64.961H66.2122V44.0342V42.783H64.961H63.7098V44.0342ZM58.3923 46.6928V48.1004H59.6435H60.8947V46.6928V45.2853H59.6435H58.3923V46.6928ZM68.7146 48.1182V49.3875L70.044 49.2911C71.3342 49.1979 71.3762 49.1607 71.4703 48.0222L71.5676 46.8492H70.1409H68.7146V48.1182ZM15.5339 49.8272C15.2524 50.166 15.187 51.0705 15.3056 52.9735C15.3972 54.4427 15.5511 55.7235 15.6474 55.8198C15.7441 55.9162 16.3412 55.8977 16.9743 55.7789L18.126 55.563L17.9321 53.7082L17.7385 51.8538H32.1221H46.5061V66.8673C46.5061 80.9592 46.4726 81.8806 45.9587 81.8769C45.6574 81.8747 44.0741 81.595 42.4397 81.2554C40.8054 80.9157 39.3765 80.636 39.2642 80.6339C38.9336 80.6273 38.343 82.6031 38.6039 82.8424C39.3243 83.5033 47.3203 84.8439 48.3003 84.4679C48.5439 84.3744 48.8736 83.9559 49.0325 83.5384C49.1952 83.1095 49.3212 75.7964 49.3212 66.7601C49.3212 52.7686 49.2596 50.6539 48.8342 50.0468L48.3475 49.3515H32.1381C18.0131 49.3515 15.878 49.4128 15.5339 49.8272ZM52.199 57.5464C51.9193 57.826 51.8236 61.201 51.8236 70.8015C51.8236 82.0076 51.8862 83.7329 52.3044 84.0801C52.6922 84.402 53.2068 84.4038 54.9631 84.0901C57.2553 83.6804 57.371 83.5534 56.9353 81.9263C56.7589 81.2672 56.6116 81.21 55.5321 81.3827L54.326 81.5756V70.6245V59.6733H66.6448C78.4707 59.6733 78.9702 59.6971 79.1188 60.2657C79.2555 60.7887 81.0541 61.5137 81.3878 61.18C81.4519 61.1159 81.6793 60.4096 81.893 59.6108C82.5843 57.0266 83.466 57.1711 67.0186 57.1711C56.2012 57.1711 52.4802 57.2652 52.199 57.5464ZM75.0719 63.0007C73.1629 63.677 71.1122 65.6247 70.2851 67.547C69.8253 68.6158 69.464 70.3721 69.2498 72.5813L68.9204 75.9743L67.5457 76.7801C66.5209 77.3806 66.0805 77.4954 65.8162 77.2311C65.2016 76.6165 62.9554 76.8154 61.8012 77.5864C58.7911 79.597 59.1221 84.0435 62.3889 85.4848C63.2213 85.852 63.7039 86.3465 64.073 87.2114C65.3354 90.1672 69.7237 90.6026 71.7891 87.9774C72.6699 86.8576 72.9624 84.863 72.3768 83.9697C71.9551 83.3257 71.9827 83.1483 72.6921 81.9469C73.12 81.2225 73.6317 80.6267 73.8294 80.6229C74.0268 80.6192 75.9627 80.428 78.131 80.1985C84.0037 79.5767 86.2962 78.131 87.8236 74.0861C89.4642 69.7421 86.9634 64.4811 82.5417 62.9744C80.7538 62.3651 76.8263 62.3789 75.0719 63.0007ZM81.7838 65.4764C84.2928 66.5245 85.7066 68.6039 85.7066 71.2463C85.7066 73.2656 85.1304 74.5283 83.5924 75.8783C82.2383 77.0675 81.1113 77.375 76.6909 77.7625L73.2501 78.0643L72.3605 77.2358C71.4847 76.4197 71.4744 76.3694 71.6811 73.905C72.12 68.6752 73.0315 66.8088 75.7497 65.574C77.308 64.8662 80.2105 64.8192 81.7838 65.4764ZM76.1338 68.3615C75.3205 68.8651 74.0321 70.982 74.0321 71.8143C74.0321 72.0383 74.5298 72.1847 75.2911 72.1847C76.3424 72.1847 76.5986 72.057 76.8438 71.4114C77.1598 70.5807 78.299 70.1309 79.2905 70.4456C79.751 70.5916 80.0638 70.3865 80.5577 69.6136C81.1642 68.6643 81.1742 68.5586 80.6909 68.1967C79.9261 67.6243 77.1619 67.7244 76.1338 68.3615ZM69.926 81.5475C68.8816 83.4473 68.8766 83.4749 69.4187 84.4188C70.0968 85.6002 70.1009 85.9052 69.4481 86.6262C68.3865 87.7994 66.2122 86.9815 66.2122 85.4088C66.2122 84.1358 65.6532 83.4448 64.6229 83.4448C63.6276 83.4448 62.1459 82.2622 62.1459 81.468C62.1459 80.8606 63.352 79.3787 63.8469 79.3787C64.0692 79.3787 64.6238 79.6717 65.0793 80.0302L65.9075 80.6814L67.8585 79.5948C69.7396 78.5467 69.8303 78.5279 70.3952 79.0684C70.9661 79.6151 70.9542 79.6774 69.926 81.5475Z" fill="#557DB0"/>
</svg>
