<svg width="100" height="100" viewBox="0 0 100 100" fill="none" xmlns="http://www.w3.org/2000/svg">
<path fill-rule="evenodd" clip-rule="evenodd" d="M27.5929 11.1482C26.5654 11.8122 25.4484 12.7068 25.1109 13.1359C24.5788 13.8121 24.1844 13.936 22.1434 14.0671C17.7702 14.3476 14.0464 16.8533 12.0864 20.8344C11.1737 22.688 11.0804 23.1443 11.0879 25.7154C11.0951 28.136 11.2234 28.831 11.9635 30.461C13.0592 32.8738 15.4665 35.2772 17.9469 36.4342C19.6195 37.2139 20.1753 37.3097 23.0533 37.3122C25.6858 37.3143 26.3349 37.4072 26.5629 37.8148C27.1072 38.7872 30.1666 40.5814 32.1294 41.0796C34.5846 41.7024 36.4745 41.4844 38.9581 40.292C45.335 37.2302 46.8631 28.6903 41.9184 23.7458C40.1073 21.9348 37.858 20.882 35.3506 20.6718C33.2758 20.4979 33.2605 20.4898 32.2251 18.9881C31.1344 17.4063 29.9145 16.3407 28.1594 15.4364L27.1112 14.8966L27.7819 14.1828C28.1507 13.7903 29.0087 13.2032 29.689 12.8779C30.4566 12.511 30.8664 12.1275 30.7691 11.8666C30.6831 11.6358 30.5276 11.1078 30.4234 10.6937C30.1679 9.67528 29.7741 9.73846 27.5929 11.1482ZM73.3722 11.395C72.0028 11.7884 71.7713 15.4527 73.0019 17.2653L73.7863 18.4216L72.7673 19.6493C71.8157 20.7953 70.9659 21.2489 70.9659 20.6111C70.9659 20.05 68.7882 19.3243 67.1047 19.3243C64.8723 19.3243 64.3971 19.9111 64.3971 22.6673C64.3971 24.398 64.5057 24.7433 65.3512 25.7063C65.8757 26.3041 66.7766 26.9484 67.3524 27.1386L68.3997 27.4842L67.9758 29.091C67.7425 29.9749 67.4572 31.6577 67.3415 32.8306L67.1316 34.9635H68.4231C69.5395 34.9635 69.7147 34.8715 69.7147 34.2854C69.7147 33.9122 69.8689 32.7224 70.0572 31.6411L70.3994 29.6753L72.4025 29.8623L74.4057 30.0493L75.97 28.4848C77.0053 27.4498 77.5346 26.6585 77.5346 26.1458C77.5346 25.3651 75.7989 23.272 74.563 22.5619C73.9671 22.2194 74.0009 22.1369 75.2843 20.8122L76.6309 19.4216L77.6525 20.4431C78.7557 21.5463 80.4117 22.0358 81.8333 21.679C83.0188 21.3815 85.3545 18.8896 85.3545 17.9221C85.3545 17.5011 84.925 16.6675 84.4005 16.0701L83.4464 14.9835L84.635 14.6345C85.2888 14.4424 86.6332 14.2031 87.6223 14.1027L89.4208 13.9201V12.6664V11.4131L87.0683 11.6117C85.6157 11.7346 83.7993 12.1666 82.321 12.7406L79.9262 13.6705L78.9381 12.5275C78.0122 11.4563 77.8242 11.3796 75.9437 11.3086C74.8402 11.267 73.6831 11.3058 73.3722 11.395ZM77.0601 14.3139C77.5121 14.8134 77.5462 15.0236 77.2368 15.3967C76.2036 16.6413 74.7194 16.168 74.7194 14.5944C74.7194 13.8137 74.8373 13.6942 75.6093 13.6942C76.0992 13.6942 76.7513 13.9729 77.0601 14.3139ZM22.7953 16.6263C22.7953 16.6907 22.5826 17.346 22.3226 18.0826C22.0627 18.8192 21.9173 19.4892 21.9995 19.5711C22.0815 19.6531 22.6564 19.7369 23.2767 19.7569C24.3148 19.7907 24.4384 19.6978 24.8225 18.5974C25.0521 17.9393 25.3308 17.3103 25.4418 17.1993C25.7784 16.8627 28.3859 18.4147 29.3728 19.5386C33.507 24.2469 32.1763 31.1988 26.6189 33.9278C20.6507 36.8586 13.6391 32.541 13.5847 25.9015C13.55 21.6827 16.2732 18.0122 20.2278 16.9478C21.7174 16.5471 22.7953 16.412 22.7953 16.6263ZM47.5062 16.711C46.904 16.7667 45.4483 16.9703 44.2715 17.1636L42.1317 17.5146L42.3444 18.654C42.4614 19.2808 42.6075 19.8445 42.6688 19.9067C42.7301 19.969 43.6791 19.8636 44.7776 19.6721C45.8765 19.4807 46.9397 19.3243 47.1408 19.3243C47.4133 19.3243 47.5062 22.4659 47.5062 31.6792V44.0342H33.4588H19.4111L19.8162 42.5485C20.0389 41.7315 20.3761 40.6714 20.5657 40.1932C20.9288 39.2767 20.9676 39.3133 18.8459 38.5758C18.3645 38.4088 17.9641 39.3862 17.1437 42.7311C16.5728 45.0595 16.5181 45.6647 16.8437 46.0569C17.1919 46.4764 19.2726 46.5364 33.4763 46.5364H49.7114L50.0257 45.7094C50.224 45.1877 50.3079 39.8116 50.2525 31.1397C50.1684 17.9506 50.1405 17.3788 49.5578 16.9531C49.2237 16.7088 48.8718 16.5318 48.7758 16.5593C48.6795 16.5868 48.1083 16.655 47.5062 16.711ZM81.8784 17.2534L82.5775 17.9978L81.7727 18.6309C80.8893 19.3256 79.8208 19.248 79.1768 18.4426C78.6128 17.7376 78.6825 17.5236 79.646 17.001C80.8186 16.3648 81.0701 16.3932 81.8784 17.2534ZM53.1991 17.1974C52.916 17.4805 52.8237 21.9667 52.8237 35.4696C52.8237 45.3128 52.9091 53.5891 53.0136 53.8612C53.1831 54.3028 54.8228 54.356 68.3024 54.356C81.4792 54.356 83.4517 54.295 83.7986 53.8771C84.4045 53.1471 83.9969 45.7789 83.1765 42.6267C82.0463 38.284 81.0072 35.8627 78.7141 32.2297C77.417 30.1741 77.3672 30.1582 75.8774 31.3283C75.3475 31.7446 75.3935 31.8929 76.6797 33.9141C79.5615 38.4416 81.1214 43.2691 81.4911 48.8041L81.6951 51.8538H68.5104H55.3261V35.7454C55.3261 26.8858 55.4083 19.6371 55.5084 19.6371C55.773 19.6371 60.5113 20.857 61.0509 21.064C61.3599 21.1829 61.6205 20.9151 61.8576 20.2351C62.0499 19.6828 62.2076 19.1307 62.2076 19.0084C62.2076 18.573 55.5732 16.8221 53.9235 16.8221C53.7314 16.8221 53.4055 16.991 53.1991 17.1974ZM18.2037 21.3865C18.4383 22.8322 19.6523 24.4149 21.0264 25.0667C23.0158 26.0107 26.3637 25.5262 27.526 24.1259C27.835 23.7533 27.7503 23.5115 27.0734 22.8347C26.2564 22.0177 26.2232 22.0121 25.3299 22.5397C23.9345 23.3639 22.5876 23.231 21.52 22.1635C21.017 21.6605 20.6057 21.0271 20.6057 20.7559C20.6057 20.3865 20.2816 20.2627 19.3135 20.2627H18.0214L18.2037 21.3865ZM69.0891 22.4522C69.8398 23.2028 69.9102 24.4996 69.2142 24.7667C68.9393 24.8722 68.3409 24.7808 67.8848 24.5634C67.2417 24.2566 67.034 23.9057 66.959 22.9973C66.8698 21.9245 66.9286 21.8266 67.6627 21.8266C68.1032 21.8266 68.745 22.1081 69.0891 22.4522ZM36.6002 23.4399C37.2652 23.6392 37.8095 23.9197 37.8095 24.0633C37.8095 24.4605 34.9171 28.395 34.6249 28.395C34.4838 28.395 34.3687 27.4213 34.3687 26.2312C34.3687 25.0411 34.2833 23.8447 34.1789 23.5725C33.9452 22.9636 34.8454 22.9141 36.6002 23.4399ZM74.2771 25.6097C74.8617 26.2556 74.8599 26.2737 74.1348 26.8608C73.3315 27.5111 72.0613 27.6509 71.7363 27.1251C71.6234 26.9425 71.7025 26.3795 71.9121 25.874C72.3722 24.7627 73.4063 24.6473 74.2771 25.6097ZM41.5505 27.8098C41.9256 28.6812 42.1692 29.4569 42.0923 29.5339C42.0153 29.6108 40.8852 29.6324 39.5805 29.5817L37.2089 29.4898L38.6537 27.538C40.2978 25.3172 40.4858 25.3348 41.5505 27.8098ZM32.3371 34.742C31.5626 38.0472 31.5464 38.0913 31.1153 38.0913C30.8976 38.0913 30.1888 37.6328 29.5407 37.0726L28.3621 36.0535L29.7481 35.0579C30.5107 34.5106 31.4751 33.5647 31.8914 32.9557C32.8745 31.5185 32.9871 31.9695 32.3371 34.742ZM42.03 32.4575C42.2456 32.8065 41.1767 35.4042 40.6953 35.7016C40.4176 35.8734 37.4967 32.7974 37.4967 32.3333C37.4967 32.0139 41.8292 32.1328 42.03 32.4575ZM36.481 35.3207C38.6168 37.6816 38.6312 37.7285 37.3728 38.2543C35.9099 38.8654 33.9261 38.8811 34.157 38.2793C34.2492 38.0388 34.4938 36.9831 34.7003 35.9334C34.9067 34.884 35.1282 34.0251 35.1923 34.0251C35.2564 34.0251 35.8364 34.6081 36.481 35.3207ZM59.3924 36.2146V37.4657H60.6436H61.8948V36.2146V34.9635H60.6436H59.3924V36.2146ZM69.7147 37.4479V38.7169H71.141H72.5677L72.4704 37.5439C72.3763 36.4054 72.3343 36.3682 71.0441 36.275L69.7147 36.1786V37.4479ZM64.7099 38.7169V39.968H65.9611H67.2123V38.7169V37.4657H65.9611H64.7099V38.7169ZM58.1412 41.5319V42.783H59.3924H60.6436V41.5319V40.2808H59.3924H58.1412V41.5319ZM69.7147 42.783V44.0342H71.1223H72.5298V42.783V41.5319H71.1223H69.7147V42.783ZM76.2834 42.783V44.0342H77.5346H78.7858V42.783V41.5319H77.5346H76.2834V42.783ZM64.7099 44.0342V45.2853H65.9611H67.2123V44.0342V42.783H65.9611H64.7099V44.0342ZM59.3924 46.6928V48.1004H60.6436H61.8948V46.6928V45.2853H60.6436H59.3924V46.6928ZM69.7147 48.1182V49.3875L71.0441 49.2911C72.3343 49.1979 72.3763 49.1607 72.4704 48.0222L72.5677 46.8492H71.141H69.7147V48.1182ZM16.534 49.8272C16.2525 50.166 16.1871 51.0705 16.3057 52.9735C16.3973 54.4427 16.5512 55.7235 16.6476 55.8198C16.7442 55.9162 17.3414 55.8977 17.9745 55.7789L19.1262 55.563L18.9322 53.7082L18.7386 51.8538H33.1222H47.5062V66.8673C47.5062 80.9592 47.4727 81.8806 46.9588 81.8769C46.6575 81.8747 45.0742 81.595 43.4398 81.2554C41.8055 80.9157 40.3766 80.636 40.2643 80.6339C39.9337 80.6273 39.3431 82.6031 39.604 82.8424C40.3244 83.5033 48.3204 84.8439 49.3004 84.4679C49.544 84.3744 49.8737 83.9559 50.0326 83.5384C50.1953 83.1095 50.3213 75.7964 50.3213 66.7601C50.3213 52.7686 50.2597 50.6539 49.8343 50.0468L49.3476 49.3515H33.1382C19.0133 49.3515 16.8781 49.4128 16.534 49.8272ZM21.3877 56.513C19.307 57.4763 17.4777 59.9745 17.4777 61.8528C17.4777 62.2913 17.2726 62.4884 16.8165 62.4884C16.453 62.4884 15.6013 62.7996 14.9244 63.1803C12.8731 64.3329 11.8315 66.7219 12.432 68.8964C12.7029 69.8776 12.6444 70.176 11.9913 71.1378C8.58339 76.1595 14.6817 81.9203 19.3955 78.1322C20.084 77.5789 20.6914 77.1757 20.7458 77.2361C20.8 77.2961 21.2767 78.2079 21.805 79.262C22.4903 80.6292 22.9495 82.2869 23.4077 85.0485C24.2817 90.3142 23.9248 90.079 30.856 89.9545C35.8176 89.8657 36.3362 89.8034 36.7407 89.2498C37.0713 88.7969 37.1842 87.5658 37.1851 84.4016C37.1861 80.8065 37.6406 76.3078 38.2846 73.514C38.376 73.1186 38.6844 72.8096 38.9884 72.8083C41.2734 72.8011 44.147 70.764 44.6838 68.7713C45.2459 66.6828 44.331 64.7404 42.1886 63.4758C40.7882 62.6491 40.781 62.6357 40.7754 60.8926C40.7707 59.4803 40.6074 58.9277 39.9327 58.0434C38.1742 55.7379 34.9189 55.2618 32.6652 56.9806C31.7813 57.6546 31.4397 57.7579 30.9524 57.497C30.6174 57.3178 29.857 57.1711 29.2623 57.1711C28.6677 57.1711 27.5676 56.8927 26.8175 56.5524C25.1081 55.7767 23.0108 55.7614 21.3877 56.513ZM53.1991 57.5464C52.9194 57.826 52.8237 61.201 52.8237 70.8015C52.8237 82.0076 52.8863 83.7329 53.3045 84.0801C53.6923 84.402 54.2069 84.4038 55.9632 84.0901C58.2554 83.6804 58.3711 83.5534 57.9354 81.9263C57.759 81.2672 57.6117 81.21 56.5322 81.3827L55.3261 81.5756V70.6245V59.6733H67.6449C79.4708 59.6733 79.9703 59.6971 80.1189 60.2657C80.2556 60.7887 82.0542 61.5137 82.3879 61.18C82.452 61.1159 82.6795 60.4096 82.8931 59.6108C83.5844 57.0266 84.4661 57.1711 68.0187 57.1711C57.2013 57.1711 53.4803 57.2652 53.1991 57.5464ZM26.293 59.2558C26.7324 59.6536 27.4428 59.8372 28.6089 59.8544C29.7137 59.8704 30.4894 60.0584 30.8689 60.4018C31.7663 61.2141 32.4901 61.0305 33.7431 59.6733C35.1729 58.1247 36.2158 58.0315 37.5208 59.3365C38.5718 60.3874 38.6506 61.0771 37.8999 62.651C37.2058 64.1067 37.553 64.6603 39.4664 65.1461C40.2756 65.3516 41.2193 65.7742 41.5634 66.0857C42.4504 66.8883 42.3666 68.2961 41.3769 69.2135C40.5652 69.9655 38.1611 70.5622 37.5255 70.1694C36.9659 69.8235 35.9327 70.6004 35.9327 71.367C35.9327 71.7652 35.5821 74.118 35.1532 76.5949C34.6872 79.2898 34.3731 82.3241 34.3712 84.1486L34.3687 87.1982H30.3631H26.3574L25.7987 83.6957C25.3064 80.607 25.018 79.7477 23.3583 76.4235C21.2945 72.2888 20.7837 71.5591 19.9538 71.5591C18.9404 71.5591 18.4778 72.3623 18.6435 73.834C18.784 75.0795 18.7073 75.2753 17.768 76.0653C16.9513 76.7525 16.54 76.892 15.7796 76.74C14.402 76.4645 13.5991 75.5333 13.5991 74.2105C13.5991 73.295 13.8402 72.874 14.9435 71.8659L16.2876 70.637L15.6316 69.5754C14.1599 67.1945 15.3476 64.7514 17.8168 65.0804C19.5128 65.3066 19.9801 64.8956 19.9807 63.1765C19.9814 61.2795 20.7931 59.7224 22.1697 58.9777C23.4762 58.2711 25.3443 58.3972 26.293 59.2558ZM76.072 63.0007C74.163 63.677 72.1123 65.6247 71.2852 67.547C70.8254 68.6158 70.4641 70.3721 70.2499 72.5813L69.9205 75.9743L68.5458 76.7801C67.521 77.3806 67.0806 77.4954 66.8163 77.2311C66.2017 76.6165 63.9555 76.8154 62.8013 77.5864C59.7912 79.597 60.1222 84.0435 63.389 85.4848C64.2214 85.852 64.704 86.3465 65.0731 87.2114C66.3355 90.1672 70.7238 90.6026 72.7892 87.9774C73.67 86.8576 73.9625 84.863 73.3769 83.9697C72.9552 83.3257 72.9828 83.1483 73.6922 81.9469C74.1201 81.2225 74.6318 80.6267 74.8295 80.6229C75.0269 80.6192 76.9628 80.428 79.1311 80.1985C85.0038 79.5767 87.2963 78.131 88.8237 74.0861C90.4643 69.7421 87.9635 64.4811 83.5418 62.9744C81.7539 62.3651 77.8264 62.3789 76.072 63.0007ZM82.7839 65.4764C85.2929 66.5245 86.7067 68.6039 86.7067 71.2463C86.7067 73.2656 86.1305 74.5283 84.5925 75.8783C83.2384 77.0675 82.1114 77.375 77.691 77.7625L74.2502 78.0643L73.3606 77.2358C72.4848 76.4197 72.4745 76.3694 72.6812 73.905C73.1201 68.6752 74.0316 66.8088 76.7498 65.574C78.3081 64.8662 81.2106 64.8192 82.7839 65.4764ZM32.9611 66.5323C31.5226 66.8795 30.7659 67.3737 29.6145 68.7187L28.5585 69.9523L27.0102 68.9886C26.1588 68.4585 24.8619 67.9574 24.1287 67.8745L22.7953 67.7244V68.9514C22.7953 70.1462 22.8331 70.1882 24.2438 70.5657C25.11 70.7971 26.1162 71.3767 26.7462 72.0067L27.8 73.0604V76.2196V79.3787H29.2076H30.6152L30.6221 75.8598C30.6314 71.0715 31.5495 69.0568 33.7225 69.0568C34.2799 69.0568 34.3687 68.8632 34.3687 67.6493C34.3687 66.8752 34.263 66.2562 34.1341 66.2737C34.0053 66.2915 33.4773 66.4079 32.9611 66.5323ZM77.1339 68.3615C76.3206 68.8651 75.0322 70.982 75.0322 71.8143C75.0322 72.0383 75.5299 72.1847 76.2912 72.1847C77.3425 72.1847 77.5987 72.057 77.8439 71.4114C78.1599 70.5807 79.2991 70.1309 80.2906 70.4456C80.7511 70.5916 81.0639 70.3865 81.5578 69.6136C82.1643 68.6643 82.1743 68.5586 81.691 68.1967C80.9262 67.6243 78.162 67.7244 77.1339 68.3615ZM70.9261 81.5475C69.8817 83.4473 69.8767 83.4749 70.4188 84.4188C71.0969 85.6002 71.101 85.9052 70.4482 86.6262C69.3866 87.7994 67.2123 86.9815 67.2123 85.4088C67.2123 84.1358 66.6533 83.4448 65.623 83.4448C64.6277 83.4448 63.146 82.2622 63.146 81.468C63.146 80.8606 64.3521 79.3787 64.847 79.3787C65.0693 79.3787 65.6239 79.6717 66.0794 80.0302L66.9076 80.6814L68.8586 79.5948C70.7397 78.5467 70.8304 78.5279 71.3953 79.0684C71.9662 79.6151 71.9543 79.6774 70.9261 81.5475Z" fill="#557DB0"/>
</svg>
