<svg width="100" height="100" viewBox="0 0 100 100" fill="none" xmlns="http://www.w3.org/2000/svg">
<path d="M54.9221 10.3623C50.7693 10.76 45.4678 12.6155 41.6242 14.957C38.0456 17.2101 33.0534 22.2466 30.9328 25.8693C29.2098 28.7851 27.3542 33.8657 27.3101 35.6329C27.3101 37.8861 28.282 36.6932 29.2539 33.2914C30.6677 28.3875 33.1417 24.2788 36.9853 20.4794C42.9495 14.6036 48.5603 12.1295 56.7777 11.7761C62.8302 11.4668 66.8064 12.2621 71.7545 14.7361C78.0721 17.8287 82.4901 22.2024 85.7151 28.6084C90.4423 37.9302 89.4704 50.7864 83.3736 59.4456C82.7551 60.285 82.6668 60.7268 83.0202 60.9477C84.213 61.6545 87.8358 55.0718 89.2053 49.7261C90.2214 45.6616 90.3098 38.7255 89.382 34.7493C86.2453 21.4955 74.7587 11.511 61.3723 10.3623C59.5168 10.2298 56.6451 10.2298 54.9221 10.3623Z" fill="#557DB0"/>
<mask id="mask0_18_511" style="mask-type:luminance" maskUnits="userSpaceOnUse" x="25" y="8" width="68" height="55">
<path d="M91.3101 9H26.3101V62H91.3101V9Z" fill="white" stroke="#557DB0" stroke-width="1.4"/>
<path d="M54.9221 10.3623C50.7693 10.76 45.4678 12.6155 41.6242 14.957C38.0456 17.2101 33.0534 22.2466 30.9328 25.8693C29.2098 28.7851 27.3542 33.8657 27.3101 35.6329C27.3101 37.8861 28.282 36.6932 29.2539 33.2914C30.6677 28.3875 33.1417 24.2788 36.9853 20.4794C42.9495 14.6036 48.5603 12.1295 56.7777 11.7761C62.8302 11.4668 66.8064 12.2621 71.7545 14.7361C78.0721 17.8287 82.4901 22.2024 85.7151 28.6084C90.4423 37.9302 89.4704 50.7864 83.3736 59.4456C82.7551 60.285 82.6668 60.7268 83.0202 60.9477C84.213 61.6545 87.8358 55.0718 89.2053 49.7261C90.2214 45.6616 90.3098 38.7255 89.382 34.7493C86.2453 21.4955 74.7587 11.511 61.3723 10.3623C59.5168 10.2298 56.6451 10.2298 54.9221 10.3623Z" stroke="#557DB0" stroke-width="1.4"/>
</mask>
<g mask="url(#mask0_18_511)">
<path d="M54.9221 10.3623C50.7693 10.76 45.4678 12.6155 41.6242 14.957C38.0456 17.2101 33.0534 22.2466 30.9328 25.8693C29.2098 28.7851 27.3542 33.8657 27.3101 35.6329C27.3101 37.8861 28.282 36.6932 29.2539 33.2914C30.6677 28.3875 33.1417 24.2788 36.9853 20.4794C42.9495 14.6036 48.5603 12.1295 56.7777 11.7761C62.8302 11.4668 66.8064 12.2621 71.7545 14.7361C78.0721 17.8287 82.4901 22.2024 85.7151 28.6084C90.4423 37.9302 89.4704 50.7864 83.3736 59.4456C82.7551 60.285 82.6668 60.7268 83.0202 60.9477C84.213 61.6545 87.8358 55.0718 89.2053 49.7261C90.2214 45.6616 90.3098 38.7255 89.382 34.7493C86.2453 21.4955 74.7587 11.511 61.3723 10.3623C59.5168 10.2298 56.6451 10.2298 54.9221 10.3623Z" stroke="#557DB0" stroke-width="1.4"/>
</g>
<path d="M54.2595 19.1982C50.2392 19.8609 45.1585 22.6442 41.9776 25.9576C38.8851 29.1827 36.3227 33.9541 35.8809 37.4443C35.4391 40.4484 36.4994 40.0067 37.3388 36.8257C40.0779 25.9576 50.4601 18.9331 61.5491 20.5236C69.6781 21.6722 76.6584 27.6806 79.0441 35.5887C79.8393 38.1511 79.9719 39.4765 79.7951 43.2759C79.6184 47.6497 79.4859 48.1357 77.7629 51.5375C75.7748 55.3811 75.6423 55.8229 76.3491 55.8229C77.1444 55.8229 79.4417 51.7142 80.4136 48.5333C84.3898 35.6771 76.2608 22.2024 62.8744 19.3749C59.4726 18.668 57.8822 18.6238 54.2595 19.1982Z" fill="#557DB0"/>
<mask id="mask1_18_511" style="mask-type:luminance" maskUnits="userSpaceOnUse" x="34" y="17" width="50" height="41">
<path d="M82.7771 17.8228H34.7771V56.8228H82.7771V17.8228Z" fill="white" stroke="#557DB0" stroke-width="1.4"/>
<path d="M54.2595 19.1982C50.2392 19.8609 45.1585 22.6442 41.9776 25.9576C38.8851 29.1827 36.3227 33.9541 35.8809 37.4443C35.4391 40.4484 36.4994 40.0067 37.3388 36.8257C40.0779 25.9576 50.4601 18.9331 61.5491 20.5236C69.6781 21.6722 76.6584 27.6806 79.0441 35.5887C79.8393 38.1511 79.9719 39.4765 79.7951 43.2759C79.6184 47.6497 79.4859 48.1357 77.7629 51.5375C75.7748 55.3811 75.6423 55.8229 76.3491 55.8229C77.1444 55.8229 79.4417 51.7142 80.4136 48.5333C84.3898 35.6771 76.2608 22.2024 62.8744 19.3749C59.4726 18.668 57.8822 18.6238 54.2595 19.1982Z" stroke="#557DB0" stroke-width="1.4"/>
</mask>
<g mask="url(#mask1_18_511)">
<path d="M54.2595 19.1982C50.2392 19.8609 45.1585 22.6442 41.9776 25.9576C38.8851 29.1827 36.3227 33.9541 35.8809 37.4443C35.4391 40.4484 36.4994 40.0067 37.3388 36.8257C40.0779 25.9576 50.4601 18.9331 61.5491 20.5236C69.6781 21.6722 76.6584 27.6806 79.0441 35.5887C79.8393 38.1511 79.9719 39.4765 79.7951 43.2759C79.6184 47.6497 79.4859 48.1357 77.7629 51.5375C75.7748 55.3811 75.6423 55.8229 76.3491 55.8229C77.1444 55.8229 79.4417 51.7142 80.4136 48.5333C84.3898 35.6771 76.2608 22.2024 62.8744 19.3749C59.4726 18.668 57.8822 18.6238 54.2595 19.1982Z" stroke="#557DB0" stroke-width="1.4"/>
</g>
<path d="M53.0667 25.1179C50.5043 25.9132 47.1467 28.1221 45.1586 30.2869C42.5079 33.2469 40.0338 39.4762 41.5801 39.4762C41.9777 39.4762 42.3753 38.9019 42.552 38.0183C43.8774 31.9216 49.7533 26.7084 56.2918 25.869C59.5169 25.4714 60.0912 24.4552 57.0429 24.4994C55.8942 24.4994 54.0828 24.7645 53.0667 25.1179Z" fill="#557DB0"/>
<mask id="mask2_18_511" style="mask-type:luminance" maskUnits="userSpaceOnUse" x="39" y="22" width="22" height="20">
<path d="M60.1021 23.4763H40.1021V40.4763H60.1021V23.4763Z" fill="white" stroke="#557DB0" stroke-width="1.4"/>
<path d="M53.0667 25.1179C50.5043 25.9132 47.1467 28.1221 45.1586 30.2869C42.5079 33.2469 40.0338 39.4762 41.5801 39.4762C41.9777 39.4762 42.3753 38.9019 42.552 38.0183C43.8774 31.9216 49.7533 26.7084 56.2918 25.869C59.5169 25.4714 60.0912 24.4552 57.0429 24.4994C55.8942 24.4994 54.0828 24.7645 53.0667 25.1179Z" stroke="#557DB0" stroke-width="1.4"/>
</mask>
<g mask="url(#mask2_18_511)">
<path d="M53.0667 25.1179C50.5043 25.9132 47.1467 28.1221 45.1586 30.2869C42.5079 33.2469 40.0338 39.4762 41.5801 39.4762C41.9777 39.4762 42.3753 38.9019 42.552 38.0183C43.8774 31.9216 49.7533 26.7084 56.2918 25.869C59.5169 25.4714 60.0912 24.4552 57.0429 24.4994C55.8942 24.4994 54.0828 24.7645 53.0667 25.1179Z" stroke="#557DB0" stroke-width="1.4"/>
</g>
<path d="M22.8922 39.432C17.9441 41.0225 14.719 43.5407 11.759 48.047C10.3894 50.2118 9.59421 52.2882 10.2127 52.2882C10.3011 52.2882 12.0241 51.6697 14.1005 50.9186C18.165 49.4165 23.9083 48.7097 25.3662 49.5491C26.1615 49.9909 26.1615 50.035 25.3221 50.3001C19.1811 52.3765 13.968 58.0315 12.9077 63.7748C12.7309 64.6142 12.0241 65.9838 11.3172 66.8232C10.0802 68.2369 9.99183 68.5462 10.1685 71.2411C10.3894 74.7313 11.1405 76.4985 12.996 77.6913C13.7913 78.1773 14.7632 79.2818 15.205 80.1212C16.3537 82.286 20.4623 86.5272 22.6271 87.8084C31.5513 93.0215 43.1263 89.6639 48.5604 80.2537C49.0905 79.2818 50.1067 78.1773 50.8135 77.7797C52.5365 76.7635 53.8177 73.8477 53.8177 70.7551C53.8177 68.5904 53.641 68.016 52.5807 66.779C51.8738 65.9838 51.0786 64.3491 50.7694 63.1563C49.3998 57.5014 44.5842 52.244 39.2385 50.5652C37.6923 50.0792 37.6923 50.035 37.6923 47.561C37.6481 40.5365 30.8887 36.8254 22.8922 39.432ZM32.7 41.1108C34.5555 42.2153 35.9693 44.2475 36.3227 46.5007C36.7645 49.3723 36.632 49.4607 32.0373 49.4165C29.1657 49.3724 27.531 49.1073 26.5591 48.6213C24.5268 47.561 20.1973 47.6494 15.8677 48.8864C13.9238 49.4607 12.2892 49.8141 12.2892 49.5932C12.2892 48.9747 15.7793 44.8661 17.2372 43.7616C19.1811 42.3037 22.0528 40.8899 24.085 40.3598C26.6033 39.7413 31.0212 40.1389 32.7 41.1108ZM37.5597 51.4488L39.1502 51.8464L38.5317 53.5252C37.383 56.3527 34.6439 59.9754 32.4349 61.4333C29.5633 63.3772 27.531 63.8632 22.0528 63.819C19.4904 63.819 16.6187 63.9957 15.691 64.1724C14.1005 64.57 14.0563 64.5259 14.2772 63.6423C14.4539 63.1121 15.1608 61.4333 15.8677 59.9312C19.3137 52.6858 28.4146 49.1515 37.5597 51.4488ZM43.3914 54.4088C44.5842 55.2924 46.2189 57.0154 47.0141 58.164C48.5162 60.3288 50.2392 64.8793 49.7532 65.3653C49.5765 65.4978 48.2953 65.2769 46.8374 64.8793C42.8613 63.7306 40.9615 61.61 40.343 57.5013C40.0338 55.4691 40.3872 52.73 40.9174 52.73C41.0941 52.73 42.1986 53.481 43.3914 54.4088ZM41.0057 62.8471C42.2427 64.6142 45.6445 66.293 48.8255 66.6907C50.5043 66.8674 51.3879 67.2208 51.8297 67.8835C52.6249 68.988 52.6691 71.8596 52.0064 73.9802C51.4762 75.5265 50.0183 77.1612 49.3998 76.8077C49.2231 76.6752 48.2953 77.9122 47.3675 79.5027C45.3353 82.9928 42.3311 85.8203 38.8851 87.4991C36.632 88.5594 35.8809 88.692 31.949 88.7361C28.0612 88.7361 27.2218 88.5594 24.9686 87.5433C21.8319 86.0854 17.679 82.0209 16.0886 78.9283C15.2934 77.3379 14.6748 76.5868 13.968 76.4985C12.5984 76.3217 11.4056 73.8035 11.4056 71.1528C11.4056 68.502 11.8474 67.6626 13.7913 66.4256C15.1166 65.6303 16.1328 65.4978 21.4343 65.3653C29.2982 65.1886 31.6839 64.3491 35.3508 60.6381C36.7203 59.2243 38.0015 57.6339 38.1782 57.0596C38.4433 56.2201 38.62 56.4852 39.2385 58.7384C39.6362 60.1963 40.4314 62.0518 41.0057 62.8471Z" fill="#557DB0"/>
<mask id="mask3_18_511" style="mask-type:luminance" maskUnits="userSpaceOnUse" x="8" y="36" width="48" height="56">
<path d="M55 37.2627H9V91.2627H55V37.2627Z" fill="white" stroke="#557DB0" stroke-width="1.4"/>
<path d="M22.8922 39.432C17.9441 41.0225 14.719 43.5407 11.759 48.047C10.3894 50.2118 9.59421 52.2882 10.2127 52.2882C10.3011 52.2882 12.0241 51.6697 14.1005 50.9186C18.165 49.4165 23.9083 48.7097 25.3662 49.5491C26.1615 49.9909 26.1615 50.035 25.3221 50.3001C19.1811 52.3765 13.968 58.0315 12.9077 63.7748C12.7309 64.6142 12.0241 65.9838 11.3172 66.8232C10.0802 68.2369 9.99183 68.5462 10.1685 71.2411C10.3894 74.7313 11.1405 76.4985 12.996 77.6913C13.7913 78.1773 14.7632 79.2818 15.205 80.1212C16.3537 82.286 20.4623 86.5272 22.6271 87.8084C31.5513 93.0215 43.1263 89.6639 48.5604 80.2537C49.0905 79.2818 50.1067 78.1773 50.8135 77.7797C52.5365 76.7635 53.8177 73.8477 53.8177 70.7551C53.8177 68.5904 53.641 68.016 52.5807 66.779C51.8738 65.9838 51.0786 64.3491 50.7694 63.1563C49.3998 57.5014 44.5842 52.244 39.2385 50.5652C37.6923 50.0792 37.6923 50.035 37.6923 47.561C37.6481 40.5365 30.8887 36.8254 22.8922 39.432ZM32.7 41.1108C34.5555 42.2153 35.9693 44.2475 36.3227 46.5007C36.7645 49.3723 36.632 49.4607 32.0373 49.4165C29.1657 49.3724 27.531 49.1073 26.5591 48.6213C24.5268 47.561 20.1973 47.6494 15.8677 48.8864C13.9238 49.4607 12.2892 49.8141 12.2892 49.5932C12.2892 48.9747 15.7793 44.8661 17.2372 43.7616C19.1811 42.3037 22.0528 40.8899 24.085 40.3598C26.6033 39.7413 31.0212 40.1389 32.7 41.1108ZM37.5597 51.4488L39.1502 51.8464L38.5317 53.5252C37.383 56.3527 34.6439 59.9754 32.4349 61.4333C29.5633 63.3772 27.531 63.8632 22.0528 63.819C19.4904 63.819 16.6187 63.9957 15.691 64.1724C14.1005 64.57 14.0563 64.5259 14.2772 63.6423C14.4539 63.1121 15.1608 61.4333 15.8677 59.9312C19.3137 52.6858 28.4146 49.1515 37.5597 51.4488ZM43.3914 54.4088C44.5842 55.2924 46.2189 57.0154 47.0141 58.164C48.5162 60.3288 50.2392 64.8793 49.7532 65.3653C49.5765 65.4978 48.2953 65.2769 46.8374 64.8793C42.8613 63.7306 40.9615 61.61 40.343 57.5013C40.0338 55.4691 40.3872 52.73 40.9174 52.73C41.0941 52.73 42.1986 53.481 43.3914 54.4088ZM41.0057 62.8471C42.2427 64.6142 45.6445 66.293 48.8255 66.6907C50.5043 66.8674 51.3879 67.2208 51.8297 67.8835C52.6249 68.988 52.6691 71.8596 52.0064 73.9802C51.4762 75.5265 50.0183 77.1612 49.3998 76.8077C49.2231 76.6752 48.2953 77.9122 47.3675 79.5027C45.3353 82.9928 42.3311 85.8203 38.8851 87.4991C36.632 88.5594 35.8809 88.692 31.949 88.7361C28.0612 88.7361 27.2218 88.5594 24.9686 87.5433C21.8319 86.0854 17.679 82.0209 16.0886 78.9283C15.2934 77.3379 14.6748 76.5868 13.968 76.4985C12.5984 76.3217 11.4056 73.8035 11.4056 71.1528C11.4056 68.502 11.8474 67.6626 13.7913 66.4256C15.1166 65.6303 16.1328 65.4978 21.4343 65.3653C29.2982 65.1886 31.6839 64.3491 35.3508 60.6381C36.7203 59.2243 38.0015 57.6339 38.1782 57.0596C38.4433 56.2201 38.62 56.4852 39.2385 58.7384C39.6362 60.1963 40.4314 62.0518 41.0057 62.8471Z" stroke="#557DB0" stroke-width="1.4"/>
</mask>
<g mask="url(#mask3_18_511)">
<path d="M22.8922 39.432C17.9441 41.0225 14.719 43.5407 11.759 48.047C10.3894 50.2118 9.59421 52.2882 10.2127 52.2882C10.3011 52.2882 12.0241 51.6697 14.1005 50.9186C18.165 49.4165 23.9083 48.7097 25.3662 49.5491C26.1615 49.9909 26.1615 50.035 25.3221 50.3001C19.1811 52.3765 13.968 58.0315 12.9077 63.7748C12.7309 64.6142 12.0241 65.9838 11.3172 66.8232C10.0802 68.2369 9.99183 68.5462 10.1685 71.2411C10.3894 74.7313 11.1405 76.4985 12.996 77.6913C13.7913 78.1773 14.7632 79.2818 15.205 80.1212C16.3537 82.286 20.4623 86.5272 22.6271 87.8084C31.5513 93.0215 43.1263 89.6639 48.5604 80.2537C49.0905 79.2818 50.1067 78.1773 50.8135 77.7797C52.5365 76.7635 53.8177 73.8477 53.8177 70.7551C53.8177 68.5904 53.641 68.016 52.5807 66.779C51.8738 65.9838 51.0786 64.3491 50.7694 63.1563C49.3998 57.5014 44.5842 52.244 39.2385 50.5652C37.6923 50.0792 37.6923 50.035 37.6923 47.561C37.6481 40.5365 30.8887 36.8254 22.8922 39.432ZM32.7 41.1108C34.5555 42.2153 35.9693 44.2475 36.3227 46.5007C36.7645 49.3723 36.632 49.4607 32.0373 49.4165C29.1657 49.3724 27.531 49.1073 26.5591 48.6213C24.5268 47.561 20.1973 47.6494 15.8677 48.8864C13.9238 49.4607 12.2892 49.8141 12.2892 49.5932C12.2892 48.9747 15.7793 44.8661 17.2372 43.7616C19.1811 42.3037 22.0528 40.8899 24.085 40.3598C26.6033 39.7413 31.0212 40.1389 32.7 41.1108ZM37.5597 51.4488L39.1502 51.8464L38.5317 53.5252C37.383 56.3527 34.6439 59.9754 32.4349 61.4333C29.5633 63.3772 27.531 63.8632 22.0528 63.819C19.4904 63.819 16.6187 63.9957 15.691 64.1724C14.1005 64.57 14.0563 64.5259 14.2772 63.6423C14.4539 63.1121 15.1608 61.4333 15.8677 59.9312C19.3137 52.6858 28.4146 49.1515 37.5597 51.4488ZM43.3914 54.4088C44.5842 55.2924 46.2189 57.0154 47.0141 58.164C48.5162 60.3288 50.2392 64.8793 49.7532 65.3653C49.5765 65.4978 48.2953 65.2769 46.8374 64.8793C42.8613 63.7306 40.9615 61.61 40.343 57.5013C40.0338 55.4691 40.3872 52.73 40.9174 52.73C41.0941 52.73 42.1986 53.481 43.3914 54.4088ZM41.0057 62.8471C42.2427 64.6142 45.6445 66.293 48.8255 66.6907C50.5043 66.8674 51.3879 67.2208 51.8297 67.8835C52.6249 68.988 52.6691 71.8596 52.0064 73.9802C51.4762 75.5265 50.0183 77.1612 49.3998 76.8077C49.2231 76.6752 48.2953 77.9122 47.3675 79.5027C45.3353 82.9928 42.3311 85.8203 38.8851 87.4991C36.632 88.5594 35.8809 88.692 31.949 88.7361C28.0612 88.7361 27.2218 88.5594 24.9686 87.5433C21.8319 86.0854 17.679 82.0209 16.0886 78.9283C15.2934 77.3379 14.6748 76.5868 13.968 76.4985C12.5984 76.3217 11.4056 73.8035 11.4056 71.1528C11.4056 68.502 11.8474 67.6626 13.7913 66.4256C15.1166 65.6303 16.1328 65.4978 21.4343 65.3653C29.2982 65.1886 31.6839 64.3491 35.3508 60.6381C36.7203 59.2243 38.0015 57.6339 38.1782 57.0596C38.4433 56.2201 38.62 56.4852 39.2385 58.7384C39.6362 60.1963 40.4314 62.0518 41.0057 62.8471Z" stroke="#557DB0" stroke-width="1.4"/>
</g>
<path d="M26.1173 74.0685C25.4104 75.2172 23.5549 76.1449 21.8761 76.1449C20.6832 76.1449 20.2415 76.3217 20.374 76.6751C20.4624 77.0285 21.3459 77.2494 22.6271 77.2052C24.9686 77.2052 27.0009 75.9682 27.2218 74.4219C27.3985 73.4058 26.6916 73.1407 26.1173 74.0685Z" fill="#557DB0"/>
<mask id="mask4_18_511" style="mask-type:luminance" maskUnits="userSpaceOnUse" x="18" y="71" width="11" height="8">
<path d="M28.3513 72.2109H19.3513V78.2109H28.3513V72.2109Z" fill="white" stroke="#557DB0" stroke-width="1.2"/>
<path d="M26.1173 74.0685C25.4104 75.2172 23.5549 76.1449 21.8761 76.1449C20.6832 76.1449 20.2415 76.3217 20.374 76.6751C20.4624 77.0285 21.3459 77.2494 22.6271 77.2052C24.9686 77.2052 27.0009 75.9682 27.2218 74.4219C27.3985 73.4058 26.6916 73.1407 26.1173 74.0685Z" stroke="#557DB0" stroke-width="1.2"/>
</mask>
<g mask="url(#mask4_18_511)">
<path d="M26.1173 74.0685C25.4104 75.2172 23.5549 76.1449 21.8761 76.1449C20.6832 76.1449 20.2415 76.3217 20.374 76.6751C20.4624 77.0285 21.3459 77.2494 22.6271 77.2052C24.9686 77.2052 27.0009 75.9682 27.2218 74.4219C27.3985 73.4058 26.6916 73.1407 26.1173 74.0685Z" stroke="#557DB0" stroke-width="1.2"/>
</g>
<path d="M36.6762 74.4663C36.8971 75.9684 39.5478 77.5589 41.6243 77.3822C43.9216 77.2054 44.3192 76.1452 42.1102 76.1452C40.2989 76.1452 38.1341 75.1733 37.7807 74.1572C37.3389 73.141 36.4995 73.3618 36.6762 74.4663Z" fill="#557DB0"/>
<mask id="mask5_18_511" style="mask-type:luminance" maskUnits="userSpaceOnUse" x="35" y="71" width="11" height="8">
<path d="M44.6521 72.3958H35.6521V78.3958H44.6521V72.3958Z" fill="white" stroke="#557DB0" stroke-width="1.2"/>
<path d="M36.6762 74.4663C36.8971 75.9684 39.5478 77.5589 41.6243 77.3822C43.9216 77.2054 44.3192 76.1452 42.1102 76.1452C40.2989 76.1452 38.1341 75.1733 37.7807 74.1572C37.3389 73.141 36.4995 73.3618 36.6762 74.4663Z" stroke="#557DB0" stroke-width="1.2"/>
</mask>
<g mask="url(#mask5_18_511)">
<path d="M36.6762 74.4663C36.8971 75.9684 39.5478 77.5589 41.6243 77.3822C43.9216 77.2054 44.3192 76.1452 42.1102 76.1452C40.2989 76.1452 38.1341 75.1733 37.7807 74.1572C37.3389 73.141 36.4995 73.3618 36.6762 74.4663Z" stroke="#557DB0" stroke-width="1.2"/>
</g>
<path d="M30.3143 80.8282C28.9448 81.5351 28.017 82.993 28.4588 83.6998C28.6355 83.9649 29.254 83.6115 30.0492 82.8163C31.1537 81.7118 31.7722 81.4467 33.2743 81.4467C34.7764 81.4467 35.3949 81.7118 36.4994 82.8163C37.869 84.23 38.7968 83.9649 37.9132 82.3303C36.8087 80.298 32.7442 79.4586 30.3143 80.8282Z" fill="#557DB0"/>
<mask id="mask6_18_511" style="mask-type:luminance" maskUnits="userSpaceOnUse" x="26" y="78" width="14" height="8">
<path d="M39.3477 78.7869H27.3477V84.7869H39.3477V78.7869Z" fill="white" stroke="#557DB0" stroke-width="1.2"/>
<path d="M30.3143 80.8282C28.9448 81.5351 28.017 82.993 28.4588 83.6998C28.6355 83.9649 29.254 83.6115 30.0492 82.8163C31.1537 81.7118 31.7722 81.4467 33.2743 81.4467C34.7764 81.4467 35.3949 81.7118 36.4994 82.8163C37.869 84.23 38.7968 83.9649 37.9132 82.3303C36.8087 80.298 32.7442 79.4586 30.3143 80.8282Z" stroke="#557DB0" stroke-width="1.2"/>
</mask>
<g mask="url(#mask6_18_511)">
<path d="M30.3143 80.8282C28.9448 81.5351 28.017 82.993 28.4588 83.6998C28.6355 83.9649 29.254 83.6115 30.0492 82.8163C31.1537 81.7118 31.7722 81.4467 33.2743 81.4467C34.7764 81.4467 35.3949 81.7118 36.4994 82.8163C37.869 84.23 38.7968 83.9649 37.9132 82.3303C36.8087 80.298 32.7442 79.4586 30.3143 80.8282Z" stroke="#557DB0" stroke-width="1.2"/>
</g>
<path d="M55.7616 41.2436C53.0667 42.3039 52.1831 45.9708 53.7735 49.461C55.4965 53.2604 60.4446 56.7064 64.2882 56.7064C66.0996 56.7064 66.2763 56.8389 73.9635 64.8796C82.5343 73.7596 84.3015 74.9967 87.9684 74.7316L89.8239 74.599V72.3017C89.7797 68.9883 88.2334 67.0444 81.4298 61.8754C70.385 53.5255 69.8548 53.0395 69.5014 50.8747C68.4853 44.5129 60.8422 39.1672 55.7616 41.2436ZM61.1957 42.7899C65.1276 44.4687 67.9993 48.0473 68.0435 51.4491C68.0435 52.9953 67.8226 53.5697 66.8948 54.3649C64.6858 56.2646 61.1515 55.5136 57.7939 52.421C51.6971 46.9428 54.2153 39.8741 61.1957 42.7899ZM70.6059 55.1601C71.2244 55.7345 75.1122 58.7828 79.2208 61.8754C85.3618 66.47 86.908 67.8838 87.7475 69.5184C88.2776 70.5787 88.7194 71.9483 88.7194 72.5226C88.7194 73.5829 88.631 73.5829 86.643 73.3178C83.7271 72.9202 82.4459 71.9041 75.819 64.7029C72.5939 61.2127 69.3247 57.8551 68.5736 57.2807L67.1599 56.2204L68.1318 55.1601C68.6178 54.5416 69.148 54.0556 69.2363 54.0556C69.3689 54.0556 69.9874 54.5416 70.6059 55.1601Z" fill="#557DB0"/>
<mask id="mask7_18_511" style="mask-type:luminance" maskUnits="userSpaceOnUse" x="51" y="39" width="41" height="38">
<path d="M90.9832 39.7632H51.9832V75.7632H90.9832V39.7632Z" fill="white" stroke="#557DB0" stroke-width="1.4"/>
<path d="M55.7616 41.2436C53.0667 42.3039 52.1831 45.9708 53.7735 49.461C55.4965 53.2604 60.4446 56.7064 64.2882 56.7064C66.0996 56.7064 66.2763 56.8389 73.9635 64.8796C82.5343 73.7596 84.3015 74.9967 87.9684 74.7316L89.8239 74.599V72.3017C89.7797 68.9883 88.2334 67.0444 81.4298 61.8754C70.385 53.5255 69.8548 53.0395 69.5014 50.8747C68.4853 44.5129 60.8422 39.1672 55.7616 41.2436ZM61.1957 42.7899C65.1276 44.4687 67.9993 48.0473 68.0435 51.4491C68.0435 52.9953 67.8226 53.5697 66.8948 54.3649C64.6858 56.2646 61.1515 55.5136 57.7939 52.421C51.6971 46.9428 54.2153 39.8741 61.1957 42.7899ZM70.6059 55.1601C71.2244 55.7345 75.1122 58.7828 79.2208 61.8754C85.3618 66.47 86.908 67.8838 87.7475 69.5184C88.2776 70.5787 88.7194 71.9483 88.7194 72.5226C88.7194 73.5829 88.631 73.5829 86.643 73.3178C83.7271 72.9202 82.4459 71.9041 75.819 64.7029C72.5939 61.2127 69.3247 57.8551 68.5736 57.2807L67.1599 56.2204L68.1318 55.1601C68.6178 54.5416 69.148 54.0556 69.2363 54.0556C69.3689 54.0556 69.9874 54.5416 70.6059 55.1601Z" stroke="#557DB0" stroke-width="1.4"/>
</mask>
<g mask="url(#mask7_18_511)">
<path d="M55.7616 41.2436C53.0667 42.3039 52.1831 45.9708 53.7735 49.461C55.4965 53.2604 60.4446 56.7064 64.2882 56.7064C66.0996 56.7064 66.2763 56.8389 73.9635 64.8796C82.5343 73.7596 84.3015 74.9967 87.9684 74.7316L89.8239 74.599V72.3017C89.7797 68.9883 88.2334 67.0444 81.4298 61.8754C70.385 53.5255 69.8548 53.0395 69.5014 50.8747C68.4853 44.5129 60.8422 39.1672 55.7616 41.2436ZM61.1957 42.7899C65.1276 44.4687 67.9993 48.0473 68.0435 51.4491C68.0435 52.9953 67.8226 53.5697 66.8948 54.3649C64.6858 56.2646 61.1515 55.5136 57.7939 52.421C51.6971 46.9428 54.2153 39.8741 61.1957 42.7899ZM70.6059 55.1601C71.2244 55.7345 75.1122 58.7828 79.2208 61.8754C85.3618 66.47 86.908 67.8838 87.7475 69.5184C88.2776 70.5787 88.7194 71.9483 88.7194 72.5226C88.7194 73.5829 88.631 73.5829 86.643 73.3178C83.7271 72.9202 82.4459 71.9041 75.819 64.7029C72.5939 61.2127 69.3247 57.8551 68.5736 57.2807L67.1599 56.2204L68.1318 55.1601C68.6178 54.5416 69.148 54.0556 69.2363 54.0556C69.3689 54.0556 69.9874 54.5416 70.6059 55.1601Z" stroke="#557DB0" stroke-width="1.4"/>
</g>
<path d="M65.8788 62.2729C63.4489 63.3332 58.6775 63.8633 55.8059 63.4215C52.8901 62.9356 52.1832 63.1123 52.9342 63.9959C53.6853 64.8795 58.6334 65.2771 61.9468 64.7027C65.2161 64.1284 68.8388 62.7147 68.8388 62.0078C68.8388 61.3893 67.6018 61.5218 65.8788 62.2729Z" fill="#557DB0"/>
<mask id="mask8_18_511" style="mask-type:luminance" maskUnits="userSpaceOnUse" x="50" y="59" width="21" height="8">
<path d="M69.6558 59.9714H51.6558V65.9714H69.6558V59.9714Z" fill="white" stroke="#557DB0" stroke-width="1.4"/>
<path d="M65.8788 62.2729C63.4489 63.3332 58.6775 63.8633 55.8059 63.4215C52.8901 62.9356 52.1832 63.1123 52.9342 63.9959C53.6853 64.8795 58.6334 65.2771 61.9468 64.7027C65.2161 64.1284 68.8388 62.7147 68.8388 62.0078C68.8388 61.3893 67.6018 61.5218 65.8788 62.2729Z" stroke="#557DB0" stroke-width="1.4"/>
</mask>
<g mask="url(#mask8_18_511)">
<path d="M65.8788 62.2729C63.4489 63.3332 58.6775 63.8633 55.8059 63.4215C52.8901 62.9356 52.1832 63.1123 52.9342 63.9959C53.6853 64.8795 58.6334 65.2771 61.9468 64.7027C65.2161 64.1284 68.8388 62.7147 68.8388 62.0078C68.8388 61.3893 67.6018 61.5218 65.8788 62.2729Z" stroke="#557DB0" stroke-width="1.4"/>
</g>
<path d="M73.3009 68.4579C72.7707 68.8555 70.6943 69.7391 68.7062 70.4902C65.7462 71.5947 64.1999 71.9039 60.3563 72.0806C56.9103 72.2132 55.585 72.4341 55.585 72.8317C55.585 73.1409 56.0709 73.5386 56.6894 73.6711C58.1474 74.0245 64.5092 73.2735 67.5134 72.3457C70.4734 71.4621 75.0239 69.209 75.0239 68.6346C75.0239 67.8836 74.2728 67.7952 73.3009 68.4579Z" fill="#557DB0"/>
<mask id="mask9_18_511" style="mask-type:luminance" maskUnits="userSpaceOnUse" x="53" y="66" width="25" height="10">
<path d="M76.585 66.7603H54.585V74.7603H76.585V66.7603Z" fill="white" stroke="#557DB0" stroke-width="1.4"/>
<path d="M73.3009 68.4579C72.7707 68.8555 70.6943 69.7391 68.7062 70.4902C65.7462 71.5947 64.1999 71.9039 60.3563 72.0806C56.9103 72.2132 55.585 72.4341 55.585 72.8317C55.585 73.1409 56.0709 73.5386 56.6894 73.6711C58.1474 74.0245 64.5092 73.2735 67.5134 72.3457C70.4734 71.4621 75.0239 69.209 75.0239 68.6346C75.0239 67.8836 74.2728 67.7952 73.3009 68.4579Z" stroke="#557DB0" stroke-width="1.4"/>
</mask>
<g mask="url(#mask9_18_511)">
<path d="M73.3009 68.4579C72.7707 68.8555 70.6943 69.7391 68.7062 70.4902C65.7462 71.5947 64.1999 71.9039 60.3563 72.0806C56.9103 72.2132 55.585 72.4341 55.585 72.8317C55.585 73.1409 56.0709 73.5386 56.6894 73.6711C58.1474 74.0245 64.5092 73.2735 67.5134 72.3457C70.4734 71.4621 75.0239 69.209 75.0239 68.6346C75.0239 67.8836 74.2728 67.7952 73.3009 68.4579Z" stroke="#557DB0" stroke-width="1.4"/>
</g>
</svg>
