<svg width="100" height="100" viewBox="0 0 100 100" fill="none" xmlns="http://www.w3.org/2000/svg">
<path d="M55.2043 8.8189C50.9329 9.22787 45.4801 11.1364 41.5268 13.5447C37.8462 15.8621 32.7114 21.0423 30.5303 24.7684C28.7581 27.7675 26.8496 32.9931 26.8042 34.8107C26.8042 37.1281 27.8039 35.9013 28.8036 32.4024C30.2577 27.3585 32.8023 23.1326 36.7556 19.2247C42.89 13.1812 48.6609 10.6365 57.1128 10.273C63.3381 9.95491 67.4277 10.7728 72.517 13.3175C79.015 16.4983 83.559 20.9969 86.8761 27.5857C91.7383 37.1736 90.7386 50.3967 84.4678 59.303C83.8317 60.1663 83.7408 60.6207 84.1043 60.8479C85.3312 61.575 89.0573 54.8044 90.4659 49.3061C91.5111 45.1256 91.6019 37.9915 90.6477 33.9019C87.4214 20.2698 75.607 10.0003 61.8386 8.8189C59.9301 8.68258 56.9765 8.68258 55.2043 8.8189Z" fill="#557DB0" stroke="#557DB0" stroke-width="0.9"/>
<path d="M54.5226 17.907C50.3875 18.5886 45.1619 21.4513 41.8902 24.8593C38.7094 28.1765 36.0738 33.084 35.6194 36.6738C35.165 39.7637 36.2556 39.3093 37.119 36.0376C39.9362 24.8593 50.6147 17.6343 62.0202 19.2702C70.3812 20.4516 77.5607 26.6315 80.0145 34.7653C80.8324 37.4008 80.9687 38.764 80.787 42.6719C80.6052 47.1705 80.4689 47.6703 78.6967 51.1692C76.6519 55.1225 76.5156 55.5769 77.2427 55.5769C78.0606 55.5769 80.4235 51.351 81.4232 48.0793C85.5128 34.8562 77.1518 20.9969 63.3834 18.0887C59.8845 17.3617 58.2486 17.3163 54.5226 17.907Z" fill="#557DB0" stroke="#557DB0" stroke-width="0.9"/>
<path d="M53.2959 23.9962C50.6603 24.8141 47.2069 27.0861 45.1621 29.3127C42.4357 32.3572 39.891 38.7643 41.4814 38.7643C41.8904 38.7643 42.2993 38.1736 42.4811 37.2648C43.8443 30.994 49.8879 25.6321 56.613 24.7687C59.9301 24.3597 60.5209 23.3146 57.3855 23.3601C56.2041 23.3601 54.341 23.6327 53.2959 23.9962Z" fill="#557DB0" stroke="#557DB0" stroke-width="0.9"/>
<path d="M22.2601 38.7187C17.1708 40.3546 13.8537 42.9447 10.8092 47.5796C9.40055 49.8061 8.58263 51.9418 9.21879 51.9418C9.30967 51.9418 11.0818 51.3056 13.2175 50.5332C17.398 48.9882 23.3053 48.2612 24.8048 49.1245C25.6227 49.5789 25.6227 49.6244 24.7593 49.897C18.4432 52.0327 13.0812 57.849 11.9906 63.7563C11.8089 64.6196 11.0818 66.0283 10.3548 66.8916C9.08247 68.3457 8.99159 68.6638 9.17335 71.4357C9.40055 75.0254 10.173 76.843 12.0815 78.0699C12.8994 78.5698 13.8991 79.7058 14.3535 80.5691C15.535 82.7957 19.7609 87.158 21.9875 88.4757C31.1664 93.8377 43.0717 90.3842 48.6609 80.7055C49.2062 79.7058 50.2513 78.5698 50.9783 78.1608C52.7505 77.1157 54.0683 74.1166 54.0683 70.9358C54.0683 68.7092 53.8865 68.1185 52.7959 66.8462C52.0689 66.0283 51.251 64.347 50.9329 63.1201C49.5243 57.3038 44.5713 51.8964 39.073 50.1696C37.4826 49.6698 37.4826 49.6244 37.4826 47.0797C37.4372 39.8547 30.4848 36.0377 22.2601 38.7187ZM32.3479 40.4454C34.2563 41.5814 35.7104 43.6717 36.074 45.9891C36.5284 48.9428 36.392 49.0336 31.6663 48.9882C28.7126 48.9428 27.0314 48.6701 26.0317 48.1703C23.9414 47.0797 19.4883 47.1706 15.0351 48.4429C13.0358 49.0336 11.3545 49.3972 11.3545 49.17C11.3545 48.5338 14.9443 44.3079 16.4438 43.1719C18.4432 41.6723 21.3968 40.2182 23.487 39.673C26.0771 39.0368 30.6211 39.4458 32.3479 40.4454ZM37.3463 51.0784L38.9821 51.4874L38.346 53.2141C37.1645 56.1223 34.3472 59.8484 32.0752 61.3479C29.1216 63.3473 27.0314 63.8471 21.3968 63.8017C18.7612 63.8017 15.8076 63.9835 14.8534 64.1652C13.2175 64.5742 13.1721 64.5287 13.3993 63.6199C13.5811 63.0747 14.3081 61.3479 15.0351 59.803C18.5795 52.3508 27.9402 48.7156 37.3463 51.0784ZM43.3444 54.1229C44.5713 55.0317 46.2526 56.8039 47.0705 57.9854C48.6154 60.2119 50.3876 64.8923 49.8878 65.3921C49.706 65.5284 48.3882 65.3012 46.8887 64.8923C42.7991 63.7108 40.8452 61.5297 40.209 57.3038C39.8909 55.2135 40.2545 52.3962 40.7997 52.3962C40.9815 52.3962 42.1175 53.1687 43.3444 54.1229ZM40.8906 62.802C42.1629 64.6196 45.6618 66.3464 48.9335 66.7553C50.6603 66.9371 51.5691 67.3006 52.0235 67.9822C52.8414 69.1182 52.8868 72.0718 52.2052 74.2529C51.6599 75.8434 50.1604 77.5246 49.5243 77.1611C49.3425 77.0248 48.3882 78.2971 47.434 79.933C45.3438 83.5228 42.2538 86.4309 38.7095 88.1577C36.392 89.2482 35.6195 89.3845 31.5754 89.43C27.5766 89.43 26.7133 89.2482 24.3958 88.2031C21.1696 86.7036 16.8982 82.5231 15.2623 79.3423C14.4444 77.7064 13.8083 76.9339 13.0812 76.843C11.6726 76.6613 10.4457 74.0712 10.4457 71.3448C10.4457 68.6184 10.9001 67.755 12.8994 66.4827C14.2627 65.6648 15.3078 65.5284 20.7606 65.3921C28.849 65.2104 31.3027 64.347 35.0743 60.53C36.4829 59.0759 37.8007 57.4401 37.9824 56.8494C38.2551 55.986 38.4368 56.2586 39.073 58.5761C39.482 60.0756 40.2999 61.9841 40.8906 62.802Z" fill="#557DB0" stroke="#557DB0" stroke-width="0.9"/>
<path d="M25.5773 74.3439C24.8502 75.5254 22.9417 76.4796 21.215 76.4796C19.9881 76.4796 19.5337 76.6614 19.6701 77.0249C19.7609 77.3884 20.6697 77.6156 21.9875 77.5702C24.3958 77.5702 26.4861 76.2978 26.7133 74.7074C26.895 73.6623 26.168 73.3897 25.5773 74.3439Z" fill="#557DB0" stroke="#557DB0" stroke-width="0.9"/>
<path d="M36.4374 74.7528C36.6646 76.2978 39.391 77.9336 41.5267 77.7519C43.8896 77.5701 44.2985 76.4795 42.0265 76.4795C40.1635 76.4795 37.9369 75.4799 37.5734 74.4347C37.119 73.3896 36.2556 73.6168 36.4374 74.7528Z" fill="#557DB0" stroke="#557DB0" stroke-width="0.9"/>
<path d="M29.8939 81.2961C28.4852 82.0232 27.531 83.5227 27.9854 84.2497C28.1672 84.5224 28.8033 84.1588 29.6212 83.3409C30.7573 82.2049 31.3934 81.9323 32.9384 81.9323C34.4834 81.9323 35.1195 82.2049 36.2555 83.3409C37.6642 84.795 38.6184 84.5224 37.7096 82.8411C36.5736 80.7508 32.3931 79.8875 29.8939 81.2961Z" fill="#557DB0" stroke="#557DB0" stroke-width="0.9"/>
<path d="M56.0675 40.5818C53.2956 41.6724 52.3868 45.4439 54.0227 49.0337C55.7948 52.9415 60.8841 56.4859 64.8374 56.4859C66.7005 56.4859 66.8822 56.6222 74.7888 64.8923C83.6042 74.0258 85.4218 75.2981 89.1934 75.0255L91.1019 74.8892V72.5263C91.0564 69.1183 89.466 67.1189 82.4682 61.8024C71.1082 53.2142 70.5629 52.7143 70.1994 50.4878C69.1543 43.9444 61.2931 38.4461 56.0675 40.5818ZM61.6566 42.1722C65.7008 43.8989 68.6544 47.5796 68.6999 51.0785C68.6999 52.6689 68.4727 53.2596 67.5184 54.0776C65.2464 56.0315 61.6112 55.259 58.1577 52.0782C51.887 46.4436 54.4771 39.1732 61.6566 42.1722ZM71.3354 54.8955C71.9715 55.4862 75.9703 58.6216 80.1962 61.8024C86.5124 66.5282 88.1028 67.9823 88.9662 69.6635C89.5115 70.7541 89.9659 72.1628 89.9659 72.7535C89.9659 73.844 89.875 73.844 87.8302 73.5714C84.8311 73.1624 83.5134 72.1173 76.6973 64.7106C73.3802 61.1208 70.0176 57.6673 69.2451 57.0766L67.791 55.986L68.7907 54.8955C69.2906 54.2593 69.8359 53.7595 69.9267 53.7595C70.0631 53.7595 70.6992 54.2593 71.3354 54.8955Z" fill="#557DB0" stroke="#557DB0" stroke-width="0.9"/>
<path d="M66.4734 62.2114C63.9742 63.3019 59.0667 63.8472 56.1131 63.3928C53.114 62.893 52.387 63.0747 53.1595 63.9835C53.932 64.8923 59.0213 65.3013 62.4293 64.7106C65.7918 64.1198 69.5179 62.6658 69.5179 61.9387C69.5179 61.3025 68.2456 61.4389 66.4734 62.2114Z" fill="#557DB0" stroke="#557DB0" stroke-width="0.9"/>
<path d="M74.1075 68.5728C73.5622 68.9818 71.4265 69.8906 69.3817 70.6631C66.3372 71.7991 64.7468 72.1171 60.7935 72.2989C57.2492 72.4352 55.886 72.6624 55.886 73.0714C55.886 73.3895 56.3858 73.7984 57.022 73.9348C58.5215 74.2983 65.0649 73.5258 68.1548 72.5716C71.1993 71.6627 75.8797 69.3453 75.8797 68.7546C75.8797 67.9821 75.1072 67.8912 74.1075 68.5728Z" fill="#557DB0" stroke="#557DB0" stroke-width="0.9"/>
</svg>
