<svg width="100" height="100" viewBox="0 0 100 100" fill="none" xmlns="http://www.w3.org/2000/svg">
<path d="M54.8889 9.75101L54.8889 9.75095L54.8954 9.75045C56.6368 9.61649 59.5259 9.61663 61.3973 9.75031L61.3973 9.75027L61.4023 9.7507C74.9416 10.9125 86.5517 21.0073 89.7227 34.4058L89.7229 34.4069C90.1956 36.4328 90.406 39.1917 90.3727 41.9459C90.3393 44.7006 90.0619 47.4802 89.5449 49.5481L89.5444 49.5501C88.8514 52.2552 87.5914 55.2647 86.3531 57.5126C85.735 58.6347 85.1133 59.5836 84.5602 60.2125C84.2857 60.5245 84.0108 60.778 83.7454 60.929C83.4845 61.0774 83.1504 61.1687 82.8418 60.9859L82.8418 60.9859L82.8348 60.9816C82.694 60.8936 82.5749 60.7681 82.5113 60.5966C82.4492 60.4293 82.4534 60.2543 82.4912 60.0881C82.5634 59.7706 82.7777 59.4018 83.0896 58.9782C89.1111 50.4233 90.0702 37.7073 85.4031 28.5038L85.4026 28.5029C82.2114 22.1642 77.8488 17.8461 71.6007 14.7875L71.598 14.7862C66.7085 12.3414 62.7931 11.5563 56.7956 11.8627L56.7928 11.8628C52.7168 12.0381 49.3045 12.7385 46.1776 14.1143C43.0504 15.4902 40.191 17.5497 37.231 20.4658C33.428 24.2252 30.9867 28.2821 29.5905 33.125C29.345 33.9839 29.098 34.7091 28.864 35.2792C28.6336 35.8407 28.4049 36.2792 28.1876 36.5426C28.0854 36.6664 27.9429 36.8056 27.7588 36.8545C27.6551 36.8821 27.5393 36.8803 27.4271 36.8321C27.3195 36.7859 27.2432 36.7091 27.1904 36.6338C27.0912 36.492 27.0392 36.3034 27.0083 36.1116C26.9758 35.9102 26.9601 35.6623 26.9601 35.37H26.96L26.9602 35.3613C26.9724 34.8761 27.1059 34.1941 27.3145 33.4181C27.525 32.6351 27.8185 31.7329 28.1636 30.7978C28.8528 28.9302 29.7557 26.9107 30.6311 25.4289C31.7117 23.5831 33.5115 21.3953 35.4823 19.3912C37.4538 17.3864 39.6177 15.5439 41.4377 14.3979L41.4377 14.3979L41.4421 14.3952C45.3257 12.0293 50.6775 10.1542 54.8889 9.75101ZM71.7545 14.4732C78.0722 17.5657 82.4901 21.9395 85.7152 28.3455L36.9854 20.2165C42.9496 14.3406 48.5604 11.8666 56.7777 11.5132C62.8303 11.2039 66.8065 11.9991 71.7545 14.4732Z" fill="#557DB0" stroke="#557DB0" stroke-width="0.7"/>
<path d="M54.2026 18.5899L54.2047 18.5896C56.0241 18.3012 57.3511 18.165 58.6574 18.1933C59.9643 18.2215 61.2364 18.4141 62.9457 18.7693L62.9468 18.7695C76.5273 21.638 84.787 35.3134 80.7482 48.3732C80.2537 49.9915 79.4257 51.8365 78.6208 53.2786C78.2185 53.9993 77.8163 54.6298 77.4581 55.0848C77.2797 55.3113 77.1042 55.5047 76.9377 55.6449C76.7869 55.7719 76.5808 55.9099 76.3492 55.9099C76.249 55.9099 76.1299 55.903 76.0171 55.8662C75.8941 55.8262 75.7664 55.7462 75.6858 55.5998C75.6111 55.4643 75.6017 55.3162 75.613 55.1869C75.6245 55.0556 75.6606 54.9093 75.7128 54.7498C75.9171 54.1253 76.4643 53.0235 77.4514 51.1151C78.3148 49.4104 78.7596 48.4728 79.0192 47.4242C79.2797 46.3712 79.3568 45.1926 79.4455 42.9989L79.4456 42.9967C79.5338 41.0997 79.5436 39.8397 79.4358 38.7397C79.3285 37.6453 79.1036 36.6981 78.7099 35.4295L78.709 35.4269C76.3625 27.6484 69.4931 21.7366 61.5001 20.6072L61.4994 20.6071C50.5894 19.0423 40.3739 25.9524 37.6782 36.6484L37.6782 36.6484L37.6773 36.6521C37.4638 37.4609 37.2335 38.107 37.0107 38.5744C36.8996 38.8077 36.7865 39.0046 36.6732 39.1572C36.567 39.3002 36.4321 39.4438 36.2652 39.5141C36.1743 39.5524 36.0619 39.5736 35.9412 39.546C35.8198 39.5181 35.7265 39.4492 35.6604 39.3716C35.5401 39.2304 35.4861 39.0353 35.4583 38.852C35.4 38.4689 35.4227 37.893 35.5341 37.1339C35.9892 33.5494 38.5976 28.714 41.725 25.4525L41.7252 25.4523C44.9522 22.0909 50.0992 19.2663 54.2026 18.5899Z" fill="#557DB0" stroke="#557DB0" stroke-width="0.7"/>
<path d="M44.8978 29.7908L44.8978 29.7908L44.9008 29.7876C46.9241 27.5844 50.3297 25.34 52.9573 24.5228C54.0173 24.1554 55.8623 23.8872 57.0403 23.8868C57.8114 23.8758 58.3884 23.9303 58.7636 24.0404C58.9438 24.0933 59.1296 24.1734 59.2542 24.3105C59.3222 24.3854 59.3787 24.485 59.3927 24.6072C59.4067 24.7292 59.3743 24.8386 59.3258 24.9259C59.2369 25.086 59.0777 25.2033 58.9234 25.291C58.7588 25.3845 58.5506 25.4714 58.3073 25.5511C57.8197 25.7107 57.1558 25.8525 56.3355 25.9537C49.935 26.7757 44.1876 31.8864 42.8946 37.8273C42.8 38.2988 42.6429 38.7093 42.4391 39.0116C42.2441 39.301 41.9535 39.5636 41.5801 39.5636C41.4221 39.5636 41.2686 39.5228 41.1355 39.4296C41.0043 39.3377 40.9163 39.2114 40.8592 39.0776C40.75 38.8215 40.7359 38.497 40.7655 38.1631C40.8258 37.4834 41.087 36.5757 41.4696 35.6011C42.2365 33.6474 43.537 31.3105 44.8978 29.7908Z" fill="#557DB0" stroke="#557DB0" stroke-width="0.7"/>
<path d="M38.3737 56.8571C38.3361 56.7656 38.3053 56.7034 38.2806 56.6646C38.2751 56.6559 38.271 56.6503 38.2685 56.647M38.3737 56.8571L38.3745 56.8589L38.512 56.9024C38.5121 56.902 38.5122 56.9016 38.5124 56.9012C38.5435 56.8027 38.5702 56.7309 38.5928 56.6812C38.6088 56.6464 38.6178 56.6338 38.6176 56.6337C38.6175 56.6336 38.6134 56.6389 38.6048 56.6468C38.5902 56.6601 38.5552 56.6873 38.4988 56.7009C38.4374 56.7156 38.3787 56.7074 38.3332 56.6885C38.2968 56.6735 38.2759 56.6548 38.2685 56.647M38.3737 56.8571L38.1782 56.797L38.3737 56.8571ZM38.2685 56.647C38.2663 56.6448 38.2653 56.6434 38.2653 56.6434C38.2654 56.6433 38.2664 56.6444 38.2685 56.647ZM11.4632 47.5972L11.4632 47.5972L11.4665 47.5922C14.4677 43.0232 17.7563 40.4527 22.7844 38.8364C26.8531 37.5103 30.6455 37.7792 33.4428 39.3155C36.2509 40.8576 38.0194 43.6592 38.0423 47.2962V47.2984C38.0423 47.9219 38.0425 48.3746 38.0656 48.7197C38.0891 49.0682 38.1341 49.2624 38.1977 49.3877C38.2524 49.4955 38.3334 49.5773 38.5039 49.6644C38.6897 49.7594 38.9485 49.8446 39.3434 49.9687C44.8107 51.6857 49.7108 57.0408 51.1088 62.8084C51.2562 63.3757 51.5221 64.0586 51.8395 64.6987C52.1588 65.3426 52.5181 65.9192 52.8423 66.2839L52.8423 66.2838L52.8464 66.2886C53.3865 66.9187 53.733 67.4152 53.9311 68.0527C54.1252 68.6777 54.1677 69.4109 54.1677 70.4925C54.1677 72.0849 53.8383 73.6343 53.2832 74.922C52.7308 76.2032 51.9398 77.2592 50.9913 77.8185L50.9914 77.8186L50.9851 77.8221C50.6783 77.9947 50.2767 78.3396 49.8791 78.7748C49.485 79.2062 49.1164 79.7026 48.8676 80.1587L48.8677 80.1588L48.8635 80.1661C43.3404 89.7305 31.5558 93.1669 22.4506 87.848L22.4489 87.847C21.3245 87.1815 19.7295 85.7728 18.2834 84.2768C16.8381 82.7816 15.4945 81.1508 14.8958 80.0226L14.8953 80.0216C14.6914 79.6342 14.3569 79.1719 13.9729 78.7452C13.5877 78.3173 13.1717 77.9462 12.8135 77.7274L12.8135 77.7274L12.8068 77.7231C11.8237 77.0911 11.1247 76.2985 10.6484 75.2049C10.1773 74.1231 9.93073 72.7618 9.81927 71.001C9.73197 69.6696 9.70229 68.8571 9.87412 68.2005C10.0518 67.5216 10.4366 67.0356 11.0516 66.3326C11.3838 65.9376 11.7228 65.4094 12.0007 64.8749C12.2798 64.3382 12.4846 63.8196 12.5643 63.4442C13.6525 57.5616 18.9666 51.817 25.2099 49.706L25.2099 49.7059L25.2167 49.7038C25.2569 49.691 25.2948 49.679 25.3303 49.6675C25.2891 49.6442 25.2445 49.6192 25.1963 49.5924L25.1962 49.5925L25.1916 49.5898C24.9074 49.4261 24.3513 49.313 23.5502 49.2849C22.767 49.2574 21.8046 49.3123 20.7532 49.4406C18.65 49.6974 16.225 50.244 14.2218 50.9843L14.2196 50.9852C13.1814 51.3607 12.2305 51.7034 11.528 51.9524C11.1769 52.0767 10.8864 52.1782 10.6775 52.2488C10.5733 52.284 10.4872 52.3122 10.4231 52.332C10.3914 52.3418 10.3619 52.3505 10.3369 52.357C10.3246 52.3602 10.31 52.3638 10.295 52.3669L10.2943 52.367C10.2851 52.3689 10.252 52.3756 10.2127 52.3756C10.016 52.3756 9.84143 52.2811 9.74134 52.1055C9.65857 51.9603 9.64562 51.7924 9.65107 51.6536C9.66229 51.368 9.76271 50.9984 9.91215 50.5951C10.2158 49.7757 10.7699 48.6931 11.4632 47.5972ZM15.7685 48.2881L15.7715 48.2872C17.9621 47.6614 20.1565 47.3248 22.0666 47.2798C23.9635 47.2352 25.6238 47.477 26.7183 48.047C27.6123 48.493 29.1736 48.7598 32.0421 48.804C33.194 48.815 34.048 48.8174 34.6823 48.7717C35.3298 48.7251 35.6793 48.631 35.8719 48.5C36.026 48.3952 36.1175 48.2399 36.1361 47.8926C36.1559 47.5247 36.0888 47.0195 35.9769 46.2918C35.6397 44.1432 34.2885 42.2018 32.5228 41.1501C31.7523 40.7048 30.2936 40.3674 28.6766 40.2249C27.0697 40.0833 25.3789 40.1403 24.1709 40.4365C22.1877 40.9544 19.3587 42.3455 17.4478 43.7785C16.7524 44.3057 15.5374 45.5818 14.4833 46.8236C13.9596 47.4405 13.4844 48.0386 13.142 48.5174C13.0056 48.7082 12.8929 48.8763 12.8074 49.0168C12.939 48.9977 13.0971 48.9696 13.2797 48.9324C13.9176 48.8027 14.8016 48.5738 15.7685 48.2881ZM37.4748 51.5257L37.4745 51.5256C28.4497 49.2586 19.5416 52.7596 16.184 59.8184C15.4836 61.3069 14.7902 62.9546 14.6135 63.4779C14.5778 63.621 14.5547 63.7227 14.5423 63.7964C14.5866 63.7926 14.6417 63.7854 14.7096 63.7739C14.9184 63.7386 15.2063 63.6702 15.6061 63.5703L15.6157 63.5679L15.6255 63.566C16.5885 63.3826 19.489 63.2064 22.0528 63.2064L22.0556 63.2064C24.7895 63.2285 26.6328 63.1173 28.1424 62.7681C29.6409 62.4215 30.8274 61.8363 32.2387 60.8809L32.2421 60.8786C33.3007 60.1799 34.5101 58.9437 35.6031 57.5174C36.6925 56.0957 37.6453 54.5126 38.2052 53.1362L38.6869 51.8288L37.4748 51.5257ZM43.1831 54.4274L43.183 54.4275L43.1765 54.4225C42.5846 53.9621 42.0164 53.547 41.5767 53.2484C41.3562 53.0987 41.1722 52.9812 41.0357 52.9023C41.0106 52.8878 40.9878 52.8751 40.9674 52.864C40.9445 52.9069 40.9182 52.9661 40.8902 53.0446C40.7995 53.2989 40.7193 53.6764 40.6628 54.1339C40.5501 55.0459 40.5399 56.2062 40.689 57.1861L40.6891 57.1866C40.9919 59.1981 41.6024 60.6846 42.5934 61.806C43.5842 62.9272 44.9852 63.717 46.932 64.2797C47.6522 64.4761 48.3243 64.6275 48.8339 64.7134C49.0901 64.7565 49.2972 64.7817 49.4454 64.789C49.4601 64.7897 49.4739 64.7903 49.4868 64.7906C49.487 64.7781 49.487 64.7644 49.4867 64.7496C49.4839 64.6074 49.4559 64.4068 49.3997 64.1523C49.2881 63.6465 49.0777 62.982 48.802 62.2559C48.2496 60.8011 47.4552 59.1511 46.7266 58.101L46.7263 58.1007C45.9517 56.9817 44.3434 55.287 43.1831 54.4274ZM41.0207 52.7842C41.0206 52.7842 41.0197 52.7849 41.018 52.7867C41.0199 52.7851 41.0208 52.7842 41.0207 52.7842ZM49.6192 64.785C49.6191 64.7849 49.6169 64.7853 49.6129 64.7864C49.6173 64.7857 49.6193 64.7851 49.6192 64.785ZM49.4753 64.8975C49.4749 64.8982 49.4747 64.8988 49.4747 64.8991L49.4753 64.8975ZM43.3914 54.1462C44.5842 55.0298 46.2189 56.7528 47.0141 57.9014L43.3914 54.1462ZM48.7888 66.7761L48.7888 66.7762L48.7821 66.7754C47.1499 66.5713 45.4668 66.0399 44.0321 65.3339C42.606 64.632 41.3875 63.739 40.7204 62.7872C40.1118 61.9432 39.3039 60.0452 38.901 58.5684C38.7467 58.0062 38.6215 57.5739 38.5166 57.2539C38.4933 57.1828 38.4715 57.1186 38.451 57.061C38.379 57.222 38.271 57.404 38.1466 57.5924C37.9727 57.8558 37.7464 58.1613 37.4858 58.4892C36.9642 59.1455 36.2938 59.9051 35.6021 60.619L35.6022 60.619L35.5997 60.6215C33.747 62.4966 32.1889 63.6754 30.0795 64.3957C27.9864 65.1104 25.3764 65.3642 21.4426 65.4526C16.1181 65.5857 15.2033 65.7248 13.9753 66.4607C13.02 67.069 12.4908 67.546 12.1815 68.1549C11.868 68.7721 11.7556 69.5728 11.7556 70.8902C11.7556 72.1674 12.0438 73.4076 12.489 74.34C12.7116 74.8061 12.968 75.1838 13.2364 75.4505C13.5056 75.7178 13.7696 75.8572 14.0121 75.8887C14.4841 75.9479 14.8876 76.2262 15.2604 76.6591C15.6312 77.0898 15.9997 77.7056 16.4007 78.5074C17.1727 80.0078 18.5799 81.7662 20.1928 83.3353C21.8061 84.9049 23.5955 86.2561 25.1143 86.9625C26.2318 87.4664 26.9729 87.75 27.9062 87.9134C28.8498 88.0787 30.0031 88.1235 31.947 88.1235C33.916 88.1014 35.0576 88.0568 35.9852 87.8915C36.8998 87.7285 37.6175 87.4462 38.7339 86.9208C42.1135 85.2738 45.0663 82.4966 47.0651 79.0639L47.0652 79.0637C47.5338 78.2604 48.0052 77.5414 48.3857 77.036C48.5744 76.7853 48.7488 76.5763 48.8948 76.4351C48.9654 76.3668 49.0462 76.2977 49.1311 76.2509C49.1816 76.2232 49.38 76.1222 49.576 76.2421C49.5768 76.2423 49.5781 76.2426 49.5797 76.2429C49.5857 76.2438 49.5984 76.2448 49.6195 76.2418C49.6641 76.2357 49.7324 76.2141 49.8246 76.1633C50.0101 76.0612 50.2372 75.8719 50.4775 75.6081C50.9554 75.0833 51.4252 74.331 51.6737 73.6086C51.9915 72.5897 52.1416 71.3822 52.1148 70.2968C52.0876 69.1912 51.8787 68.288 51.5456 67.8254L51.5454 67.8255L51.5384 67.815C51.1931 67.2971 50.4634 66.9524 48.7888 66.7761Z" fill="#557DB0" stroke="#557DB0" stroke-width="0.7"/>
<path d="M25.8618 73.6488L25.8622 73.6481C26.0219 73.3902 26.2036 73.1935 26.3986 73.0722C26.5937 72.9509 26.8248 72.8936 27.0481 72.9699C27.2739 73.047 27.4185 73.2353 27.4895 73.4514C27.5595 73.6641 27.567 73.9224 27.5181 74.2064C27.3891 75.0968 26.7483 75.8578 25.8753 76.3875C24.9974 76.92 23.8513 77.2418 22.6323 77.2428C21.9778 77.265 21.4094 77.2206 20.9834 77.1185C20.7708 77.0676 20.5794 76.9991 20.4279 76.9075C20.2849 76.821 20.1412 76.6912 20.0876 76.5028C20.0358 76.3546 20.0308 76.1814 20.1306 76.0217C20.2235 75.8731 20.3769 75.7871 20.5255 75.7331C20.8223 75.6251 21.2777 75.5825 21.8761 75.5825C22.6634 75.5825 23.5019 75.364 24.2286 75.0059C24.9585 74.6462 25.5472 74.16 25.8618 73.6488Z" fill="#557DB0" stroke="#557DB0" stroke-width="0.6"/>
<path d="M38.0557 73.7747L38.0602 73.7851L38.064 73.7958C38.1275 73.9784 38.2845 74.1874 38.5435 74.4031C38.7991 74.6161 39.1351 74.8196 39.5231 74.9964C40.3009 75.351 41.2527 75.5824 42.1102 75.5824C42.678 75.5824 43.1151 75.6494 43.4078 75.7753C43.5533 75.8379 43.6922 75.9274 43.7813 76.059C43.8806 76.2056 43.8999 76.3791 43.8371 76.5424C43.7807 76.6889 43.668 76.804 43.5472 76.8924C43.4228 76.9835 43.2666 77.0634 43.0869 77.1319C42.7272 77.2691 42.2421 77.3727 41.6484 77.4185C40.5326 77.5131 39.2893 77.135 38.3013 76.5491C37.8047 76.2546 37.3613 75.9011 37.0244 75.515C36.6899 75.1316 36.4464 74.6997 36.3796 74.2492C36.3302 73.9392 36.347 73.6628 36.4315 73.44C36.517 73.2146 36.6808 73.0289 36.9175 72.9643C37.1524 72.9002 37.3878 72.975 37.5783 73.1198C37.7683 73.2642 37.9311 73.4881 38.0557 73.7747Z" fill="#557DB0" stroke="#557DB0" stroke-width="0.6"/>
<path d="M28.2092 83.6036L28.2091 83.6036L28.2044 83.5961C28.0421 83.3365 28.0196 83.0298 28.0748 82.7345C28.1302 82.439 28.2665 82.1322 28.4549 81.8391C28.8308 81.2544 29.4431 80.6787 30.1718 80.3014C31.4651 79.5745 33.1642 79.4445 34.6698 79.7467C36.1686 80.0476 37.5637 80.7964 38.1767 81.9243L38.1771 81.9249C38.4061 82.3486 38.5368 82.7162 38.5569 83.0115C38.5671 83.1607 38.5506 83.3128 38.4835 83.4468C38.4123 83.5891 38.2932 83.6911 38.1428 83.7394C37.8714 83.8265 37.5573 83.7229 37.2761 83.5658C36.9775 83.3991 36.6405 83.1301 36.2856 82.764C35.7427 82.2213 35.3451 81.912 34.9186 81.7307C34.4931 81.5497 34.0106 81.484 33.2743 81.484C32.5381 81.484 32.0555 81.5497 31.6301 81.7307C31.2032 81.9122 30.8051 82.2219 30.2614 82.7657C29.8561 83.171 29.4799 83.4804 29.1686 83.6547C29.0158 83.7403 28.8533 83.8079 28.696 83.8216C28.5246 83.8365 28.3305 83.7856 28.2092 83.6036Z" fill="#557DB0" stroke="#557DB0" stroke-width="0.6"/>
<path d="M73.7105 64.8585L73.7117 64.8597C77.9904 69.2928 80.5992 71.8491 82.6036 73.2584C83.6126 73.9678 84.4825 74.3971 85.3482 74.628C86.2143 74.8591 87.0546 74.8856 87.9933 74.8178C87.9934 74.8178 87.9935 74.8177 87.9936 74.8177L89.8488 74.6852L90.1739 74.662V74.3361V72.0388V72.0341L90.1739 72.0341C90.1508 70.302 89.7277 68.9115 88.4345 67.3022C87.1615 65.7181 85.0409 63.9164 81.6415 61.3338L81.6409 61.3333C76.1104 57.1523 73.2349 54.9565 71.6936 53.5354C70.9253 52.8271 70.5114 52.3314 70.2657 51.8973C70.0245 51.4711 69.9331 51.0836 69.8469 50.556C69.3204 47.2609 67.0876 44.2581 64.3565 42.3452C61.6336 40.4381 58.3256 39.556 55.6314 40.6558C54.1589 41.2361 53.2004 42.5231 52.8203 44.096C52.4408 45.6668 52.6316 47.5359 53.4548 49.3426L73.7105 64.8585ZM73.7105 64.8585C69.8585 60.8294 67.9099 58.8051 66.6968 57.7824C66.0938 57.2741 65.6997 57.0374 65.3667 56.9199C65.0375 56.8038 64.7412 56.7935 64.2882 56.7935C62.2718 56.7935 60.005 55.8945 58.0366 54.5334M73.7105 64.8585L58.0366 54.5334M58.0366 54.5334C56.0659 53.1708 54.3489 51.3141 53.4549 49.3429L58.0366 54.5334ZM66.6666 53.8366L66.667 53.8362C67.1095 53.457 67.3495 53.1591 67.4912 52.7979C67.6371 52.426 67.6934 51.9517 67.6935 51.1884C67.6504 47.9684 64.9066 44.4925 61.0595 42.8494C59.3645 42.1416 57.9847 42.0586 56.9629 42.3665C55.9504 42.6716 55.2547 43.3698 54.9207 44.3117C54.2462 46.2147 55.0378 49.2111 58.0278 51.8977L58.0278 51.8977L58.031 51.9006C59.6785 53.4181 61.3471 54.3397 62.8481 54.6598C64.3415 54.9784 65.66 54.7023 66.6666 53.8366ZM70.3677 55.1537L70.3676 55.1539L70.3584 55.1447C70.0571 54.8434 69.7574 54.5761 69.5202 54.3863C69.4176 54.3042 69.3304 54.2396 69.2622 54.1939C69.2114 54.2372 69.1489 54.2942 69.0773 54.3639C68.8838 54.5521 68.6402 54.8167 68.407 55.1134L68.3988 55.1239L68.3898 55.1337L67.6789 55.9093L68.7836 56.7378L68.7862 56.7398C69.1869 57.0462 70.213 58.052 71.5191 59.3911C72.836 60.7411 74.4617 62.4554 76.0761 64.2024L76.0766 64.2029C79.3954 67.8094 81.353 69.8414 82.8406 71.0249C83.579 71.6124 84.1918 71.9825 84.788 72.2306C85.3837 72.4785 85.9781 72.611 86.6898 72.7081C87.1904 72.7748 87.5565 72.8227 87.8312 72.8425C88.1177 72.8631 88.2477 72.8472 88.306 72.8258C88.3141 72.8228 88.3186 72.8205 88.3208 72.8192C88.3232 72.8153 88.3295 72.8034 88.3368 72.7768C88.3616 72.6852 88.3694 72.5355 88.3694 72.2597C88.3694 72.0321 88.2751 71.5918 88.0992 71.0475C87.9276 70.5165 87.6914 69.9262 87.4352 69.4136C87.0418 68.648 86.478 67.919 85.2382 66.8043C83.9924 65.6841 82.0826 64.1908 79.0112 61.8927L79.0104 61.8921C74.9088 58.8049 71.0028 55.7434 70.3677 55.1537ZM69.1507 54.1281C69.1509 54.1283 69.1531 54.1293 69.157 54.1307C69.1525 54.1286 69.1504 54.1279 69.1507 54.1281ZM88.3226 72.8179C88.3226 72.8179 88.3222 72.8181 88.3216 72.8187L88.3226 72.8179Z" fill="#557DB0" stroke="#557DB0" stroke-width="0.7"/>
<path d="M65.7387 61.6893L65.7388 61.6892C66.6142 61.3076 67.3935 61.0703 67.9718 61.0155C68.2552 60.9886 68.535 61.0008 68.7593 61.0994C68.8771 61.1512 68.9891 61.2311 69.0706 61.3497C69.1532 61.4699 69.1887 61.6069 69.1887 61.745C69.1887 61.9758 69.0485 62.1609 68.9264 62.2853C68.7929 62.4213 68.6121 62.5539 68.4053 62.6814C67.9892 62.938 67.4125 63.2077 66.7461 63.4681C65.4103 63.9901 63.6649 64.4934 62.0073 64.7846L62.0065 64.7848C60.3145 65.0781 58.2188 65.1219 56.4519 64.9821C55.5679 64.9122 54.7554 64.7955 54.1098 64.6369C53.7873 64.5577 53.4983 64.4662 53.2598 64.3609C53.0281 64.2586 52.8119 64.1297 52.6674 63.9597C52.5647 63.8388 52.4762 63.7178 52.413 63.5986C52.3517 63.4828 52.2991 63.3406 52.3063 63.1859C52.3144 63.0131 52.3952 62.866 52.5248 62.762C52.6414 62.6684 52.785 62.6187 52.923 62.5898C53.1987 62.5319 53.5792 62.5319 54.0499 62.5703C54.5279 62.6094 55.1289 62.6911 55.8611 62.8131C57.2557 63.0273 59.1322 63.0076 60.9686 62.7999C62.8082 62.5918 64.5694 62.1995 65.7387 61.6893Z" fill="#557DB0" stroke="#557DB0" stroke-width="0.7"/>
<path d="M73.0908 67.9152L73.0971 67.9105L73.1036 67.906C73.6149 67.5574 74.1318 67.3591 74.5641 67.4054C74.7917 67.4298 75.0067 67.5246 75.161 67.7113C75.3124 67.8944 75.3738 68.1277 75.3738 68.3719C75.3738 68.5155 75.3071 68.6307 75.258 68.7003C75.2035 68.7775 75.1328 68.851 75.0579 68.9191C74.9071 69.0561 74.6995 69.2066 74.4566 69.3637C73.968 69.6797 73.2935 70.0495 72.5337 70.4252C71.015 71.1763 69.1192 71.9687 67.615 72.4179C66.0834 72.8907 63.7188 73.3132 61.5635 73.5736C60.483 73.7041 59.4477 73.7949 58.5877 73.8305C57.7456 73.8655 57.0306 73.8501 56.6115 73.7496C56.2555 73.6726 55.9321 73.5192 55.6903 73.3312C55.4681 73.1584 55.2349 72.8912 55.2349 72.569C55.2349 72.2403 55.5112 72.0677 55.7044 71.9824C55.925 71.8849 56.2346 71.8104 56.6232 71.7484C57.4077 71.6233 58.6184 71.5345 60.3415 71.4682C64.1533 71.2929 65.663 70.9893 68.5831 69.8998C69.5728 69.5259 70.583 69.1196 71.41 68.7581C72.2537 68.3893 72.8646 68.0848 73.0908 67.9152Z" fill="#557DB0" stroke="#557DB0" stroke-width="0.7"/>
</svg>
