<svg width="100" height="100" viewBox="0 0 100 100" fill="none" xmlns="http://www.w3.org/2000/svg">
<path d="M54.8888 9.75113L54.8888 9.75107L54.8953 9.75057C56.6368 9.61661 59.5258 9.61675 61.3973 9.75039L61.4023 9.75082C74.9415 10.9126 86.5516 21.0074 89.7226 34.4059L89.7229 34.407C90.1956 36.4329 90.4059 39.1918 90.3726 41.946C90.3393 44.7008 90.0618 47.4803 89.5449 49.5482L89.5444 49.5502C88.8513 52.2553 87.5913 55.2648 86.3531 57.5127C85.7349 58.6348 85.1132 59.5837 84.5601 60.2126C84.2857 60.5246 84.0108 60.7782 83.7453 60.9291C83.4845 61.0775 83.1503 61.1688 82.8418 60.986L82.8417 60.9861L82.8347 60.9817C82.6939 60.8937 82.5748 60.7682 82.5112 60.5968C82.4491 60.4294 82.4534 60.2544 82.4911 60.0882C82.5633 59.7706 82.7777 59.4019 83.0896 58.9782C89.111 50.4233 90.0702 37.7074 85.403 28.5039L85.4025 28.503C82.2114 22.1644 77.8487 17.8462 71.6006 14.7877L71.5979 14.7863C66.7084 12.3416 62.7931 11.5564 56.7955 11.8628L56.7927 11.863C52.7168 12.0383 49.3044 12.7386 46.1775 14.1144C43.0505 15.4903 40.1912 17.5496 37.2314 20.4655C33.4281 24.2251 30.9866 28.2822 29.5903 33.1253C29.3449 33.9842 29.0979 34.7093 28.864 35.2794C28.6335 35.8408 28.4048 36.2793 28.1875 36.5427C28.0853 36.6666 27.9429 36.8057 27.7587 36.8546C27.655 36.8822 27.5392 36.8804 27.427 36.8322C27.3195 36.786 27.2431 36.7092 27.1904 36.6339C27.0911 36.4921 27.0392 36.3035 27.0082 36.1117C26.9757 35.9104 26.9601 35.6624 26.9601 35.3701H26.9599L26.9602 35.3614C26.9723 34.8762 27.1059 34.1942 27.3144 33.4182C27.5249 32.6352 27.8184 31.733 28.1635 30.7979C28.8527 28.9303 29.7556 26.9108 30.6311 25.4291C31.7117 23.5832 33.5114 21.3954 35.4822 19.3913C37.4537 17.3865 39.6176 15.544 41.4377 14.398L41.4377 14.398L41.4421 14.3953C45.3256 12.0294 50.6774 10.1543 54.8888 9.75113ZM71.7545 14.4733C78.0721 17.5658 82.4901 21.9396 85.7151 28.3456L29.2539 33.0286C30.6677 28.1247 33.1417 24.016 36.9853 20.2166C42.9495 14.3408 48.5603 11.8667 56.7777 11.5133C62.8302 11.204 66.8064 11.9993 71.7545 14.4733Z" fill="#557DB0" stroke="#557DB0" stroke-width="0.7"/>
<path d="M54.2026 18.59L54.2047 18.5897C56.024 18.3013 57.351 18.1651 58.6574 18.1934C59.9643 18.2217 61.2363 18.4142 62.9457 18.7694L62.9468 18.7697C76.5272 21.6381 84.7869 35.3136 80.7482 48.3733C80.2537 49.9916 79.4256 51.8366 78.6207 53.2787C78.2185 53.9994 77.8162 54.6299 77.458 55.0849C77.2797 55.3114 77.1042 55.5049 76.9377 55.645C76.7869 55.772 76.5808 55.9101 76.3491 55.9101C76.249 55.9101 76.1299 55.9031 76.017 55.8664C75.8941 55.8263 75.7664 55.7463 75.6857 55.5999C75.6111 55.4644 75.6016 55.3163 75.613 55.187C75.6245 55.0558 75.6606 54.9095 75.7128 54.7499C75.917 54.1254 76.4642 53.0236 77.4513 51.1152C78.3147 49.4105 78.7596 48.473 79.0191 47.4243C79.2797 46.3713 79.3568 45.1927 79.4454 42.999L79.4455 42.9969C79.5337 41.0999 79.5436 39.8398 79.4358 38.7398C79.3285 37.6454 79.1035 36.6983 78.7098 35.4297L78.709 35.427C76.3624 27.6486 69.4931 21.7368 61.5001 20.6073L61.4994 20.6072C50.5893 19.0424 40.3739 25.9525 37.6782 36.6485L37.6782 36.6485L37.6772 36.6522C37.4638 37.461 37.2335 38.1071 37.0107 38.5746C36.8996 38.8078 36.7865 39.0047 36.6731 39.1573C36.5669 39.3003 36.4321 39.4439 36.2652 39.5142C36.1742 39.5525 36.0618 39.5737 35.9412 39.5461C35.8197 39.5183 35.7265 39.4493 35.6603 39.3717C35.54 39.2306 35.4861 39.0354 35.4582 38.8521C35.4 38.469 35.4226 37.8931 35.5341 37.134C35.9891 33.5495 38.5975 28.7141 41.725 25.4526L41.7251 25.4524C44.9521 22.091 50.0992 19.2664 54.2026 18.59ZM79.0441 35.3259C79.8393 37.8883 79.9719 39.2137 79.7951 43.0131L37.3388 36.5629C40.0779 25.6948 50.4601 18.6703 61.5491 20.2608C69.6781 21.4094 76.6584 27.4178 79.0441 35.3259Z" fill="#557DB0" stroke="#557DB0" stroke-width="0.7"/>
<path d="M44.8979 29.7908L44.8979 29.7908L44.9008 29.7876C46.9241 27.5844 50.3298 25.34 52.9574 24.5228C54.0174 24.1554 55.8624 23.8872 57.0403 23.8868C57.8115 23.8758 58.3885 23.9303 58.7637 24.0404C58.9438 24.0933 59.1296 24.1734 59.2542 24.3105C59.3222 24.3854 59.3787 24.485 59.3927 24.6072C59.4067 24.7292 59.3743 24.8386 59.3258 24.9259C59.2369 25.086 59.0777 25.2033 58.9234 25.291C58.7588 25.3845 58.5506 25.4714 58.3073 25.5511C57.8197 25.7107 57.1558 25.8525 56.3355 25.9537C49.935 26.7757 44.1876 31.8864 42.8946 37.8273C42.8 38.2988 42.6429 38.7093 42.4391 39.0116C42.2441 39.301 41.9535 39.5636 41.5801 39.5636C41.4221 39.5636 41.2686 39.5228 41.1355 39.4296C41.0044 39.3377 40.9164 39.2114 40.8593 39.0776C40.75 38.8215 40.7359 38.497 40.7655 38.1631C40.8258 37.4834 41.0871 36.5757 41.4697 35.6011C42.2366 33.6474 43.537 31.3105 44.8979 29.7908Z" fill="#557DB0" stroke="#557DB0" stroke-width="0.7"/>
<path d="M49.576 76.2421C49.5752 76.2419 49.5748 76.2418 49.5745 76.2417L49.5734 76.2412L49.3998 76.5451C49.2231 76.4126 48.2953 77.6496 47.3675 79.2401L49.576 76.2421ZM49.576 76.2421C49.38 76.1222 49.1816 76.2232 49.1311 76.2509C49.0462 76.2977 48.9654 76.3668 48.8948 76.4351C48.7488 76.5763 48.5744 76.7853 48.3857 77.036C48.0052 77.5414 47.5338 78.2604 47.0652 79.0637L47.0651 79.0639C45.0663 82.4965 42.1136 85.2738 38.734 86.9208C37.6175 87.4462 36.8999 87.7285 35.9852 87.8915C35.0576 88.0568 33.916 88.1014 31.947 88.1235C30.0031 88.1235 28.8498 88.0787 27.9062 87.9134C26.9729 87.75 26.2318 87.4664 25.1143 86.9625C23.5955 86.2561 21.8061 84.9049 20.1928 83.3353C18.5799 81.7662 17.1727 80.0077 16.4007 78.5074C15.9997 77.7056 15.6312 77.0898 15.2604 76.6591C14.8876 76.2262 14.4841 75.9479 14.0121 75.8887C13.7696 75.8572 13.5056 75.7178 13.2364 75.4505C12.968 75.1838 12.7116 74.8061 12.489 74.34C12.0438 73.4076 11.7556 72.1674 11.7556 70.8902C11.7556 69.5728 11.868 68.7721 12.1815 68.1549C12.4908 67.546 13.02 67.069 13.9753 66.4607C15.2033 65.7248 16.1181 65.5857 21.4426 65.4526C25.3764 65.3642 27.9864 65.1104 30.0795 64.3957C32.1889 63.6754 33.747 62.4966 35.5997 60.6215L35.6022 60.619L35.6021 60.619C36.2938 59.9051 36.9642 59.1455 37.4858 58.4892C37.7464 58.1613 37.9727 57.8558 38.1466 57.5924C38.271 57.404 38.379 57.222 38.451 57.061C38.4715 57.1186 38.4933 57.1828 38.5166 57.2539C38.6215 57.5739 38.7467 58.0062 38.901 58.5684L39.2385 58.4758M49.576 76.2421C49.5768 76.2423 49.5781 76.2426 49.5797 76.2429C49.5857 76.2438 49.5984 76.2448 49.6195 76.2418C49.6641 76.2357 49.7324 76.2141 49.8246 76.1633C50.0101 76.0612 50.2372 75.8719 50.4775 75.6081C50.9554 75.0833 51.4252 74.331 51.6737 73.6086C51.9915 72.5897 52.1416 71.3822 52.1148 70.2968C52.0876 69.1912 51.8787 68.288 51.5456 67.8254L51.5454 67.8255L51.5384 67.815C51.1931 67.2971 50.4634 66.9524 48.7888 66.7761L48.7888 66.7762L48.7821 66.7753C47.1499 66.5713 45.4668 66.0399 44.0321 65.3339C42.606 64.632 41.3875 63.739 40.7204 62.7872C40.1118 61.9431 39.3037 60.0447 38.9009 58.5679L39.2385 58.4758M39.2385 58.4758C38.62 56.2226 38.4433 55.9576 38.1782 56.797M39.2385 58.4758C39.6362 59.9337 40.4314 61.7892 41.0057 62.5844L38.1782 56.797M38.1782 56.797L38.3737 56.8571M38.1782 56.797L38.3737 56.8571M38.1782 56.797C38.0015 57.3713 36.7203 58.9617 35.3508 60.3755L38.1782 56.797ZM38.3737 56.8571C38.3361 56.7656 38.3053 56.7034 38.2806 56.6646C38.2751 56.6559 38.271 56.6503 38.2685 56.647M38.3737 56.8571L38.3745 56.8589L38.512 56.9024C38.5121 56.902 38.5122 56.9016 38.5124 56.9012C38.5435 56.8027 38.5702 56.7309 38.5928 56.6812C38.6088 56.6464 38.6178 56.6338 38.6176 56.6337C38.6175 56.6336 38.6134 56.6389 38.6048 56.6468C38.5902 56.6601 38.5552 56.6873 38.4988 56.7009C38.4374 56.7156 38.3787 56.7074 38.3332 56.6885C38.2968 56.6735 38.2759 56.6548 38.2685 56.647M38.2685 56.647C38.2663 56.6447 38.2653 56.6434 38.2653 56.6434C38.2654 56.6433 38.2664 56.6444 38.2685 56.647ZM11.4632 47.5972L11.4632 47.5972L11.4665 47.5922C14.4677 43.0232 17.7563 40.4527 22.7844 38.8364C26.8531 37.5103 30.6455 37.7792 33.4428 39.3155C36.2509 40.8576 38.0194 43.6592 38.0423 47.2962V47.2984C38.0423 47.9219 38.0425 48.3746 38.0656 48.7197C38.0891 49.0682 38.1341 49.2624 38.1977 49.3877C38.2524 49.4955 38.3334 49.5773 38.5039 49.6644C38.6897 49.7594 38.9485 49.8446 39.3434 49.9687C44.8108 51.6857 49.7109 57.041 51.1089 62.8087C51.2562 63.3759 51.5222 64.0587 51.8395 64.6987C52.1588 65.3426 52.5181 65.9192 52.8423 66.2839L52.8423 66.2838L52.8464 66.2886C53.3865 66.9187 53.733 67.4152 53.9311 68.0527C54.1252 68.6777 54.1677 69.4109 54.1677 70.4925C54.1677 72.0849 53.8383 73.6343 53.2832 74.922C52.7308 76.2032 51.9398 77.2592 50.9913 77.8185L50.9914 77.8186L50.9851 77.8221C50.6783 77.9947 50.2767 78.3396 49.8791 78.7748C49.485 79.2062 49.1164 79.7026 48.8676 80.1587L48.8677 80.1588L48.8635 80.1661C43.3404 89.7305 31.5558 93.1669 22.4506 87.848L22.4489 87.847C21.3245 87.1815 19.7295 85.7728 18.2834 84.2768C16.8381 82.7816 15.4945 81.1508 14.8958 80.0226L14.8953 80.0216C14.6914 79.6342 14.3569 79.1719 13.9729 78.7452C13.5877 78.3173 13.1717 77.9462 12.8135 77.7274L12.8135 77.7274L12.8068 77.7231C11.8237 77.0911 11.1247 76.2985 10.6484 75.2049C10.1773 74.1231 9.93074 72.7619 9.81927 71.0011C9.73197 69.6696 9.70229 68.8571 9.87412 68.2005C10.0518 67.5216 10.4366 67.0356 11.0516 66.3326C11.3838 65.9376 11.7228 65.4094 12.0007 64.8749C12.2798 64.3382 12.4846 63.8196 12.5643 63.4442C13.6525 57.5616 18.9666 51.817 25.2099 49.706L25.2099 49.7059L25.2167 49.7038C25.2569 49.691 25.2948 49.679 25.3303 49.6675C25.2891 49.6442 25.2445 49.6192 25.1963 49.5924L25.1962 49.5925L25.1916 49.5898C24.9074 49.4261 24.3513 49.313 23.5502 49.2849C22.767 49.2574 21.8046 49.3123 20.7532 49.4406C18.65 49.6974 16.225 50.244 14.2218 50.9843L14.2196 50.9852C13.1814 51.3607 12.2305 51.7034 11.528 51.9524C11.1769 52.0767 10.8864 52.1782 10.6775 52.2488C10.5733 52.284 10.4872 52.3122 10.4231 52.332C10.3914 52.3418 10.3619 52.3505 10.3369 52.357C10.3246 52.3602 10.31 52.3638 10.295 52.3669L10.2942 52.367C10.285 52.3689 10.2519 52.3756 10.2127 52.3756C10.016 52.3756 9.84143 52.2811 9.74134 52.1055C9.65857 51.9603 9.64562 51.7924 9.65107 51.6536C9.66229 51.368 9.76271 50.9984 9.91215 50.5951C10.2158 49.7757 10.7699 48.6931 11.4632 47.5972ZM15.7685 48.2881L15.7715 48.2872C17.9621 47.6614 20.1565 47.3248 22.0666 47.2798C23.9634 47.2352 25.6236 47.477 26.7181 48.0469C27.6121 48.493 29.1735 48.7598 32.0421 48.804C33.194 48.815 34.048 48.8174 34.6823 48.7717C35.3298 48.7251 35.6793 48.631 35.8719 48.5C36.026 48.3952 36.1175 48.2399 36.1361 47.8926C36.1559 47.5247 36.0888 47.0195 35.9769 46.2918C35.6397 44.1433 34.2885 42.2019 32.5229 41.1501C31.7524 40.7048 30.2936 40.3674 28.6766 40.2249C27.0697 40.0833 25.3789 40.1403 24.1709 40.4365C22.1878 40.9544 19.3588 42.3455 17.4478 43.7785C16.7524 44.3057 15.5374 45.5818 14.4833 46.8236C13.9596 47.4405 13.4844 48.0386 13.142 48.5174C13.0056 48.7082 12.8929 48.8763 12.8074 49.0168C12.939 48.9977 13.0971 48.9696 13.2797 48.9324C13.9176 48.8027 14.8016 48.5738 15.7685 48.2881ZM37.4748 51.5257L37.4745 51.5256C28.4497 49.2586 19.5416 52.7596 16.184 59.8184C15.4836 61.3068 14.7902 62.9546 14.6135 63.4779C14.5778 63.621 14.5547 63.7227 14.5423 63.7964C14.5866 63.7926 14.6417 63.7854 14.7096 63.7739C14.9184 63.7386 15.2063 63.6702 15.6061 63.5703L15.6157 63.5679L15.6255 63.566C16.5885 63.3826 19.489 63.2064 22.0528 63.2064L22.0556 63.2064C24.7895 63.2285 26.6328 63.1173 28.1424 62.7681C29.6409 62.4215 30.8274 61.8363 32.2387 60.8809L32.2421 60.8786C33.3007 60.1799 34.5101 58.9437 35.6031 57.5174C36.6925 56.0957 37.6453 54.5126 38.2052 53.1362L38.6869 51.8288L37.4748 51.5257ZM43.1831 54.4274L43.183 54.4275L43.1765 54.4225C42.5846 53.9621 42.0164 53.547 41.5767 53.2484C41.3562 53.0987 41.1722 52.9812 41.0357 52.9023C41.0106 52.8878 40.9878 52.8751 40.9674 52.864C40.9445 52.9069 40.9182 52.9661 40.8902 53.0446C40.7995 53.2989 40.7193 53.6764 40.6628 54.1339C40.5501 55.0459 40.5399 56.2062 40.689 57.1861L40.6891 57.1866C40.9919 59.1981 41.6024 60.6846 42.5934 61.806C43.5842 62.9272 44.9853 63.717 46.9321 64.2797C47.6523 64.4761 48.3243 64.6275 48.8339 64.7134C49.0901 64.7565 49.2972 64.7817 49.4454 64.789C49.4601 64.7897 49.4739 64.7903 49.4868 64.7906C49.487 64.7781 49.487 64.7644 49.4867 64.7496C49.4839 64.6074 49.4559 64.4068 49.3997 64.1523C49.2881 63.6465 49.0777 62.982 48.802 62.2559C48.2496 60.8011 47.4552 59.1511 46.7266 58.101L46.7263 58.1007C45.9517 56.9817 44.3434 55.287 43.1831 54.4274ZM41.0207 52.7842C41.0206 52.7842 41.0197 52.7849 41.018 52.7867C41.0199 52.7851 41.0208 52.7842 41.0207 52.7842ZM49.6192 64.785C49.6192 64.7849 49.617 64.7853 49.6129 64.7864C49.6173 64.7857 49.6192 64.7852 49.6192 64.785ZM49.4752 64.8976C49.4748 64.8985 49.4746 64.8991 49.4746 64.8993L49.4752 64.8976Z" fill="#557DB0" stroke="#557DB0" stroke-width="0.7"/>
<path d="M25.8618 73.6487L25.8622 73.648C26.0219 73.3901 26.2036 73.1934 26.3986 73.0721C26.5937 72.9507 26.8248 72.8935 27.0481 72.9698C27.2739 73.0468 27.4185 73.2352 27.4895 73.4513C27.5595 73.664 27.567 73.9222 27.5181 74.2063C27.3891 75.0967 26.7483 75.8577 25.8753 76.3873C24.9974 76.9199 23.8514 77.2417 22.6323 77.2426C21.9778 77.2649 21.4094 77.2204 20.9834 77.1184C20.7708 77.0675 20.5794 76.999 20.4279 76.9073C20.2849 76.8209 20.1412 76.6911 20.0876 76.5026C20.0358 76.3545 20.0308 76.1813 20.1306 76.0215C20.2235 75.873 20.3769 75.787 20.5255 75.7329C20.8223 75.625 21.2777 75.5823 21.8761 75.5823C22.6634 75.5823 23.5019 75.3638 24.2286 75.0058C24.9585 74.6461 25.5472 74.1599 25.8618 73.6487Z" fill="#557DB0" stroke="#557DB0" stroke-width="0.6"/>
<path d="M38.0558 73.7749L38.0603 73.7852L38.064 73.7959C38.1275 73.9785 38.2845 74.1875 38.5435 74.4033C38.7992 74.6162 39.1351 74.8197 39.5231 74.9966C40.3009 75.3511 41.2527 75.5825 42.1102 75.5825C42.678 75.5825 43.1152 75.6495 43.4078 75.7754C43.5534 75.838 43.6922 75.9276 43.7813 76.0591C43.8806 76.2057 43.8999 76.3792 43.8371 76.5425C43.7808 76.689 43.6681 76.8041 43.5473 76.8926C43.4229 76.9836 43.2666 77.0635 43.0869 77.132C42.7272 77.2692 42.2421 77.3728 41.6485 77.4186C40.5326 77.5132 39.2893 77.1351 38.3014 76.5492C37.8047 76.2547 37.3614 75.9012 37.0245 75.5151C36.6899 75.1317 36.4464 74.6998 36.3796 74.2493C36.3303 73.9393 36.3471 73.6629 36.4316 73.4402C36.5171 73.2147 36.6808 73.029 36.9175 72.9644C37.1525 72.9004 37.3879 72.9752 37.5784 73.1199C37.7683 73.2643 37.9312 73.4882 38.0558 73.7749Z" fill="#557DB0" stroke="#557DB0" stroke-width="0.6"/>
<path d="M28.2092 83.6036L28.2091 83.6036L28.2044 83.5961C28.0421 83.3365 28.0196 83.0298 28.0749 82.7345C28.1302 82.439 28.2665 82.1322 28.4549 81.8391C28.8308 81.2544 29.4431 80.6787 30.1718 80.3014C31.4652 79.5745 33.1642 79.4445 34.6698 79.7467C36.1686 80.0476 37.5637 80.7964 38.1768 81.9243L38.1771 81.9249C38.4061 82.3486 38.5368 82.7162 38.5569 83.0115C38.5671 83.1607 38.5506 83.3128 38.4835 83.4468C38.4123 83.5891 38.2932 83.6911 38.1429 83.7394C37.8714 83.8265 37.5574 83.7229 37.2761 83.5658C36.9776 83.3991 36.6406 83.1301 36.2856 82.764C35.7427 82.2213 35.3451 81.912 34.9186 81.7307C34.4932 81.5497 34.0106 81.484 33.2743 81.484C32.5381 81.484 32.0555 81.5497 31.6301 81.7307C31.2032 81.9122 30.8052 82.2219 30.2614 82.7657C29.8561 83.171 29.48 83.4804 29.1687 83.6547C29.0158 83.7403 28.8533 83.8079 28.696 83.8216C28.5246 83.8365 28.3305 83.7856 28.2092 83.6036Z" fill="#557DB0" stroke="#557DB0" stroke-width="0.6"/>
<path d="M73.7117 64.8598L73.7105 64.8586C69.8585 60.8295 67.9099 58.8052 66.6968 57.7825C66.0938 57.2742 65.6997 57.0375 65.3667 56.92C65.0375 56.8039 64.7412 56.7936 64.2882 56.7936C62.2718 56.7936 60.005 55.8946 58.0366 54.5336C56.0659 53.1709 54.3489 51.3143 53.4549 49.343C52.6316 47.5362 52.4408 45.6671 52.8203 44.0961C53.2004 42.5233 54.1589 41.2362 55.6314 40.656C58.3256 39.5561 61.6336 40.4382 64.3565 42.3454C67.0876 44.2583 69.3204 47.261 69.8469 50.5562C69.9331 51.0838 70.0245 51.4713 70.2657 51.8974C70.5114 52.3315 70.9253 52.8272 71.6936 53.5355C73.2349 54.9566 76.1104 57.1524 81.6409 61.3334L81.6415 61.3339C85.0409 63.9166 87.1615 65.7182 88.4345 67.3023C89.7277 68.9117 90.1508 70.3022 90.1739 72.0342L90.1739 72.0342V72.0389V74.3362V74.6621L89.8488 74.6853L87.9936 74.8179C87.0548 74.8857 86.2144 74.8592 85.3482 74.6282C84.4825 74.3973 83.6126 73.9679 82.6036 73.2585C80.5992 71.8493 77.9904 69.2929 73.7117 64.8598ZM66.6666 53.8367L66.667 53.8364C67.1095 53.4571 67.3495 53.1593 67.4912 52.798C67.6371 52.4262 67.6934 51.9518 67.6935 51.1886C67.6504 47.9686 64.9066 44.4926 61.0595 42.8495C59.3645 42.1418 57.9847 42.0587 56.9629 42.3666C55.9504 42.6717 55.2547 43.3699 54.9207 44.3118C54.2462 46.2148 55.0378 49.2112 58.0278 51.8979L58.0278 51.8979L58.031 51.9008C59.6785 53.4183 61.3471 54.3398 62.8481 54.66C64.3415 54.9785 65.66 54.7024 66.6666 53.8367ZM70.3677 55.1538L70.3676 55.154L70.3584 55.1448C70.0571 54.8435 69.7574 54.5762 69.5202 54.3864C69.4176 54.3044 69.3304 54.2397 69.2622 54.194C69.2114 54.2373 69.1489 54.2943 69.0773 54.364C68.8838 54.5523 68.6402 54.8168 68.407 55.1136L68.3988 55.124L68.3898 55.1338L67.6789 55.9094L68.7836 56.7379L68.7836 56.7379L68.7862 56.7399C69.1869 57.0463 70.213 58.0521 71.5191 59.3912C72.836 60.7412 74.4617 62.4555 76.0761 64.2025L76.0766 64.2031C79.3954 67.8095 81.353 69.8415 82.8406 71.025C83.579 71.6126 84.1918 71.9826 84.788 72.2307C85.3837 72.4786 85.978 72.6111 86.6896 72.7082C87.1903 72.7749 87.5565 72.8228 87.8312 72.8426C88.1177 72.8632 88.2477 72.8473 88.306 72.8259C88.314 72.823 88.3186 72.8207 88.3208 72.8193C88.3232 72.8155 88.3295 72.8036 88.3368 72.777C88.3616 72.6854 88.3694 72.5356 88.3694 72.2598C88.3694 72.0322 88.2751 71.5919 88.0992 71.0476C87.9276 70.5166 87.6914 69.9264 87.4352 69.4138C87.0418 68.6481 86.478 67.9191 85.2382 66.8044C83.9924 65.6842 82.0826 64.1909 79.0112 61.8928L79.0104 61.8922C74.9088 58.805 71.0028 55.7436 70.3677 55.1538ZM69.1507 54.1282C69.1507 54.1283 69.1529 54.1293 69.157 54.1308C69.1527 54.1288 69.1506 54.1281 69.1507 54.1282ZM88.3226 72.818C88.3226 72.818 88.3222 72.8183 88.3216 72.8188L88.3226 72.818Z" fill="#557DB0" stroke="#557DB0" stroke-width="0.7"/>
<path d="M65.7388 61.6894L65.7389 61.6893C66.6143 61.3077 67.3936 61.0704 67.9719 61.0156C68.2554 60.9888 68.5351 61.0009 68.7594 61.0996C68.8772 61.1513 68.9892 61.2313 69.0707 61.3498C69.1533 61.47 69.1888 61.607 69.1888 61.7451C69.1888 61.9759 69.0486 62.161 68.9265 62.2855C68.793 62.4215 68.6122 62.554 68.4054 62.6815C67.9893 62.9381 67.4126 63.2078 66.7462 63.4683C65.4104 63.9902 63.665 64.4935 62.0074 64.7848L62.0066 64.7849C60.3146 65.0782 58.2189 65.122 56.452 64.9822C55.568 64.9123 54.7555 64.7956 54.1099 64.637C53.7874 64.5579 53.4985 64.4663 53.2599 64.361C53.0282 64.2587 52.812 64.1298 52.6676 63.9598C52.5648 63.8389 52.4763 63.718 52.4131 63.5987C52.3518 63.4829 52.2992 63.3407 52.3064 63.186C52.3145 63.0132 52.3953 62.8661 52.5249 62.7621C52.6415 62.6685 52.7852 62.6188 52.9231 62.5899C53.1988 62.532 53.5793 62.532 54.05 62.5705C54.528 62.6095 55.1291 62.6912 55.8613 62.8132C57.2558 63.0275 59.1323 63.0077 60.9687 62.8C62.8083 62.592 64.5695 62.1996 65.7388 61.6894Z" fill="#557DB0" stroke="#557DB0" stroke-width="0.7"/>
<path d="M73.0909 67.9153L73.0972 67.9106L73.1037 67.9061C73.615 67.5576 74.1318 67.3592 74.5641 67.4055C74.7917 67.4299 75.0068 67.5247 75.1611 67.7114C75.3125 67.8945 75.3739 68.1278 75.3739 68.372C75.3739 68.5156 75.3072 68.6308 75.258 68.7004C75.2035 68.7777 75.1329 68.8511 75.0579 68.9192C74.9071 69.0562 74.6996 69.2067 74.4567 69.3638C73.968 69.6798 73.2935 70.0496 72.5338 70.4253C71.015 71.1764 69.1193 71.9688 67.6151 72.418C66.0835 72.8908 63.7189 73.3133 61.5635 73.5737C60.4831 73.7043 59.4478 73.795 58.5878 73.8307C57.7457 73.8656 57.0306 73.8502 56.6116 73.7498C56.2556 73.6728 55.9321 73.5194 55.6904 73.3313C55.4682 73.1585 55.235 72.8913 55.235 72.5691C55.235 72.2404 55.5113 72.0678 55.7044 71.9825C55.925 71.885 56.2347 71.8105 56.6233 71.7485C57.4077 71.6235 58.6185 71.5346 60.3416 71.4683C64.1534 71.293 65.6631 70.9895 68.5831 69.8999C69.5729 69.526 70.5831 69.1197 71.4101 68.7582C72.2538 68.3894 72.8647 68.085 73.0909 67.9153Z" fill="#557DB0" stroke="#557DB0" stroke-width="0.7"/>
</svg>
