<svg width="100" height="100" viewBox="0 0 100 100" fill="none" xmlns="http://www.w3.org/2000/svg">
<path fill-rule="evenodd" clip-rule="evenodd" d="M37.5619 10.2055C36.0264 10.5731 34.403 11.9456 33.6398 13.5206C33.207 14.414 32.7134 16.762 32.2456 20.151L31.5219 25.398H22.1023C12.3921 25.398 10.9284 25.5601 10.3165 26.7026C10.1426 27.0276 10 28.2547 10 29.4291C10 31.2658 10.1112 31.6753 10.7936 32.3572C11.23 32.7933 11.8118 33.1502 12.0866 33.1502C12.3614 33.1502 12.586 33.2594 12.586 33.3925C12.5863 33.9871 17.1261 78.6593 17.2936 79.7118C17.5434 81.2848 19.0983 83.3352 20.571 84.0337C21.3989 84.4262 22.8852 84.6489 25.4185 84.7607C29.2035 84.9278 29.4876 85.063 28.5767 86.2664C28.3123 86.6159 28.1022 87.5811 28.1022 88.4468V90H58.9728H89.8434L89.8395 88.6272C89.837 87.7634 89.5383 86.7345 89.0333 85.8523C88.5924 85.0811 83.5458 77.559 77.8191 69.1363L67.4068 53.8228L61.2501 53.818C57.864 53.8151 54.9043 53.6929 54.6726 53.5461C54.3309 53.3292 54.4376 51.4159 55.2382 43.3912C55.781 37.9527 56.2251 33.4238 56.2251 33.3266C56.2251 33.2297 56.4353 33.1502 56.6919 33.1502C56.9489 33.1502 57.567 32.7994 58.0657 32.3705C58.9081 31.6463 58.9715 31.4244 58.954 29.2579C58.9372 27.1251 58.8593 26.8596 58.0473 26.1616C57.1626 25.4012 57.1238 25.398 48.6914 25.3931C44.0343 25.3902 40.0267 25.263 39.7849 25.1098C39.3281 24.8207 39.3323 24.7507 40.0777 19.9875L40.4443 17.6457H49.7995H59.1548L59.0639 13.8504L58.9728 10.055L48.7903 10.0049C43.19 9.97746 38.1372 10.0679 37.5619 10.2055ZM54.7252 12.683C56.1101 12.8726 56.2251 12.9588 56.2251 13.8074C56.2251 14.5003 56.0461 14.7635 55.4978 14.8778C55.0976 14.9612 51.3521 15.0917 47.1741 15.1676C42.996 15.2435 39.33 15.4089 39.0275 15.5352C38.7249 15.6615 38.3263 16.2245 38.1411 16.7859C37.8444 17.6874 36.8517 23.9305 36.8358 24.9942C36.8323 25.251 36.3445 25.398 35.4953 25.398H34.1606L34.3862 23.3792C34.5107 22.269 34.8837 19.7624 35.2157 17.8092C35.7484 14.6753 35.9249 14.1743 36.7172 13.5428C37.2111 13.1494 37.9113 12.7686 38.273 12.6966C39.3827 12.4756 53.13 12.4643 54.7252 12.683ZM52.2954 28.1933L56.2251 28.4042V29.2741V30.1439L52.2954 30.3549C50.1341 30.4712 40.2426 30.5661 30.3142 30.5661H12.2628V29.2741V27.9821H30.3142C40.2426 27.9821 50.1341 28.077 52.2954 28.1933ZM30.1991 35.492C29.8794 38.7283 29.7033 38.998 28.1853 38.5755C26.6705 38.1536 21.8353 38.4592 19.2127 39.1424C18.146 39.4205 16.9645 39.7254 16.5869 39.8204C15.9624 39.9777 15.8806 39.8229 15.6815 38.1058C15.5609 37.068 15.3783 35.5282 15.2755 34.6845L15.0886 33.1502H22.7598H30.4306L30.1991 35.492ZM35.3754 33.4735C35.4856 33.6512 35.3291 35.891 35.0282 38.4505L34.4809 43.1044L33.2277 43.6692C32.5385 43.9795 31.9053 44.1641 31.8206 44.0797C31.6434 43.9025 32.8983 33.8198 33.1475 33.4167C33.3806 33.0401 35.1352 33.0846 35.3754 33.4735ZM53.5253 34.846C53.4132 35.7788 53.3201 36.9414 53.3188 37.4301L53.3159 38.3184L50.8107 38.3238C47.6182 38.331 44.9895 38.8953 40.5982 40.5151L37.0931 41.8085L37.2677 40.79C37.364 40.2303 37.62 38.3607 37.8369 36.6358C38.1337 34.2762 38.358 33.4658 38.7427 33.3624C39.0242 33.2868 42.5111 33.2083 46.4917 33.1877L53.7293 33.1502L53.5253 34.846ZM28.7548 41.3908C28.9291 41.4984 29.0719 42.2944 29.0719 43.1597C29.0719 45.5715 28.7448 45.7477 24.2577 45.7477C20.1812 45.7477 17.9646 45.2531 16.9325 44.1133C16.391 43.5153 16.3914 43.4574 16.9389 42.8529C18.0729 41.6005 21.6697 40.8731 25.7647 41.0678C27.2349 41.1376 28.5803 41.283 28.7548 41.3908ZM52.3008 41.2012C52.8294 41.4839 52.8268 41.8101 52.2514 47.2576C51.9168 50.4245 51.474 53.2475 51.2674 53.5316C51.0605 53.8154 49.8596 55.4142 48.599 57.0845C47.3379 58.755 42.9026 65.1154 38.743 71.2187L31.1799 82.3156L26.6507 82.1718C24.1601 82.0926 21.8621 81.9145 21.5443 81.7758C20.6664 81.3924 20.058 79.9459 19.6785 77.3388C19.2014 74.063 16.5203 47.5514 16.6512 47.405C16.7098 47.3394 17.8192 47.553 19.1167 47.8798C22.325 48.688 27.0322 48.6922 29.3952 47.8889C30.373 47.5566 33.355 46.336 36.0219 45.1768C41.6397 42.735 44.804 41.5814 46.8508 41.229C48.9465 40.8679 51.6521 40.8543 52.3008 41.2012ZM37.1533 49.6865C34.1092 51.5219 32.6607 54.4296 33.5829 56.8537C34.3988 58.9978 37.7325 61.5751 39.6898 61.5751C40.8652 61.5751 43.3975 59.8955 44.7264 58.2343C46.7241 55.7375 45.766 52.1798 42.4727 49.8669C40.4634 48.4556 39.2615 48.4152 37.1533 49.6865ZM41.8614 52.9944C42.8276 53.9599 43.6183 54.9326 43.6183 55.1563C43.6183 55.7294 40.1812 58.991 39.5777 58.991C38.9493 58.991 35.537 55.7178 35.537 55.1149C35.537 54.5043 38.9531 51.2388 39.5919 51.2388C39.8741 51.2388 40.8952 52.0288 41.8614 52.9944ZM54.5885 59.2331C53.5098 60.788 48.6811 67.7647 43.8578 74.7376L35.0883 87.4159H33.0127H30.9371L31.5044 86.5276C31.8167 86.0392 35.664 80.3338 40.0541 73.8493C44.4445 67.3652 48.8126 60.8969 49.7611 59.4756C50.7098 58.0542 51.643 56.7845 51.835 56.6539C52.0274 56.5236 53.1668 56.4147 54.3674 56.4118L56.55 56.4069L54.5885 59.2331ZM62.0298 59.7177C60.7662 61.5386 55.9319 68.516 51.2871 75.2222L42.8418 87.4159H40.8057C39.5786 87.4159 38.7695 87.2789 38.7695 87.0713C38.7695 86.6682 41.2805 82.9389 51.8609 67.6312L59.619 56.4069H61.9732H64.3271L62.0298 59.7177ZM68.9542 60.5371C81.9244 79.748 86.6109 86.7917 86.6109 87.0762C86.6109 87.4544 53.5493 87.5116 48.8915 87.1418L46.245 86.9314L53.9019 75.9201C62.8221 63.0915 66.6665 57.7038 66.8925 57.7148C66.9814 57.719 67.9091 58.9891 68.9542 60.5371ZM26.3243 59.4242C24.827 60.1014 23.3245 61.5004 22.3987 63.0792C21.3969 64.7873 21.4587 66.7468 22.5632 68.2968L23.2521 69.2637L22.4485 70.6685C21.3753 72.5444 21.4105 74.0119 22.5729 75.8435C24.2984 78.5627 26.8535 79.9375 29.0713 79.3411C30.6029 78.9289 32.8039 77.0191 33.6444 75.3728C34.4615 73.7721 34.3319 71.7805 33.3179 70.3579L32.629 69.391L33.4326 67.9862C34.597 65.9513 34.5223 64.2465 33.1934 62.5274C31.0334 59.7329 28.3359 58.5142 26.3243 59.4242ZM30.0427 63.1306C31.0877 64.1372 31.658 64.9563 31.658 65.4512C31.658 66.3088 28.7584 69.3273 27.9347 69.3273C27.3354 69.3273 23.8999 66.0625 23.8999 65.4926C23.8999 64.9062 27.3186 61.5751 27.9205 61.5751C28.1995 61.5751 29.1544 62.2749 30.0427 63.1306ZM31.3868 72.3391C31.8697 73.2015 31.1702 74.6326 29.6157 75.9621C28.8971 76.5766 28.1374 77.0796 27.928 77.0796C27.433 77.0796 24.6346 74.618 24.1937 73.795C23.9399 73.3208 23.9758 72.9746 24.3359 72.4254C24.7846 71.7407 25.0319 71.6926 27.9373 71.7201C30.6016 71.7456 31.1052 71.8358 31.3868 72.3391ZM64.4406 77.5189C64.3388 77.7843 64.3032 78.3393 64.3617 78.7518C64.4461 79.3466 64.6691 79.502 65.4378 79.502C66.3307 79.502 66.4076 79.4125 66.4076 78.3716C66.4076 77.3776 66.3 77.2289 65.5167 77.1387C64.9517 77.0738 64.5583 77.2128 64.4406 77.5189ZM69.6126 77.5189C69.5108 77.7843 69.4753 78.3393 69.5338 78.7518C69.6181 79.3466 69.8412 79.502 70.6099 79.502C71.5027 79.502 71.5796 79.4125 71.5796 78.3716C71.5796 77.3776 71.472 77.2289 70.6888 77.1387C70.1237 77.0738 69.7303 77.2128 69.6126 77.5189ZM74.7847 77.5189C74.6829 77.7843 74.6473 78.3393 74.7058 78.7518C74.7902 79.3466 75.0132 79.502 75.7819 79.502C76.6748 79.502 76.7517 79.4125 76.7517 78.3716C76.7517 77.3776 76.644 77.2289 75.8608 77.1387C75.2958 77.0738 74.9024 77.2128 74.7847 77.5189ZM64.4406 82.6871C64.3388 82.9524 64.3032 83.5075 64.3617 83.9199C64.4461 84.5147 64.6691 84.6702 65.4378 84.6702C66.3307 84.6702 66.4076 84.5807 66.4076 83.5398C66.4076 82.5458 66.3 82.3971 65.5167 82.3069C64.9517 82.2419 64.5583 82.3809 64.4406 82.6871ZM69.6126 82.6871C69.5108 82.9524 69.4753 83.5075 69.5338 83.9199C69.6181 84.5147 69.8412 84.6702 70.6099 84.6702C71.5027 84.6702 71.5796 84.5807 71.5796 83.5398C71.5796 82.5458 71.472 82.3971 70.6888 82.3069C70.1237 82.2419 69.7303 82.3809 69.6126 82.6871ZM74.7847 82.6871C74.6829 82.9524 74.6473 83.5075 74.7058 83.9199C74.7902 84.5147 75.0132 84.6702 75.7819 84.6702C76.6748 84.6702 76.7517 84.5807 76.7517 83.5398C76.7517 82.5458 76.644 82.3971 75.8608 82.3069C75.2958 82.2419 74.9024 82.3809 74.7847 82.6871Z" fill="#557DB0"/>
</svg>
