<svg width="21" height="20" viewBox="0 0 21 20" fill="none" xmlns="http://www.w3.org/2000/svg">
<path d="M1.18408 9.59984L5.78217 11.5653L7.57464 18.1766C7.65257 18.6233 8.12018 18.7126 8.43191 18.4446L11.0037 16.0324C11.2375 15.7644 11.6272 15.7644 11.9389 16.0324L16.537 19.8741C16.8487 20.1421 17.3163 19.9634 17.3943 19.5167L20.8233 0.755067C20.9013 0.308361 20.5116 -0.138341 20.1219 0.0403416L1.18408 8.43841C0.716474 8.61709 0.716474 9.42116 1.18408 9.59984ZM7.34085 10.5826L16.3811 4.23937C16.537 4.15003 16.6929 4.41806 16.537 4.5074L9.13331 12.4588C8.89951 12.7268 8.6657 13.0841 8.6657 13.5309L8.43191 15.675C8.43191 15.9431 8.04224 16.0324 7.9643 15.675L7.02909 11.744C6.79529 11.2973 6.95118 10.7613 7.34085 10.5826Z" fill="white"/>
</svg>
