<svg width="21" height="21" viewBox="0 0 21 21" fill="none" xmlns="http://www.w3.org/2000/svg">
<path d="M17.9755 3.0625C16.0313 1.09375 13.4389 0 10.7026 0C5.01385 0 0.40526 4.66667 0.40526 10.4271C0.40526 12.25 0.909326 14.0729 1.77344 15.6042L0.333252 21L5.80596 19.5417C7.31815 20.3438 8.97436 20.7813 10.7026 20.7813C16.3913 20.7813 20.9999 16.1146 20.9999 10.3542C20.9279 7.65625 19.9198 5.03125 17.9755 3.0625ZM15.6712 14.1458C15.4552 14.7292 14.4471 15.3125 13.943 15.3854C13.511 15.4583 12.9349 15.4583 12.3588 15.3125C11.9988 15.1667 11.4947 15.0208 10.9186 14.7292C8.32628 13.6354 6.67007 11.0104 6.52605 10.7917C6.38203 10.6458 5.44591 9.40625 5.44591 8.09375C5.44591 6.78125 6.09399 6.19792 6.31002 5.90625C6.52605 5.61458 6.81409 5.61458 7.03012 5.61458C7.17413 5.61458 7.39016 5.61458 7.53418 5.61458C7.6782 5.61458 7.89423 5.54167 8.11025 6.05208C8.32628 6.5625 8.83035 7.875 8.90236 7.94792C8.97437 8.09375 8.97437 8.23958 8.90236 8.38542C8.83035 8.53125 8.75834 8.67708 8.61432 8.82292C8.4703 8.96875 8.32628 9.1875 8.25427 9.26042C8.11025 9.40625 7.96624 9.55208 8.11025 9.77083C8.25427 10.0625 8.75834 10.8646 9.55044 11.5937C10.5586 12.4687 11.3507 12.7604 11.6387 12.9063C11.9267 13.0521 12.0708 12.9792 12.2148 12.8333C12.3588 12.6875 12.8629 12.1042 13.0069 11.8125C13.1509 11.5208 13.3669 11.5938 13.583 11.6667C13.799 11.7396 15.0952 12.3958 15.3112 12.5417C15.5992 12.6875 15.7432 12.7604 15.8152 12.8333C15.8873 13.0521 15.8873 13.5625 15.6712 14.1458Z" fill="white"/>
</svg>
