<svg width="171" height="180" viewBox="0 0 171 180" fill="none" xmlns="http://www.w3.org/2000/svg">
<path d="M83.7984 19.9688C81.3375 20.4047 79.7062 21.1219 77.0203 22.9078C75.164 24.1313 73.8562 24.8766 72.6609 25.3688C71.9297 25.6641 70.9172 25.8328 68.2734 26.086C65.1375 26.3813 62.9859 27.0141 60.8765 28.2656C59.9484 28.8141 58.95 29.6016 56.9531 31.3453C55.1672 32.8922 54.7031 33.1313 53.1703 33.2438C51.3422 33.3844 48.6562 33.8485 47.3203 34.2703C44.7187 35.086 42.1734 36.7594 40.4718 38.7703C38.7843 40.7672 37.5468 44.4938 36.2672 51.4547C35.5359 55.4766 35.1703 56.0953 31.4297 59.836C28.3218 62.9297 27.4359 64.0969 26.0718 66.8672C24.5812 69.9328 23.9765 72.3797 23.9906 75.375C24.0047 78.7219 24.8203 81.7594 27 86.5547C29.5172 92.1235 30.9093 94.0782 33.6093 95.8922C35.6484 97.2563 38.3062 97.875 41.2453 97.6782C44.7047 97.4391 46.9265 96.3422 50.6672 93.0375C53.3812 90.6469 53.2547 90.675 58.7812 90.5625C62.8734 90.4641 63.4078 90.4219 65.7422 90.0141C68.864 89.4657 70.7625 89.4235 72.1406 89.8453C72.6469 90 73.9125 90.5485 74.9531 91.0688C75.9937 91.575 78.0187 92.475 79.4531 93.0516C83.8687 94.8375 84.5297 95.2313 86.85 97.4391C88.0453 98.5922 89.325 99.661 90.0422 100.125C90.7031 100.547 91.2515 100.969 91.2515 101.067C91.2656 101.166 91.5609 101.784 91.9265 102.459C92.8828 104.175 93.6281 104.611 94.2328 103.781C94.5984 103.275 94.725 102.656 94.4719 102.656C94.3594 102.656 94.0219 102.431 93.7125 102.15C93.2203 101.7 93.2062 101.658 93.5156 101.728C95.5687 102.192 97.2844 102.178 98.8734 101.686C99.3937 101.517 100.744 100.969 101.897 100.463C106.439 98.4516 107.873 98.1563 112.247 98.4094C118.645 98.7891 120.502 98.55 122.639 97.1157C123.033 96.8485 124.537 95.4703 125.972 94.05C128.362 91.7016 128.714 91.4063 129.867 90.8157C130.57 90.45 132.159 89.8453 133.453 89.4516C136.547 88.4813 137.77 87.9891 139.064 87.1453C141.637 85.4719 143.55 82.7719 144.759 79.1297C145.322 77.4 145.448 76.4157 145.364 74.0672C145.28 71.55 144.956 70.1578 143.944 68.1328C142.875 65.9813 141.553 64.6875 139.289 63.5485C136.673 62.2547 134.705 62.1282 131.062 63.0703C127.898 63.8719 125.677 66.1078 124.875 69.2719C124.537 70.5938 124.509 72.5625 124.805 73.7578C125.044 74.7282 126.394 77.4703 127.153 78.525C127.702 79.3125 129.431 80.7188 130.261 81.0703C131.527 81.5907 133.144 81.1547 133.903 80.086C134.873 78.7078 135.844 75.9657 135.844 74.6016C135.844 73.9828 135.38 72.3938 135.098 72.0282C135.028 71.9438 134.789 71.8594 134.564 71.8594C134.072 71.8594 132.202 72.4782 131.344 72.9282C130.809 73.1953 130.767 73.2516 131.062 73.2516C131.259 73.2516 131.794 73.1672 132.258 73.0547C133.594 72.7313 133.678 72.7453 133.875 73.4766C134.283 74.9391 133.453 76.6688 132.356 76.6407C131.906 76.6266 131.062 76.2469 130.233 75.7125C129.586 75.2766 129.361 75.0375 129.22 74.6016C128.883 73.6313 128.995 72.3657 129.53 70.9453L130.008 69.6797L131.133 69.0047C133.2 67.7813 134.564 67.486 136.477 67.8516C138.544 68.2453 140.02 69.3422 140.625 70.9594C141.075 72.1969 141.37 74.1657 141.272 75.3469C140.948 78.8485 138.67 82.0266 135.239 83.7422C134.564 84.0938 132.989 84.6844 131.752 85.0782C127.645 86.386 126.127 87.2157 123.539 89.55C120.952 91.8703 120.305 92.3907 119.32 92.911L118.336 93.4313L113.414 93.5297C108.267 93.6282 107.662 93.6985 104.836 94.4157C103.092 94.8516 102.037 95.2172 99.3094 96.3141C97.3125 97.1157 97.0875 97.1719 96.0609 97.1719C94.7953 97.1719 93.3609 96.9047 92.2359 96.4688C91.35 96.1172 90.5344 95.5266 88.8047 93.9375C88.1156 93.3047 87.1734 92.5313 86.7094 92.2219C85.3875 91.3078 82.9547 90.2391 80.0015 89.2407C78.4828 88.7344 76.3031 87.9188 75.15 87.4125C72.2953 86.175 72.1265 86.1328 69.75 86.1469C68.0344 86.161 67.3594 86.2313 65.5312 86.5969C62.4375 87.2297 60.6656 87.4688 59.175 87.4688C57.375 87.4828 54.3937 87.7078 53.7047 87.8907C53.3812 87.975 53.114 88.0313 53.0859 88.0032C53.0578 87.975 53.1281 87.5532 53.2547 87.0469C53.3953 86.4282 53.4375 85.7953 53.3812 85.0782C53.2406 83.1797 53.1281 82.4063 53.0015 82.4907C52.9453 82.5188 52.7203 82.2235 52.5234 81.8297C51.975 80.761 50.9484 79.8047 49.6828 79.2141C47.3343 78.0891 44.339 78.525 42.6656 80.2547C42.0047 80.9297 41.864 81.4782 42.3 81.5907C42.4547 81.6328 43.1015 81.4922 43.7484 81.2672C46.2515 80.4375 47.9672 80.4375 49.6265 81.2813C51.1312 82.0407 51.4968 82.7016 51.4968 84.6422C51.4968 85.8657 51.2297 86.9485 50.5547 88.3828C49.9781 89.6344 49.9218 89.7047 48.5718 90.7594C45.1406 93.4875 43.5093 94.2188 40.9922 94.2188C39.7828 94.2188 37.8281 93.8953 36.7593 93.5157C35.1 92.9391 33.2437 91.1953 32.0906 89.1563C31.275 87.7078 28.9968 82.5047 28.4062 80.7188C27.8015 78.8766 27.3375 76.8938 27.2109 75.4453C27.014 73.3078 27.8297 70.0032 29.1656 67.6125C30.15 65.8125 31.1062 64.6594 33.1875 62.7047C36.9562 59.175 38.2218 56.8688 39.0234 51.9891C39.9234 46.4625 40.7812 43.3266 41.7937 41.7657C43.2703 39.5297 46.8 36.7313 48.8672 36.1547C49.1765 36.0703 50.6672 35.8735 52.1859 35.7188C55.35 35.3953 56.3344 35.1703 57.2625 34.5797C58.0922 34.0453 59.2172 32.836 60.0328 31.6125C60.5953 30.7547 60.7219 30.6422 61.8609 30.1219C64.2094 29.011 65.7422 28.6594 69.3562 28.4063C72.9844 28.1531 74.489 27.6188 77.9906 25.2985C81.3515 23.0766 82.7578 22.5281 85.5844 22.4016C89.0578 22.2328 91.139 22.9641 96.1312 26.0438C100.378 28.6735 101.306 29.0391 106.172 30.0094C111.98 31.1625 113.048 31.6125 115.242 33.8203C116.03 34.5938 117.337 36.0281 118.181 37.0266C120.445 39.6985 122.006 41.0625 126.942 44.6344C130.753 47.4047 132.258 49.2469 132.947 52.0453C133.073 52.5516 133.27 54.4219 133.383 56.1938C133.622 59.6953 133.608 59.6672 134.044 60.6235C134.409 61.4532 134.873 61.7485 135.267 61.3969C135.577 61.1157 136.631 58.5563 137.123 56.8828C137.419 55.9125 137.461 55.4485 137.461 53.5782C137.461 51.6657 137.419 51.2719 137.137 50.4282C136.139 47.4469 134.508 45.0422 132.202 43.1297C131.527 42.5953 129.628 41.2453 127.955 40.1344C124.031 37.5469 123.314 36.9563 119.531 33.2578C114.764 28.6031 113.864 28.1531 106.847 27C101.63 26.1422 101.067 25.9313 96.4265 23.175C93.9094 21.6703 91.9125 20.7281 90.2531 20.236C89.4234 19.9969 88.7765 19.9266 86.8359 19.8844C85.5281 19.8703 84.15 19.8985 83.7984 19.9688Z" fill="#077840"/>
<path d="M75.2344 32.5688C71.5922 33.0891 67.7531 34.5376 64.7015 36.5204C63.8859 37.0548 63.5625 37.322 63.675 37.4345C63.7734 37.5329 64.5328 37.2798 66.1922 36.5626C71.325 34.3688 73.7156 33.7641 77.7656 33.6516C80.8453 33.5532 81.9562 33.7079 83.3765 34.3829C84.8531 35.086 85.5281 35.8454 86.4281 37.8001C88.0594 41.3016 88.5375 42.0329 89.8875 43.0735C91.8562 44.5641 94.3031 45.0001 100.687 45.0001C109.448 45.0141 113.414 45.5626 116.606 47.2079C118.069 47.9532 119.278 49.1485 119.559 50.1048C119.798 50.9345 119.756 52.7766 119.475 53.8032C118.969 55.7157 118.097 57.4032 115.762 60.961C113.245 64.8141 112.317 66.6845 111.881 68.7938C111.586 70.2282 111.6 71.2688 111.952 74.0813C112.373 77.4423 112.205 78.8485 111.291 79.8751C111.009 80.1704 110.587 80.4938 110.334 80.5782C109.758 80.761 108.028 80.5782 105.581 80.086C103.88 79.7345 101.672 79.6079 101.672 79.861C101.672 80.1563 103.345 81.2251 104.695 81.7876C110.264 84.0798 112.416 83.8829 113.836 80.9579C114.82 78.8766 114.975 77.0766 114.469 73.4766C113.836 69.047 114.159 67.8938 117.436 62.7188C119.194 59.9345 120.628 57.136 121.247 55.2798C121.669 54.0141 121.697 53.8032 121.711 51.8907C121.711 49.8798 121.711 49.8376 121.247 48.8813C120.656 47.6157 120.009 46.8423 118.898 46.0548C117.098 44.761 114.68 43.8751 111.656 43.3829C109.617 43.0595 105.427 42.8626 102.445 42.961C99.7172 43.0595 95.3859 42.8766 93.8672 42.6095C91.7719 42.2298 90.4359 41.5126 89.5078 40.247C89.2406 39.8813 88.5656 38.672 88.0031 37.547C87.1453 35.8032 86.864 35.3813 86.0765 34.5938C84.9797 33.511 83.7844 32.8782 82.2375 32.5688C80.8875 32.2876 77.1469 32.2876 75.2344 32.5688Z" fill="#077840"/>
<path d="M55.6875 44.0016C52.0312 45.1828 49.5703 47.4609 48.375 50.7375C47.8265 52.2563 47.7281 53.0859 48.0094 53.7891C48.3469 54.5766 48.6281 54.8438 49.1484 54.8438C49.7812 54.8438 50.189 54.4922 53.6484 50.9906C57.0656 47.5031 57.6984 47.0109 60.2437 45.8859C62.1 45.0563 63.1406 44.4797 63.1406 44.2828C63.1406 44.1 63.0422 44.1141 61.214 44.5781C59.0484 45.1406 57.0937 46.0828 55.4765 47.3625C54.7875 47.8969 53.1 49.4438 51.75 50.7797C50.0203 52.4813 49.275 53.1422 49.2469 52.9734C49.1625 52.5797 49.6265 51.1875 50.175 50.1328C50.8078 48.9234 52.2422 47.3906 53.6344 46.4203C54.2109 46.0266 55.4625 45.3234 56.4187 44.8594C57.389 44.4094 58.2609 43.9313 58.3594 43.8047C58.6687 43.425 57.0656 43.5375 55.6875 44.0016Z" fill="#077840"/>
<path d="M59.3437 53.7609C59.0766 53.9016 58.8094 54.4078 58.1484 56.0672C57.6703 57.2344 56.9812 58.7109 56.5875 59.3578C55.6312 60.975 53.5641 63.0422 52.2281 63.7453C48.5719 65.6437 44.2125 64.6031 41.6812 61.2422C41.2453 60.6656 40.8375 60.1875 40.7812 60.1875C40.725 60.1875 40.725 60.4828 40.7953 60.8344C41.1609 62.8031 43.3266 64.9406 45.9562 65.925C47.2078 66.3891 49.7812 66.5156 51.2437 66.1781C54.4781 65.4187 57.2484 62.7328 59.1328 58.5422C59.4844 57.7969 59.7797 57.2766 59.8219 57.3891C59.85 57.5016 60.0187 58.0641 60.1875 58.6406C60.6797 60.3141 61.6641 62.0859 62.6625 63.0844C63.1406 63.5625 63.6609 63.9984 63.8156 64.0406C64.0687 64.125 63.9703 64.2094 63.2109 64.6031C61.0734 65.7281 59.5547 67.3594 58.3453 69.8203C57.7125 71.1422 56.9531 73.5047 56.9531 74.2078C56.9531 74.5031 56.9109 74.4891 56.2219 73.9687C54 72.2812 51.3984 71.5078 48.3328 71.6062C47.5031 71.6344 46.8281 71.6062 46.8281 71.5641C46.8281 71.5078 46.9266 71.2266 47.0531 70.9312C47.3766 70.1719 47.4047 68.4281 47.0812 68.1187C46.7719 67.8094 46.5891 67.95 46.1812 68.8641C45.4219 70.5797 43.9594 72.225 42.7359 72.7312C42.3562 72.8859 42.0187 73.1391 41.9766 73.2797C41.85 73.6594 42.3844 74.7422 42.8203 75.0375C43.1859 75.2766 43.2281 75.2766 43.6359 75.0516C44.4656 74.5734 46.6875 74.0812 48.4031 74.0109C50.4281 73.9125 52.1719 74.2641 53.8453 75.1078C55.1672 75.7687 56.6016 77.1891 57.1781 78.3984C57.5719 79.2562 58.0078 79.7344 58.3594 79.7344C58.5 79.7344 58.7109 79.4531 58.9078 79.0172C59.175 78.4547 59.2172 78.2016 59.1187 77.7937C58.8656 76.725 58.9922 74.5453 59.3859 73.0969C60.3281 69.5812 62.3531 67.2609 65.6297 65.925C66.6 65.5312 66.9094 65.475 68.2734 65.4328C69.1312 65.4187 69.9469 65.3625 70.1016 65.3344C70.4531 65.25 70.875 64.4203 70.875 63.8297C70.875 63.4781 70.7906 63.3797 70.3547 63.1828C69.9328 63.0141 69.6094 63 68.6672 63.0984C67.3312 63.2391 66.5578 63.0984 65.3625 62.4937C64.2375 61.9312 63.8719 61.6219 63.2109 60.7219C62.4094 59.6391 61.8328 58.1062 61.3828 55.8703C61.1719 54.8859 60.9047 53.9578 60.7922 53.8172C60.525 53.5359 59.85 53.5078 59.3437 53.7609Z" fill="#077840"/>
<path d="M72.7031 91.1673C72.7031 91.3079 73.4906 93.122 73.9266 94.008C75.2906 96.7361 77.4141 99.0986 79.3828 100.069C80.7188 100.73 82.1953 100.885 82.9266 100.42C83.4188 100.111 84.1078 99.1548 84.3469 98.4517C84.6281 97.6361 84.5016 97.5939 81.9984 97.622C79.8609 97.6642 79.7906 97.6501 79.0313 97.2845C77.9063 96.7361 76.5141 95.5267 75.2906 94.0361C74.1938 92.7283 72.7031 91.0689 72.7031 91.1673Z" fill="#077840"/>
<path d="M59.6953 92.1938C60.4547 92.8548 61.7625 93.3751 63.0422 93.5438C64.139 93.6844 64.4062 93.6704 65.9109 93.3751C66.825 93.1923 67.95 93.0376 68.414 93.0376C70.0734 93.0516 70.5656 93.6844 71.4234 96.9891C72.6468 101.644 73.5468 103.106 76.2187 104.822C77.8078 105.834 78.5531 106.622 78.764 107.494C78.975 108.38 78.989 110.419 78.8343 115.453C78.7218 118.87 78.7359 119.433 78.9468 120.234C79.3547 121.852 80.2547 122.92 81.0281 122.724C81.9281 122.499 83.1375 120.459 84.0797 117.605C85.1343 114.469 85.1484 114.3 85.1484 108.492C85.1484 102.952 85.1765 102.727 85.8797 101.109C86.3297 100.083 86.5125 99.2813 86.2875 99.2813C86.0343 99.2813 85.7531 99.5485 85.0359 100.42C83.9109 101.841 83.8828 102.024 83.8687 107.649C83.8687 112.486 83.8547 112.599 83.5031 113.977C83.025 115.763 82.5047 117.225 81.8718 118.477C81.1547 119.925 80.9718 120.164 80.8453 119.911C80.5781 119.433 80.4375 116.789 80.4656 112.711C80.5078 107.958 80.4375 107.227 79.7625 105.975C79.2984 105.131 78.4828 104.4 76.95 103.472C74.3765 101.925 73.814 101.025 72.2953 96.1173C71.9859 95.1048 71.5218 93.9376 71.2687 93.5157C70.3687 92.0251 68.85 91.7016 66.0234 92.4329C65.25 92.6298 64.35 92.8266 64.0406 92.8829C63.1406 93.0235 61.3547 92.7141 60.3422 92.2501C59.2593 91.7438 59.1468 91.7298 59.6953 92.1938Z" fill="#077840"/>
<path d="M55.5891 93.4172C58.5281 97.1719 61.9734 103.219 63.9844 108.07C65.7422 112.359 67.1484 116.62 67.7109 119.362C67.9781 120.698 68.4703 123.806 68.4141 123.862C68.4 123.877 67.8797 123.145 67.275 122.217C66.2906 120.727 65.8125 120.22 65.8125 120.656C65.8125 120.923 66.9375 122.808 67.8094 124.003C68.6391 125.156 68.6672 125.227 69.0609 127.055C69.2719 128.081 69.5531 129.305 69.6656 129.769C69.7922 130.233 69.8906 130.669 69.8906 130.739C69.8906 130.809 69.6094 131.006 69.2719 131.161L68.6672 131.456L66.2484 129.473C63.3938 127.125 63.4641 127.181 63.3375 127.308C63.1828 127.462 64.8141 129.066 66.5578 130.472C67.9359 131.583 68.0625 131.709 67.8234 131.878C65.6438 133.369 61.3125 136.153 59.0203 137.517C57.4172 138.487 56.1375 139.289 56.1797 139.331C56.3203 139.472 58.4016 138.853 60.2578 138.136C62.6344 137.194 63.9 136.575 66.3047 135.141C68.4141 133.889 69.2438 133.467 73.5469 131.358C78.525 128.939 80.6766 127.364 87.6797 121.008C89.9016 118.997 91.3641 117.816 92.9531 116.747C93.7547 116.198 94.4438 115.762 94.4578 115.791C94.4859 115.819 94.3313 116.142 94.1344 116.522L93.7547 117.211L94.3734 116.634C96.8063 114.37 101.419 111.937 103.289 111.937C103.641 111.937 103.655 111.966 103.57 112.387C103.345 113.527 102.516 114.877 101.039 116.466C100.223 117.337 99.5625 118.097 99.5625 118.153C99.5625 118.195 98.8875 118.828 98.0578 119.531C97.2141 120.248 96.4828 120.923 96.4266 121.022C96.3703 121.12 96.0188 121.416 95.6531 121.655C93.8531 122.864 94.5703 123.187 96.7359 122.133C98.1281 121.458 98.3672 121.289 100.406 119.658C103.528 117.155 105.159 114.652 105.3 112.106C105.356 111.108 105.328 110.897 105.103 110.658C104.597 110.095 104.091 109.941 103.008 109.997L102.009 110.039L103.163 108.956C104.442 107.747 104.442 107.733 106.186 103.008C106.58 101.925 107.058 100.716 107.227 100.308C107.508 99.689 107.522 99.5484 107.353 99.4078C107.044 99.1547 106.397 99.4922 105.356 100.462C104.245 101.503 103.036 103.289 101.953 105.539C100.898 107.705 100.688 108.352 100.688 109.533V110.489L100.097 110.756C99.7734 110.897 99.1828 111.22 98.7891 111.445C98.4094 111.684 97.5656 112.008 96.9328 112.177C94.3313 112.88 92.2219 113.962 90.0844 115.706C89.55 116.142 87.8063 117.745 86.2313 119.25C79.5094 125.648 77.7656 127.012 73.6594 129.052C72.5063 129.628 71.5359 130.078 71.4938 130.05C71.4656 130.008 71.7609 129.642 72.1547 129.22C72.5484 128.798 72.9281 128.306 72.9984 128.109C73.2797 127.42 73.3219 123.384 73.0688 121.669C72.3094 116.592 68.8219 108.436 64.7719 102.305C62.8734 99.45 61.2 97.3547 59.1328 95.2594C56.925 93.0375 55.7156 92.1094 55.0406 92.1094H54.5625L55.5891 93.4172Z" fill="#077840"/>
<path d="M58.4297 102.755C57.6984 102.853 57.2344 103.092 57.2344 103.388C57.2344 103.908 57.8109 104.499 58.725 104.906C59.9906 105.483 61.1016 106.228 61.8891 107.03L62.5781 107.733V107.269C62.5781 106.509 61.7344 105.469 60.2156 104.386L59.3156 103.739L59.7797 103.542C60.2859 103.331 60.75 102.966 60.75 102.769C60.75 102.656 59.2594 102.642 58.4297 102.755Z" fill="#077840"/>
<path d="M62.6484 114.173C59.8359 114.933 56.9531 116.564 54.6047 118.744C52.1578 121.008 50.5828 123.863 48.8812 129.08C48.0375 131.667 46.4344 137.433 45.3515 141.722C43.9172 147.488 43.1578 149.85 40.9219 155.531C37.3219 164.7 37.125 165.305 37.35 166.472L37.4344 166.894L38.2078 166.163C38.6437 165.769 39.4453 164.742 40.0078 163.898C40.5703 163.041 41.2172 162.113 41.4703 161.803C41.8781 161.283 44.564 155.995 44.789 155.25C44.8453 155.053 45.239 154.28 45.6609 153.52C46.5047 152.002 47.3765 149.836 48.3187 146.939C48.6562 145.884 49.275 144.07 49.6969 142.931C50.189 141.581 50.9625 138.797 51.8906 135.084C53.5219 128.545 54.3094 125.958 55.2094 124.2C56.9812 120.713 60.7922 116.986 64.5187 115.073C66.164 114.23 66.1922 113.991 64.6875 113.948C64.0125 113.92 63.2812 114.005 62.6484 114.173Z" fill="#077840"/>
<path d="M102.937 117.661C102.937 117.802 103.064 118.392 103.219 118.969C103.373 119.545 103.542 120.417 103.584 120.881L103.683 121.753L103.064 122.414C102.277 123.272 101.63 123.581 100.266 123.778C99.5344 123.891 99.1406 124.017 99.1406 124.13C99.1406 124.453 99.9422 124.734 100.87 124.734C101.911 124.734 102.881 124.313 103.612 123.567L104.077 123.089L105.286 123.413C105.947 123.595 106.552 123.708 106.608 123.666C106.959 123.455 107.072 121.922 106.734 121.922C106.664 121.922 106.481 121.627 106.312 121.261C106.13 120.853 105.525 120.08 104.794 119.32C104.119 118.617 103.472 117.914 103.359 117.731C103.12 117.366 102.937 117.323 102.937 117.661ZM105.37 121.5C105.061 121.556 104.977 121.655 104.962 121.922C104.962 122.358 104.836 122.583 104.484 122.766C104.245 122.892 104.231 122.878 104.428 122.484C104.737 121.88 104.808 121.205 104.653 120.572L104.498 120.023L105.131 120.727L105.764 121.43L105.37 121.5Z" fill="#077840"/>
<path d="M97.7344 122.991C95.9344 124.805 93.7547 126.759 90.6328 129.375C88.1578 131.442 85.725 133.538 85.2047 134.03C83.3484 135.844 82.0969 137.573 80.8734 140.02C79.8891 141.989 79.5094 143.002 77.7375 148.219C73.5609 160.608 72.4781 162.239 63.8016 169.355C62.4656 170.438 61.3266 171.675 61.3125 172.041C61.3125 172.111 61.65 172.125 62.0578 172.069C63.0563 171.956 64.9828 170.958 67.5 169.298C73.6734 165.192 75.4031 162.323 79.8609 148.725C81.3656 144.141 82.0688 142.355 82.9969 140.709C84.375 138.263 85.7953 136.645 89.5078 133.313C94.0359 129.234 95.8078 127.378 98.1 124.313C99.3375 122.681 100.702 120.375 100.448 120.375C100.378 120.375 99.1688 121.556 97.7344 122.991Z" fill="#077840"/>
<path d="M96.75 128.25C96.75 128.433 97.1296 129.53 97.5937 130.683C99.0703 134.325 99.689 137.363 99.5062 140.217C99.3656 142.58 99.3093 142.636 98.5078 141.047C97.9171 139.88 97.7906 139.472 97.5093 137.756C97.3265 136.688 97.1437 135.773 97.1015 135.717C97.0453 135.675 97.0312 136.631 97.0593 137.841C97.0875 139.275 97.0593 140.006 96.9609 139.964C96.1734 139.514 94.5984 138.066 93.9093 137.138C93.6 136.716 93.3187 136.42 93.2765 136.448C93.2343 136.491 93.4171 136.955 93.6703 137.489C94.2187 138.656 95.4 139.866 96.5109 140.414C97.2562 140.766 97.3125 140.836 97.889 142.059C98.4937 143.325 99.1265 144.056 99.5484 143.972C99.9 143.902 100.378 142.903 100.533 141.891C101.067 138.6 100.252 134.367 98.2968 130.416C97.7625 129.333 97.1859 128.32 97.0312 128.18C96.75 127.927 96.75 127.927 96.75 128.25Z" fill="#077840"/>
<path d="M92.1234 133.552C91.9546 133.875 91.4062 137.124 91.4062 137.799C91.4062 138.853 90.4218 145.491 89.9718 147.445C89.6765 148.725 89.1562 150.033 88.8328 150.3C88.7203 150.399 88.3687 150.413 87.8203 150.328C86.9765 150.216 84.8249 150.342 82.8984 150.624C82.2937 150.708 81.6468 150.919 81.2109 151.158C80.8312 151.369 80.2687 151.636 79.9874 151.72C79.3687 151.931 79.1578 152.142 79.6781 152.044C80.0156 151.988 80.0296 152.002 79.889 152.283C79.7906 152.438 79.7484 152.578 79.7624 152.592C79.7906 152.592 81.0984 152.691 82.6874 152.789C87.6515 153.127 88.3406 153.253 89.4937 154.027C89.789 154.238 90.1546 154.42 90.2953 154.42C90.6749 154.449 90.7593 154.463 90.9281 154.575C91.0265 154.645 91.1671 154.308 91.3078 153.661C91.7859 151.566 91.8421 150.736 91.7578 147.164C91.6874 144.366 91.7015 143.367 91.8703 142.242C91.9968 141.469 92.1374 140.231 92.1796 139.5C92.2359 138.769 92.4328 137.166 92.6296 135.956C92.8265 134.733 92.9531 133.65 92.8968 133.524C92.7984 133.228 92.2921 133.256 92.1234 133.552Z" fill="#077840"/>
<path d="M93.375 139.655C93.375 139.711 93.4734 139.992 93.6 140.287C94.3453 142.045 95.1187 145.772 95.2875 148.444C95.4 150.061 95.2312 153.141 95.0484 153.141C94.8516 153.141 94.5422 152.269 94.0641 150.356C93.825 149.372 93.5578 148.5 93.4875 148.43C93.3047 148.247 93.4734 150.483 93.7406 151.805C93.8531 152.339 93.9375 152.803 93.9375 152.817C93.9375 152.831 93.7266 152.775 93.4875 152.705C93.2344 152.634 92.8969 152.578 92.7422 152.578C92.2781 152.578 92.7844 152.831 93.4734 152.944C93.9516 153.014 94.0922 153.112 94.2328 153.436C94.3172 153.675 94.5703 154.041 94.7812 154.266C95.5406 155.081 95.9766 154.434 96.2016 152.198C96.5531 148.823 95.8781 144.492 94.5844 141.68C94.1625 140.751 93.375 139.444 93.375 139.655Z" fill="#077840"/>
<path d="M85.9359 153.394C85.9219 153.717 85.8937 153.717 84.9797 153.619L84.0234 153.52L84.2906 153.816C84.6141 154.181 85.4016 154.462 85.8656 154.364C86.0906 154.322 86.2031 154.364 86.2031 154.491C86.2031 154.603 86.3859 154.884 86.5969 155.123C86.9625 155.545 87.0047 155.545 87.2297 155.334C87.525 155.039 87.5391 154.687 87.2578 154.687C87.075 154.687 86.6672 154.209 86.1047 153.337C85.95 153.084 85.9359 153.084 85.9359 153.394Z" fill="#077840"/>
<path d="M87.8344 153.773C87.7922 153.9 87.764 154.181 87.764 154.378C87.7781 154.659 87.8062 154.617 87.8906 154.195C88.0031 153.591 87.989 153.394 87.8344 153.773Z" fill="#077840"/>
</svg>
