<svg width="123" height="154" viewBox="0 0 123 154" fill="none" xmlns="http://www.w3.org/2000/svg">
<path d="M60.7984 0.968771C58.3375 1.40471 56.7062 2.1219 54.0203 3.90783C52.164 5.13127 50.8562 5.87658 49.6609 6.36877C48.9297 6.66408 47.9172 6.83283 45.2734 7.08596C42.1375 7.38127 39.9859 8.01409 37.8765 9.26565C36.9484 9.81409 35.95 10.6016 33.9531 12.3453C32.1672 13.8922 31.7031 14.1313 30.1703 14.2438C28.3422 14.3844 25.6562 14.8485 24.3203 15.2703C21.7187 16.086 19.1734 17.7594 17.4718 19.7703C15.7843 21.7672 14.5468 25.4938 13.2672 32.4547C12.5359 36.4766 12.1703 37.0953 8.42966 40.836C5.32185 43.9297 4.43591 45.0969 3.07185 47.8672C1.58122 50.9328 0.976533 53.3797 0.990596 56.375C1.00466 59.7219 1.82028 62.7594 3.99997 67.5547C6.51716 73.1235 7.90935 75.0782 10.6093 76.8922C12.6484 78.2563 15.3062 78.875 18.2453 78.6782C21.7047 78.4391 23.9265 77.3422 27.6672 74.0375C30.3812 71.6469 30.2547 71.675 35.7812 71.5625C39.8734 71.4641 40.4078 71.4219 42.7422 71.0141C45.864 70.4657 47.7625 70.4235 49.1406 70.8453C49.6469 71 50.9125 71.5485 51.9531 72.0688C52.9937 72.575 55.0187 73.475 56.4531 74.0516C60.8687 75.8375 61.5297 76.2313 63.85 78.4391C65.0453 79.5922 66.325 80.661 67.0422 81.125C67.7031 81.5469 68.2515 81.9688 68.2515 82.0672C68.2656 82.1657 68.5609 82.7844 68.9265 83.4594C69.8828 85.175 70.6281 85.611 71.2328 84.7813C71.5984 84.275 71.725 83.6563 71.4719 83.6563C71.3594 83.6563 71.0219 83.4313 70.7125 83.15C70.2203 82.7 70.2062 82.6578 70.5156 82.7282C72.5687 83.1922 74.2844 83.1782 75.8734 82.686C76.3937 82.5172 77.7437 81.9688 78.8969 81.4625C83.439 79.4516 84.8734 79.1563 89.2469 79.4094C95.6453 79.7891 97.5015 79.55 99.639 78.1157C100.033 77.8485 101.537 76.4703 102.972 75.05C105.362 72.7016 105.714 72.4063 106.867 71.8157C107.57 71.45 109.159 70.8453 110.453 70.4516C113.547 69.4813 114.77 68.9891 116.064 68.1453C118.637 66.4719 120.55 63.7719 121.759 60.1297C122.322 58.4 122.448 57.4157 122.364 55.0672C122.28 52.55 121.956 51.1578 120.944 49.1328C119.875 46.9813 118.553 45.6875 116.289 44.5485C113.673 43.2547 111.705 43.1282 108.062 44.0703C104.898 44.8719 102.677 47.1078 101.875 50.2719C101.537 51.5938 101.509 53.5625 101.805 54.7578C102.044 55.7282 103.394 58.4703 104.153 59.525C104.702 60.3125 106.431 61.7188 107.261 62.0703C108.527 62.5907 110.144 62.1547 110.903 61.086C111.873 59.7078 112.844 56.9657 112.844 55.6016C112.844 54.9828 112.38 53.3938 112.098 53.0282C112.028 52.9438 111.789 52.8594 111.564 52.8594C111.072 52.8594 109.202 53.4782 108.344 53.9282C107.809 54.1953 107.767 54.2516 108.062 54.2516C108.259 54.2516 108.794 54.1672 109.258 54.0547C110.594 53.7313 110.678 53.7453 110.875 54.4766C111.283 55.9391 110.453 57.6688 109.356 57.6407C108.906 57.6266 108.062 57.2469 107.233 56.7125C106.586 56.2766 106.361 56.0375 106.22 55.6016C105.883 54.6313 105.995 53.3657 106.53 51.9453L107.008 50.6797L108.133 50.0047C110.2 48.7813 111.564 48.486 113.477 48.8516C115.544 49.2453 117.02 50.3422 117.625 51.9594C118.075 53.1969 118.37 55.1657 118.272 56.3469C117.948 59.8485 115.67 63.0266 112.239 64.7422C111.564 65.0938 109.989 65.6844 108.752 66.0782C104.645 67.386 103.127 68.2157 100.539 70.55C97.9515 72.8703 97.3047 73.3907 96.3203 73.911L95.3359 74.4313L90.414 74.5297C85.2672 74.6282 84.6625 74.6985 81.8359 75.4157C80.0922 75.8516 79.0375 76.2172 76.3094 77.3141C74.3125 78.1157 74.0875 78.1719 73.0609 78.1719C71.7953 78.1719 70.3609 77.9047 69.2359 77.4688C68.35 77.1172 67.5344 76.5266 65.8047 74.9375C65.1156 74.3047 64.1734 73.5313 63.7094 73.2219C62.3875 72.3078 59.9547 71.2391 57.0015 70.2407C55.4828 69.7344 53.3031 68.9188 52.15 68.4125C49.2953 67.175 49.1265 67.1328 46.75 67.1469C45.0344 67.161 44.3594 67.2313 42.5312 67.5969C39.4375 68.2297 37.6656 68.4688 36.175 68.4688C34.375 68.4828 31.3937 68.7078 30.7047 68.8907C30.3812 68.975 30.114 69.0313 30.0859 69.0032C30.0578 68.975 30.1281 68.5532 30.2547 68.0469C30.3953 67.4282 30.4375 66.7953 30.3812 66.0782C30.2406 64.1797 30.1281 63.4063 30.0015 63.4907C29.9453 63.5188 29.7203 63.2235 29.5234 62.8297C28.975 61.761 27.9484 60.8047 26.6828 60.2141C24.3343 59.0891 21.339 59.525 19.6656 61.2547C19.0047 61.9297 18.864 62.4782 19.3 62.5907C19.4547 62.6328 20.1015 62.4922 20.7484 62.2672C23.2515 61.4375 24.9672 61.4375 26.6265 62.2813C28.1312 63.0407 28.4968 63.7016 28.4968 65.6422C28.4968 66.8657 28.2297 67.9485 27.5547 69.3828C26.9781 70.6344 26.9218 70.7047 25.5718 71.7594C22.1406 74.4875 20.5093 75.2188 17.9922 75.2188C16.7828 75.2188 14.8281 74.8953 13.7593 74.5157C12.1 73.9391 10.2437 72.1953 9.0906 70.1563C8.27497 68.7078 5.99685 63.5047 5.40622 61.7188C4.80153 59.8766 4.33747 57.8938 4.21091 56.4453C4.01403 54.3078 4.82966 51.0032 6.1656 48.6125C7.14997 46.8125 8.10622 45.6594 10.1875 43.7047C13.9562 40.175 15.2218 37.8688 16.0234 32.9891C16.9234 27.4625 17.7812 24.3266 18.7937 22.7657C20.2703 20.5297 23.8 17.7313 25.8672 17.1547C26.1765 17.0703 27.6672 16.8735 29.1859 16.7188C32.35 16.3953 33.3344 16.1703 34.2625 15.5797C35.0922 15.0453 36.2172 13.836 37.0328 12.6125C37.5953 11.7547 37.7219 11.6422 38.8609 11.1219C41.2094 10.011 42.7422 9.6594 46.3562 9.40627C49.9844 9.15315 51.489 8.61877 54.9906 6.29846C58.3515 4.07658 59.7578 3.52815 62.5844 3.40158C66.0578 3.23283 68.139 3.96408 73.1312 7.04377C77.3781 9.67346 78.3062 10.0391 83.1719 11.0094C88.9797 12.1625 90.0484 12.6125 92.2422 14.8203C93.0297 15.5938 94.3375 17.0281 95.1812 18.0266C97.4453 20.6985 99.0062 22.0625 103.942 25.6344C107.753 28.4047 109.258 30.2469 109.947 33.0453C110.073 33.5516 110.27 35.4219 110.383 37.1938C110.622 40.6953 110.608 40.6672 111.044 41.6235C111.409 42.4532 111.873 42.7485 112.267 42.3969C112.577 42.1157 113.631 39.5563 114.123 37.8828C114.419 36.9125 114.461 36.4485 114.461 34.5782C114.461 32.6657 114.419 32.2719 114.137 31.4282C113.139 28.4469 111.508 26.0422 109.202 24.1297C108.527 23.5953 106.628 22.2453 104.955 21.1344C101.031 18.5469 100.314 17.9563 96.5312 14.2578C91.764 9.60315 90.864 9.15315 83.8469 8.00002C78.6297 7.14221 78.0672 6.93127 73.4265 4.17502C70.9094 2.67033 68.9125 1.72815 67.2531 1.23596C66.4234 0.996896 65.7765 0.926584 63.8359 0.884396C62.5281 0.870334 61.15 0.898459 60.7984 0.968771Z" fill="#077840"/>
<path d="M52.2344 13.5688C48.5922 14.0891 44.7531 15.5376 41.7015 17.5204C40.8859 18.0548 40.5625 18.322 40.675 18.4345C40.7734 18.5329 41.5328 18.2798 43.1922 17.5626C48.325 15.3688 50.7156 14.7641 54.7656 14.6516C57.8453 14.5532 58.9562 14.7079 60.3765 15.3829C61.8531 16.086 62.5281 16.8454 63.4281 18.8001C65.0594 22.3016 65.5375 23.0329 66.8875 24.0735C68.8562 25.5641 71.3031 26.0001 77.6875 26.0001C86.4484 26.0141 90.414 26.5626 93.6062 28.2079C95.0687 28.9532 96.2781 30.1485 96.5594 31.1048C96.7984 31.9345 96.7562 33.7766 96.475 34.8032C95.9687 36.7157 95.0969 38.4032 92.7625 41.961C90.2453 45.8141 89.3172 47.6845 88.8812 49.7938C88.5859 51.2282 88.6 52.2688 88.9515 55.0813C89.3734 58.4423 89.2047 59.8485 88.2906 60.8751C88.0094 61.1704 87.5875 61.4938 87.3344 61.5782C86.7578 61.761 85.0281 61.5782 82.5812 61.086C80.8797 60.7345 78.6719 60.6079 78.6719 60.861C78.6719 61.1563 80.3453 62.2251 81.6953 62.7876C87.264 65.0798 89.4156 64.8829 90.8359 61.9579C91.8203 59.8766 91.975 58.0766 91.4687 54.4766C90.8359 50.047 91.1594 48.8938 94.4359 43.7188C96.1937 40.9345 97.6281 38.136 98.2469 36.2798C98.6687 35.0141 98.6969 34.8032 98.7109 32.8907C98.7109 30.8798 98.7109 30.8376 98.2469 29.8813C97.6562 28.6157 97.0094 27.8423 95.8984 27.0548C94.0984 25.761 91.6797 24.8751 88.6562 24.3829C86.6172 24.0595 82.4265 23.8626 79.4453 23.961C76.7172 24.0595 72.3859 23.8766 70.8672 23.6095C68.7719 23.2298 67.4359 22.5126 66.5078 21.247C66.2406 20.8813 65.5656 19.672 65.0031 18.547C64.1453 16.8032 63.864 16.3813 63.0765 15.5938C61.9797 14.511 60.7844 13.8782 59.2375 13.5688C57.8875 13.2876 54.1469 13.2876 52.2344 13.5688Z" fill="#077840"/>
<path d="M32.6875 25.0016C29.0312 26.1828 26.5703 28.4609 25.375 31.7375C24.8265 33.2563 24.7281 34.0859 25.0094 34.7891C25.3469 35.5766 25.6281 35.8438 26.1484 35.8438C26.7812 35.8438 27.189 35.4922 30.6484 31.9906C34.0656 28.5031 34.6984 28.0109 37.2437 26.8859C39.1 26.0563 40.1406 25.4797 40.1406 25.2828C40.1406 25.1 40.0422 25.1141 38.214 25.5781C36.0484 26.1406 34.0937 27.0828 32.4765 28.3625C31.7875 28.8969 30.1 30.4438 28.75 31.7797C27.0203 33.4813 26.275 34.1422 26.2469 33.9734C26.1625 33.5797 26.6265 32.1875 27.175 31.1328C27.8078 29.9234 29.2422 28.3906 30.6344 27.4203C31.2109 27.0266 32.4625 26.3234 33.4187 25.8594C34.389 25.4094 35.2609 24.9313 35.3594 24.8047C35.6687 24.425 34.0656 24.5375 32.6875 25.0016Z" fill="#077840"/>
<path d="M36.3437 34.7609C36.0766 34.9016 35.8094 35.4078 35.1484 37.0672C34.6703 38.2344 33.9812 39.7109 33.5875 40.3578C32.6312 41.975 30.5641 44.0422 29.2281 44.7453C25.5719 46.6437 21.2125 45.6031 18.6812 42.2422C18.2453 41.6656 17.8375 41.1875 17.7812 41.1875C17.725 41.1875 17.725 41.4828 17.7953 41.8344C18.1609 43.8031 20.3266 45.9406 22.9562 46.925C24.2078 47.3891 26.7812 47.5156 28.2437 47.1781C31.4781 46.4187 34.2484 43.7328 36.1328 39.5422C36.4844 38.7969 36.7797 38.2766 36.8219 38.3891C36.85 38.5016 37.0187 39.0641 37.1875 39.6406C37.6797 41.3141 38.6641 43.0859 39.6625 44.0844C40.1406 44.5625 40.6609 44.9984 40.8156 45.0406C41.0687 45.125 40.9703 45.2094 40.2109 45.6031C38.0734 46.7281 36.5547 48.3594 35.3453 50.8203C34.7125 52.1422 33.9531 54.5047 33.9531 55.2078C33.9531 55.5031 33.9109 55.4891 33.2219 54.9687C31 53.2812 28.3984 52.5078 25.3328 52.6062C24.5031 52.6344 23.8281 52.6062 23.8281 52.5641C23.8281 52.5078 23.9266 52.2266 24.0531 51.9312C24.3766 51.1719 24.4047 49.4281 24.0812 49.1187C23.7719 48.8094 23.5891 48.95 23.1812 49.8641C22.4219 51.5797 20.9594 53.225 19.7359 53.7312C19.3562 53.8859 19.0187 54.1391 18.9766 54.2797C18.85 54.6594 19.3844 55.7422 19.8203 56.0375C20.1859 56.2766 20.2281 56.2766 20.6359 56.0516C21.4656 55.5734 23.6875 55.0812 25.4031 55.0109C27.4281 54.9125 29.1719 55.2641 30.8453 56.1078C32.1672 56.7687 33.6016 58.1891 34.1781 59.3984C34.5719 60.2562 35.0078 60.7344 35.3594 60.7344C35.5 60.7344 35.7109 60.4531 35.9078 60.0172C36.175 59.4547 36.2172 59.2016 36.1187 58.7937C35.8656 57.725 35.9922 55.5453 36.3859 54.0969C37.3281 50.5812 39.3531 48.2609 42.6297 46.925C43.6 46.5312 43.9094 46.475 45.2734 46.4328C46.1312 46.4187 46.9469 46.3625 47.1016 46.3344C47.4531 46.25 47.875 45.4203 47.875 44.8297C47.875 44.4781 47.7906 44.3797 47.3547 44.1828C46.9328 44.0141 46.6094 44 45.6672 44.0984C44.3312 44.2391 43.5578 44.0984 42.3625 43.4937C41.2375 42.9312 40.8719 42.6219 40.2109 41.7219C39.4094 40.6391 38.8328 39.1062 38.3828 36.8703C38.1719 35.8859 37.9047 34.9578 37.7922 34.8172C37.525 34.5359 36.85 34.5078 36.3437 34.7609Z" fill="#077840"/>
<path d="M49.7031 72.1673C49.7031 72.3079 50.4906 74.122 50.9266 75.008C52.2906 77.7361 54.4141 80.0986 56.3828 81.0689C57.7188 81.7298 59.1953 81.8845 59.9266 81.4205C60.4188 81.1111 61.1078 80.1548 61.3469 79.4517C61.6281 78.6361 61.5016 78.5939 58.9984 78.622C56.8609 78.6642 56.7906 78.6501 56.0313 78.2845C54.9063 77.7361 53.5141 76.5267 52.2906 75.0361C51.1938 73.7283 49.7031 72.0689 49.7031 72.1673Z" fill="#077840"/>
<path d="M36.6953 73.1938C37.4547 73.8548 38.7625 74.3751 40.0422 74.5438C41.139 74.6844 41.4062 74.6704 42.9109 74.3751C43.825 74.1923 44.95 74.0376 45.414 74.0376C47.0734 74.0516 47.5656 74.6844 48.4234 77.9891C49.6468 82.6438 50.5468 84.1063 53.2187 85.8219C54.8078 86.8344 55.5531 87.6219 55.764 88.4938C55.975 89.3798 55.989 91.4188 55.8343 96.4532C55.7218 99.8704 55.7359 100.433 55.9468 101.234C56.3547 102.852 57.2547 103.92 58.0281 103.724C58.9281 103.499 60.1375 101.459 61.0797 98.6048C62.1343 95.4688 62.1484 95.3001 62.1484 89.4923C62.1484 83.9516 62.1765 83.7266 62.8797 82.1094C63.3297 81.0829 63.5125 80.2813 63.2875 80.2813C63.0343 80.2813 62.7531 80.5485 62.0359 81.4204C60.9109 82.8407 60.8828 83.0235 60.8687 88.6485C60.8687 93.486 60.8547 93.5985 60.5031 94.9766C60.025 96.7626 59.5047 98.2251 58.8718 99.4766C58.1547 100.925 57.9718 101.164 57.8453 100.911C57.5781 100.433 57.4375 97.7891 57.4656 93.711C57.5078 88.9579 57.4375 88.2266 56.7625 86.9751C56.2984 86.1313 55.4828 85.4001 53.95 84.4719C51.3765 82.9251 50.814 82.0251 49.2953 77.1173C48.9859 76.1048 48.5218 74.9376 48.2687 74.5157C47.3687 73.0251 45.85 72.7016 43.0234 73.4329C42.25 73.6298 41.35 73.8266 41.0406 73.8829C40.1406 74.0235 38.3547 73.7141 37.3422 73.2501C36.2593 72.7438 36.1468 72.7298 36.6953 73.1938Z" fill="#077840"/>
<path d="M32.5891 74.4172C35.5281 78.1719 38.9734 84.2187 40.9844 89.0703C42.7422 93.3594 44.1484 97.6203 44.7109 100.362C44.9781 101.698 45.4703 104.806 45.4141 104.862C45.4 104.877 44.8797 104.145 44.275 103.217C43.2906 101.727 42.8125 101.22 42.8125 101.656C42.8125 101.923 43.9375 103.808 44.8094 105.003C45.6391 106.156 45.6672 106.227 46.0609 108.055C46.2719 109.081 46.5531 110.305 46.6656 110.769C46.7922 111.233 46.8906 111.669 46.8906 111.739C46.8906 111.809 46.6094 112.006 46.2719 112.161L45.6672 112.456L43.2484 110.473C40.3938 108.125 40.4641 108.181 40.3375 108.308C40.1828 108.462 41.8141 110.066 43.5578 111.472C44.9359 112.583 45.0625 112.709 44.8234 112.878C42.6438 114.369 38.3125 117.153 36.0203 118.517C34.4172 119.487 33.1375 120.289 33.1797 120.331C33.3203 120.472 35.4016 119.853 37.2578 119.136C39.6344 118.194 40.9 117.575 43.3047 116.141C45.4141 114.889 46.2438 114.467 50.5469 112.358C55.525 109.939 57.6766 108.364 64.6797 102.008C66.9016 99.9969 68.3641 98.8156 69.9531 97.7469C70.7547 97.1984 71.4438 96.7625 71.4578 96.7906C71.4859 96.8187 71.3313 97.1422 71.1344 97.5219L70.7547 98.2109L71.3734 97.6344C73.8063 95.3703 78.4188 92.9375 80.2891 92.9375C80.6406 92.9375 80.6547 92.9656 80.5703 93.3875C80.3453 94.5265 79.5156 95.8765 78.0391 97.4656C77.2234 98.3375 76.5625 99.0969 76.5625 99.1531C76.5625 99.1953 75.8875 99.8281 75.0578 100.531C74.2141 101.248 73.4828 101.923 73.4266 102.022C73.3703 102.12 73.0188 102.416 72.6531 102.655C70.8531 103.864 71.5703 104.187 73.7359 103.133C75.1281 102.458 75.3672 102.289 77.4063 100.658C80.5281 98.1547 82.1594 95.6515 82.3 93.1062C82.3563 92.1078 82.3281 91.8969 82.1031 91.6578C81.5969 91.0953 81.0906 90.9406 80.0078 90.9969L79.0094 91.039L80.1625 89.9562C81.4422 88.7469 81.4422 88.7328 83.1859 84.0078C83.5797 82.925 84.0578 81.7156 84.2266 81.3078C84.5078 80.689 84.5219 80.5484 84.3531 80.4078C84.0438 80.1547 83.3969 80.4922 82.3563 81.4625C81.2453 82.5031 80.0359 84.289 78.9531 86.539C77.8984 88.7047 77.6875 89.3515 77.6875 90.5328V91.489L77.0969 91.7562C76.7734 91.8969 76.1828 92.2203 75.7891 92.4453C75.4094 92.6844 74.5656 93.0078 73.9328 93.1765C71.3313 93.8797 69.2219 94.9625 67.0844 96.7062C66.55 97.1422 64.8063 98.7453 63.2313 100.25C56.5094 106.648 54.7656 108.012 50.6594 110.052C49.5063 110.628 48.5359 111.078 48.4938 111.05C48.4656 111.008 48.7609 110.642 49.1547 110.22C49.5484 109.798 49.9281 109.306 49.9984 109.109C50.2797 108.42 50.3219 104.384 50.0688 102.669C49.3094 97.5922 45.8219 89.4359 41.7719 83.3047C39.8734 80.45 38.2 78.3547 36.1328 76.2594C33.925 74.0375 32.7156 73.1094 32.0406 73.1094H31.5625L32.5891 74.4172Z" fill="#077840"/>
<path d="M35.4297 83.7548C34.6984 83.8532 34.2344 84.0923 34.2344 84.3876C34.2344 84.9079 34.8109 85.4985 35.725 85.9063C36.9906 86.4829 38.1016 87.2282 38.8891 88.0298L39.5781 88.7329V88.2688C39.5781 87.5095 38.7344 86.4688 37.2156 85.386L36.3156 84.7392L36.7797 84.5423C37.2859 84.3313 37.75 83.9657 37.75 83.7688C37.75 83.6563 36.2594 83.6423 35.4297 83.7548Z" fill="#077840"/>
<path d="M39.6484 95.1735C36.8359 95.9329 33.9531 97.5641 31.6047 99.7438C29.1578 102.008 27.5828 104.863 25.8812 110.08C25.0375 112.667 23.4344 118.433 22.3515 122.722C20.9172 128.488 20.1578 130.85 17.9219 136.531C14.3219 145.7 14.125 146.305 14.35 147.472L14.4344 147.894L15.2078 147.163C15.6437 146.769 16.4453 145.742 17.0078 144.898C17.5703 144.041 18.2172 143.113 18.4703 142.803C18.8781 142.283 21.564 136.995 21.789 136.25C21.8453 136.053 22.239 135.28 22.6609 134.52C23.5047 133.002 24.3765 130.836 25.3187 127.939C25.6562 126.884 26.275 125.07 26.6969 123.931C27.189 122.581 27.9625 119.797 28.8906 116.084C30.5219 109.545 31.3094 106.958 32.2094 105.2C33.9812 101.713 37.7922 97.986 41.5187 96.0735C43.164 95.2297 43.1922 94.9907 41.6875 94.9485C41.0125 94.9204 40.2812 95.0047 39.6484 95.1735Z" fill="#077840"/>
<path d="M79.9375 98.6609C79.9375 98.8016 80.0641 99.3922 80.2187 99.9688C80.3734 100.545 80.5422 101.417 80.5844 101.881L80.6828 102.753L80.0641 103.414C79.2766 104.272 78.6297 104.581 77.2656 104.778C76.5344 104.891 76.1406 105.017 76.1406 105.13C76.1406 105.453 76.9422 105.734 77.8703 105.734C78.9109 105.734 79.8812 105.313 80.6125 104.567L81.0766 104.089L82.2859 104.413C82.9469 104.595 83.5516 104.708 83.6078 104.666C83.9594 104.455 84.0719 102.922 83.7344 102.922C83.6641 102.922 83.4812 102.627 83.3125 102.261C83.1297 101.853 82.525 101.08 81.7937 100.32C81.1187 99.6172 80.4719 98.9141 80.3594 98.7313C80.1203 98.3656 79.9375 98.3234 79.9375 98.6609ZM82.3703 102.5C82.0609 102.556 81.9766 102.655 81.9625 102.922C81.9625 103.358 81.8359 103.583 81.4844 103.766C81.2453 103.892 81.2312 103.878 81.4281 103.484C81.7375 102.88 81.8078 102.205 81.6531 101.572L81.4984 101.023L82.1312 101.727L82.7641 102.43L82.3703 102.5Z" fill="#077840"/>
<path d="M74.7344 103.991C72.9344 105.805 70.7547 107.759 67.6328 110.375C65.1578 112.442 62.725 114.538 62.2047 115.03C60.3484 116.844 59.0969 118.573 57.8734 121.02C56.8891 122.989 56.5094 124.002 54.7375 129.219C50.5609 141.608 49.4781 143.239 40.8016 150.355C39.4656 151.438 38.3266 152.675 38.3125 153.041C38.3125 153.111 38.65 153.125 39.0578 153.069C40.0563 152.956 41.9828 151.958 44.5 150.298C50.6734 146.192 52.4031 143.323 56.8609 129.725C58.3656 125.141 59.0688 123.355 59.9969 121.709C61.375 119.263 62.7953 117.645 66.5078 114.313C71.0359 110.234 72.8078 108.378 75.1 105.313C76.3375 103.681 77.7016 101.375 77.4484 101.375C77.3781 101.375 76.1688 102.556 74.7344 103.991Z" fill="#077840"/>
<path d="M73.75 109.25C73.75 109.433 74.1296 110.53 74.5937 111.683C76.0703 115.325 76.689 118.363 76.5062 121.217C76.3656 123.58 76.3093 123.636 75.5078 122.047C74.9171 120.88 74.7906 120.472 74.5093 118.756C74.3265 117.688 74.1437 116.773 74.1015 116.717C74.0453 116.675 74.0312 117.631 74.0593 118.841C74.0875 120.275 74.0593 121.006 73.9609 120.964C73.1734 120.514 71.5984 119.066 70.9093 118.138C70.6 117.716 70.3187 117.42 70.2765 117.448C70.2343 117.491 70.4171 117.955 70.6703 118.489C71.2187 119.656 72.4 120.866 73.5109 121.414C74.2562 121.766 74.3125 121.836 74.889 123.059C75.4937 124.325 76.1265 125.056 76.5484 124.972C76.9 124.902 77.3781 123.903 77.5328 122.891C78.0671 119.6 77.2515 115.367 75.2968 111.416C74.7625 110.333 74.1859 109.32 74.0312 109.18C73.75 108.927 73.75 108.927 73.75 109.25Z" fill="#077840"/>
<path d="M69.1234 114.552C68.9546 114.875 68.4062 118.124 68.4062 118.799C68.4062 119.853 67.4218 126.491 66.9718 128.445C66.6765 129.725 66.1562 131.033 65.8328 131.3C65.7203 131.399 65.3687 131.413 64.8203 131.328C63.9765 131.216 61.8249 131.342 59.8984 131.624C59.2937 131.708 58.6468 131.919 58.2109 132.158C57.8312 132.369 57.2687 132.636 56.9874 132.72C56.3687 132.931 56.1578 133.142 56.6781 133.044C57.0156 132.988 57.0296 133.002 56.889 133.283C56.7906 133.438 56.7484 133.578 56.7624 133.592C56.7906 133.592 58.0984 133.691 59.6874 133.789C64.6515 134.127 65.3406 134.253 66.4937 135.027C66.789 135.238 67.1546 135.42 67.2953 135.42C67.6749 135.449 67.7593 135.463 67.9281 135.575C68.0265 135.645 68.1671 135.308 68.3078 134.661C68.7859 132.566 68.8421 131.736 68.7578 128.164C68.6874 125.366 68.7015 124.367 68.8703 123.242C68.9968 122.469 69.1374 121.231 69.1796 120.5C69.2359 119.769 69.4328 118.166 69.6296 116.956C69.8265 115.733 69.9531 114.65 69.8968 114.524C69.7984 114.228 69.2921 114.256 69.1234 114.552Z" fill="#077840"/>
<path d="M70.375 120.655C70.375 120.711 70.4734 120.992 70.6 121.287C71.3453 123.045 72.1187 126.772 72.2875 129.444C72.4 131.061 72.2312 134.141 72.0484 134.141C71.8516 134.141 71.5422 133.269 71.0641 131.356C70.825 130.372 70.5578 129.5 70.4875 129.43C70.3047 129.247 70.4734 131.483 70.7406 132.805C70.8531 133.339 70.9375 133.803 70.9375 133.817C70.9375 133.831 70.7266 133.775 70.4875 133.705C70.2344 133.634 69.8969 133.578 69.7422 133.578C69.2781 133.578 69.7844 133.831 70.4734 133.944C70.9516 134.014 71.0922 134.112 71.2328 134.436C71.3172 134.675 71.5703 135.041 71.7812 135.266C72.5406 136.081 72.9766 135.434 73.2016 133.198C73.5531 129.823 72.8781 125.492 71.5844 122.68C71.1625 121.751 70.375 120.444 70.375 120.655Z" fill="#077840"/>
<path d="M62.9359 134.394C62.9219 134.717 62.8937 134.717 61.9797 134.619L61.0234 134.52L61.2906 134.816C61.6141 135.181 62.4016 135.462 62.8656 135.364C63.0906 135.322 63.2031 135.364 63.2031 135.491C63.2031 135.603 63.3859 135.884 63.5969 136.123C63.9625 136.545 64.0047 136.545 64.2297 136.334C64.525 136.039 64.5391 135.687 64.2578 135.687C64.075 135.687 63.6672 135.209 63.1047 134.337C62.95 134.084 62.9359 134.084 62.9359 134.394Z" fill="#077840"/>
<path d="M64.8344 134.773C64.7922 134.9 64.764 135.181 64.764 135.378C64.7781 135.659 64.8062 135.617 64.8906 135.195C65.0031 134.591 64.989 134.394 64.8344 134.773Z" fill="#077840"/>
</svg>
