<svg width="80" height="101" viewBox="0 0 80 101" fill="none" xmlns="http://www.w3.org/2000/svg">
<path d="M39.2899 0.0574449C37.6732 0.34534 36.6016 0.818975 34.8371 1.99842C33.6177 2.80638 32.7585 3.29859 31.9733 3.62363C31.4929 3.81866 30.8278 3.9301 29.091 4.09727C27.0309 4.2923 25.6175 4.71021 24.2317 5.53675C23.622 5.89894 22.9661 6.41901 21.6543 7.57059C20.4811 8.59215 20.1762 8.75003 19.1692 8.82433C17.9683 8.9172 16.2038 9.22367 15.3262 9.50228C13.6171 10.0409 11.945 11.1461 10.8272 12.4741C9.71866 13.7928 8.9057 16.2539 8.06503 20.8509C7.58465 23.507 7.34446 23.9156 4.88712 26.386C2.8455 28.4291 2.2635 29.1999 1.3674 31.0294C0.388158 33.054 -0.00908091 34.6699 0.000157211 36.648C0.00939533 38.8583 0.545206 40.8643 1.97711 44.0312C3.63074 47.7088 4.54531 48.9997 6.31903 50.1977C7.65856 51.0985 9.40456 51.5072 11.3353 51.3771C13.6079 51.2193 15.0675 50.4949 17.5249 48.3125C19.3078 46.7337 19.2247 46.7522 22.8553 46.6779C25.5435 46.6129 25.8946 46.5851 27.4281 46.3158C29.479 45.9536 30.7261 45.9257 31.6315 46.2043C31.964 46.3065 32.7955 46.6687 33.4791 47.0123C34.1627 47.3466 35.493 47.941 36.4353 48.3217C39.3361 49.5012 39.7702 49.7612 41.2945 51.2193C42.0798 51.9808 42.9204 52.6866 43.3916 52.9931C43.8258 53.2717 44.1861 53.5503 44.1861 53.6153C44.1953 53.6803 44.3893 54.0889 44.6295 54.5347C45.2577 55.6677 45.7473 55.9556 46.1445 55.4077C46.3847 55.0734 46.4679 54.6647 46.3016 54.6647C46.2277 54.6647 46.006 54.5161 45.8027 54.3304C45.4794 54.0332 45.4702 54.0054 45.6734 54.0518C47.0222 54.3583 48.1492 54.349 49.1931 54.0239C49.5349 53.9125 50.4218 53.5503 51.1793 53.216C54.1632 51.8879 55.1055 51.6929 57.9786 51.8601C62.1819 52.1108 63.4014 51.9529 64.8055 51.0057C65.0642 50.8292 66.0527 49.9191 66.995 48.9811C68.5655 47.4302 68.7964 47.2352 69.5539 46.8451C70.0158 46.6037 71.0597 46.2043 71.9097 45.9443C73.942 45.3035 74.7458 44.9784 75.5957 44.4212C77.2862 43.3161 78.5426 41.533 79.3371 39.1277C79.7066 37.9854 79.7898 37.3353 79.7343 35.7844C79.6789 34.122 79.4664 33.2026 78.8013 31.8653C78.0992 30.4444 77.2308 29.59 75.7435 28.8377C74.0252 27.9833 72.7318 27.8997 70.3392 28.522C68.2606 29.0513 66.801 30.5279 66.2744 32.6175C66.0527 33.4905 66.0342 34.7906 66.2282 35.58C66.3853 36.2208 67.2721 38.0318 67.771 38.7283C68.1313 39.2484 69.2676 40.1771 69.8126 40.4093C70.644 40.7529 71.7064 40.465 72.2053 39.7592C72.8427 38.849 73.4801 37.0381 73.4801 36.1373C73.4801 35.7286 73.1753 34.6792 72.9905 34.4377C72.9443 34.382 72.7873 34.3263 72.6395 34.3263C72.3161 34.3263 71.0875 34.7349 70.5239 35.0321C70.1729 35.2086 70.1452 35.2457 70.3392 35.2457C70.4685 35.2457 70.8196 35.19 71.1244 35.1157C72.002 34.9021 72.0575 34.9114 72.1868 35.3943C72.4547 36.3601 71.9097 37.5024 71.1891 37.4839C70.8935 37.4746 70.3392 37.2238 69.7941 36.8709C69.3692 36.583 69.2214 36.4252 69.129 36.1373C68.9073 35.4965 68.9812 34.6606 69.3322 33.7227L69.6463 32.8868L70.3854 32.4411C71.7434 31.6331 72.6395 31.4381 73.8959 31.6795C75.2539 31.9396 76.2239 32.6639 76.6211 33.7319C76.9167 34.5492 77.1107 35.8494 77.046 36.6295C76.8336 38.9419 75.337 41.0408 73.0829 42.1738C72.6395 42.406 71.6048 42.796 70.7918 43.056C68.0943 43.9197 67.0966 44.4677 65.3968 46.0093C63.697 47.5416 63.272 47.8853 62.6253 48.2289L61.9787 48.5725L58.7453 48.6375C55.3642 48.7025 54.967 48.7489 53.1101 49.2226C51.9646 49.5105 51.2717 49.7519 49.4795 50.4763C48.1677 51.0057 48.0199 51.0428 47.3455 51.0428C46.5141 51.0428 45.5718 50.8664 44.8327 50.5785C44.2507 50.3463 43.7149 49.9562 42.5786 48.9068C42.126 48.4889 41.507 47.9781 41.2022 47.7738C40.3338 47.1702 38.7356 46.4643 36.7956 45.805C35.7979 45.4706 34.366 44.932 33.6084 44.5977C31.7331 43.7804 31.6222 43.7526 30.061 43.7618C28.9339 43.7711 28.4905 43.8176 27.2896 44.059C25.2572 44.4769 24.0932 44.6348 23.1139 44.6348C21.9314 44.6441 19.973 44.7927 19.5203 44.9134C19.3078 44.9691 19.1323 45.0063 19.1138 44.9877C19.0953 44.9691 19.1415 44.6905 19.2247 44.3562C19.3171 43.9476 19.3448 43.5297 19.3078 43.056C19.2154 41.8023 19.1415 41.2915 19.0584 41.3472C19.0214 41.3658 18.8736 41.1708 18.7443 40.9108C18.384 40.2049 17.7096 39.5734 16.8782 39.1834C15.3354 38.4404 13.3677 38.7283 12.2684 39.8706C11.8342 40.3164 11.7418 40.6786 12.0282 40.7529C12.1298 40.7807 12.5548 40.6879 12.9797 40.5393C14.6241 39.9913 15.7511 39.9913 16.8412 40.5486C17.8297 41.0501 18.0699 41.4865 18.0699 42.7681C18.0699 43.5761 17.8944 44.2912 17.451 45.2385C17.0722 46.065 17.0352 46.1114 16.1484 46.808C13.8943 48.6096 12.8227 49.0926 11.169 49.0926C10.3746 49.0926 9.09046 48.879 8.38837 48.6282C7.29827 48.2474 6.07884 47.0959 5.32131 45.7493C4.7855 44.7927 3.28893 41.3565 2.90093 40.1771C2.50369 38.9605 2.19883 37.651 2.11569 36.6945C1.98635 35.2829 2.52216 33.1004 3.39978 31.5216C4.04645 30.3329 4.67464 29.5714 6.04189 28.2805C8.5177 25.9495 9.34913 24.4264 9.8757 21.2038C10.4669 17.5541 11.0305 15.4831 11.6956 14.4522C12.6656 12.9756 14.9844 11.1275 16.3424 10.7467C16.5456 10.691 17.5249 10.561 18.5226 10.4588C20.6012 10.2452 21.2478 10.0966 21.8575 9.70659C22.4026 9.35368 23.1416 8.55501 23.6775 7.74704C24.047 7.18054 24.1301 7.10624 24.8784 6.76263C26.4212 6.02896 27.4281 5.79678 29.8023 5.62962C32.1858 5.46245 33.1742 5.10955 35.4745 3.5772C37.6824 2.10986 38.6062 1.74767 40.4631 1.66409C42.7449 1.55264 44.1122 2.03557 47.3917 4.06941C50.1816 5.80607 50.7913 6.04753 53.9877 6.68833C57.8031 7.44986 58.5051 7.74704 59.9463 9.20509C60.4636 9.71588 61.3228 10.6631 61.8771 11.3225C63.3644 13.087 64.3898 13.9879 67.6324 16.3468C70.1359 18.1763 71.1244 19.3929 71.5771 21.241C71.6602 21.5753 71.7896 22.8105 71.8635 23.9806C72.0205 26.2931 72.0113 26.2745 72.2977 26.906C72.5378 27.454 72.8427 27.649 73.1014 27.4168C73.3046 27.2311 73.9975 25.5408 74.3208 24.4357C74.5148 23.7949 74.5425 23.4884 74.5425 22.2533C74.5425 20.9902 74.5148 20.7302 74.33 20.173C73.6741 18.2042 72.6025 16.6161 71.0875 15.3531C70.644 15.0002 69.3969 14.1086 68.2976 13.3749C65.7201 11.6661 65.249 11.2761 62.7639 8.83362C59.6322 5.75963 59.041 5.46245 54.4311 4.70092C51.0038 4.13442 50.6343 3.99511 47.5857 2.17487C45.9321 1.18117 44.6203 0.55894 43.5302 0.233897C42.9851 0.0760188 42.5602 0.029584 41.2853 0.00172317C40.4262 -0.00756379 39.5208 0.0110101 39.2899 0.0574449Z" fill="white"/>
<path d="M33.6641 8.37864C31.2714 8.72226 28.7494 9.67881 26.7448 10.9883C26.2089 11.3412 25.9965 11.5176 26.0704 11.5919C26.135 11.6569 26.6339 11.4898 27.724 11.0161C31.0959 9.56737 32.6664 9.16803 35.327 9.09373C37.3501 9.02872 38.0799 9.13088 39.013 9.57665C39.983 10.041 40.4264 10.5425 41.0177 11.8334C42.0893 14.1458 42.4034 14.6288 43.2902 15.316C44.5836 16.3004 46.191 16.5883 50.3851 16.5883C56.1404 16.5976 58.7456 16.9598 60.8426 18.0464C61.8034 18.5386 62.5979 19.328 62.7827 19.9595C62.9397 20.5074 62.912 21.724 62.7272 22.4019C62.3947 23.665 61.8219 24.7794 60.2884 27.129C58.6347 29.6736 58.025 30.9088 57.7386 32.3018C57.5446 33.2491 57.5539 33.9363 57.7848 35.7937C58.062 38.0133 57.9511 38.942 57.3506 39.6199C57.1659 39.815 56.8887 40.0286 56.7224 40.0843C56.3437 40.205 55.2074 40.0843 53.6 39.7592C52.4822 39.5271 51.0318 39.4435 51.0318 39.6107C51.0318 39.8057 52.1311 40.5115 53.018 40.883C56.6763 42.3967 58.0897 42.2667 59.0227 40.335C59.6694 38.9606 59.771 37.7718 59.4385 35.3944C59.0227 32.469 59.2352 31.7075 61.3877 28.2899C62.5425 26.451 63.4847 24.6029 63.8912 23.3771C64.1684 22.5412 64.1868 22.4019 64.1961 21.1389C64.1961 19.8109 64.1961 19.783 63.8912 19.1515C63.5032 18.3157 63.0783 17.8049 62.3485 17.2848C61.166 16.4304 59.577 15.8453 57.5908 15.5203C56.2513 15.3067 53.4983 15.1767 51.5399 15.2417C49.7477 15.3067 46.9023 15.186 45.9046 15.0095C44.5281 14.7588 43.6505 14.2851 43.0408 13.4493C42.8653 13.2079 42.4218 12.4092 42.0523 11.6662C41.4888 10.5146 41.304 10.236 40.7867 9.71596C40.0661 9.00086 39.2809 8.58295 38.2647 8.37864C37.3778 8.1929 34.9205 8.1929 33.6641 8.37864Z" fill="white"/>
<path d="M20.8226 15.9286C18.4207 16.7087 16.8041 18.2132 16.0188 20.3771C15.6585 21.3801 15.5939 21.928 15.7786 22.3923C16.0003 22.9124 16.1851 23.0889 16.5269 23.0889C16.9426 23.0889 17.2105 22.8567 19.4831 20.5442C21.728 18.2411 22.1437 17.916 23.8158 17.1731C25.0352 16.6251 25.7188 16.2444 25.7188 16.1144C25.7188 15.9936 25.6542 16.0029 24.4532 16.3094C23.0306 16.6809 21.7465 17.3031 20.6841 18.1482C20.2314 18.5011 19.1228 19.5227 18.236 20.4049C17.0997 21.5287 16.6101 21.9651 16.5916 21.8537C16.5362 21.5937 16.841 20.6743 17.2013 19.9777C17.617 19.1791 18.5593 18.1668 19.4739 17.526C19.8526 17.2659 20.6748 16.8016 21.303 16.4951C21.9405 16.1979 22.5132 15.8822 22.5779 15.7986C22.7811 15.5479 21.728 15.6222 20.8226 15.9286Z" fill="white"/>
<path d="M23.2249 22.3739C23.0494 22.4667 22.8738 22.8011 22.4396 23.8969C22.1255 24.6677 21.6729 25.6429 21.4142 26.0701C20.786 27.1381 19.428 28.5032 18.5504 28.9676C16.1485 30.2213 13.2847 29.5341 11.6218 27.3145C11.3354 26.9337 11.0675 26.618 11.0306 26.618C10.9936 26.618 10.9936 26.813 11.0398 27.0452C11.28 28.3454 12.7027 29.757 14.4302 30.4071C15.2524 30.7135 16.943 30.7971 17.9037 30.5742C20.0285 30.0727 21.8484 28.2989 23.0863 25.5314C23.3173 25.0392 23.5113 24.6956 23.539 24.7699C23.5574 24.8442 23.6683 25.2157 23.7792 25.5964C24.1025 26.7016 24.7492 27.8717 25.4051 28.5311C25.7192 28.8469 26.061 29.1348 26.1626 29.1626C26.3289 29.2183 26.2642 29.2741 25.7654 29.5341C24.3612 30.2771 23.3634 31.3543 22.569 32.9796C22.1533 33.8525 21.6544 35.4127 21.6544 35.8771C21.6544 36.0721 21.6267 36.0628 21.174 35.7192C19.7144 34.6048 18.0053 34.094 15.9914 34.159C15.4464 34.1776 15.003 34.159 15.003 34.1311C15.003 34.094 15.0676 33.9082 15.1508 33.7132C15.3632 33.2117 15.3817 32.0601 15.1692 31.8558C14.966 31.6515 14.8459 31.7444 14.578 32.348C14.0791 33.481 13.1184 34.5676 12.3147 34.902C12.0652 35.0041 11.8435 35.1713 11.8158 35.2641C11.7327 35.5149 12.0837 36.23 12.3701 36.425C12.6103 36.5829 12.638 36.5829 12.9059 36.4343C13.4509 36.1185 14.9106 35.7935 16.0376 35.7471C17.3679 35.6821 18.5134 35.9142 19.6128 36.4714C20.4812 36.9079 21.4234 37.8459 21.8022 38.6446C22.0609 39.2111 22.3473 39.5269 22.5782 39.5269C22.6706 39.5269 22.8092 39.3411 22.9385 39.0532C23.114 38.6817 23.1417 38.5146 23.0771 38.2453C22.9108 37.5394 22.9939 36.1 23.2526 35.1434C23.8715 32.8217 25.2018 31.2893 27.3543 30.4071C27.9917 30.147 28.195 30.1099 29.0911 30.082C29.6546 30.0727 30.1904 30.0356 30.292 30.017C30.523 29.9613 30.8001 29.4134 30.8001 29.0233C30.8001 28.7911 30.7447 28.7261 30.4583 28.5961C30.1812 28.4847 29.9687 28.4754 29.3497 28.5404C28.4721 28.6333 27.964 28.5404 27.1788 28.1411C26.4397 27.7696 26.1996 27.5653 25.7654 26.9709C25.2388 26.2558 24.86 25.2435 24.5644 23.7669C24.4258 23.1168 24.2503 22.5039 24.1764 22.411C24.0009 22.2253 23.5574 22.2067 23.2249 22.3739Z" fill="white"/>
<path d="M32.001 47.0769C32.001 47.1698 32.5183 48.3678 32.8047 48.9529C33.7008 50.7546 35.0957 52.3148 36.3891 52.9556C37.2667 53.392 38.2367 53.4942 38.7171 53.1877C39.0404 52.9834 39.4931 52.3519 39.6501 51.8876C39.8349 51.3489 39.7518 51.3211 38.1074 51.3396C36.7032 51.3675 36.657 51.3582 36.1581 51.1167C35.4191 50.7546 34.5045 49.9559 33.7008 48.9715C32.9802 48.1078 32.001 47.0119 32.001 47.0769Z" fill="white"/>
<path d="M23.4556 47.7557C23.9545 48.1922 24.8136 48.5358 25.6543 48.6473C26.3749 48.7401 26.5504 48.7309 27.5389 48.5358C28.1393 48.4151 28.8784 48.3129 29.1833 48.3129C30.2734 48.3222 30.5967 48.7401 31.1602 50.9226C31.9639 53.9966 32.5552 54.9624 34.3104 56.0954C35.3543 56.7641 35.8439 57.2841 35.9825 57.8599C36.1211 58.445 36.1303 59.7916 36.0287 63.1164C35.9548 65.3731 35.964 65.7446 36.1026 66.2739C36.3705 67.3419 36.9617 68.0477 37.4698 67.9177C38.0611 67.7691 38.8556 66.4225 39.4745 64.5373C40.1674 62.4663 40.1766 62.3548 40.1766 58.5193C40.1766 54.8603 40.1951 54.7117 40.657 53.6437C40.9526 52.9657 41.0727 52.4364 40.9249 52.4364C40.7586 52.4364 40.5739 52.6128 40.1027 53.1886C39.3637 54.1266 39.3452 54.2473 39.3359 57.9621C39.3359 61.1568 39.3267 61.2311 39.0958 62.1412C38.7817 63.3207 38.4398 64.2865 38.0241 65.113C37.553 66.0696 37.4329 66.2275 37.3497 66.0603C37.1742 65.7446 37.0818 63.9986 37.1003 61.3054C37.128 58.1664 37.0818 57.6835 36.6384 56.8569C36.3336 56.2997 35.7977 55.8168 34.7908 55.2039C33.1002 54.1823 32.7307 53.5879 31.733 50.3468C31.5297 49.6781 31.2249 48.9073 31.0586 48.6287C30.4674 47.6443 29.4696 47.4307 27.6128 47.9136C27.1047 48.0436 26.5134 48.1736 26.3102 48.2108C25.719 48.3037 24.5457 48.0993 23.8806 47.7929C23.1692 47.4586 23.0953 47.4493 23.4556 47.7557Z" fill="white"/>
<path d="M20.7579 48.5638C22.6886 51.0434 24.952 55.0368 26.273 58.2408C27.4278 61.0733 28.3516 63.8872 28.7211 65.6982C28.8967 66.5804 29.22 68.6329 29.183 68.67C29.1738 68.6793 28.832 68.1964 28.4348 67.5834C27.7881 66.599 27.474 66.2647 27.474 66.5526C27.474 66.729 28.213 67.9735 28.7858 68.7629C29.3308 69.5244 29.3493 69.5708 29.608 70.7781C29.7466 71.4561 29.9313 72.2641 30.0052 72.5705C30.0884 72.877 30.153 73.1649 30.153 73.2113C30.153 73.2578 29.9683 73.3878 29.7466 73.4899L29.3493 73.685L27.7604 72.3755C25.885 70.8246 25.9312 70.8617 25.8481 70.9453C25.7465 71.0475 26.8181 72.1062 27.9636 73.0349C28.8689 73.7685 28.9521 73.8521 28.795 73.9636C27.3631 74.948 24.5178 76.7868 23.012 77.6876C21.9588 78.3284 21.1182 78.8578 21.1459 78.8857C21.2383 78.9785 22.6055 78.5699 23.8249 78.0963C25.3862 77.474 26.2176 77.0654 27.7973 76.1181C29.183 75.2916 29.7281 75.013 32.555 73.62C35.8252 72.0226 37.2387 70.9825 41.8393 66.7848C43.2989 65.4567 44.2596 64.6766 45.3036 63.9708C45.8301 63.6086 46.2828 63.3207 46.292 63.3393C46.3105 63.3579 46.2089 63.5715 46.0796 63.8222L45.8301 64.2773L46.2366 63.8965C47.8348 62.4013 50.8649 60.7947 52.0936 60.7947C52.3245 60.7947 52.3338 60.8132 52.2783 61.0919C52.1305 61.8441 51.5855 62.7356 50.6155 63.7851C50.0797 64.3609 49.6455 64.8624 49.6455 64.8995C49.6455 64.9274 49.202 65.3453 48.657 65.8096C48.1027 66.2833 47.6223 66.729 47.5854 66.794C47.5484 66.8591 47.3175 67.0541 47.0773 67.212C45.8948 68.0106 46.3659 68.2242 47.7886 67.5277C48.7032 67.0819 48.8602 66.9705 50.1998 65.8932C52.2506 64.2401 53.3222 62.5871 53.4146 60.9061C53.4516 60.2467 53.4331 60.1074 53.2853 59.9496C52.9527 59.5781 52.6201 59.4759 51.9088 59.5131L51.2529 59.5409L52.0104 58.8258C52.8511 58.0272 52.8511 58.0179 53.9966 54.8975C54.2553 54.1824 54.5694 53.3837 54.6802 53.1144C54.865 52.7057 54.8742 52.6129 54.7634 52.52C54.5601 52.3528 54.1352 52.5757 53.4516 53.2165C52.7218 53.9038 51.9273 55.0832 51.2159 56.5691C50.5231 57.9993 50.3845 58.4265 50.3845 59.2066V59.8381L49.9965 60.0146C49.784 60.1074 49.396 60.321 49.1374 60.4696C48.8879 60.6275 48.3337 60.8411 47.9179 60.9526C46.2089 61.4169 44.8232 62.132 43.419 63.2836C43.0679 63.5715 41.9224 64.6302 40.8877 65.6239C36.4719 69.8495 35.3264 70.7503 32.6289 72.0969C31.8713 72.4777 31.2339 72.7748 31.2062 72.7563C31.1877 72.7284 31.3817 72.4869 31.6404 72.2083C31.899 71.9297 32.1485 71.6047 32.1947 71.4747C32.3794 71.0196 32.4071 68.3543 32.2409 67.2212C31.742 63.8687 29.4509 58.4822 26.7904 54.4331C25.5432 52.5479 24.4439 51.1641 23.0859 49.7803C21.6355 48.313 20.841 47.7001 20.3976 47.7001H20.0835L20.7579 48.5638Z" fill="white"/>
<path d="M22.6241 54.7295C22.1437 54.7945 21.8389 54.9524 21.8389 55.1474C21.8389 55.491 22.2176 55.8811 22.8181 56.1504C23.6495 56.5312 24.3793 57.0234 24.8967 57.5527L25.3494 58.0171V57.7106C25.3494 57.2091 24.7951 56.5219 23.7973 55.8068L23.2061 55.3796L23.511 55.2496C23.8435 55.1103 24.1484 54.8688 24.1484 54.7388C24.1484 54.6645 23.1692 54.6552 22.6241 54.7295Z" fill="white"/>
<path d="M25.396 62.2706C23.5484 62.7721 21.6545 63.8494 20.1118 65.2889C18.5043 66.7841 17.4697 68.6693 16.3519 72.1148C15.7976 73.8236 14.7444 77.6312 14.0331 80.4638C13.0908 84.2714 12.5919 85.8316 11.1231 89.5835C8.75813 95.6386 8.6288 96.038 8.77661 96.8088L8.83204 97.0874L9.34013 96.6045C9.62651 96.3444 10.1531 95.6665 10.5226 95.1093C10.8921 94.5428 11.3171 93.9298 11.4834 93.7255C11.7513 93.3819 13.5158 89.89 13.6636 89.3978C13.7005 89.2678 13.9592 88.757 14.2363 88.2555C14.7906 87.2525 15.3634 85.8223 15.9823 83.9092C16.2041 83.2127 16.6105 82.0147 16.8877 81.2624C17.211 80.3709 17.7191 78.5321 18.3288 76.0803C19.4004 71.7619 19.9178 70.0531 20.509 68.8922C21.673 66.5891 24.1765 64.128 26.6246 62.865C27.7055 62.3078 27.724 62.1499 26.7355 62.122C26.2921 62.1035 25.8117 62.1592 25.396 62.2706Z" fill="white"/>
<path d="M51.8629 64.5738C51.8629 64.6666 51.9461 65.0567 52.0477 65.4375C52.1493 65.8182 52.2602 66.394 52.2879 66.7005L52.3526 67.2763L51.9461 67.7128C51.4288 68.2793 51.0038 68.4836 50.1077 68.6136C49.6273 68.6879 49.3687 68.7715 49.3687 68.8458C49.3687 69.0594 49.8952 69.2451 50.5049 69.2451C51.1886 69.2451 51.826 68.9665 52.3064 68.4743L52.6112 68.1585L53.4057 68.3721C53.8399 68.4929 54.2371 68.5672 54.2741 68.5393C54.505 68.4 54.5789 67.3877 54.3572 67.3877C54.311 67.3877 54.1909 67.1927 54.0801 66.9512C53.96 66.6819 53.5628 66.1711 53.0824 65.6696C52.6389 65.2053 52.214 64.7409 52.1401 64.6202C51.983 64.3788 51.8629 64.3509 51.8629 64.5738ZM53.4611 67.1091C53.2579 67.1463 53.2025 67.2113 53.1932 67.3877C53.1932 67.6756 53.1101 67.8242 52.8791 67.9449C52.7221 68.0285 52.7129 68.0192 52.8422 67.7592C53.0454 67.3599 53.0916 66.9141 52.99 66.4962L52.8884 66.134L53.3041 66.5983L53.7198 67.0627L53.4611 67.1091Z" fill="white"/>
<path d="M48.4448 68.0939C47.2623 69.292 45.8304 70.5828 43.7795 72.3102C42.1536 73.6754 40.5554 75.0591 40.2136 75.3842C38.9942 76.5822 38.172 77.7245 37.3683 79.3404C36.7216 80.6406 36.4722 81.3093 35.3082 84.7547C32.5645 92.9365 31.8531 94.0138 26.1532 98.713C25.2756 99.4281 24.5273 100.245 24.5181 100.487C24.5181 100.533 24.7398 100.543 25.0077 100.505C25.6636 100.431 26.9292 99.7717 28.5828 98.6759C32.6384 95.9641 33.7747 94.0695 36.7031 85.0891C37.6916 82.0615 38.1535 80.8821 38.7632 79.7955C39.6686 78.1796 40.6016 77.1116 43.0405 74.9106C46.0152 72.2173 47.1792 70.9915 48.685 68.9669C49.4979 67.8896 50.394 66.3666 50.2277 66.3666C50.1816 66.3666 49.3871 67.1467 48.4448 68.0939Z" fill="white"/>
<path d="M47.798 71.5669C47.798 71.6877 48.0474 72.4121 48.3523 73.1736C49.3223 75.5789 49.7288 77.5849 49.6087 79.4701C49.5163 81.0303 49.4793 81.0675 48.9528 80.0181C48.5648 79.2472 48.4816 78.9779 48.2969 77.8449C48.1768 77.1391 48.0567 76.5355 48.029 76.4983C47.992 76.4705 47.9828 77.102 48.0012 77.9006C48.0197 78.8479 48.0012 79.3308 47.9366 79.303C47.4192 79.0058 46.3846 78.0492 45.9319 77.4363C45.7287 77.1577 45.5439 76.9627 45.5162 76.9812C45.4885 77.0091 45.6086 77.3156 45.7749 77.6685C46.1351 78.4393 46.9111 79.238 47.641 79.6002C48.1306 79.8323 48.1675 79.8788 48.5463 80.6867C48.9435 81.5226 49.3592 82.0055 49.6364 81.9498C49.8673 81.9033 50.1814 81.2439 50.2831 80.5753C50.6341 78.4021 50.0983 75.6068 48.8142 72.9971C48.4632 72.282 48.0844 71.6134 47.9828 71.5205C47.798 71.3533 47.798 71.3533 47.798 71.5669Z" fill="white"/>
<path d="M44.7587 75.068C44.6478 75.2816 44.2876 77.4269 44.2876 77.8726C44.2876 78.5691 43.6409 82.9526 43.3453 84.2435C43.1513 85.0886 42.8095 85.9523 42.597 86.1287C42.5231 86.1937 42.2921 86.203 41.9318 86.1473C41.3776 86.073 39.9641 86.1566 38.6985 86.3423C38.3013 86.398 37.8763 86.5374 37.5899 86.6952C37.3405 86.8345 36.971 87.011 36.7862 87.0667C36.3797 87.206 36.2412 87.3453 36.583 87.2803C36.8047 87.2432 36.8139 87.2524 36.7215 87.4382C36.6569 87.5403 36.6292 87.6332 36.6384 87.6425C36.6569 87.6425 37.516 87.7075 38.5599 87.7725C41.821 87.9954 42.2737 88.079 43.0312 88.5898C43.2252 88.7291 43.4654 88.8498 43.5578 88.8498C43.8072 88.8684 43.8626 88.8777 43.9735 88.952C44.0381 88.9984 44.1305 88.7755 44.2229 88.3483C44.537 86.9646 44.5739 86.4166 44.5185 84.0577C44.4723 82.2096 44.4816 81.5503 44.5924 80.8073C44.6756 80.2965 44.7679 79.4793 44.7957 78.9963C44.8326 78.5134 44.9619 77.4547 45.0913 76.656C45.2206 75.8481 45.3038 75.133 45.2668 75.0494C45.2021 74.8544 44.8696 74.8729 44.7587 75.068Z" fill="white"/>
<path d="M45.5808 79.099C45.5808 79.1362 45.6455 79.3219 45.7286 79.5169C46.2182 80.6778 46.7263 83.1388 46.8372 84.9034C46.9111 85.9714 46.8002 88.0052 46.6801 88.0052C46.5508 88.0052 46.3476 87.4294 46.0335 86.1664C45.8764 85.5163 45.7009 84.9405 45.6547 84.8941C45.5346 84.7733 45.6455 86.25 45.821 87.1229C45.8949 87.4758 45.9503 87.7823 45.9503 87.7916C45.9503 87.8009 45.8117 87.7637 45.6547 87.7173C45.4884 87.6709 45.2667 87.6337 45.1651 87.6337C44.8602 87.6337 45.1928 87.8009 45.6455 87.8752C45.9596 87.9216 46.0519 87.9866 46.1443 88.2002C46.1997 88.3581 46.366 88.5996 46.5046 88.7482C47.0035 89.2868 47.2898 88.8596 47.4377 87.383C47.6686 85.1541 47.2252 82.2937 46.3753 80.4363C46.0981 79.8234 45.5808 78.9597 45.5808 79.099Z" fill="white"/>
<path d="M40.6939 88.1716C40.6846 88.3853 40.6662 88.3853 40.0657 88.3203L39.4375 88.2552L39.613 88.4504C39.8255 88.6919 40.3428 88.8778 40.6477 88.8127C40.7955 88.7849 40.8694 88.8127 40.8694 88.8964C40.8694 88.9707 40.9895 89.1565 41.1281 89.3145C41.3683 89.5932 41.396 89.5932 41.5438 89.4539C41.7378 89.2587 41.747 89.0264 41.5623 89.0264C41.4422 89.0264 41.1743 88.7105 40.8047 88.1344C40.7031 87.9672 40.6939 87.9672 40.6939 88.1716Z" fill="white"/>
<path d="M41.9412 88.4228C41.9135 88.5064 41.895 88.6922 41.895 88.8222C41.9043 89.0079 41.9227 88.9801 41.9782 88.7015C42.0521 88.3021 42.0428 88.1721 41.9412 88.4228Z" fill="white"/>
</svg>
