<svg width="79" height="99" viewBox="0 0 79 99" fill="none" xmlns="http://www.w3.org/2000/svg">
<mask id="path-1-outside-1_21_856" maskUnits="userSpaceOnUse" x="-0.672852" y="-0.435059" width="79" height="56" fill="black">
<rect fill="white" x="-0.672852" y="-0.435059" width="79" height="56"/>
<path d="M38.5379 0.757751C36.9656 1.03627 35.9234 1.49447 34.2074 2.63549C33.0214 3.41713 32.1859 3.8933 31.4222 4.20775C30.955 4.39642 30.3082 4.50423 28.6191 4.66595C26.6156 4.85463 25.241 5.25892 23.8933 6.05853C23.3004 6.40892 22.6625 6.91205 21.3867 8.02611C20.2457 9.01439 19.9492 9.16713 18.9699 9.239C17.8019 9.32885 16.0859 9.62533 15.2324 9.89486C13.5703 10.416 11.9441 11.4851 10.857 12.7699C9.77886 14.0456 8.98824 16.4265 8.17066 20.8738C7.70347 23.4433 7.46988 23.8386 5.08004 26.2285C3.09449 28.205 2.52847 28.9507 1.65699 30.7206C0.704645 32.6792 0.318317 34.2425 0.327301 36.1562C0.336286 38.2945 0.857379 40.2351 2.24996 43.2988C3.85816 46.8566 4.74761 48.1054 6.47261 49.2644C7.77535 50.1359 9.4734 50.5312 11.3511 50.4054C13.5613 50.2527 14.9808 49.5519 17.3707 47.4406C19.1046 45.9132 19.0238 45.9312 22.5546 45.8593C25.1691 45.7964 25.5105 45.7695 27.0019 45.5089C28.9964 45.1585 30.2093 45.1316 31.0898 45.4011C31.4132 45.4999 32.2218 45.8503 32.8867 46.1828C33.5515 46.5062 34.8453 47.0812 35.7617 47.4496C38.5828 48.5906 39.005 48.8421 40.4875 50.2527C41.2511 50.9894 42.0687 51.6722 42.5269 51.9687C42.9492 52.2382 43.2996 52.5078 43.2996 52.5707C43.3086 52.6335 43.4972 53.0289 43.7308 53.4601C44.3418 54.5562 44.8179 54.8347 45.2043 54.3046C45.4379 53.9812 45.5187 53.5859 45.357 53.5859C45.2851 53.5859 45.0695 53.4421 44.8718 53.2624C44.5574 52.9749 44.5484 52.948 44.7461 52.9929C46.0578 53.2894 47.1539 53.2804 48.1691 52.966C48.5015 52.8582 49.364 52.5078 50.1007 52.1843C53.0027 50.8996 53.9191 50.7109 56.7132 50.8726C60.8011 51.1152 61.9871 50.9624 63.3527 50.046C63.6043 49.8753 64.5656 48.9949 65.482 48.0874C67.0093 46.5871 67.2339 46.3984 67.9707 46.021C68.4199 45.7874 69.4351 45.4011 70.2617 45.1496C72.2382 44.5296 73.0199 44.2152 73.8465 43.6761C75.4906 42.607 76.7125 40.882 77.4851 38.555C77.8445 37.4499 77.9254 36.821 77.8714 35.3206C77.8175 33.7124 77.6109 32.823 76.964 31.5292C76.2812 30.1546 75.4367 29.3281 73.9902 28.6003C72.3191 27.7738 71.0613 27.6929 68.7343 28.2949C66.7129 28.807 65.2933 30.2355 64.7812 32.257C64.5656 33.1015 64.5476 34.3593 64.7363 35.123C64.889 35.7429 65.7515 37.4949 66.2367 38.1687C66.5871 38.6718 67.6922 39.5703 68.2222 39.7949C69.0308 40.1273 70.064 39.8488 70.5492 39.166C71.1691 38.2855 71.789 36.5335 71.789 35.6621C71.789 35.2667 71.4925 34.2515 71.3129 34.0179C71.2679 33.964 71.1152 33.9101 70.9715 33.9101C70.657 33.9101 69.4621 34.3054 68.914 34.5929C68.5726 34.7636 68.5457 34.7996 68.7343 34.7996C68.8601 34.7996 69.2015 34.7456 69.498 34.6738C70.3515 34.4671 70.4054 34.4761 70.5312 34.9433C70.7918 35.8777 70.2617 36.9828 69.5609 36.9648C69.2734 36.9558 68.7343 36.7132 68.2043 36.3718C67.791 36.0933 67.6472 35.9406 67.5574 35.6621C67.3418 35.0421 67.4136 34.2335 67.755 33.3261L68.0605 32.5175L68.7793 32.0863C70.1 31.3046 70.9715 31.116 72.1933 31.3496C73.514 31.6011 74.4574 32.3019 74.8437 33.3351C75.1312 34.1257 75.3199 35.3835 75.257 36.1382C75.0504 38.3753 73.5949 40.4058 71.4027 41.5019C70.9715 41.7265 69.9652 42.1039 69.1746 42.3554C66.5511 43.191 65.5808 43.721 63.9277 45.2124C62.2746 46.6949 61.8613 47.0273 61.2324 47.3597L60.6035 47.6921L57.4589 47.755C54.1707 47.8179 53.7843 47.8628 51.9785 48.321C50.8644 48.5996 50.1906 48.8331 48.4476 49.5339C47.1718 50.046 47.0281 50.082 46.3722 50.082C45.5636 50.082 44.6472 49.9113 43.9285 49.6328C43.3625 49.4081 42.8414 49.0308 41.7363 48.0156C41.2961 47.6113 40.6941 47.1171 40.3976 46.9195C39.5531 46.3355 37.9988 45.6527 36.1121 45.0148C35.1418 44.6914 33.7492 44.1703 33.0125 43.8468C31.1886 43.0562 31.0808 43.0292 29.5625 43.0382C28.4664 43.0472 28.0351 43.0921 26.8671 43.3257C24.8906 43.73 23.7586 43.8828 22.8062 43.8828C21.6562 43.8917 19.7515 44.0355 19.3113 44.1523C19.1046 44.2062 18.9339 44.2421 18.916 44.2242C18.898 44.2062 18.9429 43.9367 19.0238 43.6132C19.1136 43.2179 19.1406 42.8136 19.1046 42.3554C19.0148 41.1425 18.9429 40.6484 18.8621 40.7023C18.8261 40.7203 18.6824 40.5316 18.5566 40.28C18.2062 39.5972 17.5503 38.9863 16.7418 38.6089C15.2414 37.8902 13.3277 38.1687 12.2586 39.2738C11.8363 39.705 11.7464 40.0554 12.025 40.1273C12.1238 40.1542 12.5371 40.0644 12.9503 39.9206C14.5496 39.3906 15.6457 39.3906 16.7058 39.9296C17.6671 40.4148 17.9007 40.8371 17.9007 42.0769C17.9007 42.8585 17.73 43.5503 17.2988 44.4667C16.9304 45.2664 16.8945 45.3113 16.032 45.9851C13.8398 47.7281 12.7976 48.1953 11.1894 48.1953C10.4168 48.1953 9.16793 47.9886 8.48512 47.746C7.42496 47.3777 6.23902 46.2636 5.5023 44.9609C4.98121 44.0355 3.52574 40.7113 3.1484 39.5703C2.76207 38.3933 2.46558 37.1265 2.38472 36.2011C2.25894 34.8355 2.78004 32.7242 3.63355 31.1968C4.26246 30.0468 4.8734 29.3101 6.20308 28.0613C8.6109 25.8062 9.41949 24.3328 9.9316 21.2152C10.5066 17.6843 11.0546 15.6808 11.7015 14.6835C12.6449 13.255 14.9 11.4671 16.2207 11.0988C16.4183 11.0449 17.3707 10.9191 18.341 10.8203C20.3625 10.6136 20.9914 10.4699 21.5843 10.0925C22.1144 9.75111 22.8332 8.97845 23.3543 8.19682C23.7136 7.64877 23.7945 7.57689 24.5222 7.24447C26.0226 6.53471 27.0019 6.3101 29.3109 6.14838C31.6289 5.98666 32.5902 5.64525 34.8273 4.16283C36.9746 2.7433 37.873 2.39291 39.6789 2.31205C41.898 2.20424 43.2277 2.67142 46.4171 4.639C49.1304 6.31908 49.7234 6.55267 52.832 7.1726C56.5425 7.90931 57.2254 8.19682 58.6269 9.60736C59.13 10.1015 59.9656 11.0179 60.5047 11.6558C61.9511 13.3628 62.9484 14.2343 66.1019 16.5163C68.5367 18.2863 69.498 19.4632 69.9382 21.2511C70.0191 21.5746 70.1449 22.7695 70.2168 23.9015C70.3695 26.1386 70.3605 26.1206 70.639 26.7316C70.8726 27.2617 71.1691 27.4503 71.4207 27.2257C71.6183 27.046 72.2922 25.4109 72.6066 24.3417C72.7953 23.7218 72.8222 23.4253 72.8222 22.2304C72.8222 21.0085 72.7953 20.757 72.6156 20.2179C71.9777 18.3132 70.9355 16.7769 69.4621 15.555C69.0308 15.2136 67.8179 14.3511 66.7488 13.6413C64.2421 11.9882 63.7839 11.6109 61.3671 9.24799C58.3214 6.27416 57.7464 5.98666 53.2632 5.24994C49.93 4.70189 49.5707 4.56713 46.6058 2.80619C44.9976 1.84486 43.7218 1.24291 42.6617 0.928455C42.1316 0.775719 41.7183 0.730797 40.4785 0.703846C39.6429 0.694859 38.7625 0.71283 38.5379 0.757751Z"/>
</mask>
<path d="M38.5379 0.757751C36.9656 1.03627 35.9234 1.49447 34.2074 2.63549C33.0214 3.41713 32.1859 3.8933 31.4222 4.20775C30.955 4.39642 30.3082 4.50423 28.6191 4.66595C26.6156 4.85463 25.241 5.25892 23.8933 6.05853C23.3004 6.40892 22.6625 6.91205 21.3867 8.02611C20.2457 9.01439 19.9492 9.16713 18.9699 9.239C17.8019 9.32885 16.0859 9.62533 15.2324 9.89486C13.5703 10.416 11.9441 11.4851 10.857 12.7699C9.77886 14.0456 8.98824 16.4265 8.17066 20.8738C7.70347 23.4433 7.46988 23.8386 5.08004 26.2285C3.09449 28.205 2.52847 28.9507 1.65699 30.7206C0.704645 32.6792 0.318317 34.2425 0.327301 36.1562C0.336286 38.2945 0.857379 40.2351 2.24996 43.2988C3.85816 46.8566 4.74761 48.1054 6.47261 49.2644C7.77535 50.1359 9.4734 50.5312 11.3511 50.4054C13.5613 50.2527 14.9808 49.5519 17.3707 47.4406C19.1046 45.9132 19.0238 45.9312 22.5546 45.8593C25.1691 45.7964 25.5105 45.7695 27.0019 45.5089C28.9964 45.1585 30.2093 45.1316 31.0898 45.4011C31.4132 45.4999 32.2218 45.8503 32.8867 46.1828C33.5515 46.5062 34.8453 47.0812 35.7617 47.4496C38.5828 48.5906 39.005 48.8421 40.4875 50.2527C41.2511 50.9894 42.0687 51.6722 42.5269 51.9687C42.9492 52.2382 43.2996 52.5078 43.2996 52.5707C43.3086 52.6335 43.4972 53.0289 43.7308 53.4601C44.3418 54.5562 44.8179 54.8347 45.2043 54.3046C45.4379 53.9812 45.5187 53.5859 45.357 53.5859C45.2851 53.5859 45.0695 53.4421 44.8718 53.2624C44.5574 52.9749 44.5484 52.948 44.7461 52.9929C46.0578 53.2894 47.1539 53.2804 48.1691 52.966C48.5015 52.8582 49.364 52.5078 50.1007 52.1843C53.0027 50.8996 53.9191 50.7109 56.7132 50.8726C60.8011 51.1152 61.9871 50.9624 63.3527 50.046C63.6043 49.8753 64.5656 48.9949 65.482 48.0874C67.0093 46.5871 67.2339 46.3984 67.9707 46.021C68.4199 45.7874 69.4351 45.4011 70.2617 45.1496C72.2382 44.5296 73.0199 44.2152 73.8465 43.6761C75.4906 42.607 76.7125 40.882 77.4851 38.555C77.8445 37.4499 77.9254 36.821 77.8714 35.3206C77.8175 33.7124 77.6109 32.823 76.964 31.5292C76.2812 30.1546 75.4367 29.3281 73.9902 28.6003C72.3191 27.7738 71.0613 27.6929 68.7343 28.2949C66.7129 28.807 65.2933 30.2355 64.7812 32.257C64.5656 33.1015 64.5476 34.3593 64.7363 35.123C64.889 35.7429 65.7515 37.4949 66.2367 38.1687C66.5871 38.6718 67.6922 39.5703 68.2222 39.7949C69.0308 40.1273 70.064 39.8488 70.5492 39.166C71.1691 38.2855 71.789 36.5335 71.789 35.6621C71.789 35.2667 71.4925 34.2515 71.3129 34.0179C71.2679 33.964 71.1152 33.9101 70.9715 33.9101C70.657 33.9101 69.4621 34.3054 68.914 34.5929C68.5726 34.7636 68.5457 34.7996 68.7343 34.7996C68.8601 34.7996 69.2015 34.7456 69.498 34.6738C70.3515 34.4671 70.4054 34.4761 70.5312 34.9433C70.7918 35.8777 70.2617 36.9828 69.5609 36.9648C69.2734 36.9558 68.7343 36.7132 68.2043 36.3718C67.791 36.0933 67.6472 35.9406 67.5574 35.6621C67.3418 35.0421 67.4136 34.2335 67.755 33.3261L68.0605 32.5175L68.7793 32.0863C70.1 31.3046 70.9715 31.116 72.1933 31.3496C73.514 31.6011 74.4574 32.3019 74.8437 33.3351C75.1312 34.1257 75.3199 35.3835 75.257 36.1382C75.0504 38.3753 73.5949 40.4058 71.4027 41.5019C70.9715 41.7265 69.9652 42.1039 69.1746 42.3554C66.5511 43.191 65.5808 43.721 63.9277 45.2124C62.2746 46.6949 61.8613 47.0273 61.2324 47.3597L60.6035 47.6921L57.4589 47.755C54.1707 47.8179 53.7843 47.8628 51.9785 48.321C50.8644 48.5996 50.1906 48.8331 48.4476 49.5339C47.1718 50.046 47.0281 50.082 46.3722 50.082C45.5636 50.082 44.6472 49.9113 43.9285 49.6328C43.3625 49.4081 42.8414 49.0308 41.7363 48.0156C41.2961 47.6113 40.6941 47.1171 40.3976 46.9195C39.5531 46.3355 37.9988 45.6527 36.1121 45.0148C35.1418 44.6914 33.7492 44.1703 33.0125 43.8468C31.1886 43.0562 31.0808 43.0292 29.5625 43.0382C28.4664 43.0472 28.0351 43.0921 26.8671 43.3257C24.8906 43.73 23.7586 43.8828 22.8062 43.8828C21.6562 43.8917 19.7515 44.0355 19.3113 44.1523C19.1046 44.2062 18.9339 44.2421 18.916 44.2242C18.898 44.2062 18.9429 43.9367 19.0238 43.6132C19.1136 43.2179 19.1406 42.8136 19.1046 42.3554C19.0148 41.1425 18.9429 40.6484 18.8621 40.7023C18.8261 40.7203 18.6824 40.5316 18.5566 40.28C18.2062 39.5972 17.5503 38.9863 16.7418 38.6089C15.2414 37.8902 13.3277 38.1687 12.2586 39.2738C11.8363 39.705 11.7464 40.0554 12.025 40.1273C12.1238 40.1542 12.5371 40.0644 12.9503 39.9206C14.5496 39.3906 15.6457 39.3906 16.7058 39.9296C17.6671 40.4148 17.9007 40.8371 17.9007 42.0769C17.9007 42.8585 17.73 43.5503 17.2988 44.4667C16.9304 45.2664 16.8945 45.3113 16.032 45.9851C13.8398 47.7281 12.7976 48.1953 11.1894 48.1953C10.4168 48.1953 9.16793 47.9886 8.48512 47.746C7.42496 47.3777 6.23902 46.2636 5.5023 44.9609C4.98121 44.0355 3.52574 40.7113 3.1484 39.5703C2.76207 38.3933 2.46558 37.1265 2.38472 36.2011C2.25894 34.8355 2.78004 32.7242 3.63355 31.1968C4.26246 30.0468 4.8734 29.3101 6.20308 28.0613C8.6109 25.8062 9.41949 24.3328 9.9316 21.2152C10.5066 17.6843 11.0546 15.6808 11.7015 14.6835C12.6449 13.255 14.9 11.4671 16.2207 11.0988C16.4183 11.0449 17.3707 10.9191 18.341 10.8203C20.3625 10.6136 20.9914 10.4699 21.5843 10.0925C22.1144 9.75111 22.8332 8.97845 23.3543 8.19682C23.7136 7.64877 23.7945 7.57689 24.5222 7.24447C26.0226 6.53471 27.0019 6.3101 29.3109 6.14838C31.6289 5.98666 32.5902 5.64525 34.8273 4.16283C36.9746 2.7433 37.873 2.39291 39.6789 2.31205C41.898 2.20424 43.2277 2.67142 46.4171 4.639C49.1304 6.31908 49.7234 6.55267 52.832 7.1726C56.5425 7.90931 57.2254 8.19682 58.6269 9.60736C59.13 10.1015 59.9656 11.0179 60.5047 11.6558C61.9511 13.3628 62.9484 14.2343 66.1019 16.5163C68.5367 18.2863 69.498 19.4632 69.9382 21.2511C70.0191 21.5746 70.1449 22.7695 70.2168 23.9015C70.3695 26.1386 70.3605 26.1206 70.639 26.7316C70.8726 27.2617 71.1691 27.4503 71.4207 27.2257C71.6183 27.046 72.2922 25.4109 72.6066 24.3417C72.7953 23.7218 72.8222 23.4253 72.8222 22.2304C72.8222 21.0085 72.7953 20.757 72.6156 20.2179C71.9777 18.3132 70.9355 16.7769 69.4621 15.555C69.0308 15.2136 67.8179 14.3511 66.7488 13.6413C64.2421 11.9882 63.7839 11.6109 61.3671 9.24799C58.3214 6.27416 57.7464 5.98666 53.2632 5.24994C49.93 4.70189 49.5707 4.56713 46.6058 2.80619C44.9976 1.84486 43.7218 1.24291 42.6617 0.928455C42.1316 0.775719 41.7183 0.730797 40.4785 0.703846C39.6429 0.694859 38.7625 0.71283 38.5379 0.757751Z" fill="#318D69"/>
<path d="M38.5379 0.757751C36.9656 1.03627 35.9234 1.49447 34.2074 2.63549C33.0214 3.41713 32.1859 3.8933 31.4222 4.20775C30.955 4.39642 30.3082 4.50423 28.6191 4.66595C26.6156 4.85463 25.241 5.25892 23.8933 6.05853C23.3004 6.40892 22.6625 6.91205 21.3867 8.02611C20.2457 9.01439 19.9492 9.16713 18.9699 9.239C17.8019 9.32885 16.0859 9.62533 15.2324 9.89486C13.5703 10.416 11.9441 11.4851 10.857 12.7699C9.77886 14.0456 8.98824 16.4265 8.17066 20.8738C7.70347 23.4433 7.46988 23.8386 5.08004 26.2285C3.09449 28.205 2.52847 28.9507 1.65699 30.7206C0.704645 32.6792 0.318317 34.2425 0.327301 36.1562C0.336286 38.2945 0.857379 40.2351 2.24996 43.2988C3.85816 46.8566 4.74761 48.1054 6.47261 49.2644C7.77535 50.1359 9.4734 50.5312 11.3511 50.4054C13.5613 50.2527 14.9808 49.5519 17.3707 47.4406C19.1046 45.9132 19.0238 45.9312 22.5546 45.8593C25.1691 45.7964 25.5105 45.7695 27.0019 45.5089C28.9964 45.1585 30.2093 45.1316 31.0898 45.4011C31.4132 45.4999 32.2218 45.8503 32.8867 46.1828C33.5515 46.5062 34.8453 47.0812 35.7617 47.4496C38.5828 48.5906 39.005 48.8421 40.4875 50.2527C41.2511 50.9894 42.0687 51.6722 42.5269 51.9687C42.9492 52.2382 43.2996 52.5078 43.2996 52.5707C43.3086 52.6335 43.4972 53.0289 43.7308 53.4601C44.3418 54.5562 44.8179 54.8347 45.2043 54.3046C45.4379 53.9812 45.5187 53.5859 45.357 53.5859C45.2851 53.5859 45.0695 53.4421 44.8718 53.2624C44.5574 52.9749 44.5484 52.948 44.7461 52.9929C46.0578 53.2894 47.1539 53.2804 48.1691 52.966C48.5015 52.8582 49.364 52.5078 50.1007 52.1843C53.0027 50.8996 53.9191 50.7109 56.7132 50.8726C60.8011 51.1152 61.9871 50.9624 63.3527 50.046C63.6043 49.8753 64.5656 48.9949 65.482 48.0874C67.0093 46.5871 67.2339 46.3984 67.9707 46.021C68.4199 45.7874 69.4351 45.4011 70.2617 45.1496C72.2382 44.5296 73.0199 44.2152 73.8465 43.6761C75.4906 42.607 76.7125 40.882 77.4851 38.555C77.8445 37.4499 77.9254 36.821 77.8714 35.3206C77.8175 33.7124 77.6109 32.823 76.964 31.5292C76.2812 30.1546 75.4367 29.3281 73.9902 28.6003C72.3191 27.7738 71.0613 27.6929 68.7343 28.2949C66.7129 28.807 65.2933 30.2355 64.7812 32.257C64.5656 33.1015 64.5476 34.3593 64.7363 35.123C64.889 35.7429 65.7515 37.4949 66.2367 38.1687C66.5871 38.6718 67.6922 39.5703 68.2222 39.7949C69.0308 40.1273 70.064 39.8488 70.5492 39.166C71.1691 38.2855 71.789 36.5335 71.789 35.6621C71.789 35.2667 71.4925 34.2515 71.3129 34.0179C71.2679 33.964 71.1152 33.9101 70.9715 33.9101C70.657 33.9101 69.4621 34.3054 68.914 34.5929C68.5726 34.7636 68.5457 34.7996 68.7343 34.7996C68.8601 34.7996 69.2015 34.7456 69.498 34.6738C70.3515 34.4671 70.4054 34.4761 70.5312 34.9433C70.7918 35.8777 70.2617 36.9828 69.5609 36.9648C69.2734 36.9558 68.7343 36.7132 68.2043 36.3718C67.791 36.0933 67.6472 35.9406 67.5574 35.6621C67.3418 35.0421 67.4136 34.2335 67.755 33.3261L68.0605 32.5175L68.7793 32.0863C70.1 31.3046 70.9715 31.116 72.1933 31.3496C73.514 31.6011 74.4574 32.3019 74.8437 33.3351C75.1312 34.1257 75.3199 35.3835 75.257 36.1382C75.0504 38.3753 73.5949 40.4058 71.4027 41.5019C70.9715 41.7265 69.9652 42.1039 69.1746 42.3554C66.5511 43.191 65.5808 43.721 63.9277 45.2124C62.2746 46.6949 61.8613 47.0273 61.2324 47.3597L60.6035 47.6921L57.4589 47.755C54.1707 47.8179 53.7843 47.8628 51.9785 48.321C50.8644 48.5996 50.1906 48.8331 48.4476 49.5339C47.1718 50.046 47.0281 50.082 46.3722 50.082C45.5636 50.082 44.6472 49.9113 43.9285 49.6328C43.3625 49.4081 42.8414 49.0308 41.7363 48.0156C41.2961 47.6113 40.6941 47.1171 40.3976 46.9195C39.5531 46.3355 37.9988 45.6527 36.1121 45.0148C35.1418 44.6914 33.7492 44.1703 33.0125 43.8468C31.1886 43.0562 31.0808 43.0292 29.5625 43.0382C28.4664 43.0472 28.0351 43.0921 26.8671 43.3257C24.8906 43.73 23.7586 43.8828 22.8062 43.8828C21.6562 43.8917 19.7515 44.0355 19.3113 44.1523C19.1046 44.2062 18.9339 44.2421 18.916 44.2242C18.898 44.2062 18.9429 43.9367 19.0238 43.6132C19.1136 43.2179 19.1406 42.8136 19.1046 42.3554C19.0148 41.1425 18.9429 40.6484 18.8621 40.7023C18.8261 40.7203 18.6824 40.5316 18.5566 40.28C18.2062 39.5972 17.5503 38.9863 16.7418 38.6089C15.2414 37.8902 13.3277 38.1687 12.2586 39.2738C11.8363 39.705 11.7464 40.0554 12.025 40.1273C12.1238 40.1542 12.5371 40.0644 12.9503 39.9206C14.5496 39.3906 15.6457 39.3906 16.7058 39.9296C17.6671 40.4148 17.9007 40.8371 17.9007 42.0769C17.9007 42.8585 17.73 43.5503 17.2988 44.4667C16.9304 45.2664 16.8945 45.3113 16.032 45.9851C13.8398 47.7281 12.7976 48.1953 11.1894 48.1953C10.4168 48.1953 9.16793 47.9886 8.48512 47.746C7.42496 47.3777 6.23902 46.2636 5.5023 44.9609C4.98121 44.0355 3.52574 40.7113 3.1484 39.5703C2.76207 38.3933 2.46558 37.1265 2.38472 36.2011C2.25894 34.8355 2.78004 32.7242 3.63355 31.1968C4.26246 30.0468 4.8734 29.3101 6.20308 28.0613C8.6109 25.8062 9.41949 24.3328 9.9316 21.2152C10.5066 17.6843 11.0546 15.6808 11.7015 14.6835C12.6449 13.255 14.9 11.4671 16.2207 11.0988C16.4183 11.0449 17.3707 10.9191 18.341 10.8203C20.3625 10.6136 20.9914 10.4699 21.5843 10.0925C22.1144 9.75111 22.8332 8.97845 23.3543 8.19682C23.7136 7.64877 23.7945 7.57689 24.5222 7.24447C26.0226 6.53471 27.0019 6.3101 29.3109 6.14838C31.6289 5.98666 32.5902 5.64525 34.8273 4.16283C36.9746 2.7433 37.873 2.39291 39.6789 2.31205C41.898 2.20424 43.2277 2.67142 46.4171 4.639C49.1304 6.31908 49.7234 6.55267 52.832 7.1726C56.5425 7.90931 57.2254 8.19682 58.6269 9.60736C59.13 10.1015 59.9656 11.0179 60.5047 11.6558C61.9511 13.3628 62.9484 14.2343 66.1019 16.5163C68.5367 18.2863 69.498 19.4632 69.9382 21.2511C70.0191 21.5746 70.1449 22.7695 70.2168 23.9015C70.3695 26.1386 70.3605 26.1206 70.639 26.7316C70.8726 27.2617 71.1691 27.4503 71.4207 27.2257C71.6183 27.046 72.2922 25.4109 72.6066 24.3417C72.7953 23.7218 72.8222 23.4253 72.8222 22.2304C72.8222 21.0085 72.7953 20.757 72.6156 20.2179C71.9777 18.3132 70.9355 16.7769 69.4621 15.555C69.0308 15.2136 67.8179 14.3511 66.7488 13.6413C64.2421 11.9882 63.7839 11.6109 61.3671 9.24799C58.3214 6.27416 57.7464 5.98666 53.2632 5.24994C49.93 4.70189 49.5707 4.56713 46.6058 2.80619C44.9976 1.84486 43.7218 1.24291 42.6617 0.928455C42.1316 0.775719 41.7183 0.730797 40.4785 0.703846C39.6429 0.694859 38.7625 0.71283 38.5379 0.757751Z" stroke="#318D69" stroke-width="0.4" mask="url(#path-1-outside-1_21_856)"/>
<path d="M61.2349 22.3476L61.2346 22.3485C60.9156 23.5537 60.3665 24.6204 58.8758 26.8923L58.8757 26.8924C57.2667 29.3554 56.6644 30.5638 56.3818 31.9312L56.3818 31.9312C56.1897 32.8642 56.2005 33.5424 56.4255 35.3419L56.4255 35.342C56.6953 37.4917 56.5783 38.3452 56.0289 38.9633C55.9434 39.0529 55.8358 39.1476 55.7305 39.226C55.6229 39.3061 55.5258 39.3633 55.4605 39.3852C55.3833 39.4096 55.2577 39.4241 55.0811 39.4247C54.9061 39.4252 54.6884 39.4121 54.4316 39.3853C53.9182 39.3319 53.2545 39.2247 52.4747 39.0679C51.9261 38.9545 51.2969 38.8776 50.804 38.8493C50.558 38.8351 50.3425 38.8329 50.1867 38.8451C50.1098 38.8511 50.0414 38.861 49.9898 38.8773C49.9644 38.8853 49.9359 38.8969 49.9118 38.9157C49.8867 38.9352 49.8571 38.9705 49.8571 39.0221C49.8571 39.0563 49.8687 39.0864 49.8806 39.1092C49.893 39.133 49.9095 39.1561 49.9276 39.1781C49.9639 39.2221 50.0141 39.27 50.0731 39.3198C50.1915 39.42 50.3563 39.537 50.5457 39.6578C50.9249 39.8997 51.4129 40.1631 51.8503 40.3453L51.8507 40.3454C53.629 41.0774 54.8828 41.4219 55.8116 41.3375C56.2802 41.2949 56.6675 41.1432 56.9964 40.8779C57.3238 40.6138 57.5879 40.2417 57.8185 39.7666L57.819 39.7657C58.4598 38.4109 58.5566 37.2385 58.2319 34.9293L58.2319 34.9291C58.03 33.5161 57.9836 32.6419 58.2405 31.7119C58.4987 30.7772 59.0653 29.7786 60.1131 28.1237L60.1131 28.1235C61.238 26.3418 62.1592 24.5461 62.5582 23.349C62.693 22.9447 62.7677 22.701 62.8084 22.4033C62.8487 22.1082 62.8554 21.7621 62.8598 21.1529L62.8598 21.1522L62.8598 21.1373C62.8598 20.5087 62.8598 20.1743 62.8216 19.9231C62.7821 19.6629 62.7014 19.491 62.5536 19.1865C62.1692 18.3629 61.7448 17.8553 61.0211 17.3423C59.8545 16.5039 58.2931 15.9339 56.3521 15.6179L56.3517 15.6179C55.0407 15.4099 52.3566 15.2841 50.4479 15.3472L50.4476 15.3472C48.7077 15.41 45.9489 15.293 44.9884 15.1241C43.6654 14.8843 42.8391 14.4352 42.2663 13.654C42.1012 13.428 41.6735 12.663 41.3139 11.9438C41.04 11.387 40.8557 11.0361 40.6757 10.7609C40.4942 10.4835 40.3184 10.2849 40.0641 10.0307L40.0637 10.0302C39.3489 9.32458 38.5676 8.91112 37.5607 8.70968C37.1183 8.61759 36.2963 8.5729 35.4383 8.5729C34.5784 8.5729 33.6702 8.61784 33.0523 8.70866C33.0522 8.70868 33.0521 8.70871 33.0519 8.70872L33.0665 8.80766L61.2349 22.3476ZM61.2349 22.3476C61.3218 22.0305 61.373 21.5812 61.383 21.1432M61.2349 22.3476L61.383 21.1432M61.383 21.1432C61.393 20.7039 61.3613 20.2897 61.2893 20.0394L61.383 21.1432ZM26.2824 11.2486L26.2827 11.2484L61.2891 20.0389C61.206 19.7566 60.9812 19.4274 60.6548 19.1066C60.3298 18.7871 59.9115 18.4831 59.4531 18.2495L59.4527 18.2493C57.4371 17.2104 54.9261 16.8588 49.328 16.8498C45.2527 16.8498 43.6559 16.5739 42.3678 15.5987L42.3671 15.5982C41.9294 15.2607 41.6289 14.9699 41.3069 14.4789C40.9878 13.9923 40.648 13.3097 40.1274 12.1921L40.1272 12.1917C39.8411 11.5704 39.5945 11.1475 39.3068 10.825C39.0205 10.5042 38.6891 10.2777 38.2254 10.0569C37.3403 9.63627 36.6503 9.53665 34.6869 9.59941L34.6864 9.59942C32.1154 9.67084 30.6008 10.0528 27.329 11.4511C26.7985 11.6804 26.4093 11.8366 26.1439 11.9277C26.0117 11.9731 25.9067 12.0036 25.8287 12.0184C25.7901 12.0258 25.7536 12.0302 25.7217 12.0291C25.6948 12.0282 25.6467 12.0231 25.6106 11.987L25.6106 11.987C25.5844 11.9607 25.5682 11.9259 25.5675 11.8863C25.5669 11.8502 25.5792 11.8186 25.5927 11.7943C25.619 11.7468 25.6655 11.6987 25.721 11.6501C25.8347 11.5506 26.0222 11.4191 26.2824 11.2486Z" fill="#318D69" stroke="#318D69" stroke-width="0.2"/>
<path d="M16.5615 21.8259C16.5614 21.825 16.5612 21.8241 16.5609 21.8232C16.5573 21.8082 16.5464 21.7847 16.5196 21.7701C16.495 21.7569 16.4744 21.761 16.4724 21.7614L16.4723 21.7614C16.4715 21.7615 16.4716 21.7615 16.4727 21.761C16.476 21.7596 16.4878 21.7544 16.5112 21.7394C16.5256 21.7301 16.5421 21.7187 16.5607 21.7049C16.5551 21.7596 16.5558 21.799 16.561 21.8232L16.5611 21.8232L16.5616 21.8259C16.5616 21.8259 16.5615 21.8259 16.5615 21.8259ZM20.3816 18.1807C21.4268 17.3537 22.6884 16.7461 24.0838 16.3837L24.0843 16.3835C24.6653 16.2361 24.9794 16.1579 25.1472 16.1323C25.1899 16.1258 25.2268 16.122 25.2582 16.122C25.2883 16.1219 25.322 16.1252 25.353 16.1392C25.3891 16.1556 25.4147 16.1836 25.4281 16.2182C25.4392 16.2469 25.4398 16.2754 25.4398 16.2918C25.4398 16.3468 25.4068 16.3905 25.3838 16.4165C25.3568 16.4469 25.3202 16.4783 25.2773 16.5104C25.191 16.575 25.0662 16.652 24.9076 16.7398C24.5894 16.9159 24.1238 17.1418 23.5298 17.4073L23.5294 17.4075C22.7189 17.7657 22.22 18.0202 21.6523 18.4597C21.0814 18.9018 20.4394 19.5322 19.3468 20.6473L19.3465 20.6476C18.2428 21.7648 17.6216 22.3839 17.2257 22.7231C17.0277 22.8927 16.8804 22.9974 16.7529 23.059C16.6213 23.1227 16.5139 23.1391 16.4003 23.1391C16.2137 23.1391 16.0597 23.0898 15.9245 22.964C15.7951 22.8435 15.6896 22.6588 15.5807 22.4046L15.5807 22.4046L15.5798 22.4024C15.3851 21.9157 15.4612 21.3536 15.8121 20.3817L15.8123 20.3814C16.5875 18.2563 18.1849 16.7803 20.5467 16.0171C20.9942 15.8665 21.4784 15.7727 21.8287 15.7473C22.0009 15.7349 22.1526 15.7379 22.2523 15.7656C22.2976 15.7781 22.3618 15.8035 22.3932 15.8636C22.4316 15.937 22.3973 16.0066 22.3632 16.0488C22.3463 16.0702 22.3213 16.0903 22.2988 16.107C22.2735 16.1258 22.2418 16.147 22.2053 16.1699C22.1321 16.216 22.0352 16.2718 21.9219 16.3336C21.6954 16.457 21.3995 16.6061 21.0881 16.7505C20.4801 17.0456 19.686 17.492 19.3231 17.7397C18.4436 18.3528 17.54 19.3205 17.1449 20.0756L20.3816 18.1807ZM17.9921 20.3715C17.9921 20.3715 17.9922 20.3714 17.9922 20.3714C17.9922 20.3714 17.9923 20.3713 17.9923 20.3713L18.0624 20.4426L17.9921 20.3715Z" fill="#318D69" stroke="#318D69" stroke-width="0.2"/>
<path d="M22.8694 22.2578L22.8675 22.2588C22.7523 22.3194 22.655 22.4487 22.5379 22.674C22.4185 22.9035 22.2687 23.2536 22.0577 23.7833C21.7526 24.5279 21.315 25.4649 21.0678 25.8711L21.0671 25.8721L21.0671 25.8721C20.7672 26.3794 20.2902 26.9613 19.7807 27.473C19.2705 27.9855 18.7354 28.4197 18.3218 28.6375C16.0308 29.827 13.2985 29.1764 11.7096 27.0668L11.7095 27.0666C11.5694 26.8813 11.4334 26.7113 11.3273 26.587C11.2745 26.5251 11.2281 26.4733 11.1919 26.4365C11.174 26.4183 11.1568 26.402 11.1416 26.3895C11.1341 26.3834 11.1249 26.3765 11.1148 26.3705L11.1146 26.3704C11.1083 26.3667 11.0854 26.3531 11.0547 26.3531C10.9991 26.3531 10.9685 26.3913 10.9572 26.4103C10.9453 26.43 10.9398 26.451 10.9367 26.466C10.9302 26.4977 10.9283 26.5367 10.9289 26.577C10.9301 26.6595 10.9422 26.7687 10.9655 26.8853C11.0874 27.5407 11.5059 28.2138 12.0997 28.7996C12.6948 29.3867 13.4727 29.893 14.3259 30.2124L14.3262 30.2125C14.74 30.3659 15.3627 30.461 15.9947 30.4915C16.6274 30.5221 17.2821 30.4886 17.7616 30.3779L17.762 30.3778C19.8691 29.8831 21.6588 28.1374 22.8702 25.4438C22.9819 25.2071 23.0835 25.0084 23.1598 24.8788C23.1636 24.8723 23.1673 24.8661 23.1709 24.86C23.1927 24.9347 23.2201 25.0275 23.2504 25.13C23.2838 25.2431 23.3206 25.3679 23.3572 25.4929L23.3572 25.4931C23.6753 26.5744 24.3114 27.7223 24.9637 28.3746C25.1183 28.5292 25.28 28.6773 25.4163 28.7907C25.4844 28.8473 25.5471 28.8962 25.6002 28.9331C25.6308 28.9543 25.6627 28.975 25.693 28.9904C25.674 29.0026 25.6508 29.0166 25.6227 29.0329C25.5531 29.073 25.4599 29.1226 25.3388 29.1854L25.3382 29.1857C23.9513 29.9157 22.9671 30.9748 22.1865 32.5633L22.186 32.5642C21.9813 32.992 21.7573 33.5851 21.5846 34.1269C21.4982 34.398 21.4241 34.6577 21.3716 34.8787C21.321 35.0914 21.2885 35.2757 21.2868 35.4007C21.2724 35.3915 21.2553 35.3802 21.2352 35.3662C21.1728 35.323 21.0902 35.2613 20.9799 35.178C20.9799 35.178 20.9799 35.178 20.9798 35.178L20.9196 35.2578C19.5 34.1797 17.8379 33.6855 15.8793 33.7484L22.8694 22.2578ZM22.8694 22.2578C23.0473 22.1689 23.2528 22.1299 23.4381 22.1373C23.6198 22.1445 23.801 22.1975 23.912 22.3143L23.9123 22.3141L23.9176 22.3207C23.9348 22.3422 23.9495 22.371 23.9619 22.3983C23.9752 22.4276 23.9893 22.4632 24.0039 22.5036C24.0331 22.5846 24.0661 22.6891 24.1007 22.8093C24.1699 23.0499 24.2468 23.3576 24.3146 23.674L24.3149 23.6752C24.6012 25.098 24.9659 26.0605 25.4652 26.735L25.4654 26.7353C25.6748 27.0205 25.833 27.2059 26.0247 27.3643C26.2168 27.5232 26.4467 27.6584 26.8041 27.8371L26.8046 27.8373C27.1814 28.028 27.4864 28.1427 27.7994 28.1999C28.1124 28.2571 28.4389 28.2578 28.8603 28.2134L28.8604 28.2134C29.4641 28.1504 29.6921 28.1564 29.986 28.2739L29.986 28.2739L29.99 28.2757C30.1271 28.3376 30.232 28.393 30.2972 28.4734C30.368 28.5607 30.3813 28.6622 30.3813 28.7801C30.3813 28.989 30.3078 29.2316 30.2075 29.4276C30.1569 29.5263 30.0975 29.6172 30.0335 29.6884C29.9713 29.7575 29.8956 29.8182 29.8105 29.8386L29.8105 29.8388L29.805 29.8398C29.7484 29.8501 29.5867 29.8638 29.3775 29.876C29.1653 29.8885 28.8968 29.8997 28.6215 29.9043C28.1858 29.9178 27.9258 29.9334 27.6986 29.9756C27.473 30.0175 27.2762 30.0862 26.9679 30.2113C24.9043 31.0527 23.6317 32.5099 23.0377 34.7267L23.0376 34.727C22.914 35.1814 22.8317 35.7537 22.8006 36.2979C22.7693 36.8436 22.7901 37.351 22.8676 37.6784C22.9012 37.8175 22.9123 37.9373 22.8891 38.0722C22.8666 38.2039 22.8124 38.344 22.7263 38.5253L22.8694 22.2578ZM15.1497 31.4489C15.15 31.4491 15.1502 31.4494 15.1504 31.4496L15.0797 31.5203L15.1489 31.448C15.1491 31.4483 15.1494 31.4486 15.1497 31.4489Z" fill="#318D69" stroke="#318D69" stroke-width="0.2"/>
<path d="M32.1414 48.1052L32.1411 48.1046C32.0009 47.8196 31.8047 47.3867 31.6438 47.0142C31.5633 46.8278 31.4913 46.6558 31.4392 46.5243C31.4132 46.4587 31.3919 46.4023 31.3769 46.3589C31.3694 46.3372 31.3631 46.3177 31.3586 46.3013C31.3551 46.2887 31.3492 46.2666 31.3492 46.2456C31.3492 46.2316 31.3523 46.1985 31.3809 46.1712C31.4107 46.1427 31.4457 46.1418 31.4622 46.1435C31.4886 46.1462 31.5084 46.1589 31.513 46.1618L31.5135 46.1621C31.5283 46.1715 31.5443 46.1851 31.5583 46.1976C31.5885 46.2247 31.6304 46.2664 31.6808 46.3184C31.7823 46.4233 31.9242 46.5771 32.0873 46.7582C32.4137 47.1207 32.8278 47.5955 33.179 48.0142L33.179 48.0142L33.1796 48.015C33.9565 48.9616 34.8351 49.7222 35.5358 50.0639C35.7766 50.1798 35.8965 50.234 36.1214 50.26C36.3555 50.2871 36.6997 50.283 37.3859 50.2695L37.3868 50.2695C37.7861 50.265 38.0934 50.2633 38.3258 50.2715C38.5552 50.2796 38.7236 50.2976 38.8384 50.338C38.8973 50.3588 38.9495 50.3879 38.9885 50.4311C39.0289 50.476 39.0487 50.5289 39.0541 50.5847C39.0592 50.6381 39.0513 50.6939 39.0384 50.7493C39.0253 50.805 39.0055 50.8663 38.9829 50.9319C38.9023 51.1688 38.7484 51.4426 38.5763 51.6813C38.4054 51.9183 38.2078 52.1327 38.0343 52.2419C37.7734 52.4074 37.3944 52.4555 36.9837 52.4141C36.5697 52.3723 36.109 52.2383 35.6725 52.0224C34.3887 51.3897 33.0189 49.8601 32.1414 48.1052Z" fill="#318D69" stroke="#318D69" stroke-width="0.2"/>
<path d="M39.8674 52.5975C40.1549 51.9416 40.2717 51.4295 40.128 51.4295C39.9663 51.4295 39.7866 51.6002 39.3284 52.1573C38.6096 53.0647 38.5917 53.1815 38.5827 56.7752C38.5827 59.8659 38.5737 59.9377 38.3491 60.8182M39.8674 52.5975L39.9592 52.6374C39.9591 52.6374 39.9591 52.6375 39.9591 52.6376M39.8674 52.5975L39.959 52.6377C39.959 52.6376 39.9591 52.6376 39.9591 52.6376M39.8674 52.5975C39.4182 53.6307 39.4003 53.7745 39.4003 57.3143C39.4003 61.0248 39.3913 61.1327 38.7174 63.1362C38.1155 64.96 37.3428 66.2627 36.7678 66.4065L23.0734 46.9773M39.9591 52.6376C40.1042 52.3065 40.2079 52.0081 40.257 51.7895C40.2812 51.6818 40.2941 51.5853 40.288 51.5116C40.2851 51.4755 40.2768 51.4336 40.2535 51.3981C40.2264 51.3566 40.182 51.3295 40.128 51.3295C40.0081 51.3295 39.8987 51.3943 39.7718 51.5108C39.6435 51.6285 39.4799 51.8157 39.2512 52.0937L39.25 52.0952L39.25 52.0952C39.0708 52.3214 38.9293 52.5056 38.8215 52.7096C38.7126 52.9157 38.6398 53.1384 38.5906 53.443C38.4936 54.0447 38.4872 54.9827 38.4827 56.775L38.4827 56.7752C38.4827 58.3221 38.4804 59.109 38.4503 59.6196C38.4205 60.1245 38.3639 60.3555 38.2523 60.7929M39.9591 52.6376C39.7363 53.15 39.624 53.4333 39.5649 54.0258C39.5049 54.6272 39.5003 55.5418 39.5003 57.3143C39.5003 59.1667 39.4982 60.1285 39.4109 60.877C39.323 61.6298 39.149 62.1668 38.8123 63.1678C38.5098 64.0842 38.1635 64.8729 37.8185 65.4525C37.646 65.7422 37.4724 65.9823 37.3028 66.1603C37.1349 66.3366 36.9629 66.4607 36.7923 66.5035C36.4887 66.5806 36.1853 66.4045 35.9387 66.1102C35.6886 65.8117 35.4742 65.368 35.3413 64.8412C35.2021 64.3119 35.1947 63.9349 35.2663 61.7583C35.3157 60.1503 35.3381 59.0223 35.3314 58.2259C35.3247 57.4271 35.2885 56.9704 35.2241 56.6997C35.0992 56.184 34.6546 55.6993 33.6414 55.0537L33.6411 55.0535C32.7801 54.5006 32.1964 53.9831 31.7311 53.2236C31.268 52.4679 30.9259 51.4785 30.5348 49.9905L30.5347 49.9902C30.2597 48.9309 30.0481 48.3225 29.7827 47.9751C29.6532 47.8055 29.512 47.7001 29.3435 47.6351C29.1726 47.5693 28.9681 47.5427 28.7085 47.5405C28.4223 47.5406 27.7121 47.6376 27.1292 47.7542L27.1289 47.7542C26.6491 47.8484 26.3596 47.8992 26.1013 47.9143C25.841 47.9295 25.6154 47.9081 25.2641 47.8631L25.2637 47.8631C24.4331 47.7535 23.5775 47.4158 23.0734 46.9773M38.2523 60.7929C38.2524 60.7927 38.2524 60.7925 38.2525 60.7923L38.3491 60.8182M38.2523 60.7929C38.2523 60.7931 38.2522 60.7933 38.2522 60.7935L38.3491 60.8182M38.2523 60.7929C37.948 61.9296 37.6178 62.8568 37.2177 63.6481L37.2173 63.6488C36.987 64.1139 36.8471 64.375 36.7564 64.5005C36.7454 64.5157 36.7358 64.5281 36.7274 64.538M38.3491 60.8182C38.0436 61.9592 37.7112 62.8936 37.3069 63.6932C36.8487 64.6186 36.7319 64.7713 36.651 64.6096C36.4803 64.3041 36.3905 62.6151 36.4085 60.0096M36.7274 64.538C36.7312 64.547 36.7349 64.5546 36.7383 64.5608L36.7384 64.5608L36.7405 64.5649C36.7456 64.5751 36.7485 64.5786 36.7485 64.5786C36.7485 64.5786 36.7478 64.5779 36.7462 64.5766C36.7426 64.5738 36.7378 64.571 36.7322 64.569C36.7304 64.5684 36.7285 64.5679 36.7266 64.5674C36.7194 64.5656 36.7113 64.5651 36.7031 64.5668C36.698 64.5679 36.6954 64.5693 36.6954 64.5693C36.6954 64.5693 36.6987 64.5674 36.7056 64.5611C36.7116 64.5556 36.7188 64.548 36.7274 64.538ZM36.7274 64.538C36.7154 64.5098 36.702 64.4676 36.6883 64.4084C36.6705 64.3322 36.6536 64.2344 36.6377 64.1152C36.6061 63.8769 36.5796 63.5587 36.5589 63.1668C36.5175 62.3835 36.4995 61.3121 36.5085 60.0103M36.5085 60.0103C36.5085 60.0104 36.5085 60.0104 36.5085 60.0105L36.4085 60.0096M36.5085 60.0103L36.4085 60.0096M36.5085 60.0103C36.5219 58.4939 36.5176 57.6117 36.4551 57.0086C36.3919 56.3983 36.2686 56.069 36.0473 55.6586L36.0469 55.6579C35.7375 55.0954 35.1979 54.617 34.2142 54.0213L34.2139 54.0212C33.397 53.5301 32.9117 53.1491 32.5073 52.5093C32.0989 51.8631 31.7699 50.9485 31.2842 49.3788M36.4085 60.0096C36.4354 56.9729 36.3905 56.5057 35.9592 55.7061C35.6628 55.167 35.1417 54.6998 34.1624 54.1069C32.5182 53.1186 32.1588 52.5436 31.1885 49.4081M31.2842 49.3788C31.2842 49.3788 31.2842 49.3788 31.2842 49.3788L31.1885 49.4081M31.2842 49.3788C31.2841 49.3787 31.2841 49.3786 31.2841 49.3785L31.1885 49.4081M31.2842 49.3788C31.086 48.7304 30.7867 47.975 30.6184 47.6945L30.6183 47.6943C30.3175 47.1961 29.9084 46.8882 29.339 46.7698C28.7764 46.6528 28.0646 46.7224 27.1567 46.9573C27.1566 46.9573 27.1565 46.9573 27.1565 46.9573L27.1815 47.0541L30.5327 47.7459C30.6944 48.0155 30.9909 48.7612 31.1885 49.4081M23.0734 46.9773C23.0736 46.9774 23.0738 46.9776 23.0739 46.9777L23.1385 46.9014L23.0729 46.9768C23.0731 46.977 23.0732 46.9771 23.0734 46.9773Z" fill="#318D69" stroke="#318D69" stroke-width="0.2"/>
<path d="M30.9501 70.8732C31.0133 70.7993 31.089 70.7148 31.1719 70.6259C31.2998 70.4889 31.4255 70.3404 31.5253 70.2096C31.5753 70.1441 31.6193 70.0823 31.6542 70.028C31.6875 69.9761 31.7159 69.9259 31.7313 69.8837C31.7581 69.8171 31.7793 69.7196 31.7969 69.6048C31.815 69.4868 31.8304 69.343 31.8431 69.1812C31.8686 68.8575 31.8839 68.4573 31.8884 68.0375C31.8974 67.1994 31.8638 66.2745 31.7817 65.7185L31.7817 65.7183C31.2937 62.4558 29.0579 57.231 26.4655 53.3065L26.4653 53.3062C25.2495 51.478 24.1764 50.1341 22.8505 48.7902L22.8502 48.7899C22.1442 48.0794 21.5946 47.5724 21.1658 47.2426C20.9514 47.0776 20.7647 46.955 20.6017 46.8733C20.4397 46.7921 20.2945 46.7479 20.1648 46.7479H19.8594H19.6538L19.7807 46.9097L20.4365 47.7451L30.9501 70.8732ZM30.9501 70.8732C30.9844 70.8577 31.0212 70.8409 31.0603 70.8229C31.3095 70.7078 31.6477 70.5443 32.0154 70.3604L32.0157 70.3603C34.625 69.0646 35.73 68.2019 40.0231 64.1154C41.0288 63.1546 42.1457 62.1276 42.4907 61.8462C43.8671 60.7234 45.2273 60.025 46.9032 59.5721L46.9035 59.572C47.3038 59.4652 47.8318 59.2617 48.062 59.1168L48.0619 59.1167L48.0656 59.1146C48.3165 58.9713 48.6978 58.7622 48.9103 58.6698C48.9105 58.6697 48.9107 58.6696 48.9109 58.6695L49.2281 58.526V57.9795C49.2281 57.5942 49.2628 57.2916 49.3844 56.9093C49.5048 56.5309 49.71 56.0758 50.0466 55.3846C50.7411 53.9416 51.5202 52.7883 52.2426 52.1116L52.2427 52.1115C52.5769 51.7999 52.8543 51.5836 53.0774 51.4661C53.2929 51.3526 53.4998 51.3105 53.65 51.4334L53.6507 51.434C53.6841 51.4618 53.7168 51.4964 53.7369 51.544C53.7573 51.5922 53.7605 51.6434 53.7532 51.6971C53.7397 51.7972 53.6857 51.9318 53.5976 52.1256C53.4897 52.3864 53.1855 53.156 52.935 53.845L52.9348 53.8454L52.9099 53.913C52.3706 55.3742 52.0943 56.123 51.8532 56.5985C51.6035 57.0909 51.3883 57.2962 50.9781 57.6839L50.9778 57.6841L50.4372 58.1917L50.8054 58.1762C50.8055 58.1762 50.8057 58.1761 50.8059 58.1761C51.1553 58.158 51.4232 58.173 51.6479 58.2435C51.8761 58.315 52.0522 58.4412 52.2228 58.6306C52.263 58.6733 52.2977 58.7185 52.3246 58.7741C52.3516 58.8299 52.3686 58.8917 52.3786 58.9656C52.3981 59.1094 52.3927 59.3124 52.3748 59.6293C52.2827 61.2968 51.2149 62.9196 49.211 64.5263L49.2109 64.5264C48.5606 65.0466 48.1933 65.337 47.877 65.5509C47.5587 65.7661 47.2928 65.9034 46.8473 66.1195C46.8472 66.1195 46.8472 66.1195 46.8471 66.1195L46.8035 66.0295C45.4199 66.7034 44.9617 66.4967 46.1117 65.7241C46.3453 65.5713 46.5699 65.3827 46.6059 65.3198L30.9501 70.8732ZM28.065 66.0289L28.0647 66.0283C27.7504 65.5524 27.5126 65.2268 27.3511 65.0548C27.3104 65.0114 27.2724 64.9755 27.2374 64.9487C27.2048 64.9239 27.1644 64.8988 27.1199 64.8918C27.0956 64.888 27.0668 64.8891 27.0382 64.902C27.0092 64.915 26.9889 64.9363 26.9755 64.9585C26.9515 64.9985 26.9469 65.0467 26.9469 65.0862C26.9469 65.1114 26.9529 65.137 26.9591 65.1581C26.9658 65.1809 26.9752 65.2064 26.9863 65.2336C27.0085 65.288 27.0402 65.3549 27.0788 65.4304C27.1563 65.5819 27.2648 65.7743 27.39 65.9842C27.6405 66.4039 27.961 66.8983 28.2417 67.2832C28.5079 67.6532 28.6375 67.839 28.7344 68.0755C28.8324 68.3146 28.898 68.6076 29.0244 69.1947C29.0244 69.1948 29.0245 69.195 29.0245 69.1951L29.1223 69.1741L28.065 66.0289ZM28.065 66.0289C28.2576 66.3245 28.4367 66.5886 28.5686 66.7775C28.5714 66.7815 28.5742 66.7855 28.577 66.7895M28.065 66.0289L28.577 66.7895M45.152 62.2026C45.1229 62.2618 45.0893 62.328 45.0532 62.3976L44.8112 62.8368L44.967 62.9582L45.3623 62.5899C46.1311 61.8743 47.2484 61.1289 48.3236 60.5623C48.8607 60.2792 49.3853 60.0418 49.8485 59.8754C50.314 59.7083 50.7091 59.6159 50.9902 59.6159C51.0434 59.6159 51.0761 59.6171 51.0973 59.6204C51.0973 59.6247 51.097 59.63 51.0965 59.6366C51.0938 59.6694 51.0855 59.7154 51.0719 59.7838L51.0718 59.784C50.9336 60.4839 50.4191 61.3295 49.4796 62.3407C49.2185 62.6198 48.9819 62.8811 48.8103 63.0775C48.7246 63.1756 48.6546 63.2582 48.6056 63.3189C48.5813 63.3491 48.5612 63.3751 48.5469 63.3955C48.5398 63.4055 48.5329 63.4158 48.5273 63.4256C48.5246 63.4304 48.5212 63.4367 48.5182 63.444L45.152 62.2026ZM45.152 62.2026C45.1384 62.2112 45.1242 62.2201 45.1096 62.2294C44.9356 62.3398 44.6985 62.4964 44.4432 62.6711L44.4425 62.6715C43.4328 63.3506 42.5024 64.1018 41.0847 65.3849C36.6078 69.4483 35.225 70.4618 32.0322 72.0132C29.2834 73.3606 28.7563 73.6287 27.4125 74.426C25.8718 75.345 25.0584 75.7427 23.5349 76.3467L23.5349 76.3467L23.5341 76.347C22.9388 76.577 22.3073 76.7913 21.8125 76.937C21.5654 77.0098 21.3506 77.066 21.1907 77.0985C21.1112 77.1146 21.0421 77.1255 20.9882 77.129C20.9616 77.1307 20.9349 77.131 20.9108 77.1279C20.8918 77.1254 20.8523 77.1186 20.8219 77.0881C20.7751 77.0414 20.7958 76.985 20.8011 76.973C20.8082 76.957 20.818 76.9455 20.8223 76.9406C20.8327 76.9289 20.8457 76.9175 20.8575 76.9079C20.8825 76.8875 20.919 76.861 20.9638 76.8299C21.0544 76.7673 21.1874 76.6805 21.3522 76.5759C21.6822 76.3664 22.1433 76.083 22.6556 75.7729L22.6556 75.7729L22.6563 75.7725C24.1185 74.9024 26.8833 73.125 28.2745 72.1736C28.281 72.1691 28.2857 72.1654 28.2891 72.1625C28.2888 72.1619 28.2885 72.1612 28.2881 72.1606C28.2804 72.1471 28.2661 72.1273 28.2408 72.0995C28.1362 71.9844 27.9041 71.7929 27.4603 71.4351L27.4603 71.4351C26.901 70.9841 26.3595 70.5013 25.9694 70.118C25.7747 69.9267 25.6159 69.7584 25.5113 69.6303C25.4595 69.5669 25.4178 69.5094 25.392 69.4618C25.3795 69.4386 25.3672 69.4115 25.3619 69.3834C25.357 69.3572 25.3542 69.3058 25.3949 69.2651C25.3951 69.2649 25.3955 69.2645 25.396 69.2639C25.4012 69.2584 25.4214 69.2369 25.4441 69.2238C25.48 69.2031 25.5191 69.2004 25.5576 69.2097C25.5906 69.2178 25.6248 69.2352 25.6607 69.257C25.6979 69.2797 25.7438 69.3115 25.8015 69.3543C26.0273 69.522 26.4642 69.8814 27.3453 70.6063L27.3888 70.6421L27.3889 70.6422L28.8845 71.8682L29.2131 71.7077L29.2131 71.7076L29.2154 71.7066C29.3187 71.6593 29.4124 71.6059 29.4789 71.5601C29.5108 71.5382 29.5342 71.5195 29.549 71.5056L45.152 62.2026ZM28.577 66.7895C28.55 66.5874 28.5097 66.3158 28.4631 66.0192C28.3677 65.4124 28.2467 64.7044 28.1618 64.2796C27.8042 62.5364 26.9084 59.8208 25.7864 57.0832C24.5046 53.9909 22.3079 50.1359 20.4366 47.7452L28.577 66.7895ZM20.9332 76.9289C20.9331 76.929 20.9338 76.9291 20.9354 76.9294L20.9332 76.9289Z" fill="#318D69" stroke="#318D69" stroke-width="0.2"/>
<path d="M23.0989 54.3006L23.5291 54.6099C23.5292 54.6099 23.5293 54.61 23.5293 54.61C24.0189 54.9591 24.4036 55.3041 24.6671 55.6264C24.9284 55.9462 25.0805 56.2561 25.0805 56.5331V56.8296V57.0745L24.909 56.8996L24.4689 56.4505L23.0989 54.3006ZM23.0989 54.3006L23.231 54.2446C23.2311 54.2445 23.2312 54.2445 23.2313 54.2444C23.4009 54.1737 23.5639 54.0771 23.686 53.9801C23.747 53.9317 23.8004 53.8811 23.8397 53.8313C23.876 53.7852 23.9125 53.7244 23.9125 53.6581C23.9125 53.5942 23.8616 53.5644 23.8507 53.5582C23.8323 53.5479 23.812 53.5415 23.7955 53.5373C23.761 53.5284 23.7157 53.5218 23.6654 53.5168C23.5635 53.5065 23.4244 53.5008 23.2708 53.4997C22.9638 53.4974 22.5881 53.5132 22.3167 53.55C22.0769 53.5823 21.8733 53.6384 21.7265 53.7156C21.5851 53.7899 21.4664 53.901 21.4664 54.0534C21.4664 54.2563 21.5777 54.4575 21.7522 54.6355C21.928 54.815 22.1774 54.9809 22.4776 55.1149C23.2775 55.4793 23.9761 55.9489 24.4688 56.4504L23.0989 54.3006Z" fill="#318D69" stroke="#318D69" stroke-width="0.2"/>
<path d="M24.9995 60.8474L24.9992 60.8475C23.1853 61.3372 21.3294 62.388 19.8182 63.7907C18.2367 65.254 17.2238 67.0966 16.1345 70.4365L16.2296 70.4675L16.1345 70.4365C15.5944 72.0928 14.5695 75.7789 13.8775 78.52L13.8774 78.5203C12.9621 82.1995 12.4783 83.7047 11.0514 87.3305L11.0513 87.3305C9.90192 90.2579 9.29405 91.8225 8.99192 92.748C8.84082 93.2109 8.76424 93.5196 8.73555 93.7622C8.70645 94.0082 8.72702 94.1831 8.76418 94.3759L8.76431 94.3765L8.76432 94.3765L8.81822 94.6461L8.85366 94.8233L8.98498 94.6991L9.47831 94.2327C9.7667 93.9718 10.2838 93.308 10.6436 92.7683L10.644 92.7676L10.644 92.7676C11.0036 92.2192 11.4143 91.6305 11.5722 91.4374L11.5735 91.4358L11.5735 91.4358C11.6112 91.3877 11.6699 91.2923 11.7414 91.1683C11.8143 91.042 11.9037 90.8799 12.0038 90.6941C12.2041 90.3223 12.4479 89.8532 12.6879 89.3799C12.928 88.9066 13.1645 88.4285 13.3501 88.0387C13.5339 87.6527 13.6722 87.3443 13.7108 87.2163L13.7113 87.2149L13.7113 87.2149C13.7179 87.1917 13.7372 87.1437 13.7703 87.0716C13.8024 87.0016 13.845 86.9141 13.8953 86.8148C13.9957 86.6162 14.1253 86.3725 14.2596 86.1309C14.8033 85.1522 15.3626 83.7615 15.9653 81.9086L15.9654 81.9081C16.1807 81.2355 16.5755 80.0779 16.8444 79.3518L16.8446 79.3513C17.1611 78.4832 17.6564 76.6993 18.2492 74.3281L18.2492 74.328C19.2922 70.1472 19.7928 68.5063 20.3615 67.3955L20.3617 67.3952C21.4834 65.1874 23.9021 62.8211 26.2658 61.608C26.2658 61.608 26.2658 61.608 26.2658 61.608L26.2202 61.519C27.2714 60.98 27.2893 60.8272 26.328 60.8003L24.9995 60.8474ZM24.9995 60.8474C25.4131 60.7371 25.8902 60.682 26.3316 60.7004L24.9995 60.8474ZM15.8702 81.8776C15.2682 83.7284 14.7112 85.112 14.1721 86.0823C13.9026 86.5675 13.651 87.0616 13.6151 87.1874C13.4714 87.6636 11.7553 91.0417 11.4948 91.3741C11.3331 91.5718 10.9198 92.1647 10.5604 92.7128C10.201 93.2519 9.68894 93.9077 9.41042 94.1593L15.8702 81.8776ZM15.8702 81.8776C16.0858 81.2038 16.4811 80.0448 16.7507 79.3171L15.8702 81.8776Z" fill="#318D69" stroke="#318D69" stroke-width="0.2"/>
<path d="M51.0795 65.2409L51.0795 65.2409L51.1372 65.7521L50.7735 66.1406L50.7728 66.1414L50.7728 66.1414C50.5268 66.4094 50.3075 66.5866 50.047 66.7131C49.7853 66.8403 49.4757 66.9192 49.0443 66.9815L49.0434 66.9816L49.0434 66.9816C48.808 67.0179 48.6225 67.0569 48.494 67.0974C48.4305 67.1174 48.3755 67.1393 48.3344 67.1644C48.3139 67.1769 48.2925 67.1927 48.2751 67.2132C48.2575 67.2341 48.2398 67.2653 48.2398 67.3051C48.2398 67.4007 48.2988 67.4763 48.3666 67.5306C48.436 67.5863 48.5301 67.6327 48.637 67.6701C48.8518 67.7453 49.1396 67.7914 49.4449 67.7914C50.1376 67.7914 50.783 67.5104 51.2683 67.0157L51.2686 67.0154L51.5242 66.752L52.2394 66.9433C52.2395 66.9433 52.2396 66.9433 52.2398 66.9434C52.4529 67.0023 52.6576 67.0501 52.8145 67.0799C52.8927 67.0947 52.9608 67.1054 53.0129 67.1106C53.0386 67.1132 53.063 67.1147 53.0839 67.1141C53.0942 67.1139 53.1062 67.1131 53.1183 67.1108C53.1269 67.1091 53.1456 67.1051 53.1645 67.0928C53.2118 67.0636 53.2472 67.0182 53.2738 66.9722C53.3017 66.9242 53.3247 66.8676 53.3436 66.8078C53.3814 66.688 53.4058 66.545 53.4158 66.4083C53.4257 66.2724 53.4219 66.1354 53.3991 66.0287C53.3879 65.9762 53.3704 65.9232 53.342 65.881C53.3169 65.8438 53.2774 65.8075 53.2224 65.7973C53.2217 65.7966 53.221 65.7958 53.2203 65.795C53.2065 65.7795 53.1876 65.7537 53.1647 65.7176C53.1195 65.6461 53.0655 65.5448 53.0129 65.4308C53.0128 65.4307 53.0127 65.4305 53.0127 65.4304L52.9219 65.4723C52.8051 65.2117 52.4187 64.7176 51.9516 64.2324L51.0795 65.2409ZM51.0795 65.2409L51.0793 65.2387C51.053 64.9496 50.9466 64.3984 50.8487 64.0337C50.7989 63.8481 50.7536 63.66 50.7206 63.5066C50.7042 63.43 50.6907 63.3613 50.6812 63.3057C50.6722 63.2525 50.6656 63.2043 50.6656 63.1723C50.6656 63.1132 50.673 63.0538 50.6987 63.0071C50.7125 62.9821 50.7338 62.957 50.7653 62.941C50.7975 62.9246 50.8314 62.9224 50.8614 62.928C50.9157 62.9381 50.9624 62.9742 50.9989 63.0101C51.038 63.0488 51.0784 63.1005 51.1189 63.1625L51.1189 63.1624L51.1203 63.1648C51.1337 63.1865 51.1681 63.231 51.2243 63.2972C51.2789 63.3616 51.3499 63.4418 51.4326 63.5329C51.598 63.7151 51.8085 63.939 52.0237 64.1632L51.0795 65.2409ZM52.3768 65.5133L52.0929 65.1978L51.9713 65.0627C52.0176 65.28 52.0249 65.5038 51.9921 65.7242C52.0048 65.694 52.0223 65.6658 52.0462 65.6405C52.1087 65.5745 52.1991 65.5453 52.302 65.5266L52.3023 65.5266L52.3768 65.5133ZM51.9592 65.8945L51.9595 65.8904C51.9277 66.0205 51.8814 66.1486 51.8205 66.2725C51.8575 66.2421 51.8842 66.2102 51.9038 66.1755C51.9402 66.1112 51.9594 66.0252 51.9594 65.8945H51.9592Z" fill="#318D69" stroke="#318D69" stroke-width="0.2"/>
<path d="M47.3704 66.507L47.3707 66.5067C47.829 66.0484 48.2518 65.6302 48.5657 65.3264C48.7225 65.1746 48.8528 65.0508 48.9469 64.9648C48.9938 64.9219 49.0328 64.8875 49.062 64.8634C49.0764 64.8515 49.09 64.8408 49.1019 64.8327C49.1076 64.8287 49.115 64.8239 49.123 64.8198L49.1235 64.8195C49.1279 64.8172 49.1486 64.8063 49.1754 64.8063C49.2005 64.8063 49.2303 64.8141 49.2552 64.8369C49.2785 64.8584 49.2879 64.8843 49.2918 64.9027C49.2988 64.9362 49.2928 64.9705 49.2872 64.9945C49.2748 65.0472 49.2473 65.1165 49.2111 65.1948C49.1377 65.3539 49.0171 65.5741 48.8683 65.8244C48.5702 66.3258 48.1526 66.9578 47.7549 67.4822C46.285 69.4479 45.1477 70.6388 42.2525 73.2463L42.2523 73.2464C39.8834 75.3731 38.9854 76.3976 38.1129 77.9468L38.1129 77.9469C37.5253 78.9885 37.0787 80.1208 36.1173 83.05C34.6937 87.3926 33.7023 90.0334 32.5704 91.9166C31.4348 93.8059 30.1596 94.9298 28.1804 96.2462L28.18 96.2465C27.3742 96.7777 26.6611 97.2043 26.0682 97.5076C25.4792 97.8088 24.9987 97.9937 24.6605 98.0321C24.5267 98.0505 24.402 98.0578 24.3084 98.0542C24.2624 98.0524 24.2185 98.0478 24.1834 98.0382C24.1665 98.0337 24.1444 98.0261 24.1244 98.0121C24.1042 97.9979 24.0719 97.9663 24.0719 97.9149H24.0718L24.0719 97.9111C24.0739 97.8606 24.0937 97.8075 24.1181 97.7582C24.1436 97.7067 24.1792 97.6493 24.2223 97.588C24.3086 97.4653 24.4304 97.3193 24.5769 97.1609C24.8702 96.8437 25.269 96.4699 25.6989 96.1214C28.4711 93.8479 30.0185 92.4595 31.2085 90.6555C32.3996 88.8499 33.236 86.6231 34.5709 82.6635L34.5709 82.6632C35.7028 79.3305 35.9473 78.6775 36.5797 77.4128C37.3661 75.8401 38.1721 74.7258 39.3664 73.5586L39.3676 73.5575C39.7027 73.2405 41.2595 71.8998 42.8401 70.5797C44.8336 68.9095 46.2235 67.6629 47.3704 66.507Z" fill="#318D69" stroke="#318D69" stroke-width="0.2"/>
<path d="M47.2587 71.5292L47.2588 71.5295C48.1986 73.8477 48.589 75.7728 48.4735 77.5769L48.4735 77.5774C48.451 77.9554 48.432 78.2375 48.4085 78.4337C48.3966 78.5321 48.3841 78.6051 48.3704 78.6562C48.3686 78.6631 48.3667 78.6695 48.3649 78.6753C48.3531 78.6608 48.3387 78.6413 48.3218 78.6158C48.249 78.5059 48.1535 78.3236 48.0247 78.0683L48.0246 78.0682C47.8367 77.6968 47.7253 77.4514 47.638 77.1645C47.5503 76.8762 47.4861 76.543 47.3962 75.9948L47.3961 75.9942C47.3376 75.6521 47.279 75.3344 47.2316 75.0975C47.2079 74.9791 47.1869 74.8802 47.17 74.8081C47.1616 74.7722 47.1539 74.7419 47.1472 74.7188C47.1439 74.7073 47.1404 74.6963 47.1369 74.6868L47.1368 74.6865C47.1345 74.6803 47.1283 74.6634 47.117 74.6483L47.1084 74.6369L47.097 74.6283C47.0756 74.6123 47.0395 74.5991 46.9995 74.6136C46.9679 74.6251 46.9519 74.648 46.9463 74.6567C46.9344 74.6753 46.9295 74.6954 46.9274 74.7044C46.922 74.7275 46.9183 74.7582 46.9154 74.7917C46.9095 74.8607 46.9056 74.9614 46.9033 75.0849C46.8988 75.3327 46.9011 75.6801 46.9101 76.0671M47.2587 71.5292L47.01 76.0649M47.2587 71.5292C47.1099 71.1596 46.9746 70.7987 46.8762 70.515C46.8271 70.3733 46.7869 70.25 46.7589 70.1542C46.7449 70.1063 46.7337 70.0644 46.7259 70.0298C46.7186 69.9978 46.7124 69.9644 46.7124 69.9376L46.7124 69.9321C46.7124 69.8852 46.7124 69.842 46.7157 69.8101C46.7174 69.794 46.7208 69.7715 46.7302 69.75C46.7404 69.7266 46.7638 69.6917 46.8106 69.68C46.8506 69.67 46.8842 69.6837 46.9 69.6914C46.918 69.7001 46.9349 69.7121 46.9493 69.7233C46.9776 69.7451 47.0136 69.7775 47.0557 69.8154L47.059 69.8183L47.0593 69.8187C47.0796 69.8371 47.1012 69.8641 47.1219 69.8925C47.1438 69.9224 47.1688 69.9596 47.1963 70.0026C47.2514 70.0888 47.3183 70.2013 47.3924 70.3319C47.5405 70.5931 47.7189 70.9295 47.8903 71.2769M47.2587 71.5292L47.8903 71.2769M46.9101 76.0671C46.9101 76.0671 46.9101 76.0672 46.9101 76.0673L47.01 76.0649M46.9101 76.0671C46.91 76.067 46.91 76.0669 46.91 76.0669L47.01 76.0649M46.9101 76.0671C46.919 76.5249 46.919 76.868 46.909 77.0926C46.9057 77.1677 46.9013 77.2275 46.8962 77.273M47.01 76.0649C47.023 76.7266 47.0172 77.1541 46.9894 77.3305C46.9601 77.3136 46.9289 77.2943 46.8962 77.273M46.8962 77.273C46.659 77.1188 46.337 76.8557 46.0166 76.5597C45.6493 76.2204 45.2929 75.8457 45.078 75.5564C44.9775 75.4194 44.8808 75.3018 44.8046 75.2197C44.7669 75.1791 44.7322 75.145 44.7032 75.1213C44.6893 75.11 44.6727 75.0977 44.6552 75.0889C44.6466 75.0845 44.6329 75.0785 44.616 75.0758C44.5994 75.0731 44.5683 75.0719 44.5378 75.0923L44.5295 75.0978L44.5225 75.1048C44.4991 75.1282 44.493 75.1555 44.491 75.1681C44.4888 75.1827 44.4892 75.1961 44.49 75.2059C44.4916 75.2259 44.4963 75.2475 44.5017 75.2681C44.5128 75.3103 44.5314 75.3645 44.5549 75.4258C44.6021 75.5491 44.6729 75.711 44.7543 75.883C45.1141 76.6486 45.8848 77.4381 46.6154 77.7987L46.617 77.7995L46.617 77.7995C46.8561 77.9123 46.9648 77.9718 47.0636 78.0899C47.1679 78.2147 47.2632 78.4072 47.4496 78.8029L47.4499 78.8034C47.6451 79.212 47.8473 79.5397 48.0384 79.7601C48.1339 79.8702 48.2297 79.9573 48.324 80.0135C48.4178 80.0695 48.5193 80.1003 48.6199 80.0802C48.7118 80.0618 48.7919 79.9897 48.8571 79.9093C48.9255 79.8249 48.9917 79.7132 49.0522 79.5859C49.1733 79.331 49.2771 79.0006 49.328 78.668C49.6734 76.5397 49.1455 73.8143 47.8903 71.2769M46.8962 77.273C46.8935 77.2961 46.8907 77.3155 46.8878 77.3313C46.8843 77.3498 46.8814 77.3585 46.8806 77.3608C46.8803 77.3617 46.8803 77.3617 46.8807 77.3611L46.8807 77.361C46.8814 77.3597 46.8886 77.3462 46.9067 77.3353C46.9313 77.3204 46.9615 77.3189 46.9865 77.3297L46.9471 77.4216M46.9471 77.4216L46.9849 77.3554L46.9471 77.4216ZM46.9471 77.4216C46.444 77.1341 45.4378 76.2087 44.9975 75.6157C44.8884 75.467 44.7848 75.3428 44.7093 75.2645C44.7034 75.2463 44.6986 75.2306 44.6952 75.2173C44.6909 75.201 44.6896 75.1924 44.6893 75.1896C44.6892 75.1881 44.6897 75.192 44.6886 75.1991C44.688 75.203 44.6857 75.2163 44.6761 75.2312C44.6327 75.1895 44.603 75.169 44.5932 75.1755C44.5848 75.1839 44.5905 75.219 44.6073 75.2738C44.5973 75.2748 44.589 75.274 44.5841 75.2732C44.573 75.2714 44.5662 75.268 44.5653 75.2675L44.5653 75.2675C44.565 75.2674 44.5648 75.2673 44.5648 75.2673C44.5648 75.2673 44.5685 75.2695 44.5767 75.2762C44.5883 75.2857 44.6035 75.2997 44.6219 75.3182C44.6649 75.442 44.7465 75.6329 44.8448 75.8403C45.1952 76.586 45.9499 77.3587 46.6596 77.7091C47.1358 77.9337 47.1717 77.9786 47.5401 78.7602C47.9264 79.5688 48.3307 80.036 48.6003 79.9821C48.8249 79.9372 49.1303 79.2993 49.2292 78.6524C49.5706 76.5501 49.0495 73.8458 47.8007 71.3212M46.9471 77.4216L47.0257 74.7233L46.977 74.7883C46.9864 74.7954 46.9994 74.802 47.0147 74.8053C47.0108 74.8522 47.0078 74.9149 47.0055 74.9906C46.9943 74.9375 46.9842 74.8916 46.9753 74.8539C46.9672 74.8193 46.9604 74.7927 46.9551 74.7744C46.9524 74.7651 46.9504 74.7592 46.9492 74.7559C46.9491 74.7555 46.949 74.7552 46.9489 74.7549M46.9471 77.4216L47.8903 71.2769M47.8007 71.3212C47.4592 70.6294 47.0909 69.9825 46.9921 69.8927C46.9617 69.8653 46.9365 69.8426 46.9155 69.8247C46.9155 69.8244 46.9156 69.8242 46.9156 69.824C46.9157 69.8236 46.9157 69.8239 46.9154 69.8247C46.8717 69.7875 46.8466 69.7712 46.8321 69.778C46.8174 69.7848 46.8136 69.8152 46.8127 69.8713C46.8126 69.8713 46.8126 69.8713 46.8125 69.8713C46.8122 69.8711 46.8122 69.8711 46.8127 69.8714C46.8124 69.8905 46.8124 69.9125 46.8124 69.9376C46.8124 70.0544 47.0549 70.7552 47.3514 71.4919C48.2948 73.8188 48.6901 75.7595 48.5733 77.5833M47.8007 71.3212L47.8903 71.2769M47.8007 71.3212L47.8903 71.2768C47.8903 71.2769 47.8903 71.2769 47.8903 71.2769M48.5733 77.5833C48.4835 79.0927 48.4475 79.1286 47.9354 78.1134C47.5581 77.3677 47.4772 77.1071 47.2975 76.011C47.2271 75.5991 47.1566 75.2231 47.1059 74.9817C47.1081 74.9097 47.1111 74.8514 47.1147 74.8088C47.1175 74.7767 47.1202 74.7581 47.1221 74.7499C47.1225 74.7482 47.1228 74.7475 47.1228 74.7477C47.1227 74.7481 47.1206 74.7554 47.1148 74.7645C47.1113 74.77 47.0973 74.7909 47.0679 74.8016C47.0672 74.8019 47.0665 74.8021 47.0658 74.8023C47.0526 74.7488 47.0428 74.716 47.037 74.7083C47.034 74.706 47.0312 74.7082 47.0285 74.7146L46.957 74.7683C46.9526 74.7625 46.95 74.7573 46.9489 74.7549M48.5733 77.5833L48.5733 77.5833L48.5733 77.5833ZM46.9489 74.7549C46.9484 74.754 46.9482 74.7534 46.9482 74.7534L46.9489 74.7549Z" fill="#318D69" stroke="#318D69" stroke-width="0.2"/>
<path d="M43.768 73.2784L43.7681 73.2785C43.7484 73.3162 43.7286 73.3827 43.7092 73.458C43.6888 73.5375 43.6659 73.6389 43.6417 73.7548C43.5934 73.9868 43.5393 74.2804 43.4886 74.5805C43.388 75.1762 43.2985 75.8121 43.2985 76.038C43.2985 76.199 43.2602 76.5836 43.1965 77.0974C43.1332 77.6082 43.0457 78.2396 42.9492 78.8893C42.756 80.1901 42.5274 81.5587 42.3847 82.1788C42.2914 82.5828 42.1626 82.9912 42.0321 83.3187C41.9668 83.4826 41.9017 83.6246 41.8411 83.735C41.7786 83.8487 41.7267 83.9183 41.6907 83.948L41.6885 83.9498L41.6885 83.9498C41.6886 83.9497 41.6862 83.9518 41.6793 83.9549C41.6725 83.958 41.6625 83.9615 41.6488 83.9648C41.621 83.9715 41.5826 83.9764 41.5323 83.9779C41.4318 83.981 41.2947 83.9707 41.1227 83.9442L41.1207 83.9439L41.1207 83.944C40.8408 83.9066 40.354 83.9095 39.7887 83.9433C39.2211 83.9771 38.567 84.0425 37.9488 84.1327C37.5521 84.1881 37.1271 84.3262 36.8368 84.4855L36.8363 84.4857C36.5951 84.6197 36.2434 84.7861 36.0745 84.8367L36.0709 84.8378L36.0709 84.8379C35.9692 84.8726 35.8827 84.9078 35.8151 84.9406C35.7512 84.9716 35.6937 85.0054 35.6598 85.0402C35.6506 85.0496 35.6396 85.0627 35.6311 85.0794C35.6227 85.0959 35.6133 85.1231 35.6196 85.1559C35.6336 85.2286 35.7015 85.2463 35.7199 85.2502C35.7477 85.2561 35.7793 85.2559 35.8099 85.2536C35.8419 85.2512 35.8797 85.2458 35.923 85.2376C35.9358 85.2355 35.9476 85.2336 35.9585 85.2319C35.9567 85.2354 35.9549 85.239 35.9531 85.2427C35.9194 85.2963 35.8948 85.3479 35.8793 85.3893C35.8714 85.4103 35.8651 85.4309 35.8614 85.4492C35.8596 85.4579 35.8578 85.4697 35.8578 85.4825C35.8578 85.4889 35.8582 85.4988 35.8609 85.5102C35.8633 85.5203 35.8698 85.5414 35.8887 85.5603L35.918 85.5896H35.9594C35.9594 85.5896 35.9628 85.5898 35.9698 85.5903C35.989 85.5916 36.0351 85.5948 36.1092 85.6001L36.1336 85.6019C36.2285 85.6086 36.3575 85.6178 36.5129 85.6286C36.851 85.6522 37.3139 85.6837 37.8217 85.7151C39.4092 85.8231 40.3057 85.8969 40.8976 86.0046C41.4811 86.1108 41.7626 86.2488 42.1197 86.4882C42.218 86.5583 42.3277 86.6237 42.4255 86.6719C42.4745 86.6962 42.522 86.7168 42.5645 86.7316C42.6031 86.7451 42.6458 86.7567 42.6844 86.7575C42.8058 86.7665 42.8708 86.7728 42.9185 86.7841C42.9605 86.7939 42.9898 86.8078 43.0367 86.839C43.0672 86.86 43.1057 86.8683 43.1446 86.8575C43.1787 86.848 43.203 86.8267 43.2185 86.8098C43.2495 86.776 43.2748 86.7269 43.2966 86.6746C43.3416 86.5663 43.388 86.4023 43.4332 86.1941C43.7413 84.8442 43.7771 84.3045 43.7231 82.0192L43.7231 82.0191C43.6782 80.2309 43.6876 79.6012 43.7938 78.8926C43.8751 78.3957 43.9652 77.6028 43.9924 77.1319M43.768 73.2784L43.8927 77.1251M43.768 73.2784L43.7699 73.2751C43.8444 73.1447 43.9877 73.08 44.1162 73.0743C44.2424 73.0688 44.3925 73.1214 44.4446 73.2717M43.768 73.2784L43.8567 73.3247C43.9645 73.136 44.288 73.1181 44.3509 73.3067M43.9924 77.1319C43.9924 77.1315 43.9925 77.1312 43.9925 77.1309L43.8927 77.1251M43.9924 77.1319C43.9924 77.1322 43.9924 77.1325 43.9924 77.1328L43.8927 77.1251M43.9924 77.1319C44.0282 76.6678 44.1535 75.6473 44.2789 74.8771L44.2789 74.8769C44.3419 74.4851 44.3939 74.1151 44.4255 73.8322C44.4413 73.691 44.4523 73.5702 44.4569 73.4789C44.4592 73.4333 44.4601 73.3935 44.4589 73.3612C44.4584 73.3451 44.4573 73.3294 44.4553 73.3151C44.4537 73.3037 44.4509 73.2877 44.4446 73.2717M43.8927 77.1251C43.9286 76.6579 44.0544 75.6337 44.1802 74.861C44.3059 74.0794 44.3868 73.3876 44.3509 73.3067M44.4446 73.2717C44.445 73.2728 44.4453 73.274 44.4457 73.2751L44.3509 73.3067M44.4446 73.2717C44.4438 73.2698 44.4431 73.268 44.4422 73.2661L44.3509 73.3067" fill="#318D69" stroke="#318D69" stroke-width="0.2"/>
<path d="M44.7563 85.4655C44.8046 85.4797 44.8507 85.4929 44.891 85.5039C44.888 85.4881 44.8848 85.4711 44.8814 85.4532C44.8591 85.3358 44.8278 85.177 44.792 85.007L44.792 85.007L44.7918 85.0062C44.7054 84.5788 44.6353 84.0062 44.6014 83.5553C44.5845 83.3302 44.5763 83.1321 44.5801 82.9962C44.582 82.9305 44.5867 82.8707 44.5979 82.8288C44.6009 82.8176 44.6051 82.8047 44.6114 82.792C44.6171 82.7804 44.6281 82.7616 44.6482 82.7463C44.6719 82.7283 44.7043 82.7184 44.739 82.7259C44.7685 82.7323 44.7883 82.7489 44.7988 82.7594C44.8117 82.7723 44.8204 82.7871 44.8252 82.7956C44.831 82.8059 44.8366 82.8175 44.8419 82.8294C44.8526 82.8533 44.8645 82.8838 44.8772 82.919C44.9027 82.9897 44.9337 83.0851 44.9676 83.1977C45.0355 83.4231 45.1168 83.7212 45.1936 84.0371C45.3461 84.6473 45.4709 85.0881 45.5726 85.3753C45.6161 85.4984 45.6543 85.5899 45.6872 85.6535C45.6946 85.6119 45.7021 85.5618 45.7094 85.5038C45.7344 85.3066 45.7564 85.0311 45.7726 84.7217C45.8051 84.1027 45.8139 83.357 45.7783 82.8461L45.7783 82.8454C45.671 81.1457 45.1784 78.7769 44.708 77.6674C44.6668 77.5714 44.6301 77.4774 44.6035 77.4021C44.5902 77.3646 44.5791 77.3308 44.5712 77.3034C44.5673 77.2897 44.5639 77.2766 44.5613 77.2649C44.5592 77.2549 44.5562 77.2396 44.5562 77.2239C44.5562 77.2138 44.5571 77.1958 44.5651 77.1763C44.5741 77.1542 44.5947 77.1256 44.6329 77.114C44.6663 77.1039 44.6943 77.1128 44.7073 77.1182C44.7215 77.1241 44.7326 77.1319 44.7398 77.1375C44.7659 77.1579 44.7938 77.1921 44.8191 77.2259C44.8736 77.2987 44.9471 77.4126 45.0273 77.5465C45.1882 77.815 45.3832 78.1754 45.5198 78.4761C46.3544 80.2905 46.7878 83.0756 46.5616 85.2481C46.5254 85.6074 46.4805 85.9057 46.4253 86.1429C46.3705 86.3782 46.3037 86.562 46.2189 86.6859C46.1321 86.8129 46.0149 86.8908 45.8684 86.8722C45.7356 86.8554 45.6066 86.7612 45.4815 86.6268L45.5547 86.5587L45.4817 86.6271C45.343 86.4791 45.1727 86.2362 45.1112 86.0654C45.0701 85.9715 45.0353 85.9256 44.9877 85.8943C44.9354 85.86 44.8554 85.8353 44.7046 85.8131L44.7046 85.8131L44.703 85.8128C44.4776 85.776 44.2758 85.7155 44.1645 85.6598C44.1369 85.646 44.1091 85.6297 44.0874 85.6106C44.0766 85.6012 44.0629 85.5872 44.0525 85.5682C44.0417 85.5484 44.0315 85.5168 44.0415 85.4803C44.0514 85.4445 44.0756 85.4229 44.0937 85.4115C44.1115 85.4002 44.1301 85.3941 44.1451 85.3905C44.1752 85.3831 44.2119 85.3805 44.2519 85.3805C44.3636 85.3805 44.589 85.419 44.7549 85.465L44.7549 85.465L44.7563 85.4655Z" fill="#318D69" stroke="#318D69" stroke-width="0.2"/>
<path d="M39.8781 86.7197C39.7047 86.7561 39.4852 86.721 39.2886 86.652C39.0912 86.5826 38.8966 86.472 38.7778 86.3379L38.6075 86.1497L38.4326 85.9564L38.6919 85.9831L39.3028 86.046L39.3028 86.046L39.3033 86.046C39.45 86.0618 39.5583 86.0734 39.6398 86.0788C39.7238 86.0844 39.7678 86.0826 39.7914 86.0772C39.7933 86.0767 39.7949 86.0763 39.7961 86.0759C39.7989 86.0659 39.8015 86.0455 39.8035 85.9995C39.8035 85.9518 39.804 85.9108 39.8069 85.8806C39.8083 85.8658 39.8108 85.8471 39.8167 85.8293C39.8204 85.8181 39.8371 85.77 39.891 85.7534C39.9466 85.7363 39.9878 85.7689 39.9975 85.7769C40.0122 85.789 40.0242 85.8039 40.0328 85.8154C40.0507 85.8393 40.0721 85.8734 40.096 85.9126C40.2744 86.189 40.4264 86.4001 40.5467 86.541C40.6071 86.6118 40.6573 86.6621 40.6968 86.6939C40.7339 86.7237 40.7502 86.7277 40.7501 86.7282C40.7501 86.7283 40.7494 86.7283 40.748 86.7283C40.8143 86.7283 40.8774 86.7497 40.9221 86.7996C40.9657 86.8484 40.9795 86.9106 40.9771 86.9684C40.9723 87.0814 40.906 87.2071 40.8008 87.3123L40.8008 87.3123L40.7985 87.3145C40.7639 87.3469 40.7267 87.3809 40.6879 87.4026C40.6429 87.4277 40.5903 87.4395 40.5318 87.4212C40.4819 87.4056 40.4383 87.371 40.3984 87.333C40.3569 87.2935 40.3087 87.2397 40.2505 87.1726C40.1802 87.0929 40.1141 87.0057 40.0649 86.9277C40.0403 86.8887 40.0189 86.8503 40.0032 86.8152C39.9902 86.7858 39.9768 86.7493 39.9745 86.7129M39.8781 86.7197C39.8785 86.7196 39.8789 86.7195 39.8793 86.7195L39.8586 86.6216L39.877 86.7199C39.8774 86.7199 39.8777 86.7198 39.8781 86.7197ZM39.8781 86.7197C39.9094 86.7139 39.9341 86.7115 39.9529 86.7115C39.9623 86.7115 39.9694 86.7121 39.9745 86.7129M39.9745 86.7129C39.9743 86.7094 39.9742 86.7059 39.9742 86.7025C39.9742 86.7007 39.9741 86.6999 39.9741 86.6999C39.9741 86.6999 39.9743 86.7009 39.9749 86.7025C39.9754 86.7038 39.9762 86.7055 39.9775 86.7074C39.9815 86.7133 39.9857 86.7154 39.9857 86.7154C39.9857 86.7155 39.9855 86.7154 39.9852 86.7153C39.9835 86.7146 39.9801 86.7137 39.9745 86.7129Z" fill="#318D69" stroke="#318D69" stroke-width="0.2"/>
<path d="M41.0216 86.2128L41.0214 86.2127L41.0238 86.2067C41.0477 86.1482 41.0719 86.0958 41.0972 86.0657C41.1039 86.0577 41.1169 86.0434 41.1365 86.0331C41.1594 86.0211 41.1992 86.0114 41.2395 86.0342C41.2721 86.0527 41.2847 86.0819 41.2891 86.0937C41.2944 86.1081 41.2967 86.1219 41.2978 86.132C41.3021 86.17 41.2979 86.2252 41.2902 86.287C41.2822 86.3521 41.2689 86.4346 41.2507 86.5322L41.2507 86.5322L41.2505 86.5335C41.2369 86.6013 41.2253 86.6554 41.2153 86.6954C41.2103 86.7153 41.2054 86.7332 41.2004 86.7482C41.1964 86.7604 41.1893 86.7803 41.1775 86.7974C41.1729 86.8041 41.1566 86.8274 41.1249 86.8389C41.1063 86.8457 41.0841 86.8476 41.0615 86.8412C41.0402 86.8352 41.0252 86.8236 41.0159 86.8143C40.9993 86.7975 40.9921 86.779 40.9895 86.772C40.9861 86.7626 40.9839 86.7535 40.9824 86.7462C40.9769 86.7192 40.9739 86.68 40.9717 86.6357L40.9715 86.6357V86.6307C40.9715 86.5637 40.9763 86.4836 40.9845 86.4097C40.9925 86.3377 41.0046 86.2638 41.0216 86.2128Z" fill="#318D69" stroke="#318D69" stroke-width="0.2"/>
</svg>
