<svg width="73" height="75" viewBox="0 0 73 75" fill="none" xmlns="http://www.w3.org/2000/svg">
<path fill-rule="evenodd" clip-rule="evenodd" d="M39.1767 0.951791C37.5311 1.34211 36.5791 1.81993 35.6164 2.73799L34.5511 3.75468L33.3398 3.30332C30.5538 2.26528 27.0593 3.15297 24.8824 5.45217C23.492 6.92022 22.5187 9.00322 22.5187 10.5104C22.5187 11.266 22.3316 11.6287 21.7356 12.0277C21.3048 12.3164 20.5918 12.907 20.1507 13.3403C19.4317 14.047 19.121 14.1297 17.1463 14.1402C15.2954 14.1498 14.7401 14.2776 13.6703 14.9398C12.6472 15.5728 12.0623 15.7195 10.6949 15.6867C7.11817 15.601 4.37971 17.8933 3.8458 21.4206C3.7393 22.1237 3.52061 22.6986 3.35973 22.6986C3.19856 22.6986 2.63731 23.0447 2.11195 23.4678C-0.916387 25.9072 -0.639323 31.1632 2.63048 33.31C3.65388 33.9818 4.00982 34.4003 4.00982 34.932C4.00982 36.6917 5.73598 39.3491 7.51967 40.3354C7.96246 40.5799 8.83921 40.8731 9.46851 40.9864C10.4777 41.1684 10.6568 41.3295 10.9916 42.3577C11.4729 43.8368 12.9365 45.4411 14.2085 45.8843C14.7501 46.0732 15.7965 46.1523 16.5338 46.06C20.5875 45.553 25.1996 51.3127 28.12 60.5285C29.1363 63.7367 30.207 69.1221 30.207 71.028C30.207 71.587 30.3983 72.4356 30.6324 72.9134C31.4445 74.5715 31.9317 74.7209 36.5305 74.7209C40.7157 74.7209 40.7377 74.7173 41.6013 73.894C42.4342 73.1004 42.4923 72.8794 43.0484 68.4061C44.4206 57.3629 46.4831 50.6641 49.4875 47.4913C51.2162 45.6657 52.2644 45.3605 54.5555 46.0154C57.4637 46.8466 59.9305 46.1183 61.7925 43.8789C62.4241 43.1193 63.0861 42.6842 63.9011 42.4933C66.3562 41.9183 68.0955 39.8891 68.4964 37.1326C68.6168 36.3032 68.8734 35.9526 69.7063 35.4787C70.2875 35.1479 71.1523 34.2906 71.6278 33.5734C72.4228 32.3745 72.4926 32.0678 72.4926 29.7646C72.4926 27.5701 72.4052 27.1353 71.7881 26.2572C71.2101 25.4348 71.0979 24.9681 71.1645 23.6603C71.3524 19.9592 69.1123 16.8751 65.7671 16.2298C64.9854 16.0789 64.5321 15.7243 63.8883 14.7597C62.7914 13.1163 61.2859 12.3396 59.1807 12.3308L57.544 12.3242L57.3771 11.2718C56.5103 5.80069 52.6132 2.46495 47.6586 2.9536C46.0087 3.11628 45.7456 3.05734 44.5528 2.25836C43.836 1.77844 42.615 1.24197 41.8396 1.06636C40.3797 0.735583 40.1331 0.725058 39.1767 0.951791ZM42.275 3.87015C42.7944 4.09929 43.6379 4.71905 44.1496 5.24709C44.9292 6.05178 45.2014 6.16695 45.8302 5.95796C46.2428 5.82084 47.5609 5.70868 48.7597 5.70868C50.7498 5.70868 51.0468 5.79077 52.1767 6.6523C53.6591 7.78265 54.9804 10.2412 54.9804 11.8696C54.9804 12.4917 54.7899 13.5707 54.5569 14.268C54.1013 15.6314 54.2232 16.1399 55.2386 17.1103C56.1034 17.9369 56.0015 19.2119 54.9804 20.3402C53.9886 21.4366 53.996 21.3939 54.5532 22.8027C55.4032 24.9512 54.7956 26.861 52.8427 28.1772C51.8276 28.8613 51.8256 28.8673 52.003 30.5576C52.2912 33.2979 50.944 35.2727 48.596 35.552C46.9956 35.7424 45.8968 35.285 44.7453 33.9487C44.2592 33.3842 43.6982 32.9227 43.4989 32.9227C43.2996 32.9227 42.6298 33.4754 42.0108 34.1511C40.3968 35.912 39.1049 36.5311 37.0433 36.5311C34.9319 36.5311 33.7456 36.038 32.3751 34.5907C31.1378 33.2841 30.8104 33.2411 28.8965 34.1321C27.0029 35.0138 25.3508 34.7958 23.818 33.4615C21.9381 31.8248 21.442 29.4381 22.5187 27.2092C23.2938 25.6047 23.2568 25.4002 21.9438 24.0464C20.3668 22.4202 19.705 20.222 20.1988 18.2503C20.653 16.4373 21.7601 14.9912 23.4193 14.0443C24.7121 13.3063 24.7358 13.266 24.8505 11.5905C25.0948 8.02352 27.1092 5.83046 30.3411 5.61335C31.7899 5.51592 32.4312 5.62267 33.415 6.12576C34.0987 6.47518 34.8046 6.76115 34.9837 6.76115C35.1631 6.76115 35.7952 6.20184 36.3889 5.51833C38.1259 3.51773 40.1758 2.94398 42.275 3.87015ZM48.3602 6.08396C47.5916 6.26889 47.4962 7.38662 48.1366 8.70402C48.8246 10.1191 48.8648 10.9978 48.2944 12.1621C47.1742 14.4499 44.5428 15.0297 42.7252 13.389C41.6566 12.4244 41.0486 12.2719 40.515 12.8354C39.1863 14.2385 42.2098 16.9852 45.0824 16.9852C46.2294 16.9852 48.2135 16.1264 49.1037 15.2444C50.9275 13.4377 51.5018 10.2274 50.4423 7.76281C49.8736 6.44 49.1857 5.88549 48.3602 6.08396ZM30.1742 8.36151C27.6664 9.34994 25.9371 11.8308 25.9448 14.4292C25.9485 15.6967 26.7754 17.9414 27.5887 18.8911C28.462 19.9114 30.1458 20.6493 30.7805 20.2906C31.719 19.7604 31.504 18.5669 30.3388 17.841C27.9347 16.3429 27.8245 12.7338 30.1366 11.2248C30.9268 10.7088 31.3941 10.6225 32.6507 10.7594C34.2254 10.9311 35.0478 10.548 35.0478 9.64313C35.0478 8.38437 32.09 7.60674 30.1742 8.36151ZM35.7064 14.2145C35.1597 14.5813 34.763 16.0121 34.763 17.6158C34.763 23.2685 41.1278 25.9796 44.942 21.9517C46.1784 20.646 46.4831 19.5589 45.8114 18.8496C45.2157 18.2205 44.6316 18.4532 43.5843 19.737C42.6651 20.864 42.4146 20.9984 41.0008 21.1223C39.6283 21.2426 39.327 21.1635 38.5599 20.4815C37.0954 19.1804 36.791 17.8251 37.4636 15.6016C37.7794 14.5582 36.5911 13.6203 35.7064 14.2145ZM60.7654 15.2161C61.5741 15.6531 62.3697 16.7007 62.3776 17.3397C62.389 18.2545 63.2123 18.7894 64.611 18.7906C66.2056 18.7918 67.5812 19.5872 68.2099 20.8709C68.7387 21.9511 68.7937 22.6445 68.5123 24.6881C68.3284 26.0238 68.3739 26.2809 68.8592 26.6427C69.5915 27.1885 70.357 28.7825 70.357 29.7622C70.357 30.1904 70.0927 31.0881 69.7698 31.7568C69.3074 32.7137 68.8526 33.1262 67.6342 33.6955C66.7825 34.0933 66.0743 34.5218 66.0606 34.6478C66.0467 34.7741 66.0142 35.5854 65.9886 36.4512C65.949 37.7812 65.8026 38.1715 65.0435 38.9735C64.3328 39.7241 63.8387 39.9529 62.6746 40.0711C61.3363 40.207 61.1407 40.3261 60.5023 41.3936C59.4424 43.1672 58.294 43.8031 56.3856 43.6744C54.5196 43.5484 53.2781 42.748 52.5964 41.2306C52.1146 40.1583 51.6565 39.8389 50.6003 39.8389C49.8987 39.8389 49.2853 39.3223 49.2853 38.7314C49.2853 38.5191 49.8938 38.0175 50.6379 37.6167C53.0617 36.3107 54.4109 34.1947 54.4109 31.6985C54.4109 30.6514 54.6096 30.2214 55.67 28.9762C57.1573 27.2294 57.6701 25.3848 57.2365 23.3454C57.0018 22.2434 57.0457 21.9327 57.5394 21.2005C58.4256 19.8864 58.5526 17.9763 57.8487 16.5504C57.3999 15.6413 57.3455 15.3084 57.6166 15.1265C58.1394 14.7759 60.0509 14.8303 60.7654 15.2161ZM17.74 18.9428C17.5805 21.5653 18.0842 23.3415 19.4542 24.9897C20.2469 25.943 20.2811 26.0795 19.9431 26.941C19.4394 28.2253 19.5182 31.0171 20.1017 32.5492C20.3751 33.2679 21.186 34.3961 21.9495 35.1211C23.1178 36.2304 23.8644 36.619 26.1729 37.3184C26.9386 37.5505 26.2825 38.1898 25.1054 38.3591C23.9478 38.5251 23.3869 38.9744 23.3772 39.7418C23.3672 40.5675 21.8897 41.3425 20.3255 41.3425C18.9265 41.3425 18.6888 41.4432 17.8388 42.3949C16.5893 43.7941 15.1746 43.8573 13.9542 42.5684C13.2799 41.8564 13.1219 41.4315 13.1219 40.3309C13.1219 39.5836 12.9784 38.8788 12.8029 38.7642C12.6278 38.6496 11.7403 38.5402 10.8308 38.5209C8.21873 38.4653 6.59508 36.852 6.35446 34.0726C6.19244 32.2034 5.98571 31.8515 4.91504 31.6254C3.84808 31.3999 2.63817 30.0638 2.42745 28.8782C2.13444 27.2282 2.91609 25.783 4.49845 25.0493C6.16169 24.2779 6.27787 24.1044 6.28356 22.3898C6.29296 19.423 8.74125 17.6302 11.658 18.4541C12.7933 18.7747 12.9818 18.7509 13.52 18.2187C14.4764 17.2727 15.747 16.6884 16.8521 16.6863L17.8772 16.6845L17.74 18.9428ZM48.2548 21.3304C48.1597 21.5923 48.1774 22.1763 48.2944 22.6286C48.9784 25.2721 48.1737 27.4567 46.2721 28.1195C44.784 28.6382 43.5217 28.2626 42.1993 26.9073C41.2448 25.9288 40.9267 25.764 40.3934 25.9709C38.9201 26.5426 39.782 28.6941 42.0452 30.0948C44.6863 31.7295 48.1717 30.8878 49.9716 28.1802C51.626 25.6916 51.153 21.1852 49.2124 20.9494C48.6979 20.8869 48.3684 21.018 48.2548 21.3304ZM25.7523 22.2713C25.0618 23.3842 25.1182 26.1339 25.8628 27.6603C26.9796 29.9487 28.7747 31.1184 31.1709 31.1184C33.0872 31.1184 33.8316 30.8343 35.173 29.5905C36.574 28.2912 37.1526 27.0892 36.7548 26.3044C36.2545 25.3175 35.32 25.5875 34.0665 27.0817C32.6946 28.717 31.2116 29.1211 29.6714 28.28C28.1639 27.457 27.5824 26.1673 27.7877 24.1038C27.9754 22.2184 27.6912 21.4958 26.7618 21.4958C26.4713 21.4958 26.0171 21.8446 25.7523 22.2713ZM7.88159 23.9511C7.59598 24.3817 7.42684 25.2658 7.42684 26.3267C7.42684 30.551 11.0332 33.5388 14.8648 32.4893C16.5742 32.0208 18.0264 30.8646 18.6512 29.4739C19.7771 26.9684 17.5891 25.9766 16.3806 28.4445C15.5665 30.1071 13.1541 30.6932 11.5028 29.6299C10.204 28.7937 9.85947 27.9424 9.85292 25.5553C9.84751 23.503 9.82843 23.448 9.09178 23.3581C8.56357 23.2934 8.19937 23.472 7.88159 23.9511ZM65.5165 24.9536C65.2505 25.2919 65.2354 25.7099 65.4561 26.628C65.9393 28.6388 65.2124 30.3462 63.4665 31.2994C63.0434 31.5307 62.4215 31.7198 62.0852 31.7198C61.016 31.7198 59.4757 30.7437 58.8897 29.6949C58.4486 28.9055 58.1639 28.7007 57.6058 28.7717C56.4275 28.9218 56.1604 29.7445 56.866 31.0514C58.8202 34.671 63.7835 35.1711 66.4795 32.0199C68.0653 30.1664 68.5195 26.9239 67.4474 25.1109C67.0242 24.3955 66.0193 24.3137 65.5165 24.9536ZM31.5883 37.3581C32.551 38.0789 32.7364 38.4166 33.034 39.9893C33.2219 40.9816 33.4383 43.9586 33.5152 46.6048L33.655 51.4161L32.428 49.0105C31.0399 46.2885 29.7565 44.2398 28.1605 42.1974L27.0659 40.7967L27.9099 39.9054C28.3743 39.4149 28.8402 38.6244 28.9452 38.1484C29.1272 37.3241 29.7707 36.5311 30.2577 36.5311C30.3821 36.5311 30.9809 36.9034 31.5883 37.3581ZM44.735 37.2868C45.3583 37.7021 45.8683 38.1676 45.8683 38.321C45.8683 38.474 45.1712 39.6254 44.3195 40.8791C43.4679 42.133 42.6902 43.4267 42.592 43.7541C42.1623 45.1837 41.8818 44.121 41.8818 41.0637C41.8818 37.872 41.9034 37.7598 42.6321 37.1545C43.0447 36.8117 43.4317 36.5311 43.4921 36.5311C43.5521 36.5311 44.1117 36.8712 44.735 37.2868ZM39.4309 39.4125C39.7575 40.311 39.5932 46.0061 39.1584 48.8601C38.919 50.4313 38.6516 52.1962 38.5644 52.7817C38.3887 53.9598 38.9124 54.7005 39.794 54.5212C40.3532 54.4073 40.3871 54.3447 42.5618 49.3975C43.4135 47.4603 44.8312 44.7071 45.7126 43.2793L47.3149 40.6833L48.0472 41.4567C48.4502 41.8819 49.2139 42.3159 49.7444 42.4211C50.2748 42.5263 50.7091 42.7774 50.7091 42.9792C50.7091 43.181 50.0684 43.7845 49.285 44.3207C47.8639 45.2929 45.9267 47.8362 44.7962 50.2133C43.1364 53.7033 41.4464 60.9224 40.6112 68.0894C40.3712 70.1481 40.0676 71.9457 39.9369 72.0837C39.8059 72.2221 38.1718 72.2969 36.3055 72.25L32.9121 72.1649L32.4428 68.8572C31.4115 61.5852 29.4233 55.5867 26.3788 50.5606C25.0988 48.4479 22.7462 45.7499 21.44 44.8974L20.3953 44.2157L21.6707 43.9535C22.372 43.8095 23.3715 43.3518 23.892 42.9362L24.838 42.1808L25.5373 42.8746C27.7846 45.104 31.3053 51.7977 32.7959 56.6749C33.6957 59.6191 34.3188 60.3129 35.3043 59.4682C35.8935 58.9627 35.9365 58.6241 36.0956 53.2204C36.2471 48.0858 35.8972 40.9591 35.4307 39.6753C35.3177 39.3647 35.7129 39.242 37.0871 39.1602C38.0798 39.101 38.9742 39.0267 39.075 38.9948C39.1758 38.963 39.3358 39.1509 39.4309 39.4125Z" fill="#1A824F"/>
</svg>
