<svg width="171" height="180" viewBox="0 0 171 180" fill="none" xmlns="http://www.w3.org/2000/svg">
<mask id="path-1-outside-1_21_891" maskUnits="userSpaceOnUse" x="22.9904" y="19.189" width="123" height="86" fill="black">
<rect fill="white" x="22.9904" y="19.189" width="123" height="86"/>
<path d="M83.7984 19.969C81.3375 20.405 79.7062 21.1221 77.0203 22.9081C75.164 24.1315 73.8562 24.8768 72.6609 25.369C71.9297 25.6643 70.9172 25.8331 68.2734 26.0862C65.1375 26.3815 62.9859 27.0143 60.8765 28.2659C59.9484 28.8143 58.95 29.6018 56.9531 31.3456C55.1672 32.8925 54.7031 33.1315 53.1703 33.244C51.3422 33.3846 48.6562 33.8487 47.3203 34.2706C44.7187 35.0862 42.1734 36.7596 40.4718 38.7706C38.7843 40.7675 37.5468 44.494 36.2672 51.455C35.5359 55.4768 35.1703 56.0956 31.4297 59.8362C28.3218 62.93 27.4359 64.0971 26.0718 66.8675C24.5812 69.9331 23.9765 72.38 23.9906 75.3753C24.0047 78.7222 24.8203 81.7596 27 86.555C29.5172 92.1237 30.9093 94.0784 33.6093 95.8925C35.6484 97.2565 38.3062 97.8753 41.2453 97.6784C44.7047 97.4393 46.9265 96.3425 50.6672 93.0378C53.3812 90.6472 53.2547 90.6753 58.7812 90.5628C62.8734 90.4643 63.4078 90.4222 65.7422 90.0143C68.864 89.4659 70.7625 89.4237 72.1406 89.8456C72.6469 90.0003 73.9125 90.5487 74.9531 91.069C75.9937 91.5753 78.0187 92.4753 79.4531 93.0518C83.8687 94.8378 84.5297 95.2315 86.85 97.4393C88.0453 98.5925 89.325 99.6612 90.0422 100.125C90.7031 100.547 91.2515 100.969 91.2515 101.067C91.2656 101.166 91.5609 101.785 91.9265 102.46C92.8828 104.175 93.6281 104.611 94.2328 103.782C94.5984 103.275 94.725 102.657 94.4719 102.657C94.3594 102.657 94.0219 102.432 93.7125 102.15C93.2203 101.7 93.2062 101.658 93.5156 101.728C95.5687 102.192 97.2844 102.178 98.8734 101.686C99.3937 101.517 100.744 100.969 101.897 100.463C106.439 98.4518 107.873 98.1565 112.247 98.4097C118.645 98.7893 120.502 98.5503 122.639 97.1159C123.033 96.8487 124.537 95.4706 125.972 94.0503C128.362 91.7018 128.714 91.4065 129.867 90.8159C130.57 90.4503 132.159 89.8456 133.453 89.4518C136.547 88.4815 137.77 87.9893 139.064 87.1456C141.637 85.4722 143.55 82.7722 144.759 79.13C145.322 77.4003 145.448 76.4159 145.364 74.0675C145.28 71.5503 144.956 70.1581 143.944 68.1331C142.875 65.9815 141.553 64.6878 139.289 63.5487C136.673 62.255 134.705 62.1284 131.062 63.0706C127.898 63.8721 125.677 66.1081 124.875 69.2721C124.537 70.594 124.509 72.5628 124.805 73.7581C125.044 74.7284 126.394 77.4706 127.153 78.5253C127.702 79.3128 129.431 80.719 130.261 81.0706C131.527 81.5909 133.144 81.155 133.903 80.0862C134.873 78.7081 135.844 75.9659 135.844 74.6018C135.844 73.9831 135.38 72.394 135.098 72.0284C135.028 71.944 134.789 71.8596 134.564 71.8596C134.072 71.8596 132.202 72.4784 131.344 72.9284C130.809 73.1956 130.767 73.2518 131.062 73.2518C131.259 73.2518 131.794 73.1675 132.258 73.055C133.594 72.7315 133.678 72.7456 133.875 73.4768C134.283 74.9393 133.453 76.669 132.356 76.6409C131.906 76.6268 131.062 76.2471 130.233 75.7128C129.586 75.2768 129.361 75.0378 129.22 74.6018C128.883 73.6315 128.995 72.3659 129.53 70.9456L130.008 69.68L131.133 69.005C133.2 67.7815 134.564 67.4862 136.477 67.8518C138.544 68.2456 140.02 69.3425 140.625 70.9596C141.075 72.1971 141.37 74.1659 141.272 75.3472C140.948 78.8487 138.67 82.0268 135.239 83.7425C134.564 84.094 132.989 84.6847 131.752 85.0784C127.645 86.3862 126.127 87.2159 123.539 89.5503C120.952 91.8706 120.305 92.3909 119.32 92.9112L118.336 93.4315L113.414 93.53C108.267 93.6284 107.662 93.6987 104.836 94.4159C103.092 94.8518 102.037 95.2175 99.3094 96.3143C97.3125 97.1159 97.0875 97.1722 96.0609 97.1722C94.7953 97.1722 93.3609 96.905 92.2359 96.469C91.35 96.1175 90.5344 95.5268 88.8047 93.9378C88.1156 93.305 87.1734 92.5315 86.7094 92.2222C85.3875 91.3081 82.9547 90.2393 80.0015 89.2409C78.4828 88.7347 76.3031 87.919 75.15 87.4128C72.2953 86.1753 72.1265 86.1331 69.75 86.1472C68.0344 86.1612 67.3594 86.2315 65.5312 86.5972C62.4375 87.23 60.6656 87.469 59.175 87.469C57.375 87.4831 54.3937 87.7081 53.7047 87.8909C53.3812 87.9753 53.114 88.0315 53.0859 88.0034C53.0578 87.9753 53.1281 87.5534 53.2547 87.0471C53.3953 86.4284 53.4375 85.7956 53.3812 85.0784C53.2406 83.18 53.1281 82.4065 53.0015 82.4909C52.9453 82.519 52.7203 82.2237 52.5234 81.83C51.975 80.7612 50.9484 79.805 49.6828 79.2143C47.3343 78.0893 44.339 78.5253 42.6656 80.255C42.0047 80.93 41.864 81.4784 42.3 81.5909C42.4547 81.6331 43.1015 81.4925 43.7484 81.2675C46.2515 80.4378 47.9672 80.4378 49.6265 81.2815C51.1312 82.0409 51.4968 82.7018 51.4968 84.6425C51.4968 85.8659 51.2297 86.9487 50.5547 88.3831C49.9781 89.6347 49.9218 89.705 48.5718 90.7597C45.1406 93.4878 43.5093 94.219 40.9922 94.219C39.7828 94.219 37.8281 93.8956 36.7593 93.5159C35.1 92.9393 33.2437 91.1956 32.0906 89.1565C31.275 87.7081 28.9968 82.505 28.4062 80.719C27.8015 78.8768 27.3375 76.894 27.2109 75.4456C27.014 73.3081 27.8297 70.0034 29.1656 67.6128C30.15 65.8128 31.1062 64.6596 33.1875 62.705C36.9562 59.1753 38.2218 56.869 39.0234 51.9893C39.9234 46.4628 40.7812 43.3268 41.7937 41.7659C43.2703 39.53 46.8 36.7315 48.8672 36.155C49.1765 36.0706 50.6672 35.8737 52.1859 35.719C55.35 35.3956 56.3344 35.1706 57.2625 34.58C58.0922 34.0456 59.2172 32.8362 60.0328 31.6128C60.5953 30.755 60.7219 30.6425 61.8609 30.1221C64.2094 29.0112 65.7422 28.6596 69.3562 28.4065C72.9844 28.1534 74.489 27.619 77.9906 25.2987C81.3515 23.0768 82.7578 22.5284 85.5844 22.4018C89.0578 22.2331 91.139 22.9643 96.1312 26.044C100.378 28.6737 101.306 29.0393 106.172 30.0096C111.98 31.1628 113.048 31.6128 115.242 33.8206C116.03 34.594 117.337 36.0284 118.181 37.0268C120.445 39.6987 122.006 41.0628 126.942 44.6346C130.753 47.405 132.258 49.2471 132.947 52.0456C133.073 52.5518 133.27 54.4221 133.383 56.194C133.622 59.6956 133.608 59.6675 134.044 60.6237C134.409 61.4534 134.873 61.7487 135.267 61.3971C135.577 61.1159 136.631 58.5565 137.123 56.8831C137.419 55.9128 137.461 55.4487 137.461 53.5784C137.461 51.6659 137.419 51.2721 137.137 50.4284C136.139 47.4471 134.508 45.0425 132.202 43.13C131.527 42.5956 129.628 41.2456 127.955 40.1346C124.031 37.5471 123.314 36.9565 119.531 33.2581C114.764 28.6034 113.864 28.1534 106.847 27.0003C101.63 26.1425 101.067 25.9315 96.4265 23.1753C93.9094 21.6706 91.9125 20.7284 90.2531 20.2362C89.4234 19.9971 88.7765 19.9268 86.8359 19.8846C85.5281 19.8706 84.15 19.8987 83.7984 19.969Z"/>
</mask>
<path d="M83.7984 19.969C81.3375 20.405 79.7062 21.1221 77.0203 22.9081C75.164 24.1315 73.8562 24.8768 72.6609 25.369C71.9297 25.6643 70.9172 25.8331 68.2734 26.0862C65.1375 26.3815 62.9859 27.0143 60.8765 28.2659C59.9484 28.8143 58.95 29.6018 56.9531 31.3456C55.1672 32.8925 54.7031 33.1315 53.1703 33.244C51.3422 33.3846 48.6562 33.8487 47.3203 34.2706C44.7187 35.0862 42.1734 36.7596 40.4718 38.7706C38.7843 40.7675 37.5468 44.494 36.2672 51.455C35.5359 55.4768 35.1703 56.0956 31.4297 59.8362C28.3218 62.93 27.4359 64.0971 26.0718 66.8675C24.5812 69.9331 23.9765 72.38 23.9906 75.3753C24.0047 78.7222 24.8203 81.7596 27 86.555C29.5172 92.1237 30.9093 94.0784 33.6093 95.8925C35.6484 97.2565 38.3062 97.8753 41.2453 97.6784C44.7047 97.4393 46.9265 96.3425 50.6672 93.0378C53.3812 90.6472 53.2547 90.6753 58.7812 90.5628C62.8734 90.4643 63.4078 90.4222 65.7422 90.0143C68.864 89.4659 70.7625 89.4237 72.1406 89.8456C72.6469 90.0003 73.9125 90.5487 74.9531 91.069C75.9937 91.5753 78.0187 92.4753 79.4531 93.0518C83.8687 94.8378 84.5297 95.2315 86.85 97.4393C88.0453 98.5925 89.325 99.6612 90.0422 100.125C90.7031 100.547 91.2515 100.969 91.2515 101.067C91.2656 101.166 91.5609 101.785 91.9265 102.46C92.8828 104.175 93.6281 104.611 94.2328 103.782C94.5984 103.275 94.725 102.657 94.4719 102.657C94.3594 102.657 94.0219 102.432 93.7125 102.15C93.2203 101.7 93.2062 101.658 93.5156 101.728C95.5687 102.192 97.2844 102.178 98.8734 101.686C99.3937 101.517 100.744 100.969 101.897 100.463C106.439 98.4518 107.873 98.1565 112.247 98.4097C118.645 98.7893 120.502 98.5503 122.639 97.1159C123.033 96.8487 124.537 95.4706 125.972 94.0503C128.362 91.7018 128.714 91.4065 129.867 90.8159C130.57 90.4503 132.159 89.8456 133.453 89.4518C136.547 88.4815 137.77 87.9893 139.064 87.1456C141.637 85.4722 143.55 82.7722 144.759 79.13C145.322 77.4003 145.448 76.4159 145.364 74.0675C145.28 71.5503 144.956 70.1581 143.944 68.1331C142.875 65.9815 141.553 64.6878 139.289 63.5487C136.673 62.255 134.705 62.1284 131.062 63.0706C127.898 63.8721 125.677 66.1081 124.875 69.2721C124.537 70.594 124.509 72.5628 124.805 73.7581C125.044 74.7284 126.394 77.4706 127.153 78.5253C127.702 79.3128 129.431 80.719 130.261 81.0706C131.527 81.5909 133.144 81.155 133.903 80.0862C134.873 78.7081 135.844 75.9659 135.844 74.6018C135.844 73.9831 135.38 72.394 135.098 72.0284C135.028 71.944 134.789 71.8596 134.564 71.8596C134.072 71.8596 132.202 72.4784 131.344 72.9284C130.809 73.1956 130.767 73.2518 131.062 73.2518C131.259 73.2518 131.794 73.1675 132.258 73.055C133.594 72.7315 133.678 72.7456 133.875 73.4768C134.283 74.9393 133.453 76.669 132.356 76.6409C131.906 76.6268 131.062 76.2471 130.233 75.7128C129.586 75.2768 129.361 75.0378 129.22 74.6018C128.883 73.6315 128.995 72.3659 129.53 70.9456L130.008 69.68L131.133 69.005C133.2 67.7815 134.564 67.4862 136.477 67.8518C138.544 68.2456 140.02 69.3425 140.625 70.9596C141.075 72.1971 141.37 74.1659 141.272 75.3472C140.948 78.8487 138.67 82.0268 135.239 83.7425C134.564 84.094 132.989 84.6847 131.752 85.0784C127.645 86.3862 126.127 87.2159 123.539 89.5503C120.952 91.8706 120.305 92.3909 119.32 92.9112L118.336 93.4315L113.414 93.53C108.267 93.6284 107.662 93.6987 104.836 94.4159C103.092 94.8518 102.037 95.2175 99.3094 96.3143C97.3125 97.1159 97.0875 97.1722 96.0609 97.1722C94.7953 97.1722 93.3609 96.905 92.2359 96.469C91.35 96.1175 90.5344 95.5268 88.8047 93.9378C88.1156 93.305 87.1734 92.5315 86.7094 92.2222C85.3875 91.3081 82.9547 90.2393 80.0015 89.2409C78.4828 88.7347 76.3031 87.919 75.15 87.4128C72.2953 86.1753 72.1265 86.1331 69.75 86.1472C68.0344 86.1612 67.3594 86.2315 65.5312 86.5972C62.4375 87.23 60.6656 87.469 59.175 87.469C57.375 87.4831 54.3937 87.7081 53.7047 87.8909C53.3812 87.9753 53.114 88.0315 53.0859 88.0034C53.0578 87.9753 53.1281 87.5534 53.2547 87.0471C53.3953 86.4284 53.4375 85.7956 53.3812 85.0784C53.2406 83.18 53.1281 82.4065 53.0015 82.4909C52.9453 82.519 52.7203 82.2237 52.5234 81.83C51.975 80.7612 50.9484 79.805 49.6828 79.2143C47.3343 78.0893 44.339 78.5253 42.6656 80.255C42.0047 80.93 41.864 81.4784 42.3 81.5909C42.4547 81.6331 43.1015 81.4925 43.7484 81.2675C46.2515 80.4378 47.9672 80.4378 49.6265 81.2815C51.1312 82.0409 51.4968 82.7018 51.4968 84.6425C51.4968 85.8659 51.2297 86.9487 50.5547 88.3831C49.9781 89.6347 49.9218 89.705 48.5718 90.7597C45.1406 93.4878 43.5093 94.219 40.9922 94.219C39.7828 94.219 37.8281 93.8956 36.7593 93.5159C35.1 92.9393 33.2437 91.1956 32.0906 89.1565C31.275 87.7081 28.9968 82.505 28.4062 80.719C27.8015 78.8768 27.3375 76.894 27.2109 75.4456C27.014 73.3081 27.8297 70.0034 29.1656 67.6128C30.15 65.8128 31.1062 64.6596 33.1875 62.705C36.9562 59.1753 38.2218 56.869 39.0234 51.9893C39.9234 46.4628 40.7812 43.3268 41.7937 41.7659C43.2703 39.53 46.8 36.7315 48.8672 36.155C49.1765 36.0706 50.6672 35.8737 52.1859 35.719C55.35 35.3956 56.3344 35.1706 57.2625 34.58C58.0922 34.0456 59.2172 32.8362 60.0328 31.6128C60.5953 30.755 60.7219 30.6425 61.8609 30.1221C64.2094 29.0112 65.7422 28.6596 69.3562 28.4065C72.9844 28.1534 74.489 27.619 77.9906 25.2987C81.3515 23.0768 82.7578 22.5284 85.5844 22.4018C89.0578 22.2331 91.139 22.9643 96.1312 26.044C100.378 28.6737 101.306 29.0393 106.172 30.0096C111.98 31.1628 113.048 31.6128 115.242 33.8206C116.03 34.594 117.337 36.0284 118.181 37.0268C120.445 39.6987 122.006 41.0628 126.942 44.6346C130.753 47.405 132.258 49.2471 132.947 52.0456C133.073 52.5518 133.27 54.4221 133.383 56.194C133.622 59.6956 133.608 59.6675 134.044 60.6237C134.409 61.4534 134.873 61.7487 135.267 61.3971C135.577 61.1159 136.631 58.5565 137.123 56.8831C137.419 55.9128 137.461 55.4487 137.461 53.5784C137.461 51.6659 137.419 51.2721 137.137 50.4284C136.139 47.4471 134.508 45.0425 132.202 43.13C131.527 42.5956 129.628 41.2456 127.955 40.1346C124.031 37.5471 123.314 36.9565 119.531 33.2581C114.764 28.6034 113.864 28.1534 106.847 27.0003C101.63 26.1425 101.067 25.9315 96.4265 23.1753C93.9094 21.6706 91.9125 20.7284 90.2531 20.2362C89.4234 19.9971 88.7765 19.9268 86.8359 19.8846C85.5281 19.8706 84.15 19.8987 83.7984 19.969Z" fill="#F9F7F1"/>
<path d="M83.7984 19.969C81.3375 20.405 79.7062 21.1221 77.0203 22.9081C75.164 24.1315 73.8562 24.8768 72.6609 25.369C71.9297 25.6643 70.9172 25.8331 68.2734 26.0862C65.1375 26.3815 62.9859 27.0143 60.8765 28.2659C59.9484 28.8143 58.95 29.6018 56.9531 31.3456C55.1672 32.8925 54.7031 33.1315 53.1703 33.244C51.3422 33.3846 48.6562 33.8487 47.3203 34.2706C44.7187 35.0862 42.1734 36.7596 40.4718 38.7706C38.7843 40.7675 37.5468 44.494 36.2672 51.455C35.5359 55.4768 35.1703 56.0956 31.4297 59.8362C28.3218 62.93 27.4359 64.0971 26.0718 66.8675C24.5812 69.9331 23.9765 72.38 23.9906 75.3753C24.0047 78.7222 24.8203 81.7596 27 86.555C29.5172 92.1237 30.9093 94.0784 33.6093 95.8925C35.6484 97.2565 38.3062 97.8753 41.2453 97.6784C44.7047 97.4393 46.9265 96.3425 50.6672 93.0378C53.3812 90.6472 53.2547 90.6753 58.7812 90.5628C62.8734 90.4643 63.4078 90.4222 65.7422 90.0143C68.864 89.4659 70.7625 89.4237 72.1406 89.8456C72.6469 90.0003 73.9125 90.5487 74.9531 91.069C75.9937 91.5753 78.0187 92.4753 79.4531 93.0518C83.8687 94.8378 84.5297 95.2315 86.85 97.4393C88.0453 98.5925 89.325 99.6612 90.0422 100.125C90.7031 100.547 91.2515 100.969 91.2515 101.067C91.2656 101.166 91.5609 101.785 91.9265 102.46C92.8828 104.175 93.6281 104.611 94.2328 103.782C94.5984 103.275 94.725 102.657 94.4719 102.657C94.3594 102.657 94.0219 102.432 93.7125 102.15C93.2203 101.7 93.2062 101.658 93.5156 101.728C95.5687 102.192 97.2844 102.178 98.8734 101.686C99.3937 101.517 100.744 100.969 101.897 100.463C106.439 98.4518 107.873 98.1565 112.247 98.4097C118.645 98.7893 120.502 98.5503 122.639 97.1159C123.033 96.8487 124.537 95.4706 125.972 94.0503C128.362 91.7018 128.714 91.4065 129.867 90.8159C130.57 90.4503 132.159 89.8456 133.453 89.4518C136.547 88.4815 137.77 87.9893 139.064 87.1456C141.637 85.4722 143.55 82.7722 144.759 79.13C145.322 77.4003 145.448 76.4159 145.364 74.0675C145.28 71.5503 144.956 70.1581 143.944 68.1331C142.875 65.9815 141.553 64.6878 139.289 63.5487C136.673 62.255 134.705 62.1284 131.062 63.0706C127.898 63.8721 125.677 66.1081 124.875 69.2721C124.537 70.594 124.509 72.5628 124.805 73.7581C125.044 74.7284 126.394 77.4706 127.153 78.5253C127.702 79.3128 129.431 80.719 130.261 81.0706C131.527 81.5909 133.144 81.155 133.903 80.0862C134.873 78.7081 135.844 75.9659 135.844 74.6018C135.844 73.9831 135.38 72.394 135.098 72.0284C135.028 71.944 134.789 71.8596 134.564 71.8596C134.072 71.8596 132.202 72.4784 131.344 72.9284C130.809 73.1956 130.767 73.2518 131.062 73.2518C131.259 73.2518 131.794 73.1675 132.258 73.055C133.594 72.7315 133.678 72.7456 133.875 73.4768C134.283 74.9393 133.453 76.669 132.356 76.6409C131.906 76.6268 131.062 76.2471 130.233 75.7128C129.586 75.2768 129.361 75.0378 129.22 74.6018C128.883 73.6315 128.995 72.3659 129.53 70.9456L130.008 69.68L131.133 69.005C133.2 67.7815 134.564 67.4862 136.477 67.8518C138.544 68.2456 140.02 69.3425 140.625 70.9596C141.075 72.1971 141.37 74.1659 141.272 75.3472C140.948 78.8487 138.67 82.0268 135.239 83.7425C134.564 84.094 132.989 84.6847 131.752 85.0784C127.645 86.3862 126.127 87.2159 123.539 89.5503C120.952 91.8706 120.305 92.3909 119.32 92.9112L118.336 93.4315L113.414 93.53C108.267 93.6284 107.662 93.6987 104.836 94.4159C103.092 94.8518 102.037 95.2175 99.3094 96.3143C97.3125 97.1159 97.0875 97.1722 96.0609 97.1722C94.7953 97.1722 93.3609 96.905 92.2359 96.469C91.35 96.1175 90.5344 95.5268 88.8047 93.9378C88.1156 93.305 87.1734 92.5315 86.7094 92.2222C85.3875 91.3081 82.9547 90.2393 80.0015 89.2409C78.4828 88.7347 76.3031 87.919 75.15 87.4128C72.2953 86.1753 72.1265 86.1331 69.75 86.1472C68.0344 86.1612 67.3594 86.2315 65.5312 86.5972C62.4375 87.23 60.6656 87.469 59.175 87.469C57.375 87.4831 54.3937 87.7081 53.7047 87.8909C53.3812 87.9753 53.114 88.0315 53.0859 88.0034C53.0578 87.9753 53.1281 87.5534 53.2547 87.0471C53.3953 86.4284 53.4375 85.7956 53.3812 85.0784C53.2406 83.18 53.1281 82.4065 53.0015 82.4909C52.9453 82.519 52.7203 82.2237 52.5234 81.83C51.975 80.7612 50.9484 79.805 49.6828 79.2143C47.3343 78.0893 44.339 78.5253 42.6656 80.255C42.0047 80.93 41.864 81.4784 42.3 81.5909C42.4547 81.6331 43.1015 81.4925 43.7484 81.2675C46.2515 80.4378 47.9672 80.4378 49.6265 81.2815C51.1312 82.0409 51.4968 82.7018 51.4968 84.6425C51.4968 85.8659 51.2297 86.9487 50.5547 88.3831C49.9781 89.6347 49.9218 89.705 48.5718 90.7597C45.1406 93.4878 43.5093 94.219 40.9922 94.219C39.7828 94.219 37.8281 93.8956 36.7593 93.5159C35.1 92.9393 33.2437 91.1956 32.0906 89.1565C31.275 87.7081 28.9968 82.505 28.4062 80.719C27.8015 78.8768 27.3375 76.894 27.2109 75.4456C27.014 73.3081 27.8297 70.0034 29.1656 67.6128C30.15 65.8128 31.1062 64.6596 33.1875 62.705C36.9562 59.1753 38.2218 56.869 39.0234 51.9893C39.9234 46.4628 40.7812 43.3268 41.7937 41.7659C43.2703 39.53 46.8 36.7315 48.8672 36.155C49.1765 36.0706 50.6672 35.8737 52.1859 35.719C55.35 35.3956 56.3344 35.1706 57.2625 34.58C58.0922 34.0456 59.2172 32.8362 60.0328 31.6128C60.5953 30.755 60.7219 30.6425 61.8609 30.1221C64.2094 29.0112 65.7422 28.6596 69.3562 28.4065C72.9844 28.1534 74.489 27.619 77.9906 25.2987C81.3515 23.0768 82.7578 22.5284 85.5844 22.4018C89.0578 22.2331 91.139 22.9643 96.1312 26.044C100.378 28.6737 101.306 29.0393 106.172 30.0096C111.98 31.1628 113.048 31.6128 115.242 33.8206C116.03 34.594 117.337 36.0284 118.181 37.0268C120.445 39.6987 122.006 41.0628 126.942 44.6346C130.753 47.405 132.258 49.2471 132.947 52.0456C133.073 52.5518 133.27 54.4221 133.383 56.194C133.622 59.6956 133.608 59.6675 134.044 60.6237C134.409 61.4534 134.873 61.7487 135.267 61.3971C135.577 61.1159 136.631 58.5565 137.123 56.8831C137.419 55.9128 137.461 55.4487 137.461 53.5784C137.461 51.6659 137.419 51.2721 137.137 50.4284C136.139 47.4471 134.508 45.0425 132.202 43.13C131.527 42.5956 129.628 41.2456 127.955 40.1346C124.031 37.5471 123.314 36.9565 119.531 33.2581C114.764 28.6034 113.864 28.1534 106.847 27.0003C101.63 26.1425 101.067 25.9315 96.4265 23.1753C93.9094 21.6706 91.9125 20.7284 90.2531 20.2362C89.4234 19.9971 88.7765 19.9268 86.8359 19.8846C85.5281 19.8706 84.15 19.8987 83.7984 19.969Z" stroke="#F9F7F1" stroke-width="0.4" mask="url(#path-1-outside-1_21_891)"/>
<path d="M66.2316 36.6545C65.4015 37.0132 64.794 37.257 64.3807 37.399C64.1745 37.4697 64.0132 37.5164 63.8951 37.5388C63.8365 37.55 63.7841 37.5561 63.7401 37.5546C63.7011 37.5533 63.6448 37.5457 63.6043 37.5052L63.6043 37.5052C63.573 37.4739 63.5541 37.4331 63.5533 37.3865C63.5526 37.3436 63.5673 37.3042 63.5857 37.2709C63.6218 37.2057 63.6884 37.1356 63.7744 37.0604C63.949 36.9075 64.2393 36.7037 64.6467 36.4367L64.6471 36.4365C67.7108 34.4458 71.5636 32.9922 75.2202 32.4698C76.1834 32.3282 77.6019 32.2579 78.9469 32.2579C80.2898 32.2579 81.5713 32.328 82.2575 32.4708C83.823 32.784 85.0359 33.426 86.1468 34.5227L86.1473 34.5231C86.5437 34.9196 86.816 35.2273 87.0971 35.6571C87.3768 36.0846 87.6639 36.631 88.0927 37.5026C88.6555 38.628 89.3268 39.8298 89.5884 40.1878C90.4964 41.426 91.8051 42.1341 93.8845 42.511C95.3932 42.7764 99.7164 42.9594 102.442 42.8611L102.442 42.8611C105.427 42.7625 109.625 42.9594 111.672 43.2841L111.672 43.2842C114.705 43.7779 117.14 44.6679 118.957 45.9736C120.082 46.7709 120.739 47.5578 121.337 48.8384C121.569 49.3154 121.691 49.5775 121.752 49.9755C121.811 50.3644 121.811 50.8842 121.811 51.8756L121.811 51.8907L121.811 51.8914C121.804 52.846 121.793 53.3837 121.731 53.8414C121.668 54.3015 121.553 54.6785 121.342 55.3114C120.719 57.1787 119.28 59.985 117.52 62.7722L117.52 62.7723C115.881 65.3616 114.989 66.9315 114.583 68.4039C114.177 69.8716 114.252 71.2497 114.568 73.4625L114.568 73.4627C115.075 77.0719 114.923 78.8943 113.926 81.0006L113.926 81.0016C113.567 81.7407 113.158 82.3153 112.654 82.7217C112.149 83.1292 111.554 83.363 110.83 83.4288C109.392 83.5595 107.441 83.0259 104.657 81.8801L104.657 81.8799C103.976 81.5961 103.215 81.1854 102.624 80.8084C102.328 80.62 102.073 80.4384 101.89 80.2839C101.799 80.2068 101.723 80.1343 101.669 80.0692C101.642 80.0366 101.619 80.0038 101.602 79.9713C101.586 79.9398 101.572 79.9018 101.572 79.861C101.572 79.8037 101.605 79.7632 101.636 79.739C101.666 79.7156 101.703 79.6998 101.74 79.6882C101.815 79.6647 101.917 79.6495 102.036 79.6402C102.276 79.6215 102.61 79.6248 102.994 79.6469C103.763 79.6911 104.745 79.8112 105.601 79.988C106.823 80.2338 107.864 80.4018 108.67 80.4858C109.073 80.5277 109.416 80.5485 109.692 80.5476C109.97 80.5468 110.174 80.524 110.303 80.4831C110.414 80.446 110.572 80.352 110.742 80.2255C110.91 80.1007 111.081 79.9502 111.217 79.8073C112.097 78.8185 112.275 77.4572 111.852 74.0938L111.852 74.0937C111.5 71.2786 111.485 70.2246 111.783 68.7737L111.783 68.7736C112.223 66.6445 113.161 64.7607 115.679 60.9063L115.679 60.9062C118.012 57.3496 118.876 55.6735 119.378 53.7776L119.379 53.7768C119.516 53.2743 119.597 52.566 119.612 51.8779C119.628 51.1882 119.579 50.5325 119.463 50.1325C119.329 49.6776 118.97 49.1541 118.456 48.6485C117.943 48.1444 117.283 47.6651 116.561 47.297L116.56 47.2968C113.392 45.6638 109.449 45.1141 100.687 45.1001C94.3065 45.1001 91.8261 44.6667 89.8271 43.1532L89.8264 43.1527C89.1449 42.6274 88.6794 42.1766 88.1796 41.4145C87.6828 40.6569 87.1526 39.5921 86.3375 37.8423L86.3373 37.8419C85.8887 36.8677 85.4999 36.1997 85.0439 35.6887C84.5895 35.1794 84.0638 34.8209 83.3336 34.4732C81.9355 33.8088 80.8444 33.6533 77.7688 33.7516L77.7684 33.7516C73.7348 33.8636 71.3569 34.4639 66.2316 36.6545ZM66.2316 36.6545C66.2317 36.6544 66.2318 36.6544 66.2318 36.6544L66.1922 36.5626L66.2315 36.6545C66.2315 36.6545 66.2316 36.6545 66.2316 36.6545ZM115.762 60.961C113.245 64.8141 112.317 66.6845 111.881 68.7938L116.606 47.2079C118.069 47.9532 119.278 49.1485 119.559 50.1048C119.798 50.9345 119.756 52.7766 119.475 53.8032C118.969 55.7157 118.097 57.4032 115.762 60.961Z" fill="#F9F7F1" stroke="#F9F7F1" stroke-width="0.2"/>
<path d="M48.2809 50.7035L48.281 50.7032C49.4879 47.3949 51.974 45.0964 55.656 43.9066C56.3524 43.6722 57.1057 43.5263 57.649 43.487C57.9176 43.4675 58.1468 43.4731 58.2929 43.5136C58.3613 43.5326 58.4409 43.567 58.4785 43.6388C58.523 43.7239 58.4854 43.8079 58.4375 43.8671C58.416 43.8943 58.3821 43.9222 58.347 43.9482C58.309 43.9764 58.2607 44.0087 58.2042 44.0442C58.0911 44.1154 57.9405 44.2022 57.7638 44.2985C57.4103 44.4912 56.9481 44.7241 56.4616 44.9497C55.5082 45.4124 54.2623 46.1126 53.6911 46.5026C52.3089 47.4661 50.8872 48.9873 50.2636 50.179C49.992 50.7013 49.741 51.308 49.5685 51.8322C49.4823 52.0944 49.4163 52.3342 49.3772 52.5313C49.349 52.6731 49.3362 52.7858 49.3368 52.8668C49.3417 52.8638 49.3469 52.8606 49.3525 52.857C49.4465 52.7966 49.5915 52.681 49.7943 52.5028C50.198 52.148 50.8149 51.5592 51.6798 50.7084C53.0298 49.3724 54.7205 47.8223 55.4148 47.2838C57.0439 45.9947 59.0114 45.0469 61.1888 44.4813L61.1894 44.4812C62.1005 44.2499 62.5884 44.1286 62.8477 44.089C62.9132 44.079 62.9678 44.0736 63.0128 44.0736C63.0566 44.0735 63.1 44.0783 63.1379 44.0955C63.1809 44.115 63.2104 44.1475 63.226 44.1879C63.2394 44.2225 63.2405 44.2582 63.2405 44.2828C63.2405 44.3467 63.2016 44.4015 63.1671 44.4405C63.1285 44.484 63.0746 44.5306 63.0089 44.5798C62.8769 44.6785 62.6841 44.7976 62.4366 44.9346C61.9408 45.209 61.2136 45.5619 60.2845 45.9772L60.2841 45.9774C59.014 46.5388 58.2281 46.9392 57.3342 47.6314C56.4371 48.3261 55.4294 49.3158 53.7198 51.0606L53.7195 51.0609C51.9912 52.8103 51.0209 53.7773 50.4035 54.3062C50.0947 54.5708 49.8685 54.7308 49.6755 54.8241C49.4785 54.9194 49.319 54.9438 49.1484 54.9438C48.8678 54.9438 48.6414 54.8704 48.4421 54.6849C48.2486 54.5048 48.0872 54.2248 47.9174 53.8285L47.9174 53.8285L47.9164 53.8262C47.6202 53.0856 47.7318 52.2239 48.2809 50.7035Z" fill="#F9F7F1" stroke="#F9F7F1" stroke-width="0.2"/>
<path d="M59.299 53.6715L59.2971 53.6724C59.1336 53.7585 58.9881 53.9462 58.805 54.2984C58.6196 54.6549 58.386 55.2004 58.0557 56.0296C57.578 57.1958 56.8914 58.6661 56.502 59.3058L56.5013 59.3069C56.0288 60.1061 55.2789 61.0207 54.4793 61.8238C53.6789 62.6276 52.8365 63.312 52.1817 63.6567C48.5704 65.5316 44.2639 64.5053 41.7611 61.182L41.7609 61.1819C41.5421 60.8924 41.3299 60.6272 41.1649 60.4337C41.0825 60.3372 41.0109 60.2574 40.9555 60.2011C40.9281 60.1732 40.9029 60.1493 40.8814 60.1317C40.8708 60.1231 40.8589 60.1141 40.8465 60.1068C40.8384 60.102 40.8135 60.0875 40.7812 60.0875C40.723 60.0875 40.6902 60.1274 40.677 60.1495C40.6632 60.1724 40.6561 60.1981 40.6518 60.219C40.6428 60.2627 40.6398 60.319 40.6408 60.3806C40.6426 60.5056 40.6611 60.6732 40.697 60.8533C40.885 61.8642 41.5319 62.9079 42.4565 63.82C43.3823 64.7334 44.5931 65.5215 45.9211 66.0187L45.9214 66.0188C46.5612 66.256 47.5292 66.4044 48.516 66.452C49.5036 66.4997 50.5226 66.4472 51.2662 66.2756L51.2665 66.2755C54.5416 65.5065 57.3317 62.7909 59.2236 58.584M59.299 53.6715L41.9765 73.2797M59.299 53.6715C59.5682 53.5369 59.8805 53.4776 60.1615 53.4887C60.4391 53.4998 60.7054 53.5807 60.8646 53.7483L60.8649 53.7481L60.8702 53.7547C60.8925 53.7826 60.9132 53.8221 60.9322 53.8641C60.9522 53.9081 60.9737 53.9624 60.9962 54.0249C61.0415 54.1499 61.0927 54.3122 61.1466 54.4997C61.2546 54.8749 61.3746 55.3553 61.4805 55.8494L61.4808 55.8506C61.9296 58.0809 62.5025 59.5969 63.2912 60.6624L63.2915 60.6627C63.6202 61.1103 63.8711 61.4049 64.1763 61.6573C64.4821 61.9101 64.8466 62.124 65.4072 62.4043L65.4076 62.4045C66.0003 62.7043 66.483 62.8864 66.98 62.9772C67.4771 63.0681 67.9941 63.0687 68.6567 62.999L68.6567 62.999C69.6007 62.9004 69.9455 62.9115 70.3918 63.09L70.3918 63.0899L70.3958 63.0917C70.6116 63.1891 70.7634 63.2712 70.8559 63.3852C70.954 63.5062 70.9749 63.6483 70.9749 63.8297C70.9749 64.1452 70.8634 64.516 70.7091 64.8175C70.6315 64.9689 70.5412 65.1067 70.445 65.2136C70.3507 65.3184 70.2417 65.4036 70.1248 65.4316L70.1249 65.4318L70.1194 65.4328C70.0348 65.4481 69.7855 65.4695 69.4569 65.4887C69.1254 65.5081 68.7059 65.5257 68.2757 65.5328C67.5937 65.5539 67.1826 65.5784 66.8221 65.6454C66.4632 65.712 66.1509 65.8214 65.6673 66.0176C62.4206 67.3414 60.4168 69.6365 59.4825 73.1228L59.4824 73.1231C59.2878 73.839 59.1585 74.7389 59.1095 75.5934C59.0605 76.4494 59.0927 77.25 59.2159 77.7704M59.299 53.6715L59.1187 77.7937M59.2236 58.584C59.2237 58.5837 59.2238 58.5835 59.2239 58.5832L59.1327 58.5422M59.2236 58.584C59.2235 58.5843 59.2233 58.5846 59.2232 58.5848L59.1327 58.5422M59.2236 58.584C59.3987 58.2127 59.5588 57.8998 59.6795 57.6946C59.7118 57.6397 59.7404 57.5941 59.765 57.5578C59.8016 57.6852 59.8581 57.8765 59.9232 58.097C59.9756 58.2747 60.0337 58.4713 60.0915 58.6687L60.0915 58.6688C60.5873 60.3545 61.5789 62.1423 62.5917 63.1551C62.8326 63.396 63.0845 63.6266 63.2963 63.8029C63.4022 63.8909 63.499 63.9662 63.5802 64.0227C63.6559 64.0754 63.7291 64.1198 63.7861 64.1362C63.7952 64.1393 63.8033 64.1422 63.8106 64.145C63.7728 64.1761 63.7093 64.2179 63.6114 64.2744C63.5014 64.3378 63.3545 64.416 63.1648 64.5143L63.1643 64.5146C61.0055 65.6508 59.4728 67.299 58.2555 69.7762L58.255 69.7771C57.936 70.4435 57.5864 71.3692 57.3166 72.2157C57.1816 72.6392 57.0661 73.0443 56.9843 73.3884C56.9031 73.7299 56.8531 74.0193 56.8531 74.2078C56.8531 74.241 56.8525 74.2673 56.8508 74.2884C56.8158 74.2718 56.7627 74.2397 56.6837 74.1849C56.5849 74.1165 56.4547 74.0193 56.2823 73.8891C54.0401 72.1862 51.4154 71.4072 48.3295 71.5063L48.3294 71.5063C47.9163 71.5203 47.5424 71.5203 47.2725 71.5116C47.1372 71.5072 47.0297 71.5007 46.9571 71.493C46.9536 71.4926 46.9503 71.4922 46.9471 71.4919C46.9572 71.4585 46.9708 71.4175 46.9874 71.3707C47.027 71.2587 47.0824 71.1166 47.145 70.9706L47.1451 70.9704C47.3143 70.5731 47.4026 69.932 47.4097 69.3575C47.4133 69.0687 47.3964 68.7916 47.3573 68.5649C47.3377 68.4516 47.3122 68.3487 47.2797 68.2622C47.248 68.1776 47.2068 68.1009 47.1512 68.0473M59.1327 58.5422C57.2484 62.7328 54.4781 65.4187 51.2437 66.1781L59.7305 57.4353C59.609 57.5871 59.3854 58.0065 59.1327 58.5422ZM47.1512 68.0473C47.0706 67.9668 46.9851 67.9015 46.8907 67.8789C46.7868 67.854 46.691 67.8847 46.6048 67.9552C46.5229 68.0222 46.4449 68.1285 46.3638 68.2683C46.2819 68.4098 46.1923 68.5937 46.0899 68.8233L46.0897 68.8236C45.7146 69.6712 45.165 70.5028 44.5579 71.1847C43.9497 71.8678 43.2901 72.3936 42.6979 72.6387C42.5007 72.7191 42.3144 72.8249 42.1706 72.93C42.0987 72.9825 42.0358 73.0361 41.987 73.0876C41.9408 73.1364 41.8989 73.1919 41.8812 73.2493M47.1512 68.0473C47.1514 68.0475 47.1516 68.0478 47.1519 68.048L47.0812 68.1187L47.1503 68.0465C47.1506 68.0468 47.1509 68.047 47.1512 68.0473ZM41.8812 73.2493C41.881 73.2498 41.8809 73.2504 41.8807 73.251L41.9765 73.2797M41.8812 73.2493C41.8814 73.2489 41.8815 73.2485 41.8816 73.2481L41.9765 73.2797M41.8812 73.2493C41.8408 73.372 41.8565 73.5337 41.8965 73.6968C41.9377 73.8649 42.0091 74.0518 42.0975 74.2339C42.1859 74.4162 42.2927 74.5964 42.4061 74.7508C42.5186 74.904 42.6417 75.0373 42.7642 75.1203L42.7655 75.1212L42.7655 75.1212C42.9412 75.2361 43.0688 75.3162 43.2106 75.3185C43.2831 75.3197 43.3524 75.301 43.4262 75.2702C43.4991 75.2399 43.5828 75.195 43.6842 75.1391L43.6858 75.1382L43.6858 75.1382C44.0865 74.9073 44.8365 74.6673 45.7087 74.476C46.5777 74.2854 47.5562 74.1457 48.4071 74.1109L48.4079 74.1108C50.4171 74.0132 52.1435 74.3618 53.8002 75.1971L53.8005 75.1973C54.45 75.522 55.1306 76.0353 55.7208 76.6186C56.3112 77.2019 56.8056 77.8499 57.0875 78.4408M41.9765 73.2797C41.8499 73.6594 42.3843 74.7422 42.8202 75.0375C43.1859 75.2766 43.2281 75.2766 43.6359 75.0516C44.4656 74.5734 46.6874 74.0812 48.4031 74.0109C50.4281 73.9125 52.1718 74.2641 53.8452 75.1078C55.1671 75.7687 56.6015 77.1891 57.1781 78.3984M57.0875 78.4408C57.0874 78.4406 57.0873 78.4404 57.0872 78.4402L57.1781 78.3984M57.0875 78.4408C57.0876 78.441 57.0877 78.4413 57.0878 78.4415L57.1781 78.3984M57.0875 78.4408C57.2867 78.8747 57.4989 79.218 57.7099 79.4546C57.9176 79.6876 58.1397 79.8344 58.3593 79.8344C58.4267 79.8344 58.4878 79.8016 58.5381 79.7625C58.59 79.7221 58.6416 79.6661 58.692 79.5998C58.793 79.4671 58.8984 79.2808 58.9985 79.0593M57.1781 78.3984C57.5718 79.2562 58.0077 79.7344 58.3593 79.7344C58.4999 79.7344 58.7109 79.4531 58.9077 79.0172M60.7921 53.8172C60.9046 53.9578 61.1718 54.8859 61.3827 55.8703C61.8327 58.1062 62.4093 59.6391 63.2109 60.7219C63.8718 61.6219 64.2374 61.9312 65.3624 62.4937L60.7921 53.8172ZM60.7921 53.8172C60.5249 53.5359 59.8499 53.5078 59.3437 53.7609L60.7921 53.8172ZM58.9077 79.0172L58.9981 79.0601C58.9982 79.0598 58.9983 79.0595 58.9985 79.0593M58.9077 79.0172C59.1749 78.4547 59.2171 78.2016 59.1187 77.7937M58.9077 79.0172L58.9989 79.0583C58.9987 79.0586 58.9986 79.059 58.9985 79.0593M58.9985 79.0593C59.1328 78.7764 59.2149 78.5627 59.2489 78.3644C59.2835 78.1627 59.2673 77.9832 59.2159 77.7704M59.1187 77.7937L59.216 77.7707C59.216 77.7706 59.2159 77.7705 59.2159 77.7704M59.1187 77.7937L59.2159 77.7703C59.2159 77.7703 59.2159 77.7703 59.2159 77.7704" fill="#F9F7F1" stroke="#F9F7F1" stroke-width="0.2"/>
<path d="M73.8371 94.0524L73.8368 94.0519C73.6179 93.6068 73.3113 92.9302 73.0596 92.3476C72.9337 92.0562 72.8212 91.7875 72.74 91.5825C72.6995 91.4801 72.6664 91.3927 72.6433 91.3258C72.6318 91.2925 72.6224 91.2632 72.6157 91.2391C72.6101 91.2188 72.6031 91.1912 72.6031 91.1671C72.6031 91.1525 72.6063 91.119 72.6352 91.0914C72.6653 91.0627 72.7007 91.0617 72.7176 91.0635C72.7454 91.0663 72.7668 91.0799 72.7731 91.0839L72.7735 91.0842C72.7924 91.0961 72.8144 91.1145 72.8361 91.134C72.8818 91.175 72.9463 91.239 73.025 91.3204C73.1832 91.4838 73.4047 91.7239 73.6599 92.0072C74.1704 92.574 74.818 93.3167 75.3672 93.9716L75.3672 93.9716L75.3679 93.9724C76.5866 95.4572 77.9679 96.6546 79.0749 97.1943C79.4528 97.3762 79.6475 97.4647 80.0095 97.5066C80.3808 97.5496 80.9244 97.5429 81.9965 97.5218L81.9973 97.5218C82.6227 97.5147 83.1023 97.5121 83.4645 97.5249C83.8237 97.5376 84.0794 97.5658 84.25 97.6259C84.3369 97.6565 84.4091 97.6978 84.4617 97.7561C84.5158 97.8161 84.5427 97.887 84.5501 97.9642C84.5573 98.0388 84.5464 98.1194 84.5267 98.2033C84.507 98.2877 84.4768 98.3815 84.4414 98.484C84.3177 98.8478 84.08 99.2714 83.8128 99.642C83.5466 100.011 83.2424 100.34 82.98 100.505C82.5871 100.754 82.0087 100.83 81.3714 100.766C80.7309 100.701 80.0162 100.494 79.3386 100.158C77.3438 99.1752 75.2072 96.7925 73.8371 94.0524ZM72.6667 91.2533C72.6647 91.252 72.6651 91.2525 72.6675 91.2538L72.6667 91.2533Z" fill="#F9F7F1" stroke="#F9F7F1" stroke-width="0.2"/>
<path d="M63.0291 93.6427L63.0295 93.6428C63.5788 93.7132 63.9276 93.7459 64.3295 93.7225C64.7293 93.6992 65.1788 93.6204 65.9302 93.473L65.9306 93.4729C66.8435 93.2903 67.9599 93.1374 68.4137 93.1373C68.8231 93.1408 69.1511 93.1826 69.4277 93.2893C69.702 93.395 69.9313 93.5667 70.1399 93.8398C70.5633 94.3941 70.8968 95.358 71.3267 97.014L71.3267 97.0143C71.9388 99.3428 72.4726 100.884 73.1927 102.06C73.9151 103.239 74.8212 104.043 76.1647 104.906L76.165 104.906C77.7522 105.917 78.4659 106.686 78.6669 107.517C78.7694 107.948 78.8258 108.669 78.8364 109.918C78.8469 111.166 78.8118 112.933 78.7344 115.45M63.0291 93.6427L78.9469 120.234L78.8502 120.26C78.8501 120.259 78.8501 120.259 78.8501 120.259C78.6347 119.44 78.6222 118.86 78.7344 115.45M63.0291 93.6427C61.7364 93.4722 60.4085 92.9466 59.6302 92.2695L63.0291 93.6427ZM78.7344 115.45L78.8344 115.453L78.7345 115.45C78.7345 115.45 78.7344 115.45 78.7344 115.45ZM59.3957 91.9573C59.3958 91.9573 59.3964 91.9574 59.3975 91.9574C59.3963 91.9573 59.3957 91.9573 59.3957 91.9573ZM81.0526 122.82C81.0525 122.82 81.0525 122.82 81.0524 122.82L81.0282 122.723L81.0528 122.82C81.0527 122.82 81.0527 122.82 81.0526 122.82ZM84.1745 117.636C84.1745 117.636 84.1745 117.636 84.1745 117.636L84.0797 117.605L84.1747 117.636C84.1746 117.636 84.1746 117.636 84.1745 117.636ZM85.9714 101.149C85.9714 101.149 85.9713 101.149 85.9713 101.149L85.8797 101.109L85.9714 101.149C85.9714 101.149 85.9714 101.149 85.9714 101.149ZM83.4064 113.951C83.4064 113.951 83.4065 113.951 83.4066 113.951L83.5032 113.976L83.4063 113.952C83.4063 113.952 83.4063 113.951 83.4064 113.951ZM80.9498 119.892C80.9547 119.899 80.9579 119.902 80.959 119.903C80.9591 119.903 80.9564 119.901 80.9511 119.9C80.9455 119.898 80.9407 119.899 80.9382 119.899C80.938 119.899 80.9378 119.899 80.9378 119.899C80.9378 119.899 80.9417 119.898 80.9498 119.892ZM79.8502 105.927L79.8505 105.927L65.9987 92.3358C67.4169 91.9689 68.521 91.8625 69.3889 92.0429C70.2637 92.2248 70.8911 92.6964 71.3544 93.4638L71.3545 93.464C71.6142 93.8968 72.0811 95.0738 72.391 96.0878C73.1509 98.5435 73.6678 99.9825 74.3117 101.001C74.9516 102.014 75.72 102.616 77.0015 103.386L77.0018 103.386C78.5391 104.317 79.3732 105.059 79.8502 105.927ZM64.024 92.784C64.0244 92.784 64.0248 92.7839 64.0252 92.7838L64.0407 92.8826L64.0228 92.7843C64.0232 92.7842 64.0236 92.7841 64.024 92.784ZM60.3842 92.1591C60.3843 92.1591 60.3844 92.1592 60.3846 92.1592L60.3422 92.2498L60.3839 92.1589C60.384 92.159 60.3841 92.159 60.3842 92.1591ZM80.4657 112.711L80.5656 112.711C80.5656 112.712 80.5656 112.712 80.5656 112.712L80.4657 112.711Z" fill="#F9F7F1" stroke="#F9F7F1" stroke-width="0.2"/>
<path d="M67.3588 122.163L67.3584 122.162C66.8664 121.417 66.4966 120.911 66.2475 120.646C66.1849 120.579 66.1277 120.525 66.0764 120.486C66.0274 120.449 65.9734 120.417 65.9181 120.408C65.8883 120.403 65.8548 120.405 65.8221 120.42C65.789 120.435 65.7653 120.459 65.7492 120.486C65.7198 120.535 65.7125 120.597 65.7125 120.656C65.7125 120.688 65.7202 120.722 65.7294 120.753C65.7392 120.786 65.753 120.824 65.77 120.866C65.804 120.949 65.8527 121.052 65.9129 121.17C66.0333 121.405 66.2024 121.705 66.3981 122.033C66.7895 122.689 67.2904 123.461 67.7285 124.062C68.1445 124.64 68.3514 124.937 68.5061 125.314C68.6619 125.694 68.7655 126.158 68.9631 127.075C68.9631 127.076 68.9631 127.076 68.9632 127.076L69.0609 127.055C69.2719 128.081 69.5531 129.305 69.6656 129.769L67.3588 122.163ZM67.3588 122.163C67.6606 122.626 67.9412 123.04 68.148 123.336C68.2014 123.413 68.2497 123.481 68.2922 123.54C68.2849 123.48 68.2763 123.412 68.2664 123.337C68.2241 123.018 68.1597 122.583 68.085 122.108C67.9357 121.158 67.7461 120.049 67.6129 119.383C67.0522 116.649 65.6486 112.395 63.8919 108.109M67.3588 122.163L63.8919 108.109M101.039 116.466C100.223 117.338 99.5625 118.097 99.5625 118.153C99.5625 118.196 98.8875 118.828 98.0578 119.531L95.6531 121.655C93.8531 122.864 94.5703 123.188 96.7359 122.133M101.039 116.466L100.966 116.398C100.966 116.398 100.966 116.398 100.966 116.398M101.039 116.466L100.966 116.398C100.966 116.398 100.966 116.398 100.966 116.398M101.039 116.466C102.516 114.877 103.345 113.527 103.57 112.388C103.655 111.966 103.641 111.938 103.289 111.938C101.419 111.938 96.8063 114.371 94.3734 116.635M100.966 116.398C100.558 116.834 100.188 117.243 99.9196 117.55C99.7857 117.703 99.6766 117.832 99.6006 117.926C99.5628 117.973 99.5323 118.012 99.5108 118.043C99.5002 118.058 99.4906 118.072 99.4832 118.085C99.4795 118.092 99.4754 118.1 99.4719 118.108C99.4712 118.11 99.4702 118.112 99.4692 118.115M100.966 116.398C102.439 114.813 103.253 113.48 103.472 112.368L103.472 112.368C103.494 112.262 103.507 112.186 103.512 112.131C103.514 112.104 103.514 112.086 103.512 112.073C103.51 112.06 103.508 112.057 103.508 112.057C103.511 112.062 103.512 112.054 103.475 112.047C103.436 112.04 103.378 112.038 103.289 112.038C102.839 112.038 102.213 112.185 101.483 112.447C100.755 112.709 99.9313 113.082 99.0888 113.526C97.403 114.414 95.6497 115.583 94.4416 116.708M99.4692 118.115C99.4712 118.113 99.4727 118.111 99.4737 118.109C99.4743 118.109 99.4744 118.108 99.4741 118.109C99.4738 118.109 99.4731 118.111 99.4722 118.112C99.4713 118.114 99.4694 118.118 99.4675 118.123C99.4659 118.128 99.4625 118.139 99.4625 118.153C99.4625 118.137 99.4662 118.124 99.4692 118.115ZM99.4692 118.115C99.4663 118.119 99.4623 118.124 99.457 118.13C99.4389 118.15 99.411 118.179 99.3734 118.217C99.2985 118.292 99.1893 118.396 99.0535 118.521C98.7821 118.771 98.407 119.104 97.9932 119.455L97.993 119.455C97.5703 119.815 97.1756 120.163 96.8793 120.435C96.7312 120.571 96.6072 120.688 96.5163 120.777C96.471 120.822 96.4333 120.86 96.4047 120.891C96.3789 120.919 96.3533 120.949 96.3397 120.972C96.3334 120.983 96.3105 121.012 96.2637 121.057C96.2197 121.1 96.1612 121.152 96.0922 121.209C95.9544 121.322 95.778 121.454 95.5984 121.571L95.5974 121.572C95.1453 121.876 94.8428 122.129 94.6813 122.324C94.6023 122.42 94.5461 122.514 94.5346 122.603C94.5284 122.65 94.5345 122.699 94.5601 122.743C94.5855 122.786 94.6244 122.816 94.6667 122.834C94.7472 122.87 94.8558 122.875 94.9767 122.864C95.101 122.852 95.2524 122.82 95.4277 122.769C95.7786 122.668 96.235 122.488 96.7796 122.223M96.7796 122.223L96.7359 122.133M96.7796 122.223C97.4766 121.885 97.8897 121.672 98.3845 121.337C98.8772 121.004 99.4502 120.551 100.469 119.736L100.469 119.736C103.6 117.225 105.257 114.699 105.4 112.112M96.7796 122.223C96.7796 122.223 96.7797 122.223 96.7797 122.223L96.7359 122.133M96.7359 122.133L105.4 112.112M105.4 112.112L105.3 112.106M105.4 112.112L100.406 119.658C103.528 117.155 105.159 114.652 105.3 112.106M105.4 112.112C105.428 111.615 105.436 111.303 105.406 111.084C105.391 110.973 105.366 110.882 105.327 110.801C105.288 110.721 105.237 110.655 105.177 110.59M105.4 112.112C105.4 112.112 105.4 112.112 105.4 112.112L105.3 112.106M105.3 112.106L105.177 110.59M105.177 110.59C105.176 110.59 105.176 110.59 105.176 110.589L105.103 110.658L105.177 110.591C105.177 110.591 105.177 110.591 105.177 110.59ZM94.4416 116.708L94.4416 116.708L94.3734 116.635M94.4416 116.708L93.8229 117.284L93.6671 117.163L94.0456 116.476L94.1344 116.522M94.4416 116.708L94.3734 116.635M94.3734 116.635L93.9894 116.992L93.8423 117.259L93.7547 117.211L93.6865 117.138L93.9095 116.93L94.1344 116.522M94.1344 116.522L94.0468 116.474L94.0462 116.475C94.1415 116.291 94.2261 116.122 94.2845 115.994M94.1344 116.522C94.2652 116.27 94.3774 116.042 94.4297 115.91C94.4155 115.917 94.3987 115.927 94.3793 115.938C94.3519 115.954 94.3202 115.973 94.2845 115.994M94.2845 115.994C94.2199 116.033 94.1425 116.081 94.0544 116.137C93.7813 116.31 93.4097 116.556 93.0096 116.83L93.0089 116.83C91.4254 117.895 89.9669 119.073 87.7468 121.082C80.7411 127.441 78.5813 129.023 73.5909 131.448C69.2879 133.557 68.4614 133.977 66.3557 135.227C63.9467 136.664 62.6763 137.285 60.2947 138.229L60.2947 138.229L60.2939 138.229C59.3634 138.589 58.3764 138.924 57.6036 139.151C57.2175 139.265 56.8831 139.353 56.6351 139.403C56.5115 139.428 56.4063 139.444 56.3257 139.45C56.2857 139.452 56.248 139.452 56.2155 139.448C56.188 139.445 56.1426 139.436 56.109 139.402C56.0617 139.355 56.0824 139.298 56.0881 139.285C56.0957 139.268 56.1064 139.255 56.1121 139.249C56.1251 139.234 56.1427 139.218 56.1606 139.204C56.1979 139.173 56.2534 139.133 56.3234 139.084C56.4642 138.987 56.6716 138.852 56.9294 138.688C57.4454 138.361 58.1668 137.917 58.9685 137.432L58.9692 137.431C61.2591 136.069 65.5879 133.286 67.7663 131.796C67.793 131.777 67.8074 131.764 67.8149 131.754C67.8209 131.746 67.8203 131.744 67.8203 131.743C67.8204 131.74 67.8193 131.728 67.8044 131.702C67.7896 131.675 67.7641 131.641 67.723 131.596C67.5557 131.411 67.1877 131.108 66.4951 130.55L66.495 130.55C65.6209 129.845 64.7747 129.091 64.1657 128.492C63.8615 128.193 63.6146 127.931 63.4527 127.733C63.3724 127.635 63.3098 127.548 63.272 127.478C63.2534 127.444 63.2374 127.408 63.2307 127.372C63.2244 127.338 63.2226 127.282 63.2668 127.237C63.2678 127.236 63.2692 127.235 63.2709 127.233C63.2818 127.222 63.3053 127.197 63.332 127.182C63.3736 127.158 63.4195 127.154 63.468 127.166C63.5111 127.176 63.5587 127.2 63.6135 127.233C63.6695 127.267 63.7398 127.316 63.8295 127.382C64.1818 127.644 64.8649 128.206 66.2472 129.343L66.3118 129.396L66.312 129.396L68.681 131.338L69.228 131.071L69.228 131.071L69.2302 131.07C69.3945 130.995 69.544 130.91 69.6512 130.836C69.7051 130.799 69.7457 130.767 69.7717 130.741C69.7794 130.734 69.785 130.728 69.7889 130.723L94.2845 115.994ZM98.7357 111.361L98.7358 111.361C98.3685 111.592 97.5359 111.912 96.907 112.08L96.9067 112.08C94.2914 112.787 92.1694 113.876 90.0212 115.629C89.4832 116.068 87.7367 117.674 86.1623 119.178C79.4418 125.575 77.707 126.93 73.6149 128.962L73.6147 128.962C73.0387 129.25 72.5088 129.506 72.118 129.687C71.9633 129.758 71.8309 129.818 71.7264 129.862C71.7322 129.855 71.7381 129.848 71.7441 129.84C71.8615 129.693 72.032 129.499 72.2278 129.289C72.4267 129.076 72.6223 128.845 72.7773 128.641C72.8549 128.54 72.9229 128.444 72.9765 128.361C73.0284 128.28 73.07 128.205 73.0918 128.145C73.1314 128.048 73.1639 127.9 73.1914 127.721C73.2195 127.538 73.2435 127.314 73.2634 127.062C73.3031 126.557 73.3269 125.932 73.334 125.275C73.3481 123.964 73.2954 122.52 73.1677 121.654L73.1677 121.654C72.4054 116.558 68.9102 108.388 64.8553 102.25L64.8551 102.25C62.9538 99.3904 61.2764 97.29 59.204 95.1894L59.2037 95.1891C58.0991 94.0774 57.241 93.2861 56.5729 92.7721C56.2388 92.5151 55.9498 92.3256 55.6991 92.1999C55.4494 92.0747 55.2312 92.0096 55.0406 92.0096H54.5625H54.3569L54.4838 92.1713L55.5103 93.479L98.7357 111.361ZM98.7357 111.361L98.7394 111.359M98.7357 111.361L98.7394 111.359M98.7394 111.359C99.1325 111.134 99.727 110.808 100.056 110.665C100.057 110.665 100.057 110.665 100.057 110.665L100.588 110.425V109.533C100.588 108.934 100.641 108.467 100.83 107.875C101.017 107.287 101.336 106.578 101.863 105.496C101.863 105.496 101.863 105.496 101.863 105.495L101.953 105.539L98.7394 111.359ZM63.8919 108.109C61.884 103.264 58.4431 97.2258 55.5104 93.4792L63.8919 108.109ZM102.162 110.033L102.009 110.039L102.121 109.934L102.274 109.928L102.162 110.033ZM103.008 109.997L103.003 109.897C103.003 109.897 103.003 109.897 103.003 109.897L103.004 109.897L103.008 109.997ZM107.318 100.348C107.318 100.348 107.318 100.349 107.318 100.349L107.227 100.308L107.319 100.346C107.319 100.347 107.319 100.347 107.318 100.348ZM56.262 139.381C56.2614 139.382 56.2616 139.382 56.2622 139.381L56.262 139.381ZM56.2313 139.248C56.2312 139.248 56.2316 139.248 56.2325 139.248L56.2313 139.248Z" fill="#F9F7F1" stroke="#F9F7F1" stroke-width="0.2"/>
<path d="M59.5184 103.762L60.2737 104.305C60.2737 104.305 60.2738 104.305 60.2738 104.305C61.0376 104.849 61.6357 105.386 62.0438 105.885C62.4499 106.382 62.6781 106.855 62.6781 107.269V107.733V107.978L62.5067 107.803L61.8177 107.1C61.0407 106.309 59.9408 105.57 58.6839 104.998C58.2186 104.79 57.8347 104.534 57.5655 104.259C57.2978 103.986 57.1344 103.684 57.1344 103.388C57.1344 103.182 57.2949 103.023 57.5113 102.909C57.733 102.792 58.0445 102.706 58.4163 102.656C58.4163 102.656 58.4163 102.656 58.4163 102.656L58.4297 102.755L59.5184 103.762ZM59.5184 103.762L59.8181 103.635L59.5184 103.762Z" fill="#F9F7F1" stroke="#F9F7F1" stroke-width="0.2"/>
<path d="M62.6226 114.077L62.6223 114.077C59.7928 114.841 56.8959 116.481 54.5366 118.671C52.0716 120.952 50.4898 123.825 48.7861 129.049C47.9413 131.64 46.3375 137.408 45.2545 141.698L45.2544 141.698C43.8212 147.459 43.0631 149.818 40.8287 155.495L40.8287 155.495C39.0293 160.078 38.0787 162.525 37.6064 163.971C37.3703 164.695 37.2518 165.174 37.2075 165.548C37.1629 165.925 37.1942 166.193 37.2517 166.491L37.2519 166.492L37.2519 166.492L37.3362 166.914L37.3717 167.091L37.503 166.967L38.2756 166.236C38.7214 165.833 39.528 164.799 40.0909 163.954L40.0914 163.954L40.0914 163.954C40.6541 163.095 41.2983 162.171 41.5476 161.867L41.549 161.865L41.5489 161.865C41.605 161.794 41.6951 161.648 41.8073 161.453C41.9209 161.256 42.0607 161.003 42.2172 160.712C42.5304 160.131 42.9118 159.397 43.2874 158.656C43.6629 157.916 44.0329 157.168 44.3231 156.558C44.6116 155.953 44.8258 155.474 44.8847 155.279L44.8851 155.278L44.8851 155.278C44.8968 155.237 44.9289 155.158 44.9805 155.045C45.0312 154.935 45.0983 154.797 45.1771 154.642C45.3346 154.33 45.5379 153.948 45.7483 153.569C46.5967 152.042 47.4709 149.869 48.4138 146.97L48.4139 146.97C48.751 145.916 49.3693 144.104 49.7906 142.966L49.7908 142.966C50.285 141.61 51.0596 138.821 51.9876 135.109L51.9876 135.109C53.6196 128.567 54.4046 125.991 55.2983 124.246L55.2985 124.246C57.06 120.778 60.8549 117.066 64.5643 115.163C64.5643 115.163 64.5643 115.163 64.5643 115.163L64.5187 115.074C66.164 114.23 66.1921 113.991 64.6874 113.949L62.6226 114.077ZM62.6226 114.077C63.2648 113.906 64.0059 113.82 64.691 113.849L62.6226 114.077Z" fill="#F9F7F1" stroke="#F9F7F1" stroke-width="0.2"/>
<path d="M104.31 122.737C104.312 122.737 104.318 122.736 104.327 122.738C104.337 122.739 104.353 122.745 104.367 122.758C104.381 122.772 104.388 122.787 104.39 122.797C104.392 122.805 104.392 122.811 104.392 122.812C104.392 122.812 104.392 122.812 104.392 122.812L104.31 122.737ZM104.31 122.737C104.31 122.737 104.31 122.737 104.31 122.737L104.31 122.737ZM103.485 120.892L103.485 120.892L103.485 120.89C103.443 120.434 103.276 119.568 103.122 118.995C103.044 118.705 102.974 118.411 102.922 118.172C102.897 118.053 102.876 117.946 102.861 117.86C102.847 117.777 102.838 117.706 102.838 117.661C102.838 117.571 102.849 117.49 102.882 117.43C102.9 117.398 102.926 117.368 102.963 117.349C103 117.33 103.04 117.327 103.077 117.334C103.145 117.347 103.208 117.393 103.263 117.447C103.32 117.504 103.381 117.582 103.443 117.677L103.443 117.677L103.445 117.679C103.468 117.717 103.525 117.79 103.612 117.893C103.698 117.995 103.81 118.121 103.94 118.263C104.199 118.549 104.529 118.9 104.866 119.251C105.233 119.633 105.57 120.019 105.838 120.361C106.104 120.701 106.307 121.004 106.404 121.22C106.487 121.4 106.572 121.56 106.645 121.675C106.681 121.733 106.713 121.776 106.737 121.804C106.745 121.813 106.752 121.819 106.756 121.823C106.832 121.831 106.887 121.878 106.923 121.932C106.962 121.99 106.987 122.065 107.004 122.144C107.038 122.303 107.045 122.512 107.029 122.722C107.014 122.933 106.976 123.152 106.919 123.334C106.89 123.425 106.855 123.51 106.815 123.58C106.775 123.649 106.725 123.711 106.662 123.75C106.642 123.763 106.621 123.768 106.609 123.77C106.595 123.773 106.579 123.774 106.565 123.774C106.535 123.775 106.5 123.773 106.461 123.769C106.381 123.761 106.277 123.745 106.155 123.722C105.911 123.675 105.592 123.601 105.26 123.509C105.26 123.509 105.259 123.509 105.259 123.509L104.107 123.201L103.684 123.637L103.684 123.637C102.935 124.401 101.939 124.834 100.87 124.834C100.397 124.834 99.9534 124.763 99.6244 124.648C99.4603 124.59 99.3196 124.52 99.2178 124.439C99.1177 124.358 99.0406 124.254 99.0406 124.13C99.0406 124.085 99.0605 124.048 99.0826 124.022C99.1043 123.997 99.1323 123.976 99.1616 123.958C99.2201 123.922 99.3011 123.889 99.3989 123.859C99.5959 123.796 99.883 123.736 100.25 123.679L100.25 123.679L100.251 123.679C100.929 123.581 101.42 123.457 101.837 123.254C102.253 123.052 102.602 122.769 102.99 122.346L102.99 122.346L102.991 122.346L103.578 121.718L103.485 120.892ZM106.764 121.829C106.764 121.829 106.763 121.829 106.762 121.828L106.764 121.829ZM105.352 121.402L105.353 121.402L105.569 121.363L105.057 120.793L104.711 120.409L104.749 120.545L104.749 120.545L104.75 120.548C104.911 121.204 104.838 121.903 104.517 122.53C104.49 122.585 104.466 122.632 104.448 122.672C104.607 122.588 104.706 122.499 104.768 122.389C104.832 122.277 104.862 122.131 104.862 121.922H104.862L104.863 121.917C104.87 121.776 104.896 121.655 104.983 121.563C105.068 121.474 105.194 121.43 105.352 121.402Z" fill="#F9F7F1" stroke="#F9F7F1" stroke-width="0.2"/>
<path d="M97.6634 122.92L97.6637 122.92C98.381 122.203 99.0424 121.548 99.5334 121.073C99.7788 120.836 99.9822 120.642 100.129 120.508C100.202 120.441 100.262 120.388 100.307 120.351C100.329 120.333 100.349 120.318 100.365 120.306C100.374 120.301 100.383 120.295 100.393 120.29L100.393 120.289C100.399 120.286 100.421 120.275 100.448 120.275C100.476 120.275 100.508 120.284 100.535 120.308C100.56 120.331 100.571 120.359 100.575 120.381C100.584 120.421 100.577 120.464 100.568 120.5C100.55 120.577 100.509 120.681 100.453 120.803C100.339 121.049 100.152 121.392 99.9192 121.783C99.4535 122.566 98.8011 123.554 98.1799 124.373C95.8823 127.446 94.1051 129.307 89.5747 133.387L89.5746 133.387C85.865 136.717 84.4542 138.326 83.084 140.759L83.084 140.759C82.1612 142.394 81.4607 144.172 79.956 148.756C77.7275 155.554 76.1775 159.681 74.4095 162.623C72.6379 165.57 70.6492 167.324 67.5554 169.382L67.555 169.382C66.2947 170.213 65.1804 170.879 64.2549 171.353C63.3334 171.824 62.5887 172.109 62.0703 172.168C61.8628 172.197 61.6708 172.208 61.5283 172.202C61.4579 172.199 61.3942 172.192 61.3454 172.179C61.3217 172.173 61.2942 172.163 61.2705 172.146C61.2467 172.13 61.2125 172.095 61.2125 172.041H61.2124L61.2126 172.037C61.2151 171.97 61.242 171.895 61.2791 171.82C61.3172 171.743 61.3712 171.656 61.4377 171.562C61.5708 171.372 61.7595 171.146 61.9879 170.899C62.445 170.404 63.0672 169.821 63.7384 169.277C68.0772 165.719 70.5056 163.541 72.3736 160.709C74.2426 157.876 75.5538 154.383 77.6427 148.187L77.6428 148.187C79.4145 142.97 79.7962 141.951 80.784 139.976C82.0122 137.519 83.2702 135.78 85.1348 133.958L85.136 133.957C85.659 133.462 88.0944 131.365 90.5687 129.298C93.6895 126.684 95.8665 124.731 97.6634 122.92ZM100.323 120.603C100.304 120.619 100.285 120.637 100.264 120.656C100.119 120.788 99.9175 120.98 99.6725 121.217C99.1827 121.691 98.5223 122.344 97.8054 123.061C96.0023 124.878 93.82 126.835 90.697 129.452L90.6969 129.452C88.2221 131.519 85.7927 133.611 85.274 134.102L100.323 120.603Z" fill="#F9F7F1" stroke="#F9F7F1" stroke-width="0.2"/>
<path d="M97.501 130.72L97.5011 130.72C98.9741 134.354 99.588 137.376 99.4065 140.211L99.4064 140.211C99.3712 140.803 99.3415 141.246 99.3044 141.555C99.2858 141.71 99.2657 141.827 99.2433 141.911C99.2321 141.953 99.221 141.984 99.2105 142.006C99.2062 142.015 99.2025 142.021 99.1994 142.026C99.1989 142.026 99.1984 142.025 99.1978 142.025C99.1683 142.003 99.1248 141.954 99.0656 141.865C98.9493 141.689 98.7982 141.401 98.5971 141.002L98.5971 141.002C98.3025 140.42 98.1263 140.032 97.9883 139.578C97.8498 139.123 97.7487 138.598 97.6081 137.74L97.608 137.739C97.5164 137.204 97.4249 136.708 97.3508 136.337C97.3138 136.152 97.281 135.998 97.2547 135.886C97.2416 135.831 97.2299 135.784 97.2198 135.749C97.2148 135.732 97.2098 135.716 97.2049 135.703C97.2014 135.694 97.194 135.674 97.1816 135.657L97.173 135.646L97.1616 135.637C97.1396 135.621 97.1029 135.607 97.0623 135.622C97.0301 135.634 97.0134 135.657 97.0073 135.667C96.9942 135.687 96.9882 135.711 96.9851 135.724C96.9776 135.756 96.9721 135.801 96.9677 135.853C96.9586 135.959 96.9524 136.115 96.9489 136.308C96.9418 136.695 96.9453 137.237 96.9594 137.843M97.501 130.72L97.0594 137.841M97.501 130.72C97.2685 130.142 97.0569 129.578 96.9034 129.135C96.8266 128.914 96.7641 128.722 96.7206 128.573C96.6989 128.499 96.6816 128.434 96.6697 128.382C96.6584 128.332 96.65 128.285 96.65 128.25V128.244C96.65 128.168 96.65 128.103 96.655 128.057C96.6575 128.033 96.662 128.005 96.6732 127.979C96.6851 127.952 96.711 127.914 96.7609 127.902C96.8041 127.891 96.8417 127.905 96.8624 127.916C96.8854 127.927 96.9082 127.943 96.9298 127.959C96.9723 127.992 97.0273 128.042 97.0947 128.102L97.0982 128.105L97.0985 128.106M97.501 130.72L97.0985 128.106M96.9594 137.843C96.9594 137.843 96.9594 137.843 96.9594 137.843L97.0594 137.841M96.9594 137.843C96.9594 137.843 96.9594 137.843 96.9594 137.843L97.0594 137.841M96.9594 137.843C96.9735 138.56 96.9734 139.098 96.9577 139.452C96.9501 139.624 96.9389 139.748 96.9248 139.826M97.0594 137.841C97.0875 139.275 97.0594 140.006 96.9609 139.964M96.9248 139.826C96.9544 139.845 96.983 139.862 97.0106 139.877L96.9609 139.964M96.9248 139.826C96.9244 139.829 96.924 139.831 96.9235 139.833C96.9159 139.874 96.909 139.892 96.9066 139.896C96.9052 139.899 96.9104 139.887 96.9269 139.877C96.9494 139.864 96.9775 139.862 97.0003 139.872L96.9609 139.964M96.9248 139.826L96.9609 139.964M97.0617 135.939C97.0611 135.937 97.0606 135.935 97.06 135.932C97.0472 135.878 97.0364 135.835 97.0277 135.805C97.0233 135.79 97.0198 135.779 97.0173 135.772C97.0163 135.77 97.0157 135.768 97.0153 135.767C97.016 135.769 97.018 135.773 97.0216 135.777L97.0617 135.939ZM97.0617 135.939C97.0647 135.889 97.0682 135.846 97.0721 135.812C97.0598 135.809 97.0494 135.803 97.0416 135.797L97.0617 135.939ZM97.0985 128.106C97.1258 128.131 97.1567 128.169 97.1889 128.213C97.2222 128.258 97.2607 128.316 97.3034 128.382C97.3888 128.516 97.4931 128.691 97.6087 128.895C97.84 129.303 98.1186 129.828 98.3865 130.371C100.348 134.336 101.17 138.59 100.632 141.906L97.0985 128.106ZM93.2829 136.547C93.2842 136.552 93.2856 136.557 93.2872 136.563C93.287 136.563 93.2867 136.563 93.2865 136.562C93.27 136.549 93.2609 136.543 93.2582 136.542C93.2567 136.541 93.2616 136.544 93.2713 136.546C93.2739 136.546 93.2779 136.547 93.2829 136.547ZM93.3636 136.497C93.3685 136.486 93.3698 136.479 93.3701 136.477C93.3705 136.474 93.3705 136.472 93.3705 136.472C93.3705 136.472 93.3705 136.473 93.3707 136.475C93.3712 136.482 93.3729 136.493 93.3764 136.508C93.372 136.504 93.3677 136.5 93.3636 136.497ZM93.9899 137.078C93.9899 137.078 93.99 137.078 93.99 137.078L93.9094 137.138L93.9897 137.078C93.9897 137.078 93.9898 137.078 93.9899 137.078ZM93.5799 137.532C93.5799 137.532 93.5798 137.532 93.5798 137.532L93.6703 137.489L93.58 137.532C93.5799 137.532 93.5799 137.532 93.5799 137.532Z" fill="#F9F7F1" stroke="#F9F7F1" stroke-width="0.2"/>
<path d="M92.0347 133.505L92.0347 133.505C92.0074 133.558 91.9779 133.655 91.9473 133.774C91.9156 133.897 91.88 134.055 91.8422 134.236C91.7668 134.598 91.6821 135.057 91.6029 135.526C91.4452 136.46 91.3062 137.451 91.3062 137.798C91.3062 138.054 91.2457 138.66 91.1461 139.463C91.0469 140.263 90.9099 141.252 90.7588 142.27C90.4564 144.305 90.0984 146.45 89.8744 147.423C89.7278 148.058 89.5254 148.7 89.3199 149.215C89.2172 149.473 89.1143 149.697 89.018 149.873C88.9199 150.052 88.8343 150.169 88.7691 150.223L88.7669 150.225L88.7669 150.225C88.756 150.234 88.7306 150.248 88.6808 150.26C88.6323 150.272 88.568 150.28 88.4869 150.282C88.3248 150.288 88.1065 150.271 87.8355 150.229L87.8335 150.229L87.8335 150.229C87.4012 150.171 86.644 150.175 85.7594 150.228C84.8725 150.281 83.8503 150.383 82.8842 150.524C82.2692 150.61 81.6106 150.824 81.1628 151.07L81.1623 151.07C80.7841 151.28 80.2292 151.543 79.9587 151.624L79.9552 151.625L79.9552 151.625C79.7976 151.679 79.6644 151.733 79.5612 151.784C79.4617 151.832 79.3796 151.881 79.334 151.928C79.3218 151.941 79.3087 151.956 79.2989 151.976C79.2892 151.995 79.2793 152.024 79.286 152.059C79.3008 152.136 79.3729 152.157 79.3992 152.162C79.4349 152.17 79.478 152.17 79.5241 152.166C79.5716 152.163 79.6287 152.155 79.6956 152.142C79.7659 152.13 79.8177 152.122 79.8558 152.119C79.8439 152.148 79.8261 152.185 79.8018 152.233C79.7504 152.315 79.7131 152.393 79.6899 152.455C79.6782 152.486 79.6693 152.515 79.6644 152.54C79.662 152.552 79.6598 152.566 79.6598 152.581C79.6598 152.588 79.6603 152.599 79.6632 152.611C79.6658 152.622 79.6725 152.643 79.6917 152.663L79.721 152.692H79.7624C79.762 152.692 79.7646 152.692 79.7706 152.693C79.7797 152.693 79.797 152.694 79.8241 152.696L80.0008 152.709L80.0386 152.711C80.1873 152.722 80.3893 152.736 80.6326 152.753C81.1618 152.79 81.8862 152.839 82.681 152.889C85.1647 153.058 86.5716 153.173 87.5018 153.343C88.4236 153.51 88.8714 153.73 89.4368 154.109C89.5884 154.217 89.7578 154.318 89.9082 154.392C89.9836 154.429 90.0556 154.461 90.1193 154.483C90.179 154.503 90.2395 154.519 90.2911 154.52C90.481 154.534 90.5878 154.544 90.6679 154.563C90.7422 154.581 90.7943 154.606 90.8716 154.657C90.9066 154.682 90.9498 154.691 90.9937 154.679C91.0326 154.668 91.0621 154.643 91.0828 154.62C91.1243 154.575 91.1609 154.506 91.1944 154.425C91.2629 154.26 91.3347 154.007 91.4054 153.683C91.4054 153.682 91.4054 153.682 91.4055 153.682L91.3078 153.661C91.7859 151.565 91.8421 150.736 91.7578 147.164L92.0347 133.505ZM92.0347 133.505L92.0366 133.502C92.1415 133.318 92.3457 133.224 92.5321 133.216C92.7158 133.208 92.9205 133.285 92.9904 133.488M92.0347 133.505L92.9904 133.488M92.2794 139.507C92.2369 140.242 92.096 141.481 91.9691 142.258L92.2795 139.506C92.2795 139.506 92.2794 139.506 92.2794 139.507ZM92.2794 139.507C92.3355 138.778 92.5319 137.179 92.7283 135.972L92.7284 135.972C92.827 135.359 92.9081 134.781 92.9575 134.339C92.9822 134.119 92.9992 133.931 93.0064 133.79C93.0099 133.719 93.0112 133.659 93.0095 133.61C93.0087 133.586 93.0071 133.564 93.0043 133.544C93.002 133.528 92.9981 133.507 92.9904 133.488M92.2794 139.507L92.9904 133.488M79.4368 151.965C79.4368 151.965 79.4375 151.966 79.4393 151.966C79.4378 151.966 79.4369 151.965 79.4368 151.965Z" fill="#F9F7F1" stroke="#F9F7F1" stroke-width="0.2"/>
<path d="M93.5157 152.609C93.6288 152.642 93.7347 152.672 93.8144 152.692C93.8059 152.646 93.7953 152.589 93.783 152.525C93.7479 152.341 93.6989 152.092 93.6428 151.825L93.6428 151.825L93.6426 151.824C93.508 151.158 93.3985 150.265 93.3456 149.56C93.3191 149.209 93.3065 148.901 93.3124 148.691C93.3152 148.589 93.3227 148.501 93.3383 148.442C93.3424 148.427 93.3478 148.41 93.3555 148.395C93.3625 148.381 93.375 148.36 93.3967 148.343C93.4219 148.324 93.4561 148.314 93.4925 148.322C93.5238 148.329 93.5456 148.346 93.5582 148.359C93.5727 148.373 93.5833 148.391 93.5902 148.403C93.5981 148.417 93.606 148.434 93.614 148.451C93.6299 148.487 93.648 148.533 93.6677 148.588C93.7072 148.697 93.7552 148.846 93.8082 149.021C93.9143 149.373 94.0413 149.839 94.1611 150.332C94.4 151.288 94.5959 151.98 94.756 152.432C94.8362 152.659 94.9059 152.821 94.9655 152.925C94.9836 152.956 94.9999 152.981 95.014 152.999C95.0156 152.993 95.0172 152.987 95.0188 152.981C95.0392 152.899 95.0598 152.777 95.0795 152.622C95.1189 152.311 95.1534 151.878 95.1788 151.393C95.2297 150.423 95.2436 149.253 95.1877 148.451L95.1877 148.45C95.0194 145.785 94.2475 142.071 93.508 140.327C93.444 140.177 93.387 140.031 93.3458 139.915C93.3252 139.857 93.3082 139.805 93.2963 139.763C93.2903 139.743 93.2853 139.724 93.2817 139.707C93.2785 139.692 93.275 139.673 93.275 139.655C93.275 139.642 93.2762 139.622 93.2847 139.601C93.2942 139.578 93.3157 139.549 93.3549 139.537C93.3893 139.526 93.4186 139.535 93.4332 139.541C93.4489 139.548 93.4618 139.557 93.471 139.564C93.5053 139.591 93.5449 139.638 93.5847 139.692C93.6682 139.803 93.782 139.979 93.9073 140.189C94.1583 140.608 94.4624 141.17 94.6753 141.638C95.9771 144.468 96.6543 148.817 96.301 152.209C96.2446 152.77 96.1746 153.234 96.0889 153.602C96.0036 153.968 95.9009 154.248 95.7743 154.433C95.6456 154.621 95.4805 154.726 95.2793 154.7C95.092 154.677 94.9018 154.542 94.7082 154.334C94.4933 154.105 94.2316 153.73 94.1397 153.473C94.0732 153.32 94.013 153.236 93.9248 153.178C93.8319 153.117 93.6961 153.077 93.4589 153.043L93.4589 153.043L93.4573 153.042C93.1075 152.985 92.7978 152.892 92.6307 152.808C92.589 152.787 92.5505 152.764 92.5219 152.739C92.5077 152.727 92.4914 152.71 92.4796 152.688C92.4673 152.666 92.4567 152.632 92.4674 152.593C92.4779 152.555 92.5038 152.531 92.5247 152.518C92.5454 152.505 92.5681 152.497 92.5884 152.492C92.6291 152.482 92.6812 152.478 92.7422 152.478C92.9097 152.478 93.257 152.537 93.5143 152.608L93.5143 152.608L93.5157 152.609Z" fill="#F9F7F1" stroke="#F9F7F1" stroke-width="0.2"/>
<path d="M84.9899 153.519L84.9899 153.519L84.9904 153.52C85.2197 153.544 85.3905 153.562 85.5194 153.571C85.6508 153.58 85.7273 153.578 85.773 153.567C85.7942 153.562 85.8036 153.557 85.8075 153.554C85.8105 153.551 85.8137 153.548 85.8173 153.54C85.8274 153.516 85.8322 153.476 85.8359 153.392C85.836 153.316 85.8368 153.254 85.841 153.21C85.8431 153.188 85.8465 153.164 85.8537 153.142C85.8587 153.127 85.877 153.077 85.9329 153.059C85.9906 153.042 86.0343 153.075 86.047 153.086C86.0647 153.1 86.0803 153.119 86.0931 153.136C86.1193 153.171 86.1515 153.223 86.1894 153.285C86.4693 153.718 86.7089 154.051 86.8997 154.275C86.9953 154.387 87.0764 154.469 87.1423 154.521C87.213 154.578 87.2492 154.588 87.2578 154.588C87.3495 154.588 87.4313 154.617 87.4881 154.681C87.5439 154.743 87.5633 154.824 87.5599 154.905C87.5532 155.063 87.4589 155.247 87.3004 155.405L87.3004 155.405L87.2981 155.408C87.2432 155.459 87.1898 155.507 87.1361 155.537C87.0762 155.571 87.01 155.585 86.9362 155.562C86.8711 155.542 86.8106 155.495 86.7494 155.437C86.6867 155.377 86.6127 155.295 86.5216 155.189C86.4132 155.067 86.3116 154.932 86.2363 154.813C86.1987 154.754 86.1666 154.696 86.1436 154.644C86.1219 154.596 86.1031 154.541 86.1031 154.491C86.1031 154.474 86.0995 154.468 86.0988 154.467L86.0988 154.467C86.0983 154.466 86.0957 154.462 86.0836 154.458C86.0541 154.447 85.9927 154.442 85.8852 154.462C85.6279 154.517 85.2955 154.465 84.9923 154.358C84.6882 154.252 84.3933 154.083 84.2161 153.883L83.9493 153.588L83.7744 153.394L84.0337 153.421L84.9899 153.519Z" fill="#F9F7F1" stroke="#F9F7F1" stroke-width="0.2"/>
<path d="M87.7395 153.742L87.7393 153.742L87.7417 153.736C87.7795 153.643 87.8146 153.569 87.8475 153.53C87.8561 153.52 87.8709 153.504 87.8921 153.493C87.9164 153.48 87.9576 153.47 87.9991 153.494C88.0328 153.513 88.0464 153.543 88.0516 153.557C88.0577 153.574 88.0605 153.59 88.062 153.604C88.0679 153.656 88.0623 153.736 88.0503 153.833C88.0378 153.933 88.0172 154.061 87.9889 154.214L87.9889 154.214L87.9887 154.215C87.9675 154.321 87.9495 154.404 87.9342 154.466C87.9266 154.496 87.9192 154.523 87.9121 154.544C87.9059 154.563 87.8969 154.587 87.8834 154.607C87.8779 154.615 87.8607 154.639 87.8283 154.651C87.8092 154.658 87.7867 154.66 87.7638 154.653C87.7421 154.647 87.7267 154.635 87.7171 154.626C87.6997 154.608 87.6919 154.588 87.6887 154.58C87.6847 154.569 87.6819 154.557 87.6799 154.548C87.6722 154.51 87.6676 154.453 87.6642 154.383L87.664 154.383V154.378C87.664 154.276 87.6713 154.152 87.684 154.038C87.6964 153.926 87.7149 153.816 87.7395 153.742Z" fill="#F9F7F1" stroke="#F9F7F1" stroke-width="0.2"/>
</svg>
