<svg width="171" height="180" viewBox="0 0 171 180" fill="none" xmlns="http://www.w3.org/2000/svg">
<path d="M83.7984 19.9685C81.3375 20.4045 79.7062 21.1217 77.0203 22.9076C75.164 24.131 73.8562 24.8763 72.6609 25.3685C71.9297 25.6638 70.9172 25.8326 68.2734 26.0857C65.1375 26.381 62.9859 27.0138 60.8765 28.2654C59.9484 28.8138 58.95 29.6013 56.9531 31.3451C55.1672 32.892 54.7031 33.131 53.1703 33.2435C51.3422 33.3842 48.6562 33.8482 47.3203 34.2701C44.7187 35.0857 42.1734 36.7592 40.4718 38.7701C38.7843 40.767 37.5468 44.4935 36.2672 51.4545C35.5359 55.4763 35.1703 56.0951 31.4297 59.8357C28.3218 62.9295 27.4359 64.0967 26.0718 66.867C24.5812 69.9326 23.9765 72.3795 23.9906 75.3748C24.0047 78.7217 24.8203 81.7592 27 86.5545C29.5172 92.1232 30.9093 94.0779 33.6093 95.892C35.6484 97.256 38.3062 97.8748 41.2453 97.6779C44.7047 97.4389 46.9265 96.342 50.6672 93.0373C53.3812 90.6467 53.2547 90.6748 58.7812 90.5623C62.8734 90.4639 63.4078 90.4217 65.7422 90.0139C68.864 89.4654 70.7625 89.4232 72.1406 89.8451C72.6469 89.9998 73.9125 90.5482 74.9531 91.0685C75.9937 91.5748 78.0187 92.4748 79.4531 93.0514C83.8687 94.8373 84.5297 95.231 86.85 97.4389C88.0453 98.592 89.325 99.6607 90.0422 100.125C90.7031 100.547 91.2515 100.969 91.2515 101.067C91.2656 101.165 91.5609 101.784 91.9265 102.459C92.8828 104.175 93.6281 104.611 94.2328 103.781C94.5984 103.275 94.725 102.656 94.4719 102.656C94.3594 102.656 94.0219 102.431 93.7125 102.15C93.2203 101.7 93.2062 101.658 93.5156 101.728C95.5687 102.192 97.2844 102.178 98.8734 101.686C99.3937 101.517 100.744 100.969 101.897 100.462C106.439 98.4514 107.873 98.156 112.247 98.4092C118.645 98.7889 120.502 98.5498 122.639 97.1154C123.033 96.8482 124.537 95.4701 125.972 94.0498C128.362 91.7014 128.714 91.406 129.867 90.8154C130.57 90.4498 132.159 89.8451 133.453 89.4513C136.547 88.481 137.77 87.9888 139.064 87.1451C141.637 85.4717 143.55 82.7717 144.759 79.1295C145.322 77.3998 145.448 76.4154 145.364 74.067C145.28 71.5498 144.956 70.1576 143.944 68.1326C142.875 65.981 141.553 64.6873 139.289 63.5482C136.673 62.2545 134.705 62.1279 131.062 63.0701C127.898 63.8717 125.677 66.1076 124.875 69.2717C124.537 70.5935 124.509 72.5623 124.805 73.7576C125.044 74.7279 126.394 77.4701 127.153 78.5248C127.702 79.3123 129.431 80.7185 130.261 81.0701C131.527 81.5904 133.144 81.1545 133.903 80.0857C134.873 78.7076 135.844 75.9654 135.844 74.6013C135.844 73.9826 135.38 72.3935 135.098 72.0279C135.028 71.9435 134.789 71.8592 134.564 71.8592C134.072 71.8592 132.202 72.4779 131.344 72.9279C130.809 73.1951 130.767 73.2513 131.062 73.2513C131.259 73.2513 131.794 73.167 132.258 73.0545C133.594 72.731 133.678 72.7451 133.875 73.4763C134.283 74.9388 133.453 76.6685 132.356 76.6404C131.906 76.6263 131.062 76.2467 130.233 75.7123C129.586 75.2763 129.361 75.0373 129.22 74.6013C128.883 73.631 128.995 72.3654 129.53 70.9451L130.008 69.6795L131.133 69.0045C133.2 67.781 134.564 67.4857 136.477 67.8513C138.544 68.2451 140.02 69.342 140.625 70.9592C141.075 72.1967 141.37 74.1654 141.272 75.3467C140.948 78.8482 138.67 82.0263 135.239 83.742C134.564 84.0935 132.989 84.6842 131.752 85.0779C127.645 86.3857 126.127 87.2154 123.539 89.5498C120.952 91.8701 120.305 92.3904 119.32 92.9107L118.336 93.431L113.414 93.5295C108.267 93.6279 107.662 93.6982 104.836 94.4154C103.092 94.8514 102.037 95.217 99.3094 96.3139C97.3125 97.1154 97.0875 97.1717 96.0609 97.1717C94.7953 97.1717 93.3609 96.9045 92.2359 96.4685C91.35 96.117 90.5344 95.5264 88.8047 93.9373C88.1156 93.3045 87.1734 92.531 86.7094 92.2217C85.3875 91.3076 82.9547 90.2389 80.0015 89.2404C78.4828 88.7342 76.3031 87.9185 75.15 87.4123C72.2953 86.1748 72.1265 86.1326 69.75 86.1467C68.0344 86.1607 67.3594 86.231 65.5312 86.5967C62.4375 87.2295 60.6656 87.4685 59.175 87.4685C57.375 87.4826 54.3937 87.7076 53.7047 87.8904C53.3812 87.9748 53.114 88.031 53.0859 88.0029C53.0578 87.9748 53.1281 87.5529 53.2547 87.0467C53.3953 86.4279 53.4375 85.7951 53.3812 85.0779C53.2406 83.1795 53.1281 82.406 53.0015 82.4904C52.9453 82.5185 52.7203 82.2232 52.5234 81.8295C51.975 80.7607 50.9484 79.8045 49.6828 79.2138C47.3343 78.0888 44.339 78.5248 42.6656 80.2545C42.0047 80.9295 41.864 81.4779 42.3 81.5904C42.4547 81.6326 43.1015 81.492 43.7484 81.267C46.2515 80.4373 47.9672 80.4373 49.6265 81.281C51.1312 82.0404 51.4968 82.7013 51.4968 84.642C51.4968 85.8654 51.2297 86.9482 50.5547 88.3826C49.9781 89.6342 49.9218 89.7045 48.5718 90.7592C45.1406 93.4873 43.5093 94.2185 40.9922 94.2185C39.7828 94.2185 37.8281 93.8951 36.7593 93.5154C35.1 92.9389 33.2437 91.1951 32.0906 89.156C31.275 87.7076 28.9968 82.5045 28.4062 80.7185C27.8015 78.8763 27.3375 76.8935 27.2109 75.4451C27.014 73.3076 27.8297 70.0029 29.1656 67.6123C30.15 65.8123 31.1062 64.6592 33.1875 62.7045C36.9562 59.1748 38.2218 56.8685 39.0234 51.9888C39.9234 46.4623 40.7812 43.3263 41.7937 41.7654C43.2703 39.5295 46.8 36.731 48.8672 36.1545C49.1765 36.0701 50.6672 35.8732 52.1859 35.7185C55.35 35.3951 56.3344 35.1701 57.2625 34.5795C58.0922 34.0451 59.2172 32.8357 60.0328 31.6123C60.5953 30.7545 60.7219 30.642 61.8609 30.1217C64.2094 29.0107 65.7422 28.6592 69.3562 28.406C72.9844 28.1529 74.489 27.6185 77.9906 25.2982C81.3515 23.0763 82.7578 22.5279 85.5844 22.4013C89.0578 22.2326 91.139 22.9638 96.1312 26.0435C100.378 28.6732 101.306 29.0388 106.172 30.0092C111.98 31.1623 113.048 31.6123 115.242 33.8201C116.03 34.5935 117.337 36.0279 118.181 37.0263C120.445 39.6982 122.006 41.0623 126.942 44.6342C130.753 47.4045 132.258 49.2467 132.947 52.0451C133.073 52.5513 133.27 54.4217 133.383 56.1935C133.622 59.6951 133.608 59.667 134.044 60.6232C134.409 61.4529 134.873 61.7482 135.267 61.3967C135.577 61.1154 136.631 58.556 137.123 56.8826C137.419 55.9123 137.461 55.4482 137.461 53.5779C137.461 51.6654 137.419 51.2717 137.137 50.4279C136.139 47.4467 134.508 45.042 132.202 43.1295C131.527 42.5951 129.628 41.2451 127.955 40.1342C124.031 37.5467 123.314 36.956 119.531 33.2576C114.764 28.6029 113.864 28.1529 106.847 26.9998C101.63 26.142 101.067 25.931 96.4265 23.1748C93.9094 21.6701 91.9125 20.7279 90.2531 20.2357C89.4234 19.9967 88.7765 19.9263 86.8359 19.8842C85.5281 19.8701 84.15 19.8982 83.7984 19.9685Z" fill="white"/>
<path d="M75.2344 32.5683C71.5922 33.0887 67.7531 34.5371 64.7015 36.5199C63.8859 37.0543 63.5625 37.3215 63.675 37.434C63.7734 37.5324 64.5328 37.2793 66.1922 36.5621C71.325 34.3683 73.7156 33.7637 77.7656 33.6512C80.8453 33.5527 81.9562 33.7074 83.3765 34.3824C84.8531 35.0855 85.5281 35.8449 86.4281 37.7996C88.0594 41.3012 88.5375 42.0324 89.8875 43.073C91.8562 44.5637 94.3031 44.9996 100.687 44.9996C109.448 45.0137 113.414 45.5621 116.606 47.2074C118.069 47.9527 119.278 49.148 119.559 50.1043C119.798 50.934 119.756 52.7762 119.475 53.8027C118.969 55.7152 118.097 57.4027 115.762 60.9605C113.245 64.8137 112.317 66.684 111.881 68.7933C111.586 70.2277 111.6 71.2683 111.952 74.0808C112.373 77.4418 112.205 78.848 111.291 79.8746C111.009 80.1699 110.587 80.4933 110.334 80.5777C109.758 80.7605 108.028 80.5777 105.581 80.0855C103.88 79.734 101.672 79.6074 101.672 79.8605C101.672 80.1558 103.345 81.2246 104.695 81.7871C110.264 84.0793 112.416 83.8824 113.836 80.9574C114.82 78.8762 114.975 77.0762 114.469 73.4762C113.836 69.0465 114.159 67.8933 117.436 62.7183C119.194 59.934 120.628 57.1355 121.247 55.2793C121.669 54.0137 121.697 53.8027 121.711 51.8902C121.711 49.8793 121.711 49.8371 121.247 48.8808C120.656 47.6152 120.009 46.8418 118.898 46.0543C117.098 44.7605 114.68 43.8746 111.656 43.3824C109.617 43.059 105.427 42.8621 102.445 42.9605C99.7172 43.059 95.3859 42.8762 93.8672 42.609C91.7719 42.2293 90.4359 41.5121 89.5078 40.2465C89.2406 39.8808 88.5656 38.6715 88.0031 37.5465C87.1453 35.8027 86.864 35.3808 86.0765 34.5933C84.9797 33.5105 83.7844 32.8777 82.2375 32.5683C80.8875 32.2871 77.1469 32.2871 75.2344 32.5683Z" fill="white"/>
<path d="M55.6874 44.0016C52.0312 45.1828 49.5702 47.4609 48.3749 50.7375C47.8265 52.2563 47.728 53.0859 48.0093 53.7891C48.3468 54.5766 48.628 54.8438 49.1484 54.8438C49.7812 54.8438 50.189 54.4922 53.6484 50.9906C57.0655 47.5031 57.6984 47.0109 60.2437 45.8859C62.0999 45.0563 63.1405 44.4797 63.1405 44.2828C63.1405 44.1 63.0421 44.1141 61.214 44.5781C59.0484 45.1406 57.0937 46.0828 55.4765 47.3625C54.7874 47.8969 53.0999 49.4438 51.7499 50.7797C50.0202 52.4813 49.2749 53.1422 49.2468 52.9734C49.1624 52.5797 49.6265 51.1875 50.1749 50.1328C50.8077 48.9234 52.2421 47.3906 53.6343 46.4203C54.2109 46.0266 55.4624 45.3234 56.4187 44.8594C57.389 44.4094 58.2609 43.9313 58.3593 43.8047C58.6687 43.425 57.0655 43.5375 55.6874 44.0016Z" fill="white"/>
<path d="M59.3437 53.7609C59.0765 53.9016 58.8093 54.4078 58.1484 56.0672C57.6702 57.2344 56.9812 58.7109 56.5874 59.3578C55.6312 60.975 53.564 63.0422 52.2281 63.7453C48.5718 65.6437 44.2124 64.6031 41.6812 61.2422C41.2452 60.6656 40.8374 60.1875 40.7812 60.1875C40.7249 60.1875 40.7249 60.4828 40.7952 60.8344C41.1609 62.8031 43.3265 64.9406 45.9562 65.925C47.2077 66.3891 49.7812 66.5156 51.2437 66.1781C54.4781 65.4187 57.2484 62.7328 59.1327 58.5422C59.4843 57.7969 59.7796 57.2766 59.8218 57.3891C59.8499 57.5016 60.0187 58.0641 60.1874 58.6406C60.6796 60.3141 61.664 62.0859 62.6624 63.0844C63.1406 63.5625 63.6609 63.9984 63.8156 64.0406C64.0687 64.125 63.9702 64.2094 63.2109 64.6031C61.0734 65.7281 59.5546 67.3594 58.3452 69.8203C57.7124 71.1422 56.9531 73.5047 56.9531 74.2078C56.9531 74.5031 56.9109 74.4891 56.2218 73.9687C53.9999 72.2812 51.3984 71.5078 48.3327 71.6062C47.5031 71.6344 46.8281 71.6062 46.8281 71.5641C46.8281 71.5078 46.9265 71.2266 47.0531 70.9312C47.3765 70.1719 47.4046 68.4281 47.0812 68.1187C46.7718 67.8094 46.589 67.95 46.1812 68.8641C45.4218 70.5797 43.9593 72.225 42.7359 72.7312C42.3562 72.8859 42.0187 73.1391 41.9765 73.2797C41.8499 73.6594 42.3843 74.7422 42.8202 75.0375C43.1859 75.2766 43.2281 75.2766 43.6359 75.0516C44.4656 74.5734 46.6874 74.0812 48.4031 74.0109C50.4281 73.9125 52.1718 74.2641 53.8452 75.1078C55.1671 75.7687 56.6015 77.1891 57.1781 78.3984C57.5718 79.2562 58.0077 79.7344 58.3593 79.7344C58.4999 79.7344 58.7109 79.4531 58.9077 79.0172C59.1749 78.4547 59.2171 78.2016 59.1187 77.7937C58.8656 76.725 58.9921 74.5453 59.3859 73.0969C60.3281 69.5812 62.3531 67.2609 65.6296 65.925C66.5999 65.5312 66.9093 65.475 68.2734 65.4328C69.1312 65.4187 69.9468 65.3625 70.1015 65.3344C70.4531 65.25 70.8749 64.4203 70.8749 63.8297C70.8749 63.4781 70.7906 63.3797 70.3546 63.1828C69.9327 63.0141 69.6093 63 68.6671 63.0984C67.3312 63.2391 66.5577 63.0984 65.3624 62.4937C64.2374 61.9312 63.8718 61.6219 63.2109 60.7219C62.4093 59.6391 61.8327 58.1062 61.3827 55.8703C61.1718 54.8859 60.9046 53.9578 60.7921 53.8172C60.5249 53.5359 59.8499 53.5078 59.3437 53.7609Z" fill="white"/>
<path d="M72.7031 91.1671C72.7031 91.3077 73.4906 93.1218 73.9266 94.0077C75.2906 96.7358 77.4141 99.0983 79.3828 100.069C80.7188 100.73 82.1953 100.884 82.9266 100.42C83.4188 100.111 84.1078 99.1546 84.3469 98.4515C84.6281 97.6358 84.5016 97.5936 81.9984 97.6218C79.8609 97.664 79.7906 97.6499 79.0313 97.2843C77.9063 96.7358 76.5141 95.5265 75.2906 94.0358C74.1938 92.728 72.7031 91.0686 72.7031 91.1671Z" fill="white"/>
<path d="M59.6953 92.1941C60.4547 92.855 61.7625 93.3753 63.0422 93.5441C64.1391 93.6847 64.4063 93.6706 65.911 93.3753C66.825 93.1925 67.95 93.0378 68.4141 93.0378C70.0735 93.0519 70.5657 93.6847 71.4235 96.9894C72.6469 101.644 73.5469 103.107 76.2188 104.822C77.8078 105.835 78.5532 106.622 78.7641 107.494C78.975 108.38 78.9891 110.419 78.8344 115.453C78.7219 118.871 78.736 119.433 78.9469 120.235C79.3547 121.852 80.2547 122.921 81.0282 122.724C81.9282 122.499 83.1375 120.46 84.0797 117.605C85.1344 114.469 85.1485 114.3 85.1485 108.493C85.1485 102.952 85.1766 102.727 85.8797 101.11C86.3297 100.083 86.5125 99.2816 86.2875 99.2816C86.0344 99.2816 85.7532 99.5488 85.036 100.421C83.911 101.841 83.8828 102.024 83.8688 107.649C83.8688 112.486 83.8547 112.599 83.5032 113.977C83.025 115.763 82.5047 117.225 81.8719 118.477C81.1547 119.925 80.9719 120.164 80.8453 119.911C80.5782 119.433 80.4375 116.789 80.4657 112.711C80.5078 107.958 80.4375 107.227 79.7625 105.975C79.2985 105.132 78.4828 104.4 76.95 103.472C74.3766 101.925 73.8141 101.025 72.2953 96.1175C71.986 95.105 71.5219 93.9378 71.2688 93.5159C70.3688 92.0253 68.85 91.7019 66.0235 92.4331C65.25 92.63 64.35 92.8269 64.0407 92.8831C63.1407 93.0238 61.3547 92.7144 60.3422 92.2503C59.2594 91.7441 59.1469 91.73 59.6953 92.1941Z" fill="white"/>
<path d="M55.5891 93.4174C58.5281 97.1721 61.9734 103.219 63.9844 108.071C65.7422 112.36 67.1484 116.621 67.7109 119.363C67.9781 120.699 68.4703 123.806 68.4141 123.863C68.4 123.877 67.8797 123.146 67.275 122.217C66.2906 120.727 65.8125 120.221 65.8125 120.656C65.8125 120.924 66.9375 122.808 67.8094 124.003C68.6391 125.156 68.6672 125.227 69.0609 127.055C69.2719 128.081 69.5531 129.305 69.6656 129.769C69.7922 130.233 69.8906 130.669 69.8906 130.739C69.8906 130.81 69.6094 131.006 69.2719 131.161L68.6672 131.456L66.2484 129.474C63.3938 127.125 63.4641 127.181 63.3375 127.308C63.1828 127.463 64.8141 129.066 66.5578 130.472C67.9359 131.583 68.0625 131.71 67.8234 131.878C65.6438 133.369 61.3125 136.153 59.0203 137.517C57.4172 138.488 56.1375 139.289 56.1797 139.331C56.3203 139.472 58.4016 138.853 60.2578 138.136C62.6344 137.194 63.9 136.575 66.3047 135.141C68.4141 133.889 69.2438 133.467 73.5469 131.358C78.525 128.939 80.6766 127.364 87.6797 121.008C89.9016 118.997 91.3641 117.816 92.9531 116.747C93.7547 116.199 94.4438 115.763 94.4578 115.791C94.4859 115.819 94.3313 116.142 94.1344 116.522L93.7547 117.211L94.3734 116.635C96.8063 114.371 101.419 111.938 103.289 111.938C103.641 111.938 103.655 111.966 103.57 112.388C103.345 113.527 102.516 114.877 101.039 116.466C100.223 117.338 99.5625 118.097 99.5625 118.153C99.5625 118.196 98.8875 118.828 98.0578 119.531C97.2141 120.249 96.4828 120.924 96.4266 121.022C96.3703 121.121 96.0188 121.416 95.6531 121.655C93.8531 122.864 94.5703 123.188 96.7359 122.133C98.1281 121.458 98.3672 121.289 100.406 119.658C103.528 117.155 105.159 114.652 105.3 112.106C105.356 111.108 105.328 110.897 105.103 110.658C104.597 110.096 104.091 109.941 103.008 109.997L102.009 110.039L103.163 108.956C104.442 107.747 104.442 107.733 106.186 103.008C106.58 101.925 107.058 100.716 107.227 100.308C107.508 99.6893 107.522 99.5487 107.353 99.408C107.044 99.1549 106.397 99.4924 105.356 100.463C104.245 101.503 103.036 103.289 101.953 105.539C100.898 107.705 100.688 108.352 100.688 109.533V110.489L100.097 110.756C99.7734 110.897 99.1828 111.221 98.7891 111.446C98.4094 111.685 97.5656 112.008 96.9328 112.177C94.3313 112.88 92.2219 113.963 90.0844 115.706C89.55 116.142 87.8063 117.746 86.2313 119.25C79.5094 125.649 77.7656 127.013 73.6594 129.052C72.5063 129.628 71.5359 130.078 71.4938 130.05C71.4656 130.008 71.7609 129.642 72.1547 129.221C72.5484 128.799 72.9281 128.306 72.9984 128.11C73.2797 127.421 73.3219 123.385 73.0688 121.669C72.3094 116.592 68.8219 108.436 64.7719 102.305C62.8734 99.4502 61.2 97.3549 59.1328 95.2596C56.925 93.0377 55.7156 92.1096 55.0406 92.1096H54.5625L55.5891 93.4174Z" fill="white"/>
<path d="M58.4297 102.754C57.6984 102.853 57.2344 103.092 57.2344 103.387C57.2344 103.907 57.8109 104.498 58.725 104.906C59.9906 105.482 61.1016 106.228 61.8891 107.029L62.5781 107.732V107.268C62.5781 106.509 61.7344 105.468 60.2156 104.386L59.3156 103.739L59.7797 103.542C60.2859 103.331 60.75 102.965 60.75 102.768C60.75 102.656 59.2594 102.642 58.4297 102.754Z" fill="white"/>
<path d="M62.6484 114.173C59.8359 114.933 56.953 116.564 54.6046 118.744C52.1577 121.008 50.5827 123.862 48.8812 129.079C48.0374 131.667 46.4343 137.433 45.3515 141.722C43.9171 147.487 43.1577 149.85 40.9218 155.531C37.3218 164.7 37.1249 165.304 37.3499 166.472L37.4343 166.894L38.2077 166.162C38.6437 165.769 39.4452 164.742 40.0077 163.898C40.5702 163.04 41.2171 162.112 41.4702 161.803C41.878 161.283 44.564 155.995 44.789 155.25C44.8452 155.053 45.239 154.279 45.6609 153.52C46.5046 152.001 47.3765 149.836 48.3187 146.939C48.6562 145.884 49.2749 144.07 49.6968 142.931C50.189 141.581 50.9624 138.797 51.8905 135.084C53.5218 128.545 54.3093 125.958 55.2093 124.2C56.9812 120.712 60.7921 116.986 64.5187 115.073C66.164 114.229 66.1921 113.99 64.6874 113.948C64.0124 113.92 63.2812 114.004 62.6484 114.173Z" fill="white"/>
<path d="M102.937 117.661C102.937 117.802 103.064 118.392 103.219 118.969C103.373 119.545 103.542 120.417 103.584 120.881L103.683 121.753L103.064 122.414C102.277 123.272 101.63 123.581 100.266 123.778C99.5344 123.891 99.1406 124.017 99.1406 124.13C99.1406 124.453 99.9422 124.734 100.87 124.734C101.911 124.734 102.881 124.313 103.612 123.567L104.077 123.089L105.286 123.413C105.947 123.595 106.552 123.708 106.608 123.666C106.959 123.455 107.072 121.922 106.734 121.922C106.664 121.922 106.481 121.627 106.312 121.261C106.13 120.853 105.525 120.08 104.794 119.32C104.119 118.617 103.472 117.914 103.359 117.731C103.12 117.366 102.937 117.323 102.937 117.661ZM105.37 121.5C105.061 121.556 104.977 121.655 104.962 121.922C104.962 122.358 104.836 122.583 104.484 122.766C104.245 122.892 104.231 122.878 104.428 122.484C104.737 121.88 104.808 121.205 104.653 120.572L104.498 120.023L105.131 120.727L105.764 121.43L105.37 121.5Z" fill="white"/>
<path d="M97.7344 122.991C95.9344 124.805 93.7547 126.759 90.6328 129.375C88.1578 131.442 85.725 133.538 85.2047 134.03C83.3484 135.844 82.0969 137.573 80.8734 140.02C79.8891 141.989 79.5094 143.002 77.7375 148.219C73.5609 160.608 72.4781 162.239 63.8016 169.355C62.4656 170.438 61.3266 171.675 61.3125 172.041C61.3125 172.111 61.65 172.125 62.0578 172.069C63.0563 171.956 64.9828 170.958 67.5 169.298C73.6734 165.192 75.4031 162.323 79.8609 148.725C81.3656 144.141 82.0688 142.355 82.9969 140.709C84.375 138.263 85.7953 136.645 89.5078 133.313C94.0359 129.234 95.8078 127.378 98.1 124.313C99.3375 122.681 100.702 120.375 100.448 120.375C100.378 120.375 99.1688 121.556 97.7344 122.991Z" fill="white"/>
<path d="M96.75 128.25C96.75 128.433 97.1297 129.53 97.5938 130.683C99.0703 134.325 99.6891 137.363 99.5063 140.217C99.3656 142.58 99.3094 142.636 98.5078 141.047C97.9172 139.88 97.7906 139.472 97.5094 137.756C97.3266 136.688 97.1438 135.773 97.1016 135.717C97.0453 135.675 97.0313 136.631 97.0594 137.841C97.0875 139.275 97.0594 140.006 96.9609 139.964C96.1734 139.514 94.5984 138.066 93.9094 137.138C93.6 136.716 93.3188 136.42 93.2766 136.448C93.2344 136.491 93.4172 136.955 93.6703 137.489C94.2188 138.656 95.4 139.866 96.5109 140.414C97.2563 140.766 97.3125 140.836 97.8891 142.059C98.4938 143.325 99.1266 144.056 99.5484 143.972C99.9 143.902 100.378 142.903 100.533 141.891C101.067 138.6 100.252 134.367 98.2969 130.416C97.7625 129.333 97.1859 128.32 97.0313 128.18C96.75 127.927 96.75 127.927 96.75 128.25Z" fill="white"/>
<path d="M92.1234 133.551C91.9546 133.875 91.4062 137.123 91.4062 137.798C91.4062 138.853 90.4218 145.49 89.9718 147.445C89.6765 148.725 89.1562 150.033 88.8328 150.3C88.7203 150.398 88.3687 150.412 87.8203 150.328C86.9765 150.215 84.8249 150.342 82.8984 150.623C82.2937 150.708 81.6468 150.919 81.2109 151.158C80.8312 151.369 80.2687 151.636 79.9874 151.72C79.3687 151.931 79.1578 152.142 79.6781 152.044C80.0156 151.987 80.0296 152.001 79.889 152.283C79.7906 152.437 79.7484 152.578 79.7624 152.592C79.7906 152.592 81.0984 152.69 82.6874 152.789C87.6515 153.126 88.3406 153.253 89.4937 154.026C89.789 154.237 90.1546 154.42 90.2953 154.42C90.6749 154.448 90.7593 154.462 90.9281 154.575C91.0265 154.645 91.1671 154.308 91.3078 153.661C91.7859 151.565 91.8421 150.736 91.7578 147.164C91.6874 144.365 91.7015 143.367 91.8703 142.242C91.9968 141.469 92.1374 140.231 92.1796 139.5C92.2359 138.769 92.4328 137.165 92.6296 135.956C92.8265 134.733 92.9531 133.65 92.8968 133.523C92.7984 133.228 92.2921 133.256 92.1234 133.551Z" fill="white"/>
<path d="M93.375 139.655C93.375 139.711 93.4734 139.993 93.6 140.288C94.3453 142.046 95.1187 145.772 95.2875 148.444C95.4 150.061 95.2312 153.141 95.0484 153.141C94.8516 153.141 94.5422 152.269 94.0641 150.357C93.825 149.372 93.5578 148.5 93.4875 148.43C93.3047 148.247 93.4734 150.483 93.7406 151.805C93.8531 152.339 93.9375 152.804 93.9375 152.818C93.9375 152.832 93.7266 152.775 93.4875 152.705C93.2344 152.635 92.8969 152.579 92.7422 152.579C92.2781 152.579 92.7844 152.832 93.4734 152.944C93.9516 153.014 94.0922 153.113 94.2328 153.436C94.3172 153.675 94.5703 154.041 94.7812 154.266C95.5406 155.082 95.9766 154.435 96.2016 152.199C96.5531 148.824 95.8781 144.493 94.5844 141.68C94.1625 140.752 93.375 139.444 93.375 139.655Z" fill="white"/>
<path d="M85.9359 153.393C85.9219 153.717 85.8937 153.717 84.9797 153.618L84.0234 153.52L84.2906 153.815C84.6141 154.181 85.4016 154.462 85.8656 154.364C86.0906 154.322 86.2031 154.364 86.2031 154.49C86.2031 154.603 86.3859 154.884 86.5969 155.123C86.9625 155.545 87.0047 155.545 87.2297 155.334C87.525 155.039 87.5391 154.687 87.2578 154.687C87.075 154.687 86.6672 154.209 86.1047 153.337C85.95 153.084 85.9359 153.084 85.9359 153.393Z" fill="white"/>
<path d="M87.8344 153.774C87.7922 153.9 87.764 154.182 87.764 154.379C87.7781 154.66 87.8062 154.618 87.8906 154.196C88.0031 153.591 87.989 153.394 87.8344 153.774Z" fill="white"/>
</svg>
