<svg width="21" height="21" viewBox="0 0 21 21" fill="none" xmlns="http://www.w3.org/2000/svg">
<path d="M17.9756 3.0625C16.0314 1.09375 13.4391 0 10.7027 0C5.01398 0 0.405382 4.66667 0.405382 10.4271C0.405382 12.25 0.909448 14.0729 1.77356 15.6042L0.333374 21L5.80608 19.5417C7.31828 20.3438 8.97449 20.7812 10.7027 20.7812C16.3914 20.7812 21 16.1146 21 10.3542C20.928 7.65625 19.9199 5.03125 17.9756 3.0625ZM15.6714 14.1458C15.4553 14.7292 14.4472 15.3125 13.9431 15.3854C13.5111 15.4583 12.935 15.4583 12.3589 15.3125C11.9989 15.1667 11.4948 15.0208 10.9187 14.7292C8.32641 13.6354 6.67019 11.0104 6.52617 10.7917C6.38216 10.6458 5.44604 9.40625 5.44604 8.09375C5.44604 6.78125 6.09412 6.19792 6.31014 5.90625C6.52617 5.61458 6.81421 5.61458 7.03024 5.61458C7.17426 5.61458 7.39028 5.61458 7.5343 5.61458C7.67832 5.61458 7.89435 5.54167 8.11038 6.05208C8.3264 6.5625 8.83047 7.875 8.90248 7.94792C8.97449 8.09375 8.97449 8.23958 8.90248 8.38542C8.83047 8.53125 8.75846 8.67708 8.61444 8.82292C8.47042 8.96875 8.3264 9.1875 8.25439 9.26042C8.11037 9.40625 7.96636 9.55208 8.11038 9.77083C8.2544 10.0625 8.75846 10.8646 9.55056 11.5937C10.5587 12.4687 11.3508 12.7604 11.6388 12.9063C11.9269 13.0521 12.0709 12.9792 12.2149 12.8333C12.3589 12.6875 12.863 12.1042 13.007 11.8125C13.151 11.5208 13.3671 11.5938 13.5831 11.6667C13.7991 11.7396 15.0953 12.3958 15.3113 12.5417C15.5993 12.6875 15.7434 12.7604 15.8154 12.8333C15.8874 13.0521 15.8874 13.5625 15.6714 14.1458Z" fill="white"/>
</svg>
